<svg width="19" height="20" viewBox="0 0 19 20" fill="none" xmlns="http://www.w3.org/2000/svg">
<g clip-path="url(#clip0_329_734)">
<mask id="mask0_329_734" style="mask-type:alpha" maskUnits="userSpaceOnUse" x="0" y="0" width="19" height="20">
<path d="M17.2285 20H2.32658C1.53245 20 0.888672 19.3604 0.888672 18.5714V1.42857C0.888672 0.639594 1.53245 0 2.32658 0H11.9998L18.6665 6.62338V18.5714C18.6665 19.3604 18.0227 20 17.2285 20Z" fill="url(#paint0_linear_329_734)"/>
</mask>
<g mask="url(#mask0_329_734)">
<path d="M17.2285 20H2.32658C1.53245 20 0.888672 19.3604 0.888672 18.5714V1.42857C0.888672 0.639594 1.53245 0 2.32658 0H11.9998L18.6665 6.62338V18.5714C18.6665 19.3604 18.0227 20 17.2285 20Z" fill="url(#paint1_linear_329_734)" fill-opacity="0.4"/>
<g opacity="0.26" filter="url(#filter0_f_329_734)">
<g style="mix-blend-mode:darken" opacity="0.26">
<path d="M15.6604 9.67529H4.02637V15.1298H15.6604V9.67529Z" fill="#E66000"/>
</g>
</g>
<path d="M7.45796 14.1166C7.3891 14.1166 7.3323 14.0944 7.28755 14.0499C7.24624 14.0054 7.22559 13.9507 7.22559 13.8857C7.22559 13.8584 7.23419 13.8242 7.2514 13.7831L8.5681 10.6949C8.59561 10.6334 8.63345 10.5838 8.68169 10.5462C8.73332 10.5051 8.79529 10.4846 8.86757 10.4846H8.91921C8.99149 10.4846 9.05169 10.5051 9.09993 10.5462C9.15156 10.5838 9.1911 10.6334 9.21868 10.6949L10.5354 13.7831C10.5525 13.8242 10.5612 13.8584 10.5612 13.8857C10.5612 13.9507 10.5387 14.0054 10.494 14.0499C10.4527 14.0944 10.3976 14.1166 10.3288 14.1166C10.2806 14.1166 10.2359 14.1046 10.1946 14.0807C10.1567 14.0533 10.1274 14.0174 10.1068 13.9729L9.77117 13.1727H8.01561L7.67999 13.9729C7.65934 14.0174 7.62836 14.0533 7.58705 14.0807C7.54914 14.1046 7.50613 14.1166 7.45796 14.1166ZM8.19633 12.7469H9.59045L8.89339 11.0797L8.19633 12.7469ZM11.9144 14.1166C11.849 14.1166 11.794 14.0944 11.7492 14.0499C11.7044 14.0054 11.6821 13.9507 11.6821 13.8857V10.7206C11.6821 10.6556 11.7044 10.6009 11.7492 10.5564C11.794 10.5086 11.849 10.4846 11.9144 10.4846C11.9799 10.4846 12.0349 10.5086 12.0797 10.5564C12.1278 10.6009 12.152 10.6556 12.152 10.7206V13.8857C12.152 13.9507 12.1278 14.0054 12.0797 14.0499C12.0349 14.0944 11.9799 14.1166 11.9144 14.1166Z" fill="white"/>
<path d="M7.28741 14.0499L7.19135 14.138L7.19313 14.1399L7.19497 14.1417L7.28741 14.0499ZM7.25126 13.7831L7.1309 13.7325L7.1306 13.7332L7.25126 13.7831ZM8.56796 10.6949L8.44848 10.6422L8.44802 10.6432L8.44756 10.6443L8.56796 10.6949ZM8.68155 10.5462L8.76227 10.6483L8.76273 10.6479L8.76318 10.6476L8.68155 10.5462ZM9.09979 10.5462L9.01469 10.6448L9.01848 10.648L9.02247 10.6509L9.09979 10.5462ZM9.21854 10.6949L9.33887 10.6443L9.33841 10.6432L9.33796 10.6422L9.21854 10.6949ZM10.5352 13.7831L10.6559 13.7332L10.6555 13.7325L10.5352 13.7831ZM10.4939 14.0499L10.4014 13.958L10.3996 13.9599L10.3978 13.9617L10.4939 14.0499ZM10.1944 14.0806L10.1175 14.1856L10.1229 14.1895L10.1285 14.1929L10.1944 14.0806ZM10.1066 13.9729L9.98593 14.0229L9.98691 14.0251L9.98796 14.0273L10.1066 13.9729ZM9.77103 13.1727L9.89168 13.1227L9.85815 13.0428H9.77103V13.1727ZM8.01547 13.1727V13.0428H7.92828L7.89475 13.1227L8.01547 13.1727ZM7.67985 13.9729L7.79854 14.0273L7.79952 14.0251L7.8005 14.0229L7.67985 13.9729ZM7.58691 14.0806L7.65704 14.1902L7.65822 14.1895L7.65939 14.1887L7.58691 14.0806ZM8.19619 12.7469L8.07547 12.6971L8.00031 12.8767H8.19619V12.7469ZM9.59031 12.7469V12.8767H9.78613L9.71103 12.6971L9.59031 12.7469ZM8.89325 11.0797L9.01397 11.0299L8.89325 10.7411L8.77253 11.0299L8.89325 11.0797ZM7.45782 13.9867C7.42027 13.9867 7.3978 13.9759 7.37984 13.958L7.19497 14.1417C7.26652 14.2128 7.35764 14.2464 7.45782 14.2464V13.9867ZM7.38346 13.9617C7.36618 13.9432 7.35616 13.9207 7.35616 13.8857H7.09473C7.09473 13.9807 7.12602 14.0677 7.19135 14.138L7.38346 13.9617ZM7.35616 13.8857C7.35616 13.8829 7.35771 13.8669 7.37193 13.833L7.1306 13.7332C7.11039 13.7814 7.09473 13.8338 7.09473 13.8857H7.35616ZM7.37163 13.8338L8.68828 10.7456L8.44756 10.6443L7.1309 13.7325L7.37163 13.8338ZM8.68737 10.7477C8.70724 10.7034 8.7326 10.6715 8.76227 10.6483L8.60077 10.444C8.5341 10.4961 8.48371 10.5634 8.44848 10.6422L8.68737 10.7477ZM8.76318 10.6476C8.78946 10.6267 8.82188 10.6145 8.86743 10.6145V10.3547C8.76841 10.3547 8.67691 10.3836 8.59985 10.4447L8.76318 10.6476ZM8.86743 10.6145H8.91907V10.3547H8.86743V10.6145ZM8.91907 10.6145C8.96475 10.6145 8.99345 10.6267 9.01469 10.6448L9.18482 10.4475C9.10965 10.3836 9.01796 10.3547 8.91907 10.3547V10.6145ZM9.02247 10.6509C9.05462 10.6743 9.08024 10.7055 9.09907 10.7477L9.33796 10.6422C9.30175 10.5612 9.24815 10.4932 9.17704 10.4414L9.02247 10.6509ZM9.09815 10.7456L10.4148 13.8338L10.6555 13.7325L9.33887 10.6443L9.09815 10.7456ZM10.4145 13.833C10.4287 13.8669 10.4303 13.8829 10.4303 13.8857H10.6917C10.6917 13.8338 10.6761 13.7814 10.6559 13.7332L10.4145 13.833ZM10.4303 13.8857C10.4303 13.9175 10.4208 13.9388 10.4014 13.958L10.5863 14.1417C10.6565 14.072 10.6917 13.9838 10.6917 13.8857H10.4303ZM10.3978 13.9617C10.3846 13.976 10.3663 13.9867 10.3287 13.9867V14.2464C10.4287 14.2464 10.5205 14.2127 10.5899 14.138L10.3978 13.9617ZM10.3287 13.9867C10.3034 13.9867 10.2814 13.9807 10.2602 13.9684L10.1285 14.1929C10.19 14.2284 10.2575 14.2464 10.3287 14.2464V13.9867ZM10.2713 13.9756C10.2525 13.962 10.2371 13.9439 10.2253 13.9185L9.98796 14.0273C10.0174 14.0908 10.0606 14.1446 10.1175 14.1856L10.2713 13.9756ZM10.2273 13.923L9.89168 13.1227L9.65031 13.2226L9.98593 14.0229L10.2273 13.923ZM9.77103 13.0428H8.01547V13.3025H9.77103V13.0428ZM7.89475 13.1227L7.55913 13.923L7.8005 14.0229L8.13613 13.2226L7.89475 13.1227ZM7.56116 13.9185C7.5507 13.941 7.53573 13.9584 7.51436 13.9726L7.65939 14.1887C7.72063 14.1482 7.76769 14.0938 7.79854 14.0273L7.56116 13.9185ZM7.51671 13.9711C7.50135 13.9808 7.48305 13.9867 7.45782 13.9867V14.2464C7.52894 14.2464 7.59665 14.2284 7.65704 14.1902L7.51671 13.9711ZM8.19619 12.8767H9.59031V12.617H8.19619V12.8767ZM9.71103 12.6971L9.01397 11.0299L8.77253 11.1295L9.46959 12.7967L9.71103 12.6971ZM8.77253 11.0299L8.07547 12.6971L8.31691 12.7967L9.01397 11.1295L8.77253 11.0299ZM11.7491 14.0499L11.8415 13.958L11.7491 14.0499ZM11.7491 10.5564L11.8415 10.6482L11.8432 10.6466L11.8449 10.6448L11.7491 10.5564ZM12.0795 10.5564L11.9837 10.6448L11.987 10.6483L11.9906 10.6516L12.0795 10.5564ZM12.0795 14.0499L11.9906 13.9547L11.9888 13.9564L11.9871 13.958L12.0795 14.0499ZM11.9143 13.9867C11.8823 13.9867 11.8608 13.9773 11.8415 13.958L11.6566 14.1417C11.7268 14.2114 11.8155 14.2464 11.9143 14.2464V13.9867ZM11.8415 13.958C11.8221 13.9388 11.8127 13.9175 11.8127 13.8857H11.5512C11.5512 13.9838 11.5865 14.072 11.6566 14.1417L11.8415 13.958ZM11.8127 13.8857V10.7206H11.5512V13.8857H11.8127ZM11.8127 10.7206C11.8127 10.6888 11.8221 10.6675 11.8415 10.6482L11.6566 10.4646C11.5865 10.5343 11.5512 10.6225 11.5512 10.7206H11.8127ZM11.8449 10.6448C11.865 10.6232 11.8855 10.6145 11.9143 10.6145V10.3547C11.8123 10.3547 11.7226 10.3939 11.6532 10.468L11.8449 10.6448ZM11.9143 10.6145C11.9431 10.6145 11.9636 10.6232 11.9837 10.6448L12.1753 10.468C12.106 10.3939 12.0163 10.3547 11.9143 10.3547V10.6145ZM11.9906 10.6516C12.0123 10.6716 12.0211 10.6919 12.0211 10.7206H12.2825C12.2825 10.6193 12.2431 10.5301 12.1685 10.4612L11.9906 10.6516ZM12.0211 10.7206V13.8857H12.2825V10.7206H12.0211ZM12.0211 13.8857C12.0211 13.9143 12.0123 13.9347 11.9906 13.9547L12.1685 14.1451C12.2431 14.0762 12.2825 13.987 12.2825 13.8857H12.0211ZM11.9871 13.958C11.9678 13.9773 11.9463 13.9867 11.9143 13.9867V14.2464C12.0131 14.2464 12.1018 14.2114 12.1719 14.1417L11.9871 13.958Z" fill="white"/>
<g filter="url(#filter1_d_329_734)">
<path d="M18.6667 6.62338H13.4379C12.6438 6.62338 12 5.98379 12 5.19481V0L18.6667 6.62338Z" fill="url(#paint2_linear_329_734)" fill-opacity="0.4"/>
</g>
</g>
</g>
<defs>
<filter id="filter0_f_329_734" x="-34.9736" y="-29.3247" width="89.6338" height="83.4546" filterUnits="userSpaceOnUse" color-interpolation-filters="sRGB">
<feFlood flood-opacity="0" result="BackgroundImageFix"/>
<feBlend mode="normal" in="SourceGraphic" in2="BackgroundImageFix" result="shape"/>
<feGaussianBlur stdDeviation="19.5" result="effect1_foregroundBlur_329_734"/>
</filter>
<filter id="filter1_d_329_734" x="-11" y="-24" width="56.667" height="56.6234" filterUnits="userSpaceOnUse" color-interpolation-filters="sRGB">
<feFlood flood-opacity="0" result="BackgroundImageFix"/>
<feColorMatrix in="SourceAlpha" type="matrix" values="0 0 0 0 0 0 0 0 0 0 0 0 0 0 0 0 0 0 127 0" result="hardAlpha"/>
<feOffset dx="2" dy="1"/>
<feGaussianBlur stdDeviation="12.5"/>
<feColorMatrix type="matrix" values="0 0 0 0 0 0 0 0 0 0 0 0 0 0 0 0 0 0 0.33 0"/>
<feBlend mode="normal" in2="BackgroundImageFix" result="effect1_dropShadow_329_734"/>
<feBlend mode="normal" in="SourceGraphic" in2="effect1_dropShadow_329_734" result="shape"/>
</filter>
<linearGradient id="paint0_linear_329_734" x1="9.77756" y1="0" x2="9.77756" y2="20" gradientUnits="userSpaceOnUse">
<stop stop-color="#FF7979"/>
<stop offset="1" stop-color="#E85555"/>
</linearGradient>
<linearGradient id="paint1_linear_329_734" x1="9.77756" y1="0" x2="9.77756" y2="20" gradientUnits="userSpaceOnUse">
<stop stop-color="#FFA216"/>
<stop offset="1" stop-color="#EF8100"/>
</linearGradient>
<linearGradient id="paint2_linear_329_734" x1="15.3333" y1="0" x2="15.3333" y2="6.62338" gradientUnits="userSpaceOnUse">
<stop stop-color="#FF7A1B"/>
<stop offset="1" stop-color="#E86100"/>
</linearGradient>
<clipPath id="clip0_329_734">
<rect width="17.7778" height="20" fill="white" transform="translate(0.888672)"/>
</clipPath>
</defs>
</svg>
