<svg width="19" height="20" viewBox="0 0 19 20" fill="none" xmlns="http://www.w3.org/2000/svg">
<g clip-path="url(#clip0_329_745)">
<mask id="mask0_329_745" style="mask-type:alpha" maskUnits="userSpaceOnUse" x="0" y="0" width="19" height="20">
<path d="M17.0069 20H2.1049C1.31077 20 0.666992 19.3604 0.666992 18.5714V1.42857C0.666992 0.639594 1.31077 0 2.1049 0H11.7781L18.4448 6.62338V18.5714C18.4448 19.3604 17.801 20 17.0069 20Z" fill="url(#paint0_linear_329_745)"/>
</mask>
<g mask="url(#mask0_329_745)">
<path d="M17.0069 20H2.1049C1.31077 20 0.666992 19.3604 0.666992 18.5714V1.42857C0.666992 0.639594 1.31077 0 2.1049 0H11.7781L18.4448 6.62338V18.5714C18.4448 19.3604 17.801 20 17.0069 20Z" fill="url(#paint1_linear_329_745)" fill-opacity="0.4"/>
<g opacity="0.2" filter="url(#filter0_f_329_745)">
<g style="mix-blend-mode:darken" opacity="0.2">
<path d="M15.4387 9.67505H3.80469V15.1296H15.4387V9.67505Z" fill="#780AAF"/>
</g>
</g>
<path d="M5.34368 14.1173C5.27484 14.1173 5.21804 14.0951 5.17329 14.0506C5.13198 14.0061 5.11133 13.9515 5.11133 13.8865C5.11133 13.8591 5.11994 13.8249 5.13714 13.7839L6.45381 10.6957C6.48135 10.6341 6.51922 10.5845 6.56741 10.5469C6.61904 10.5059 6.681 10.4854 6.75329 10.4854H6.80492C6.87721 10.4854 6.93745 10.5059 6.98564 10.5469C7.03728 10.5845 7.07686 10.6341 7.1044 10.6957L8.42105 13.7839C8.43831 13.8249 8.44687 13.8591 8.44687 13.8865C8.44687 13.9515 8.42452 14.0061 8.37975 14.0506C8.33844 14.0951 8.28341 14.1173 8.21452 14.1173C8.16635 14.1173 8.12158 14.1054 8.08027 14.0814C8.04243 14.0541 8.01315 14.0181 7.99249 13.9737L7.65687 13.1734H5.90133L5.56571 13.9737C5.54505 14.0181 5.51407 14.0541 5.47277 14.0814C5.4349 14.1054 5.39187 14.1173 5.34368 14.1173ZM6.08205 12.7476H7.47615L6.77911 11.0804L6.08205 12.7476ZM10.575 14.1173C10.4339 14.1173 10.3271 14.0387 10.2548 13.8813L8.97949 10.8085C8.96916 10.7812 8.96399 10.7521 8.96399 10.7213C8.96399 10.6495 8.98465 10.5931 9.02596 10.552C9.06726 10.5076 9.12406 10.4854 9.19635 10.4854C9.24452 10.4854 9.28759 10.5007 9.32543 10.5315C9.36674 10.5589 9.39772 10.5965 9.41837 10.6444L10.6318 13.6505L11.8452 10.6444C11.8658 10.5965 11.8951 10.5589 11.9329 10.5315C11.9743 10.5007 12.019 10.4854 12.0672 10.4854C12.1395 10.4854 12.1963 10.5076 12.2376 10.552C12.2789 10.5931 12.2996 10.6495 12.2996 10.7213C12.2996 10.7521 12.2944 10.7812 12.2841 10.8085L11.0087 13.8813C10.9364 14.0387 10.8297 14.1173 10.6886 14.1173H10.575ZM13.5198 14.1173C13.4545 14.1173 13.3994 14.0951 13.3546 14.0506C13.3099 14.0061 13.2875 13.9515 13.2875 13.8865V10.7213C13.2875 10.6563 13.3099 10.6017 13.3546 10.5572C13.3994 10.5093 13.4545 10.4854 13.5198 10.4854C13.5852 10.4854 13.6403 10.5093 13.685 10.5572C13.7333 10.6017 13.7573 10.6563 13.7573 10.7213V13.8865C13.7573 13.9515 13.7333 14.0061 13.685 14.0506C13.6403 14.0951 13.5852 14.1173 13.5198 14.1173Z" fill="white"/>
<path d="M5.17315 14.0504L5.0771 14.1385L5.07887 14.1404L5.08072 14.1422L5.17315 14.0504ZM5.137 13.7836L5.01664 13.733L5.01634 13.7337L5.137 13.7836ZM6.45367 10.6954L6.33422 10.6427L6.33375 10.6437L6.33331 10.6448L6.45367 10.6954ZM6.56727 10.5467L6.64802 10.6488L6.64848 10.6484L6.64893 10.6481L6.56727 10.5467ZM6.9855 10.5467L6.90043 10.6453L6.9042 10.6485L6.9082 10.6514L6.9855 10.5467ZM7.10426 10.6954L7.22464 10.6448L7.22418 10.6437L7.22372 10.6427L7.10426 10.6954ZM8.42091 13.7836L8.54157 13.7337L8.54131 13.733L8.42091 13.7836ZM8.37961 14.0504L8.28719 13.9585L8.28536 13.9604L8.28359 13.9622L8.37961 14.0504ZM8.08013 14.0811L8.00327 14.1861L8.00856 14.19L8.01425 14.1933L8.08013 14.0811ZM7.99235 13.9734L7.8717 14.0233L7.87268 14.0256L7.87366 14.0278L7.99235 13.9734ZM7.65673 13.1731L7.77738 13.1232L7.74392 13.0433H7.65673V13.1731ZM5.90119 13.1731V13.0433H5.81404L5.78052 13.1232L5.90119 13.1731ZM5.56557 13.9734L5.68425 14.0278L5.68529 14.0256L5.68623 14.0233L5.56557 13.9734ZM5.47263 14.0811L5.5428 14.1907L5.54398 14.19L5.54514 14.1892L5.47263 14.0811ZM6.08191 12.7474L5.96119 12.6976L5.88606 12.8772H6.08191V12.7474ZM7.47601 12.7474V12.8772H7.67189L7.59673 12.6976L7.47601 12.7474ZM6.77897 11.0802L6.89968 11.0304L6.77897 10.7416L6.65825 11.0304L6.77897 11.0802ZM5.34354 13.9872C5.306 13.9872 5.28354 13.9764 5.26558 13.9585L5.08072 14.1422C5.15225 14.2133 5.24338 14.2469 5.34354 14.2469V13.9872ZM5.2692 13.9622C5.25192 13.9437 5.24191 13.9212 5.24191 13.8862H4.98047C4.98047 13.9812 5.01176 14.0681 5.0771 14.1385L5.2692 13.9622ZM5.24191 13.8862C5.24191 13.8834 5.24346 13.8674 5.25767 13.8335L5.01634 13.7337C4.99613 13.7818 4.98047 13.8343 4.98047 13.8862H5.24191ZM5.25737 13.8342L6.57404 10.7461L6.33331 10.6448L5.01664 13.733L5.25737 13.8342ZM6.57312 10.7481C6.59295 10.7039 6.61831 10.672 6.64802 10.6488L6.48651 10.4445C6.41983 10.4966 6.36948 10.5639 6.33422 10.6427L6.57312 10.7481ZM6.64893 10.6481C6.67518 10.6272 6.70759 10.615 6.75315 10.615V10.3552C6.65413 10.3552 6.56262 10.3841 6.48561 10.4452L6.64893 10.6481ZM6.75315 10.615H6.80478V10.3552H6.75315V10.615ZM6.80478 10.615C6.85048 10.615 6.87921 10.6272 6.90043 10.6453L7.07057 10.448C6.99541 10.3841 6.90367 10.3552 6.80478 10.3552V10.615ZM6.9082 10.6514C6.94037 10.6748 6.96595 10.706 6.98481 10.7481L7.22372 10.6427C7.18749 10.5617 7.1339 10.4937 7.0628 10.4419L6.9082 10.6514ZM6.98389 10.7461L8.30059 13.8342L8.54131 13.733L7.22464 10.6448L6.98389 10.7461ZM8.30026 13.8335C8.31444 13.8674 8.31601 13.8834 8.31601 13.8862H8.57745C8.57745 13.8343 8.56183 13.7818 8.54157 13.7337L8.30026 13.8335ZM8.31601 13.8862C8.31601 13.918 8.30653 13.9393 8.28719 13.9585L8.47202 14.1422C8.54222 14.0725 8.57745 13.9843 8.57745 13.8862H8.31601ZM8.28359 13.9622C8.27039 13.9765 8.25202 13.9872 8.21438 13.9872V14.2469C8.31444 14.2469 8.40627 14.2131 8.47568 14.1385L8.28359 13.9622ZM8.21438 13.9872C8.18915 13.9872 8.16719 13.9812 8.14601 13.9689L8.01425 14.1933C8.07575 14.2289 8.14327 14.2469 8.21438 14.2469V13.9872ZM8.15706 13.9761C8.13817 13.9625 8.12287 13.9444 8.11104 13.919L7.87366 14.0278C7.9032 14.0913 7.9464 14.1451 8.00327 14.1861L8.15706 13.9761ZM8.113 13.9235L7.77738 13.1232L7.53608 13.2231L7.8717 14.0233L8.113 13.9235ZM7.65673 13.0433H5.90119V13.303H7.65673V13.0433ZM5.78052 13.1232L5.4449 13.9235L5.68623 14.0233L6.02185 13.2231L5.78052 13.1232ZM5.44688 13.919C5.43642 13.9415 5.4215 13.9589 5.40012 13.9731L5.54514 14.1892C5.60637 14.1487 5.65341 14.0943 5.68425 14.0278L5.44688 13.919ZM5.40244 13.9716C5.38711 13.9813 5.36878 13.9872 5.34354 13.9872V14.2469C5.41468 14.2469 5.48241 14.2289 5.5428 14.1907L5.40244 13.9716ZM6.08191 12.8772H7.47601V12.6175H6.08191V12.8772ZM7.59673 12.6976L6.89968 11.0304L6.65825 11.13L7.35529 12.7972L7.59673 12.6976ZM6.65825 11.0304L5.96119 12.6976L6.20263 12.7972L6.89968 11.13L6.65825 11.0304ZM10.2547 13.8811L10.1339 13.9305L10.1348 13.9328L10.1358 13.935L10.2547 13.8811ZM8.97935 10.8083L8.85693 10.8539L8.85771 10.8559L8.8585 10.8578L8.97935 10.8083ZM9.02582 10.5518L9.11823 10.6436L9.12006 10.6418L9.12189 10.6399L9.02582 10.5518ZM9.32529 10.5313L9.24248 10.6318L9.24745 10.6358L9.25281 10.6393L9.32529 10.5313ZM9.41823 10.6441L9.53954 10.5958L9.53895 10.5944L9.53836 10.593L9.41823 10.6441ZM10.6316 13.6502L10.5103 13.6985L10.6316 13.9991L10.7529 13.6985L10.6316 13.6502ZM11.845 10.6441L11.7249 10.593L11.7242 10.5944L11.7237 10.5958L11.845 10.6441ZM11.9328 10.5313L12.0097 10.6363L12.0105 10.6357L12.0112 10.6352L11.9328 10.5313ZM12.2374 10.5518L12.1414 10.6399L12.1431 10.6418L12.145 10.6436L12.2374 10.5518ZM12.2839 10.8083L12.4048 10.8578L12.4056 10.8559L12.4063 10.8539L12.2839 10.8083ZM11.0086 13.8811L11.1275 13.935L11.1285 13.9328L11.1294 13.9305L11.0086 13.8811ZM10.5748 13.9872C10.5305 13.9872 10.4962 13.9754 10.4669 13.9537C10.4359 13.9309 10.4033 13.8918 10.3736 13.8271L10.1358 13.935C10.1784 14.0276 10.2353 14.1065 10.311 14.1624C10.3884 14.2194 10.478 14.2469 10.5748 14.2469V13.9872ZM10.3756 13.8316L9.10019 10.7588L8.8585 10.8578L10.1339 13.9305L10.3756 13.8316ZM9.10176 10.7627C9.09719 10.7507 9.09457 10.7371 9.09457 10.7211H8.83314C8.83314 10.7666 8.84085 10.8112 8.85693 10.8539L9.10176 10.7627ZM9.09457 10.7211C9.09457 10.675 9.10699 10.6548 9.11823 10.6436L8.9334 10.46C8.86202 10.5309 8.83314 10.6235 8.83314 10.7211H9.09457ZM9.12189 10.6399C9.13379 10.627 9.15301 10.615 9.19621 10.615V10.3552C9.09484 10.3552 9.00046 10.3876 8.92974 10.4637L9.12189 10.6399ZM9.19621 10.615C9.21372 10.615 9.22765 10.6196 9.24248 10.6318L9.40804 10.4307C9.34725 10.3813 9.2751 10.3552 9.19621 10.3552V10.615ZM9.25281 10.6393C9.27176 10.6519 9.2868 10.6692 9.2981 10.6953L9.53836 10.593C9.5083 10.5233 9.46144 10.4654 9.39778 10.4232L9.25281 10.6393ZM9.29693 10.6924L10.5103 13.6985L10.7529 13.6019L9.53954 10.5958L9.29693 10.6924ZM10.7529 13.6985L11.9663 10.6924L11.7237 10.5958L10.5103 13.6019L10.7529 13.6985ZM11.9652 10.6953C11.9777 10.6663 11.9931 10.6483 12.0097 10.6363L11.8559 10.4263C11.7968 10.4689 11.7537 10.5262 11.7249 10.593L11.9652 10.6953ZM12.0112 10.6352C12.0316 10.62 12.0492 10.615 12.0671 10.615V10.3552C11.9885 10.3552 11.9166 10.381 11.8544 10.4274L12.0112 10.6352ZM12.0671 10.615C12.1103 10.615 12.1295 10.627 12.1414 10.6399L12.3335 10.4637C12.2628 10.3876 12.1684 10.3552 12.0671 10.3552V10.615ZM12.145 10.6436C12.1563 10.6548 12.1687 10.675 12.1687 10.7211H12.4301C12.4301 10.6235 12.4012 10.5309 12.3299 10.46L12.145 10.6436ZM12.1687 10.7211C12.1687 10.7371 12.1661 10.7507 12.1615 10.7627L12.4063 10.8539C12.4224 10.8112 12.4301 10.7666 12.4301 10.7211H12.1687ZM12.1631 10.7588L10.8877 13.8316L11.1294 13.9305L12.4048 10.8578L12.1631 10.7588ZM10.8897 13.8271C10.8599 13.8918 10.8274 13.9309 10.7964 13.9537C10.7671 13.9754 10.7328 13.9872 10.6884 13.9872V14.2469C10.7852 14.2469 10.8748 14.2194 10.9522 14.1624C11.028 14.1065 11.0849 14.0276 11.1275 13.935L10.8897 13.8271ZM10.6884 13.9872H10.5748V14.2469H10.6884V13.9872ZM13.3544 14.0504L13.4469 13.9585L13.3544 14.0504ZM13.3544 10.5569L13.4469 10.6487L13.4486 10.647L13.4503 10.6453L13.3544 10.5569ZM13.6849 10.5569L13.5891 10.6453L13.5924 10.6488L13.596 10.6521L13.6849 10.5569ZM13.6849 14.0504L13.596 13.9552L13.5942 13.9568L13.5925 13.9585L13.6849 14.0504ZM13.5197 13.9872C13.4876 13.9872 13.4662 13.9778 13.4469 13.9585L13.262 14.1422C13.3322 14.2119 13.4209 14.2469 13.5197 14.2469V13.9872ZM13.4469 13.9585C13.4276 13.9393 13.418 13.918 13.418 13.8862H13.1566C13.1566 13.9843 13.1919 14.0725 13.262 14.1422L13.4469 13.9585ZM13.418 13.8862V10.7211H13.1566V13.8862H13.418ZM13.418 10.7211C13.418 10.6893 13.4276 10.668 13.4469 10.6487L13.262 10.4651C13.1919 10.5348 13.1566 10.623 13.1566 10.7211H13.418ZM13.4503 10.6453C13.4705 10.6237 13.4909 10.615 13.5197 10.615V10.3552C13.4177 10.3552 13.328 10.3944 13.2587 10.4685L13.4503 10.6453ZM13.5197 10.615C13.5486 10.615 13.569 10.6237 13.5891 10.6453L13.7807 10.4685C13.7114 10.3944 13.6217 10.3552 13.5197 10.3552V10.615ZM13.596 10.6521C13.6177 10.6721 13.6265 10.6924 13.6265 10.7211H13.8879C13.8879 10.6198 13.8486 10.5306 13.7739 10.4617L13.596 10.6521ZM13.6265 10.7211V13.8862H13.8879V10.7211H13.6265ZM13.6265 13.8862C13.6265 13.9148 13.6177 13.9352 13.596 13.9552L13.7739 14.1455C13.8486 14.0767 13.8879 13.9875 13.8879 13.8862H13.6265ZM13.5925 13.9585C13.5731 13.9778 13.5518 13.9872 13.5197 13.9872V14.2469C13.6185 14.2469 13.7072 14.2119 13.7774 14.1422L13.5925 13.9585Z" fill="white"/>
<g filter="url(#filter1_d_329_745)">
<path d="M18.445 6.62338H13.2162C12.4221 6.62338 11.7783 5.98379 11.7783 5.19481V0L18.445 6.62338Z" fill="url(#paint2_linear_329_745)" fill-opacity="0.4"/>
</g>
</g>
</g>
<defs>
<filter id="filter0_f_329_745" x="-35.1953" y="-29.325" width="89.6338" height="83.4546" filterUnits="userSpaceOnUse" color-interpolation-filters="sRGB">
<feFlood flood-opacity="0" result="BackgroundImageFix"/>
<feBlend mode="normal" in="SourceGraphic" in2="BackgroundImageFix" result="shape"/>
<feGaussianBlur stdDeviation="19.5" result="effect1_foregroundBlur_329_745"/>
</filter>
<filter id="filter1_d_329_745" x="-11.2217" y="-24" width="56.667" height="56.6234" filterUnits="userSpaceOnUse" color-interpolation-filters="sRGB">
<feFlood flood-opacity="0" result="BackgroundImageFix"/>
<feColorMatrix in="SourceAlpha" type="matrix" values="0 0 0 0 0 0 0 0 0 0 0 0 0 0 0 0 0 0 127 0" result="hardAlpha"/>
<feOffset dx="2" dy="1"/>
<feGaussianBlur stdDeviation="12.5"/>
<feColorMatrix type="matrix" values="0 0 0 0 0 0 0 0 0 0 0 0 0 0 0 0 0 0 0.33 0"/>
<feBlend mode="normal" in2="BackgroundImageFix" result="effect1_dropShadow_329_745"/>
<feBlend mode="normal" in="SourceGraphic" in2="effect1_dropShadow_329_745" result="shape"/>
</filter>
<linearGradient id="paint0_linear_329_745" x1="9.55588" y1="0" x2="9.55588" y2="20" gradientUnits="userSpaceOnUse">
<stop stop-color="#FF7979"/>
<stop offset="1" stop-color="#E85555"/>
</linearGradient>
<linearGradient id="paint1_linear_329_745" x1="9.55588" y1="0" x2="9.55588" y2="20" gradientUnits="userSpaceOnUse">
<stop stop-color="#CB74F4"/>
<stop offset="0.942892" stop-color="#A849F3"/>
</linearGradient>
<linearGradient id="paint2_linear_329_745" x1="15.1117" y1="0" x2="15.1117" y2="6.62338" gradientUnits="userSpaceOnUse">
<stop stop-color="#B051E0"/>
<stop offset="1" stop-color="#952BCB"/>
</linearGradient>
<clipPath id="clip0_329_745">
<rect width="17.7778" height="20" fill="white" transform="translate(0.666992)"/>
</clipPath>
</defs>
</svg>
