<svg width="19" height="20" viewBox="0 0 19 20" fill="none" xmlns="http://www.w3.org/2000/svg">
<g opacity="0.4" clip-path="url(#clip0_329_800)">
<mask id="mask0_329_800" style="mask-type:alpha" maskUnits="userSpaceOnUse" x="0" y="0" width="19" height="20">
<path d="M16.8955 20H1.99357C1.19944 20 0.555664 19.3604 0.555664 18.5714V1.42857C0.555664 0.639594 1.19944 0 1.99357 0H11.6668L18.3334 6.62338V18.5714C18.3334 19.3604 17.6897 20 16.8955 20Z" fill="url(#paint0_linear_329_800)"/>
</mask>
<g mask="url(#mask0_329_800)">
<path d="M16.8955 20H1.99357C1.19944 20 0.555664 19.3604 0.555664 18.5714V1.42857C0.555664 0.639594 1.19944 0 1.99357 0H11.6668L18.3334 6.62338V18.5714C18.3334 19.3604 17.6897 20 16.8955 20Z" fill="url(#paint1_linear_329_800)"/>
<g opacity="0.27" filter="url(#filter0_f_329_800)">
<g style="mix-blend-mode:darken" opacity="0.27">
<path d="M15.3273 9.67529H3.69336V15.1298H15.3273V9.67529Z" fill="#0079C2"/>
</g>
</g>
<path d="M3.98724 14.0909C3.92183 14.0909 3.86676 14.0687 3.82201 14.0242C3.77726 13.9798 3.75488 13.9251 3.75488 13.8601V10.7463C3.75488 10.6813 3.77726 10.6266 3.82201 10.5821C3.86676 10.5342 3.92183 10.5103 3.98724 10.5103H5.02508C5.4175 10.5103 5.74967 10.5975 6.02162 10.7719C6.29699 10.9429 6.50353 11.1652 6.64122 11.4388C6.77892 11.7124 6.84776 11.9996 6.84776 12.3006C6.84776 12.6016 6.77892 12.8889 6.64122 13.1624C6.50353 13.436 6.29699 13.66 6.02162 13.8344C5.74967 14.0054 5.4175 14.0909 5.02508 14.0909H3.98724ZM4.96828 13.6549C5.25055 13.6549 5.49839 13.5985 5.71181 13.4856C5.92523 13.3693 6.09046 13.2103 6.2075 13.0085C6.32454 12.8033 6.38305 12.5674 6.38305 12.3006C6.38305 12.0339 6.32454 11.7996 6.2075 11.5978C6.09046 11.3926 5.92523 11.2336 5.71181 11.1207C5.49839 11.0044 5.25055 10.9463 4.96828 10.9463H4.22475V13.6549H4.96828ZM9.58943 14.1422C9.22799 14.1422 8.91126 14.0636 8.63937 13.9063C8.36741 13.7489 8.15741 13.5318 8.00943 13.2548C7.86139 12.9778 7.78394 12.6597 7.77708 12.3006C7.78394 11.9415 7.86139 11.6235 8.00943 11.3465C8.15741 11.0694 8.36741 10.8523 8.63937 10.695C8.91126 10.5376 9.22799 10.459 9.58943 10.459C9.95087 10.459 10.2658 10.5376 10.5343 10.695C10.8062 10.8523 11.0162 11.0711 11.1643 11.3516C11.3157 11.6286 11.3949 11.945 11.4018 12.3006C11.3949 12.6563 11.3157 12.9743 11.1643 13.2548C11.0162 13.5318 10.8062 13.7489 10.5343 13.9063C10.2658 14.0636 9.95087 14.1422 9.58943 14.1422ZM9.58943 13.7062C9.86479 13.7062 10.104 13.6446 10.3071 13.5215C10.5102 13.3984 10.6651 13.2308 10.7719 13.0188C10.8785 12.8068 10.9319 12.5674 10.9319 12.3006C10.9319 12.0339 10.8785 11.7944 10.7719 11.5824C10.6651 11.3704 10.5102 11.2028 10.3071 11.0797C10.104 10.9566 9.86479 10.895 9.58943 10.895C9.31061 10.895 9.06963 10.9566 8.86656 11.0797C8.66688 11.2028 8.51368 11.3704 8.40701 11.5824C8.30028 11.7944 8.24695 12.0339 8.24695 12.3006C8.24695 12.5674 8.30028 12.8068 8.40701 13.0188C8.51368 13.2308 8.66688 13.3984 8.86656 13.5215C9.06963 13.6446 9.31061 13.7062 9.58943 13.7062ZM14.1359 14.1422C13.7917 14.1422 13.4819 14.0687 13.2065 13.9216C12.9345 13.7712 12.7194 13.5574 12.5611 13.2804C12.4062 13 12.3287 12.6734 12.3287 12.3006C12.3287 11.9278 12.4062 11.6029 12.5611 11.3259C12.7194 11.0455 12.9345 10.8318 13.2065 10.6847C13.4819 10.5342 13.7917 10.459 14.1359 10.459C14.37 10.459 14.5783 10.4863 14.7607 10.5411C14.9466 10.5958 15.1307 10.6744 15.3132 10.777C15.3889 10.8181 15.4268 10.8831 15.4268 10.972C15.4268 11.0233 15.4078 11.0694 15.37 11.1105C15.3321 11.1481 15.2822 11.1669 15.2202 11.1669C15.1858 11.1669 15.1548 11.1601 15.1273 11.1464C14.9758 11.0678 14.8278 11.0079 14.6832 10.9668C14.5386 10.9258 14.3717 10.9053 14.1824 10.9053C13.8864 10.9053 13.6334 10.9668 13.4234 11.09C13.2168 11.2096 13.0602 11.3755 12.9535 11.5876C12.8502 11.7962 12.7986 12.0339 12.7986 12.3006C12.7986 12.5674 12.8502 12.8068 12.9535 13.0188C13.0602 13.2274 13.2168 13.3933 13.4234 13.5164C13.6334 13.6361 13.8864 13.6959 14.1824 13.6959C14.3717 13.6959 14.5386 13.6754 14.6832 13.6344C14.8278 13.5933 14.9758 13.5335 15.1273 13.4548C15.1548 13.4411 15.1858 13.4343 15.2202 13.4343C15.2822 13.4343 15.3321 13.4531 15.37 13.4907C15.4078 13.5283 15.4268 13.5745 15.4268 13.6292C15.4268 13.7181 15.3889 13.7831 15.3132 13.8242C15.1307 13.9268 14.9466 14.0054 14.7607 14.0602C14.5783 14.1149 14.37 14.1422 14.1359 14.1422Z" fill="white"/>
<path d="M3.82187 14.0242L3.9143 13.9324L3.82187 14.0242ZM3.82187 10.5821L3.9143 10.6739L3.91601 10.6722L3.91766 10.6705L3.82187 10.5821ZM6.02147 10.7719L5.95058 10.881L5.95138 10.8815L5.95219 10.882L6.02147 10.7719ZM6.64108 11.4388L6.52417 11.4968L6.64108 11.4388ZM6.64108 13.1624L6.52417 13.1044L6.64108 13.1624ZM6.02147 13.8344L6.09138 13.9442L6.09174 13.9439L6.02147 13.8344ZM5.71167 13.4856L5.77309 13.6002L5.77381 13.5999L5.77453 13.5995L5.71167 13.4856ZM6.20736 13.0085L6.32062 13.0734L6.32085 13.0729L6.32109 13.0725L6.20736 13.0085ZM6.20736 11.5978L6.09363 11.6618L6.09386 11.6622L6.0941 11.6627L6.20736 11.5978ZM5.71167 11.1207L5.64881 11.2346L5.64953 11.235L5.65025 11.2353L5.71167 11.1207ZM4.22461 10.9463V10.8164H4.09389V10.9463H4.22461ZM4.22461 13.6549H4.09389V13.7848H4.22461V13.6549ZM3.9871 13.9611C3.95506 13.9611 3.93363 13.9516 3.9143 13.9324L3.72943 14.116C3.7996 14.1858 3.88832 14.2208 3.9871 14.2208V13.9611ZM3.9143 13.9324C3.89496 13.9132 3.88546 13.8919 3.88546 13.8601H3.62402C3.62402 13.9582 3.65927 14.0464 3.72943 14.116L3.9143 13.9324ZM3.88546 13.8601V10.7462H3.62402V13.8601H3.88546ZM3.88546 10.7462C3.88546 10.7144 3.89496 10.6931 3.9143 10.6739L3.72943 10.4903C3.65927 10.5599 3.62402 10.6481 3.62402 10.7462H3.88546ZM3.91766 10.6705C3.93783 10.6489 3.95827 10.6401 3.9871 10.6401V10.3804C3.88511 10.3804 3.7954 10.4196 3.72608 10.4937L3.91766 10.6705ZM3.9871 10.6401H5.02494V10.3804H3.9871V10.6401ZM5.02494 10.6401C5.39759 10.6401 5.70388 10.7228 5.95058 10.881L6.09237 10.6628C5.79519 10.4722 5.43712 10.3804 5.02494 10.3804V10.6401ZM5.95219 10.882C6.20834 11.041 6.39783 11.2459 6.52417 11.4968L6.758 11.3807C6.60896 11.0846 6.38537 10.8447 6.09076 10.6618L5.95219 10.882ZM6.52417 11.4968C6.65293 11.7527 6.7169 12.0201 6.7169 12.3006H6.97834C6.97834 11.9792 6.90461 11.672 6.758 11.3807L6.52417 11.4968ZM6.7169 12.3006C6.7169 12.5811 6.65293 12.8485 6.52417 13.1044L6.758 13.2205C6.90461 12.9292 6.97834 12.622 6.97834 12.3006H6.7169ZM6.52417 13.1044C6.3977 13.3556 6.2079 13.5623 5.95121 13.7249L6.09174 13.9439C6.38581 13.7577 6.60908 13.5164 6.758 13.2205L6.52417 13.1044ZM5.95157 13.7247C5.70472 13.8799 5.39806 13.9611 5.02494 13.9611V14.2208C5.43666 14.2208 5.79436 14.1309 6.09138 13.9442L5.95157 13.7247ZM5.02494 13.9611H3.9871V14.2208H5.02494V13.9611ZM4.96814 13.7848C5.26823 13.7848 5.53782 13.7246 5.77309 13.6002L5.65025 13.371C5.45868 13.4723 5.23259 13.525 4.96814 13.525V13.7848ZM5.77453 13.5995C6.00811 13.4722 6.19115 13.2966 6.32062 13.0734L6.0941 12.9436C5.98949 13.124 5.84208 13.2664 5.64881 13.3717L5.77453 13.5995ZM6.32109 13.0725C6.45066 12.8454 6.51363 12.5868 6.51363 12.3006H6.25219C6.25219 12.5479 6.19813 12.7612 6.09363 12.9445L6.32109 13.0725ZM6.51363 12.3006C6.51363 12.0144 6.45067 11.7572 6.32062 11.5329L6.0941 11.6627C6.19812 11.842 6.25219 12.0533 6.25219 12.3006H6.51363ZM6.32109 11.5338C6.19157 11.3067 6.008 11.1303 5.77309 11.0061L5.65025 11.2353C5.84218 11.3368 5.98907 11.4785 6.09363 11.6618L6.32109 11.5338ZM5.77453 11.0068C5.53896 10.8785 5.26885 10.8164 4.96814 10.8164V11.0762C5.23197 11.0762 5.45754 11.1304 5.64881 11.2346L5.77453 11.0068ZM4.96814 10.8164H4.22461V11.0762H4.96814V10.8164ZM4.09389 10.9463V13.6549H4.35533V10.9463H4.09389ZM4.22461 13.7848H4.96814V13.525H4.22461V13.7848ZM8.63923 13.9062L8.70498 13.794L8.63923 13.9062ZM8.00929 13.2548L7.8938 13.3157L8.00929 13.2548ZM7.77694 12.3006L7.64622 12.2981L7.64615 12.3006L7.64622 12.3031L7.77694 12.3006ZM8.00929 11.3464L8.12472 11.4073L8.00929 11.3464ZM8.63923 10.6949L8.57341 10.5827L8.63923 10.6949ZM10.5342 10.6949L10.4678 10.8068L10.4684 10.8072L10.5342 10.6949ZM11.1641 11.3516L11.0483 11.4119L11.0488 11.4127L11.0492 11.4136L11.1641 11.3516ZM11.4016 12.3006L11.5323 12.3031L11.5324 12.3006L11.5323 12.2981L11.4016 12.3006ZM11.1641 13.2548L11.0489 13.1933L11.0486 13.1938L11.1641 13.2548ZM10.5342 13.9062L10.4684 13.794L10.4678 13.7944L10.5342 13.9062ZM10.307 13.5215L10.2389 13.4107L10.307 13.5215ZM10.7717 13.0188L10.8886 13.0768L10.7717 13.0188ZM10.7717 11.5824L10.8886 11.5244L10.7717 11.5824ZM10.307 11.0797L10.2389 11.1905L10.307 11.0797ZM8.86642 11.0797L8.79831 10.9688L8.79785 10.9691L8.79746 10.9694L8.86642 11.0797ZM8.40687 11.5824L8.28995 11.5244L8.40687 11.5824ZM8.40687 13.0188L8.28995 13.0768L8.40687 13.0188ZM8.86642 13.5215L8.79746 13.6318L8.79785 13.6321L8.79831 13.6323L8.86642 13.5215ZM9.58929 14.0123C9.24746 14.0123 8.95413 13.9381 8.70498 13.794L8.57341 14.0185C8.86812 14.189 9.20818 14.2721 9.58929 14.2721V14.0123ZM8.70498 13.794C8.45413 13.6489 8.26138 13.4496 8.12472 13.1938L7.8938 13.3157C8.05321 13.614 8.28034 13.849 8.57341 14.0185L8.70498 13.794ZM8.12472 13.1938C7.98766 12.9373 7.91413 12.6398 7.90759 12.2981L7.64622 12.3031C7.65341 12.6796 7.73485 13.0182 7.8938 13.3157L8.12472 13.1938ZM7.90759 12.3031C7.91413 11.9614 7.98766 11.6639 8.12472 11.4073L7.8938 11.2855C7.73485 11.583 7.65341 11.9216 7.64622 12.2981L7.90759 12.3031ZM8.12472 11.4073C8.26138 11.1516 8.45413 10.9523 8.70498 10.8072L8.57341 10.5827C8.28034 10.7522 8.05321 10.9872 7.8938 11.2855L8.12472 11.4073ZM8.70498 10.8072C8.95413 10.6631 9.24746 10.5888 9.58929 10.5888V10.3291C9.20818 10.3291 8.86812 10.4122 8.57341 10.5827L8.70498 10.8072ZM9.58929 10.5888C9.93112 10.5888 10.2224 10.6631 10.4678 10.8068L10.6006 10.5831C10.309 10.4122 9.97027 10.3291 9.58929 10.3291V10.5888ZM10.4684 10.8072C10.7188 10.952 10.9116 11.1528 11.0483 11.4119L11.2799 11.2912C11.1206 10.9895 10.8934 10.7525 10.5999 10.5827L10.4684 10.8072ZM11.0492 11.4136C11.1895 11.6701 11.2644 11.9655 11.2709 12.3031L11.5323 12.2981C11.525 11.9243 11.4416 11.5871 11.279 11.2896L11.0492 11.4136ZM11.2709 12.2981C11.2644 12.6357 11.1895 12.9331 11.0489 13.1933L11.2793 13.3162C11.4416 13.0155 11.525 12.6769 11.5323 12.3031L11.2709 12.2981ZM11.0486 13.1938C10.912 13.4496 10.7192 13.6489 10.4684 13.794L10.5999 14.0185C10.893 13.849 11.1201 13.614 11.2796 13.3157L11.0486 13.1938ZM10.4678 13.7944C10.2224 13.9381 9.93112 14.0123 9.58929 14.0123V14.2721C9.97027 14.2721 10.309 14.189 10.6006 14.0181L10.4678 13.7944ZM9.58929 13.836C9.88485 13.836 10.1484 13.7698 10.375 13.6323L10.2389 13.4107C10.0594 13.5195 9.84446 13.5763 9.58929 13.5763V13.836ZM10.375 13.6323C10.5992 13.4965 10.7709 13.3106 10.8886 13.0768L10.6548 12.9607C10.559 13.151 10.421 13.3003 10.2389 13.4107L10.375 13.6323ZM10.8886 13.0768C11.0054 12.8446 11.0625 12.5849 11.0625 12.3006H10.8011C10.8011 12.5498 10.7513 12.7688 10.6548 12.9607L10.8886 13.0768ZM11.0625 12.3006C11.0625 12.0162 11.0054 11.7566 10.8886 11.5244L10.6548 11.6405C10.7513 11.8323 10.8011 12.0514 10.8011 12.3006H11.0625ZM10.8886 11.5244C10.7709 11.2906 10.5992 11.1047 10.375 10.9688L10.2389 11.1905C10.421 11.3009 10.559 11.4502 10.6548 11.6405L10.8886 11.5244ZM10.375 10.9688C10.1484 10.8314 9.88485 10.7651 9.58929 10.7651V11.0249C9.84446 11.0249 10.0594 11.0817 10.2389 11.1905L10.375 10.9688ZM9.58929 10.7651C9.2906 10.7651 9.02517 10.8312 8.79831 10.9688L8.93446 11.1905C9.11374 11.0819 9.33027 11.0249 9.58929 11.0249V10.7651ZM8.79746 10.9694C8.57694 11.1053 8.40727 11.2912 8.28995 11.5244L8.52374 11.6405C8.61981 11.4496 8.75655 11.3003 8.93531 11.19L8.79746 10.9694ZM8.28995 11.5244C8.17308 11.7566 8.11609 12.0162 8.11609 12.3006H8.37753C8.37753 12.0514 8.4272 11.8323 8.52374 11.6405L8.28995 11.5244ZM8.11609 12.3006C8.11609 12.5849 8.17308 12.8446 8.28995 13.0768L8.52374 12.9607C8.4272 12.7688 8.37753 12.5498 8.37753 12.3006H8.11609ZM8.28995 13.0768C8.40727 13.31 8.57694 13.4959 8.79746 13.6318L8.93531 13.4112C8.75655 13.3009 8.61981 13.1516 8.52374 12.9607L8.28995 13.0768ZM8.79831 13.6323C9.02517 13.7699 9.2906 13.836 9.58929 13.836V13.5763C9.33027 13.5763 9.11374 13.5193 8.93446 13.4107L8.79831 13.6323ZM13.2064 13.9216L13.1428 14.0351L13.1436 14.0356L13.1445 14.0361L13.2064 13.9216ZM12.5609 13.2804L12.4464 13.3429L12.4468 13.3437L12.4473 13.3446L12.5609 13.2804ZM12.5609 11.3259L12.4469 11.2623L12.4467 11.2629L12.5609 11.3259ZM13.2064 10.6847L13.2688 10.7988L13.2694 10.7985L13.2064 10.6847ZM14.7605 10.5411L14.7228 10.6654L14.7234 10.6656L14.7605 10.5411ZM15.313 10.777L15.2486 10.8901L15.2495 10.8905L15.2504 10.8911L15.313 10.777ZM15.3698 11.1105L15.4622 11.2023L15.4643 11.2003L15.4662 11.1982L15.3698 11.1105ZM15.1271 11.1464L15.0665 11.2614L15.0676 11.262L15.0686 11.2625L15.1271 11.1464ZM14.6831 10.9668L14.719 10.842L14.6831 10.9668ZM13.4232 11.0899L13.4891 11.2022L13.4896 11.2018L13.4232 11.0899ZM12.9533 11.5875L12.8364 11.5295L12.836 11.5302L12.9533 11.5875ZM12.9533 13.0188L12.8357 13.0753L12.8362 13.0765L12.8368 13.0776L12.9533 13.0188ZM13.4232 13.5164L13.356 13.6277L13.3571 13.6284L13.3582 13.629L13.4232 13.5164ZM14.6831 13.6344L14.719 13.7592L14.6831 13.6344ZM15.1271 13.4548L15.0686 13.3386L15.0676 13.3392L15.0665 13.3398L15.1271 13.4548ZM15.3698 13.4907L15.4622 13.3989L15.3698 13.4907ZM15.313 13.8242L15.2504 13.7101L15.2495 13.7107L15.2486 13.7111L15.313 13.8242ZM14.7605 14.0601L14.7234 13.9356L14.7228 13.9358L14.7605 14.0601ZM14.1358 14.0123C13.8109 14.0123 13.5227 13.9431 13.2682 13.8072L13.1445 14.0361C13.4407 14.1942 13.7722 14.2721 14.1358 14.2721V14.0123ZM13.2699 13.8082C13.0196 13.6696 12.8215 13.4733 12.6746 13.2162L12.4473 13.3446C12.6171 13.6416 12.8492 13.8727 13.1428 14.0351L13.2699 13.8082ZM12.6755 13.2179C12.5328 12.9596 12.4593 12.6551 12.4593 12.3006H12.1979C12.1979 12.6916 12.2792 13.0403 12.4464 13.3429L12.6755 13.2179ZM12.4593 12.3006C12.4593 11.946 12.5328 11.6436 12.6752 11.389L12.4467 11.2629C12.2792 11.5623 12.1979 11.9097 12.1979 12.3006H12.4593ZM12.6749 11.3894C12.8218 11.1294 13.0196 10.9336 13.2688 10.7988L13.1439 10.5706C12.8493 10.7299 12.6167 10.9616 12.4469 11.2623L12.6749 11.3894ZM13.2694 10.7985C13.5236 10.6596 13.8114 10.5888 14.1358 10.5888V10.3291C13.7716 10.3291 13.4398 10.4089 13.1433 10.5709L13.2694 10.7985ZM14.1358 10.5888C14.3598 10.5888 14.555 10.6151 14.7228 10.6654L14.7983 10.4167C14.6012 10.3576 14.3798 10.3291 14.1358 10.3291V10.5888ZM14.7234 10.6656C14.899 10.7173 15.0741 10.7919 15.2486 10.8901L15.3774 10.664C15.1871 10.557 14.9938 10.4742 14.7977 10.4165L14.7234 10.6656ZM15.2504 10.8911C15.2703 10.9018 15.2797 10.9125 15.2851 10.9216C15.2905 10.931 15.2959 10.9461 15.2959 10.972H15.5573C15.5573 10.9089 15.5437 10.8471 15.5113 10.7914C15.4788 10.7356 15.4314 10.6933 15.3756 10.663L15.2504 10.8911ZM15.2959 10.972C15.2959 10.9879 15.2913 11.0034 15.2735 11.0227L15.4662 11.1982C15.5241 11.1355 15.5573 11.0586 15.5573 10.972H15.2959ZM15.2774 11.0186C15.2679 11.0281 15.2533 11.037 15.2201 11.037V11.2968C15.3108 11.2968 15.396 11.2681 15.4622 11.2023L15.2774 11.0186ZM15.2201 11.037C15.2035 11.037 15.193 11.0338 15.1856 11.0302L15.0686 11.2625C15.1164 11.2862 15.1678 11.2968 15.2201 11.2968V11.037ZM15.1877 11.0313C15.0294 10.9491 14.8731 10.8857 14.719 10.842L14.6471 11.0917C14.7822 11.13 14.9219 11.1864 15.0665 11.2614L15.1877 11.0313ZM14.719 10.842C14.5601 10.7969 14.3807 10.7754 14.1822 10.7754V11.0351C14.3624 11.0351 14.5168 11.0547 14.6471 11.0917L14.719 10.842ZM14.1822 10.7754C13.8679 10.7754 13.5908 10.8409 13.3567 10.9781L13.4896 11.2018C13.6756 11.0927 13.9046 11.0351 14.1822 11.0351V10.7754ZM13.3573 10.9777C13.1289 11.1101 12.9545 11.2948 12.8364 11.5295L13.0703 11.6456C13.1656 11.4562 13.3045 11.3091 13.4891 11.2022L13.3573 10.9777ZM12.836 11.5302C12.7228 11.7592 12.6677 12.0169 12.6677 12.3006H12.9292C12.9292 12.0508 12.9774 11.8332 13.0707 11.6449L12.836 11.5302ZM12.6677 12.3006C12.6677 12.5844 12.7228 12.8435 12.8357 13.0753L13.071 12.9622C12.9774 12.77 12.9292 12.5503 12.9292 12.3006H12.6677ZM12.8368 13.0776C12.9549 13.3085 13.1288 13.4923 13.356 13.6277L13.4905 13.405C13.3045 13.2942 13.1652 13.1463 13.0699 12.9599L12.8368 13.0776ZM13.3582 13.629C13.5919 13.7623 13.8684 13.8258 14.1822 13.8258V13.5661C13.9039 13.5661 13.6745 13.5099 13.4882 13.4037L13.3582 13.629ZM14.1822 13.8258C14.3807 13.8258 14.5601 13.8043 14.719 13.7592L14.6471 13.5095C14.5168 13.5465 14.3624 13.5661 14.1822 13.5661V13.8258ZM14.719 13.7592C14.8731 13.7155 15.0294 13.6521 15.1877 13.5699L15.0665 13.3398C14.9219 13.4148 14.7822 13.4712 14.6471 13.5095L14.719 13.7592ZM15.1856 13.571C15.193 13.5673 15.2035 13.5642 15.2201 13.5642V13.3044C15.1678 13.3044 15.1164 13.3149 15.0686 13.3386L15.1856 13.571ZM15.2201 13.5642C15.2533 13.5642 15.2679 13.5731 15.2774 13.5825L15.4622 13.3989C15.396 13.3331 15.3108 13.3044 15.2201 13.3044V13.5642ZM15.2774 13.5825C15.2899 13.5951 15.2959 13.6079 15.2959 13.6292H15.5573C15.5573 13.5412 15.5254 13.4616 15.4622 13.3989L15.2774 13.5825ZM15.2959 13.6292C15.2959 13.6551 15.2905 13.6702 15.2851 13.6796C15.2797 13.6886 15.2703 13.6994 15.2504 13.7101L15.3756 13.9382C15.4314 13.9079 15.4788 13.8656 15.5113 13.8098C15.5437 13.7541 15.5573 13.6923 15.5573 13.6292H15.2959ZM15.2486 13.7111C15.0741 13.8093 14.899 13.8839 14.7234 13.9356L14.7977 14.1847C14.9938 14.127 15.1871 14.0442 15.3774 13.9372L15.2486 13.7111ZM14.7228 13.9358C14.555 13.9861 14.3598 14.0123 14.1358 14.0123V14.2721C14.3798 14.2721 14.6012 14.2436 14.7983 14.1845L14.7228 13.9358Z" fill="white"/>
<g filter="url(#filter1_d_329_800)">
<path d="M18.3337 6.62338H13.1049C12.3108 6.62338 11.667 5.98379 11.667 5.19481V0L18.3337 6.62338Z" fill="url(#paint2_linear_329_800)"/>
</g>
</g>
</g>
<defs>
<filter id="filter0_f_329_800" x="-35.3066" y="-29.3247" width="89.6338" height="83.4546" filterUnits="userSpaceOnUse" color-interpolation-filters="sRGB">
<feFlood flood-opacity="0" result="BackgroundImageFix"/>
<feBlend mode="normal" in="SourceGraphic" in2="BackgroundImageFix" result="shape"/>
<feGaussianBlur stdDeviation="19.5" result="effect1_foregroundBlur_329_800"/>
</filter>
<filter id="filter1_d_329_800" x="-11.333" y="-24" width="56.667" height="56.6234" filterUnits="userSpaceOnUse" color-interpolation-filters="sRGB">
<feFlood flood-opacity="0" result="BackgroundImageFix"/>
<feColorMatrix in="SourceAlpha" type="matrix" values="0 0 0 0 0 0 0 0 0 0 0 0 0 0 0 0 0 0 127 0" result="hardAlpha"/>
<feOffset dx="2" dy="1"/>
<feGaussianBlur stdDeviation="12.5"/>
<feColorMatrix type="matrix" values="0 0 0 0 0 0 0 0 0 0 0 0 0 0 0 0 0 0 0.33 0"/>
<feBlend mode="normal" in2="BackgroundImageFix" result="effect1_dropShadow_329_800"/>
<feBlend mode="normal" in="SourceGraphic" in2="effect1_dropShadow_329_800" result="shape"/>
</filter>
<linearGradient id="paint0_linear_329_800" x1="9.44455" y1="0" x2="9.44455" y2="20" gradientUnits="userSpaceOnUse">
<stop stop-color="#FF7979"/>
<stop offset="1" stop-color="#E85555"/>
</linearGradient>
<linearGradient id="paint1_linear_329_800" x1="9.44455" y1="0" x2="9.44455" y2="20" gradientUnits="userSpaceOnUse">
<stop stop-color="#6ABDF8"/>
<stop offset="1" stop-color="#008BD6"/>
</linearGradient>
<linearGradient id="paint2_linear_329_800" x1="15.0003" y1="0" x2="15.0003" y2="6.62338" gradientUnits="userSpaceOnUse">
<stop stop-color="#31A8EF"/>
<stop offset="1" stop-color="#0079C2"/>
</linearGradient>
<clipPath id="clip0_329_800">
<rect width="17.7778" height="20" fill="white" transform="translate(0.555664)"/>
</clipPath>
</defs>
</svg>
