<svg width="19" height="20" viewBox="0 0 19 20" fill="none" xmlns="http://www.w3.org/2000/svg">
<g clip-path="url(#clip0_329_811)">
<mask id="mask0_329_811" style="mask-type:alpha" maskUnits="userSpaceOnUse" x="0" y="0" width="19" height="20">
<path d="M16.6729 20H1.77092C0.976782 20 0.333008 19.3604 0.333008 18.5714V1.42857C0.333008 0.639594 0.976782 0 1.77092 0H11.4441L18.1108 6.62338V18.5714C18.1108 19.3604 17.467 20 16.6729 20Z" fill="url(#paint0_linear_329_811)"/>
</mask>
<g mask="url(#mask0_329_811)">
<path d="M16.6729 20H1.77092C0.976782 20 0.333008 19.3604 0.333008 18.5714V1.42857C0.333008 0.639594 0.976782 0 1.77092 0H11.4441L18.1108 6.62338V18.5714C18.1108 19.3604 17.467 20 16.6729 20Z" fill="url(#paint1_linear_329_811)" fill-opacity="0.4"/>
<g filter="url(#filter0_f_329_811)">
<g style="mix-blend-mode:darken">
<path d="M15.1047 9.67529H3.4707V15.1298H15.1047V9.67529Z" fill="#5552E9" fill-opacity="0.39"/>
</g>
</g>
<path d="M6.69614 14.1422C6.34159 14.1422 6.02662 14.0653 5.75124 13.9114C5.47585 13.754 5.26244 13.5369 5.11098 13.2599C4.95951 12.9794 4.88379 12.6614 4.88379 12.3057C4.88379 11.9432 4.96296 11.6218 5.12131 11.3413C5.27964 11.0609 5.49479 10.8437 5.76673 10.6898C6.04211 10.5359 6.34675 10.459 6.68065 10.459C6.94917 10.459 7.18323 10.4915 7.3829 10.5565C7.58597 10.6215 7.78048 10.712 7.96636 10.8283C7.99388 10.842 8.018 10.8659 8.03865 10.9002C8.05931 10.9344 8.06963 10.972 8.06963 11.013C8.06963 11.0711 8.04898 11.1207 8.00767 11.1618C7.96976 11.2028 7.91813 11.2233 7.85277 11.2233C7.81486 11.2233 7.77872 11.2148 7.74434 11.1977C7.58251 11.1019 7.42074 11.0301 7.25898 10.9822C7.09715 10.9344 6.92159 10.9104 6.73229 10.9104C6.47067 10.9104 6.23487 10.9652 6.0249 11.0746C5.81492 11.184 5.64969 11.3448 5.52921 11.5568C5.41217 11.7654 5.35366 12.015 5.35366 12.3057C5.35366 12.5725 5.40873 12.8119 5.51889 13.0239C5.63248 13.2326 5.79427 13.3984 6.00425 13.5215C6.21766 13.6412 6.46895 13.7011 6.7581 13.7011C7.08166 13.7011 7.3829 13.6258 7.66172 13.4753V12.5468H6.80974C6.75121 12.5468 6.70131 12.5263 6.66 12.4853C6.61869 12.4442 6.59804 12.3946 6.59804 12.3365C6.59804 12.2784 6.61869 12.2288 6.66 12.1878C6.70131 12.1467 6.75121 12.1262 6.80974 12.1262H7.82695C7.89578 12.1262 7.95427 12.1502 8.00251 12.198C8.05068 12.2459 8.0748 12.304 8.0748 12.3724V13.5369C8.0748 13.6087 8.05584 13.6737 8.018 13.7318C7.98355 13.7866 7.93708 13.8276 7.87859 13.855C7.49303 14.0465 7.09891 14.1422 6.69614 14.1422ZM9.60231 14.1166C9.53689 14.1166 9.48179 14.0944 9.43708 14.0499C9.39231 14.0054 9.36996 13.9507 9.36996 13.8857V10.7206C9.36996 10.6556 9.39231 10.6009 9.43708 10.5565C9.48179 10.5086 9.53689 10.4846 9.60231 10.4846C9.66767 10.4846 9.72277 10.5086 9.76754 10.5565C9.81571 10.6009 9.83983 10.6556 9.83983 10.7206V13.8857C9.83983 13.9507 9.81571 14.0054 9.76754 14.0499C9.72277 14.0944 9.66767 14.1166 9.60231 14.1166ZM11.4361 14.1166C11.3707 14.1166 11.3156 14.0944 11.2709 14.0499C11.2261 14.0054 11.2038 13.9507 11.2038 13.8857V10.7463C11.2038 10.6813 11.2261 10.6266 11.2709 10.5821C11.3156 10.5342 11.3707 10.5103 11.4361 10.5103H13.4447C13.5066 10.5103 13.5583 10.5325 13.5996 10.577C13.6443 10.618 13.6667 10.6693 13.6667 10.7309C13.6667 10.7924 13.6443 10.8437 13.5996 10.8848C13.5583 10.9258 13.5066 10.9463 13.4447 10.9463H11.6736V12.08H13.2639C13.3259 12.08 13.3775 12.1022 13.4188 12.1467C13.4636 12.1878 13.486 12.239 13.486 12.3006C13.486 12.3622 13.4636 12.4135 13.4188 12.4545C13.3775 12.4955 13.3259 12.5161 13.2639 12.5161H11.6736V13.8857C11.6736 13.9507 11.6495 14.0054 11.6013 14.0499C11.5566 14.0944 11.5015 14.1166 11.4361 14.1166Z" fill="white"/>
<path d="M5.7511 13.9114L5.68594 14.024L5.68647 14.0243L5.68701 14.0246L5.7511 13.9114ZM5.11084 13.2599L4.99565 13.3213L4.99597 13.3219L5.11084 13.2599ZM5.12116 11.3413L5.23517 11.4049L5.12116 11.3413ZM5.76659 10.6898L5.7025 10.5766L5.70189 10.577L5.76659 10.6898ZM7.38276 10.5564L7.34204 10.6799L7.34269 10.6801L7.38276 10.5564ZM7.96622 10.8283L7.89655 10.9382L7.90198 10.9416L7.90773 10.9445L7.96622 10.8283ZM8.03851 10.9001L7.92642 10.967L8.03851 10.9001ZM8.00753 11.1618L7.91505 11.0699L7.91309 11.072L7.91113 11.074L8.00753 11.1618ZM7.7442 11.1977L7.67727 11.3092L7.68139 11.3117L7.6857 11.3138L7.7442 11.1977ZM7.25884 10.9822L7.29616 10.8577L7.25884 10.9822ZM6.02476 11.0746L6.08549 11.1896L6.02476 11.0746ZM5.52907 11.5568L5.41524 11.4929L5.41489 11.4935L5.52907 11.5568ZM5.51875 13.0239L5.40258 13.0835L5.40316 13.0846L5.40377 13.0857L5.51875 13.0239ZM6.00411 13.5215L5.93767 13.6333L5.93875 13.634L5.93984 13.6346L6.00411 13.5215ZM7.66158 13.4753L7.72394 13.5894L7.7923 13.5526V13.4753H7.66158ZM7.66158 12.5468H7.7923V12.417H7.66158V12.5468ZM6.65986 12.4853L6.56743 12.5771L6.65986 12.4853ZM6.65986 12.1877L6.56743 12.0959L6.65986 12.1877ZM8.01786 13.7318L7.90805 13.6612L7.90753 13.6622L7.90701 13.663L8.01786 13.7318ZM7.87845 13.8549L7.82276 13.7374L7.82132 13.7381L7.81995 13.7388L7.87845 13.8549ZM6.696 14.0123C6.3611 14.0123 6.0687 13.9399 5.81518 13.7982L5.68701 14.0246C5.98426 14.1907 6.32179 14.2721 6.696 14.2721V14.0123ZM5.81626 13.7988C5.56181 13.6535 5.36561 13.4538 5.2257 13.1979L4.99597 13.3219C5.15898 13.62 5.38962 13.8547 5.68594 14.024L5.81626 13.7988ZM5.22602 13.1985C5.08591 12.939 5.01437 12.6425 5.01437 12.3057H4.75293C4.75293 12.6803 4.83284 13.0198 4.99566 13.3213L5.22602 13.1985ZM5.01437 12.3057C5.01437 11.9626 5.08912 11.6635 5.23517 11.4049L5.00716 11.2777C4.83652 11.58 4.75293 11.9238 4.75293 12.3057H5.01437ZM5.23517 11.4049C5.38231 11.1442 5.58071 10.9445 5.83129 10.8027L5.70189 10.577C5.40858 10.7429 5.17671 10.9775 5.00716 11.2777L5.23517 11.4049ZM5.83067 10.803C6.08537 10.6607 6.36774 10.5888 6.68051 10.5888V10.3291C6.32548 10.3291 5.99857 10.4112 5.7025 10.5766L5.83067 10.803ZM6.68051 10.5888C6.93884 10.5888 7.15858 10.6201 7.34204 10.6799L7.42341 10.433C7.2076 10.3628 6.95916 10.3291 6.68051 10.3291V10.5888ZM7.34269 10.6801C7.53505 10.7416 7.71962 10.8275 7.89655 10.9382L8.03583 10.7185C7.84099 10.5965 7.63662 10.5012 7.42283 10.4328L7.34269 10.6801ZM7.90773 10.9445C7.90779 10.9445 7.90818 10.9447 7.9089 10.9452C7.90969 10.9458 7.91086 10.9468 7.9125 10.9484C7.91577 10.9516 7.9206 10.9574 7.92642 10.967L8.1506 10.8333C8.12093 10.7843 8.08028 10.7398 8.02466 10.7122L7.90773 10.9445ZM7.92642 10.967C7.93446 10.9804 7.93877 10.9948 7.93877 11.013H8.20021C8.20021 10.9492 8.18381 10.8883 8.1506 10.8333L7.92642 10.967ZM7.93877 11.013C7.93877 11.0368 7.93184 11.0533 7.91505 11.0699L8.09995 11.2536C8.16583 11.1881 8.20021 11.1055 8.20021 11.013H7.93877ZM7.91113 11.074C7.90224 11.0836 7.88805 11.0935 7.85263 11.0935V11.3532C7.94792 11.3532 8.03707 11.322 8.10387 11.2495L7.91113 11.074ZM7.85263 11.0935C7.83537 11.0935 7.81923 11.0898 7.80263 11.0815L7.6857 11.3138C7.73799 11.3398 7.79413 11.3532 7.85263 11.3532V11.0935ZM7.81106 11.0861C7.64106 10.9855 7.46936 10.909 7.29616 10.8577L7.22152 11.1067C7.37178 11.1512 7.52374 11.2184 7.67727 11.3092L7.81106 11.0861ZM7.29616 10.8577C7.12086 10.8059 6.93256 10.7805 6.73215 10.7805V11.0403C6.91034 11.0403 7.07322 11.0628 7.22152 11.1067L7.29616 10.8577ZM6.73215 10.7805C6.4516 10.7805 6.19462 10.8394 5.96403 10.9596L6.08549 11.1896C6.27485 11.0909 6.48946 11.0403 6.73215 11.0403V10.7805ZM5.96403 10.9596C5.73098 11.081 5.54765 11.2599 5.41524 11.4929L5.6429 11.6206C5.75145 11.4296 5.89858 11.287 6.08549 11.1896L5.96403 10.9596ZM5.41489 11.4935C5.28488 11.7253 5.2228 11.9977 5.2228 12.3057H5.48424C5.48424 12.0324 5.53918 11.8055 5.64325 11.62L5.41489 11.4935ZM5.2228 12.3057C5.2228 12.5907 5.28179 12.8509 5.40258 13.0835L5.6349 12.9644C5.5354 12.7728 5.48424 12.5542 5.48424 12.3057H5.2228ZM5.40377 13.0857C5.52892 13.3155 5.70769 13.4985 5.93767 13.6333L6.07054 13.4097C5.88056 13.2983 5.73576 13.1495 5.63372 12.9621L5.40377 13.0857ZM5.93984 13.6346C6.17613 13.7672 6.45036 13.8309 6.75796 13.8309V13.5712C6.48726 13.5712 6.25892 13.5153 6.06837 13.4084L5.93984 13.6346ZM6.75796 13.8309C7.10289 13.8309 7.42557 13.7505 7.72394 13.5894L7.59916 13.3612C7.33988 13.5011 7.06021 13.5712 6.75796 13.5712V13.8309ZM7.7923 13.4753V12.5468H7.53086V13.4753H7.7923ZM7.66158 12.417H6.8096V12.6767H7.66158V12.417ZM6.8096 12.417C6.78567 12.417 6.76903 12.4101 6.75229 12.3935L6.56743 12.5771C6.6333 12.6425 6.71647 12.6767 6.8096 12.6767V12.417ZM6.75229 12.3935C6.73554 12.3768 6.72862 12.3603 6.72862 12.3365H6.46718C6.46718 12.429 6.50156 12.5116 6.56743 12.5771L6.75229 12.3935ZM6.72862 12.3365C6.72862 12.3127 6.73554 12.2962 6.75229 12.2796L6.56743 12.0959C6.50156 12.1614 6.46718 12.244 6.46718 12.3365H6.72862ZM6.75229 12.2796C6.76903 12.2629 6.78567 12.256 6.8096 12.256V11.9963C6.71647 11.9963 6.6333 12.0305 6.56743 12.0959L6.75229 12.2796ZM6.8096 12.256H7.82681V11.9963H6.8096V12.256ZM7.82681 12.256C7.86139 12.256 7.88649 12.2666 7.90988 12.2898L8.09479 12.1062C8.02178 12.0336 7.92988 11.9963 7.82681 11.9963V12.256ZM7.90988 12.2898C7.93328 12.3131 7.94394 12.3381 7.94394 12.3724H8.20537C8.20537 12.2699 8.16773 12.1786 8.09479 12.1062L7.90988 12.2898ZM7.94394 12.3724V13.5369H8.20537V12.3724H7.94394ZM7.94394 13.5369C7.94394 13.5847 7.93171 13.6249 7.90805 13.6612L8.1276 13.8024C8.17969 13.7224 8.20537 13.6327 8.20537 13.5369H7.94394ZM7.90701 13.663C7.88583 13.6966 7.85845 13.7207 7.82276 13.7374L7.93407 13.9725C8.01544 13.9344 8.081 13.8764 8.12871 13.8007L7.90701 13.663ZM7.81995 13.7388C7.45126 13.922 7.07707 14.0123 6.696 14.0123V14.2721C7.12047 14.2721 7.53452 14.171 7.93688 13.9711L7.81995 13.7388ZM9.43694 14.0499L9.52936 13.9581L9.43694 14.0499ZM9.43694 10.5564L9.52936 10.6483L9.53106 10.6466L9.53269 10.6448L9.43694 10.5564ZM9.7674 10.5564L9.67158 10.6448L9.67485 10.6483L9.67845 10.6516L9.7674 10.5564ZM9.7674 14.0499L9.67845 13.9547L9.67668 13.9564L9.67492 13.9581L9.7674 14.0499ZM9.60217 13.9867C9.57015 13.9867 9.54871 13.9773 9.52936 13.9581L9.34446 14.1417C9.41466 14.2114 9.50335 14.2464 9.60217 14.2464V13.9867ZM9.52936 13.9581C9.51001 13.9388 9.50054 13.9175 9.50054 13.8857H9.2391C9.2391 13.9838 9.27433 14.072 9.34446 14.1417L9.52936 13.9581ZM9.50054 13.8857V10.7206H9.2391V13.8857H9.50054ZM9.50054 10.7206C9.50054 10.6888 9.51001 10.6675 9.52936 10.6483L9.34446 10.4646C9.27433 10.5343 9.2391 10.6225 9.2391 10.7206H9.50054ZM9.53269 10.6448C9.55289 10.6233 9.57335 10.6145 9.60217 10.6145V10.3548C9.50014 10.3548 9.41047 10.3939 9.34113 10.4681L9.53269 10.6448ZM9.60217 10.6145C9.63099 10.6145 9.65139 10.6233 9.67158 10.6448L9.86315 10.4681C9.79381 10.3939 9.70413 10.3548 9.60217 10.3548V10.6145ZM9.67845 10.6516C9.70015 10.6716 9.70897 10.692 9.70897 10.7206H9.97041C9.97041 10.6193 9.93099 10.5301 9.85635 10.4612L9.67845 10.6516ZM9.70897 10.7206V13.8857H9.97041V10.7206H9.70897ZM9.70897 13.8857C9.70897 13.9144 9.70015 13.9347 9.67845 13.9547L9.85635 14.1451C9.93099 14.0762 9.97041 13.987 9.97041 13.8857H9.70897ZM9.67492 13.9581C9.65564 13.9773 9.6342 13.9867 9.60217 13.9867V14.2464C9.70093 14.2464 9.78962 14.2114 9.85982 14.1417L9.67492 13.9581ZM11.2707 14.0499L11.3632 13.9581L11.2707 14.0499ZM11.2707 10.5821L11.3632 10.6739L11.3649 10.6722L11.3666 10.6705L11.2707 10.5821ZM13.5994 10.577L13.5033 10.6651L13.5069 10.6688L13.5107 10.6724L13.5994 10.577ZM13.5994 10.8848L13.5107 10.7893L13.5088 10.7911L13.507 10.7929L13.5994 10.8848ZM11.6735 10.9463V10.8164H11.5428V10.9463H11.6735ZM11.6735 12.08H11.5428V12.2099H11.6735V12.08ZM13.4187 12.1467L13.3226 12.2348L13.3262 12.2386L13.33 12.2422L13.4187 12.1467ZM13.4187 12.4545L13.33 12.359L13.3281 12.3609L13.3263 12.3627L13.4187 12.4545ZM11.6735 12.516V12.3862H11.5428V12.516H11.6735ZM11.6012 14.0499L11.5122 13.9547L11.5105 13.9564L11.5088 13.9581L11.6012 14.0499ZM11.436 13.9867C11.4039 13.9867 11.3825 13.9773 11.3632 13.9581L11.1783 14.1417C11.2484 14.2114 11.3372 14.2464 11.436 14.2464V13.9867ZM11.3632 13.9581C11.3438 13.9388 11.3343 13.9175 11.3343 13.8857H11.0729C11.0729 13.9838 11.1081 14.072 11.1783 14.1417L11.3632 13.9581ZM11.3343 13.8857V10.7462H11.0729V13.8857H11.3343ZM11.3343 10.7462C11.3343 10.7144 11.3438 10.6931 11.3632 10.6739L11.1783 10.4903C11.1081 10.5599 11.0729 10.6481 11.0729 10.7462H11.3343ZM11.3666 10.6705C11.3867 10.6489 11.4071 10.6401 11.436 10.6401V10.3804C11.334 10.3804 11.2443 10.4196 11.1749 10.4937L11.3666 10.6705ZM11.436 10.6401H13.4445V10.3804H11.436V10.6401ZM13.4445 10.6401C13.4707 10.6401 13.4873 10.6477 13.5033 10.6651L13.6955 10.4888C13.629 10.4173 13.5422 10.3804 13.4445 10.3804V10.6401ZM13.5107 10.6724C13.5282 10.6884 13.5358 10.7048 13.5358 10.7309H13.7973C13.7973 10.6338 13.7601 10.5476 13.6881 10.4815L13.5107 10.6724ZM13.5358 10.7309C13.5358 10.7569 13.5282 10.7733 13.5107 10.7893L13.6881 10.9802C13.7601 10.9141 13.7973 10.8279 13.7973 10.7309H13.5358ZM13.507 10.7929C13.4918 10.808 13.4741 10.8164 13.4445 10.8164V11.0762C13.5388 11.0762 13.6245 11.0436 13.6918 10.9766L13.507 10.7929ZM13.4445 10.8164H11.6735V11.0762H13.4445V10.8164ZM11.5428 10.9463V12.08H11.8042V10.9463H11.5428ZM11.6735 12.2099H13.2638V11.9501H11.6735V12.2099ZM13.2638 12.2099C13.29 12.2099 13.3066 12.2175 13.3226 12.2348L13.5148 12.0586C13.4482 11.987 13.3615 11.9501 13.2638 11.9501V12.2099ZM13.33 12.2422C13.3475 12.2581 13.3551 12.2746 13.3551 12.3006H13.6166C13.6166 12.2035 13.5794 12.1173 13.5074 12.0512L13.33 12.2422ZM13.3551 12.3006C13.3551 12.3266 13.3475 12.3431 13.33 12.359L13.5074 12.5499C13.5794 12.4838 13.6166 12.3977 13.6166 12.3006H13.3551ZM13.3263 12.3627C13.3111 12.3777 13.2934 12.3862 13.2638 12.3862V12.6459C13.3581 12.6459 13.4437 12.6133 13.5111 12.5463L13.3263 12.3627ZM13.2638 12.3862H11.6735V12.6459H13.2638V12.3862ZM11.5428 12.516V13.8857H11.8042V12.516H11.5428ZM11.5428 13.8857C11.5428 13.9144 11.5339 13.9347 11.5122 13.9547L11.6901 14.1451C11.7648 14.0762 11.8042 13.987 11.8042 13.8857H11.5428ZM11.5088 13.9581C11.4894 13.9773 11.468 13.9867 11.436 13.9867V14.2464C11.5347 14.2464 11.6235 14.2114 11.6936 14.1417L11.5088 13.9581Z" fill="white"/>
<g filter="url(#filter1_d_329_811)">
<path d="M18.111 6.62338H12.8822C12.0881 6.62338 11.4443 5.98379 11.4443 5.19481V0L18.111 6.62338Z" fill="url(#paint2_linear_329_811)" fill-opacity="0.4"/>
</g>
</g>
</g>
<defs>
<filter id="filter0_f_329_811" x="-35.5293" y="-29.3247" width="89.6338" height="83.4546" filterUnits="userSpaceOnUse" color-interpolation-filters="sRGB">
<feFlood flood-opacity="0" result="BackgroundImageFix"/>
<feBlend mode="normal" in="SourceGraphic" in2="BackgroundImageFix" result="shape"/>
<feGaussianBlur stdDeviation="19.5" result="effect1_foregroundBlur_329_811"/>
</filter>
<filter id="filter1_d_329_811" x="-11.5557" y="-24" width="56.667" height="56.6234" filterUnits="userSpaceOnUse" color-interpolation-filters="sRGB">
<feFlood flood-opacity="0" result="BackgroundImageFix"/>
<feColorMatrix in="SourceAlpha" type="matrix" values="0 0 0 0 0 0 0 0 0 0 0 0 0 0 0 0 0 0 127 0" result="hardAlpha"/>
<feOffset dx="2" dy="1"/>
<feGaussianBlur stdDeviation="12.5"/>
<feColorMatrix type="matrix" values="0 0 0 0 0 0 0 0 0 0 0 0 0 0 0 0 0 0 0.33 0"/>
<feBlend mode="normal" in2="BackgroundImageFix" result="effect1_dropShadow_329_811"/>
<feBlend mode="normal" in="SourceGraphic" in2="effect1_dropShadow_329_811" result="shape"/>
</filter>
<linearGradient id="paint0_linear_329_811" x1="9.2219" y1="0" x2="9.2219" y2="20" gradientUnits="userSpaceOnUse">
<stop stop-color="#FF7979"/>
<stop offset="1" stop-color="#E85555"/>
</linearGradient>
<linearGradient id="paint1_linear_329_811" x1="9.2219" y1="0" x2="9.2219" y2="20" gradientUnits="userSpaceOnUse">
<stop stop-color="#A28AFF"/>
<stop offset="1" stop-color="#7655FB"/>
</linearGradient>
<linearGradient id="paint2_linear_329_811" x1="14.7777" y1="0" x2="14.7777" y2="6.62338" gradientUnits="userSpaceOnUse">
<stop stop-color="#8A71F1"/>
<stop offset="1" stop-color="#5C39E9"/>
</linearGradient>
<clipPath id="clip0_329_811">
<rect width="17.7778" height="20" fill="white" transform="translate(0.333008)"/>
</clipPath>
</defs>
</svg>
