<svg width="18" height="20" viewBox="0 0 18 20" fill="none" xmlns="http://www.w3.org/2000/svg">
<g clip-path="url(#clip0_329_822)">
<mask id="mask0_329_822" style="mask-type:alpha" maskUnits="userSpaceOnUse" x="0" y="0" width="18" height="20">
<path d="M16.4512 20H1.54924C0.755102 20 0.111328 19.3604 0.111328 18.5714V1.42857C0.111328 0.639594 0.755102 0 1.54924 0H11.2224L17.8891 6.62338V18.5714C17.8891 19.3604 17.2453 20 16.4512 20Z" fill="url(#paint0_linear_329_822)"/>
</mask>
<g mask="url(#mask0_329_822)">
<path d="M16.4512 20H1.54924C0.755102 20 0.111328 19.3604 0.111328 18.5714V1.42857C0.111328 0.639594 0.755102 0 1.54924 0H11.2224L17.8891 6.62338V18.5714C17.8891 19.3604 17.2453 20 16.4512 20Z" fill="url(#paint1_linear_329_822)" fill-opacity="0.4"/>
<g opacity="0.51" filter="url(#filter0_f_329_822)">
<g style="mix-blend-mode:darken" opacity="0.51">
<path d="M14.883 9.67529H3.24902V15.1298H14.883V9.67529Z" fill="#E33CC8"/>
</g>
</g>
<path d="M4.31205 14.1422C4.06076 14.1422 3.83185 14.0841 3.62531 13.9678C3.54958 13.9233 3.51172 13.8601 3.51172 13.778C3.51172 13.7233 3.52893 13.6754 3.56335 13.6344C3.60122 13.5899 3.64941 13.5677 3.70793 13.5677C3.74235 13.5677 3.77333 13.5745 3.80087 13.5882C3.95922 13.6635 4.11928 13.7011 4.28107 13.7011C4.46695 13.7011 4.61669 13.6481 4.73028 13.542C4.84732 13.436 4.90584 13.2359 4.90584 12.9418V10.7206C4.90584 10.6556 4.92821 10.6009 4.97296 10.5565C5.01771 10.5086 5.07278 10.4846 5.13819 10.4846C5.20359 10.4846 5.25867 10.5086 5.30342 10.5565C5.35161 10.6009 5.37571 10.6556 5.37571 10.7206V12.9111C5.37571 13.3591 5.27416 13.6771 5.07107 13.8652C4.87141 14.0499 4.61841 14.1422 4.31205 14.1422ZM6.94446 14.1166C6.87904 14.1166 6.82394 14.0944 6.77924 14.0499C6.73446 14.0054 6.71211 13.9507 6.71211 13.8857V10.7463C6.71211 10.6813 6.73446 10.6266 6.77924 10.5821C6.82394 10.5342 6.87904 10.5103 6.94446 10.5103H8.12172C8.44871 10.5103 8.71551 10.565 8.92205 10.6744C9.12858 10.7839 9.27656 10.9241 9.3661 11.0951C9.45557 11.2661 9.50035 11.4507 9.50035 11.6491C9.50035 11.8475 9.45557 12.0322 9.3661 12.2031C9.27656 12.3741 9.12858 12.5144 8.92205 12.6238C8.71551 12.7332 8.44871 12.7879 8.12172 12.7879H7.18198V13.8857C7.18198 13.9507 7.15786 14.0054 7.10969 14.0499C7.06492 14.0944 7.00982 14.1166 6.94446 14.1166ZM8.07525 12.3468C8.42636 12.3468 8.67244 12.2801 8.81361 12.1467C8.95819 12.0133 9.03048 11.8475 9.03048 11.6491C9.03048 11.4507 8.95819 11.2849 8.81361 11.1515C8.67244 11.0181 8.42636 10.9515 8.07525 10.9515H7.18198V12.3468H8.07525ZM12.1382 14.1422C11.7836 14.1422 11.4686 14.0653 11.1933 13.9114C10.9179 13.754 10.7045 13.5369 10.553 13.2599C10.4016 12.9794 10.3258 12.6614 10.3258 12.3057C10.3258 11.9432 10.405 11.6218 10.5634 11.3413C10.7217 11.0609 10.9368 10.8437 11.2088 10.6898C11.4841 10.5359 11.7888 10.459 12.1227 10.459C12.3912 10.459 12.6252 10.4915 12.8249 10.5565C13.028 10.6215 13.2225 10.712 13.4084 10.8283C13.4359 10.842 13.46 10.8659 13.4807 10.9002C13.5013 10.9344 13.5117 10.972 13.5117 11.013C13.5117 11.0711 13.491 11.1207 13.4497 11.1618C13.4118 11.2028 13.3602 11.2233 13.2948 11.2233C13.2569 11.2233 13.2208 11.2148 13.1864 11.1977C13.0246 11.1019 12.8628 11.0301 12.701 10.9822C12.5392 10.9344 12.3637 10.9104 12.1743 10.9104C11.9127 10.9104 11.6769 10.9652 11.4669 11.0746C11.2569 11.184 11.0917 11.3448 10.9713 11.5568C10.8542 11.7654 10.7957 12.015 10.7957 12.3057C10.7957 12.5725 10.8508 12.8119 10.9609 13.0239C11.0745 13.2326 11.2363 13.3984 11.4463 13.5215C11.6597 13.6412 11.911 13.7011 12.2002 13.7011C12.5237 13.7011 12.8249 13.6258 13.1037 13.4753V12.5468H12.2518C12.1933 12.5468 12.1434 12.5263 12.102 12.4853C12.0607 12.4442 12.0401 12.3946 12.0401 12.3365C12.0401 12.2784 12.0607 12.2288 12.102 12.1878C12.1434 12.1467 12.1933 12.1262 12.2518 12.1262H13.269C13.3378 12.1262 13.3964 12.1502 13.4445 12.198C13.4927 12.2459 13.5168 12.304 13.5168 12.3724V13.5369C13.5168 13.6087 13.4979 13.6737 13.46 13.7318C13.4256 13.7866 13.3791 13.8276 13.3206 13.855C12.9351 14.0465 12.5409 14.1422 12.1382 14.1422Z" fill="white"/>
<path d="M3.62517 13.9678L3.55867 14.0796L3.5597 14.0802L3.56073 14.0808L3.62517 13.9678ZM3.56321 13.6344L3.46342 13.5505L3.46311 13.5509L3.46279 13.5512L3.56321 13.6344ZM3.80073 13.5882L3.74227 13.7044L3.7433 13.7049L3.74433 13.7053L3.80073 13.5882ZM4.73014 13.542L4.64207 13.4461L4.64135 13.4467L4.64064 13.4473L4.73014 13.542ZM4.97282 10.5564L5.06525 10.6483L5.06696 10.6466L5.06861 10.6448L4.97282 10.5564ZM5.30328 10.5564L5.20749 10.6448L5.21078 10.6483L5.21433 10.6516L5.30328 10.5564ZM5.07092 13.8652L5.16 13.9603L5.16006 13.9602L5.07092 13.8652ZM4.31191 14.0123C4.08184 14.0123 3.87534 13.9594 3.68962 13.8548L3.56073 14.0808C3.78808 14.2088 4.0394 14.2721 4.31191 14.2721V14.0123ZM3.69168 13.856C3.6526 13.8331 3.6423 13.8107 3.6423 13.778H3.38086C3.38086 13.9095 3.44628 14.0136 3.55867 14.0796L3.69168 13.856ZM3.6423 13.778C3.6423 13.7529 3.6493 13.7346 3.66363 13.7175L3.46279 13.5512C3.40828 13.6162 3.38086 13.6937 3.38086 13.778H3.6423ZM3.663 13.7183C3.67608 13.7029 3.68779 13.6975 3.70779 13.6975V13.4378C3.61074 13.4378 3.52607 13.4769 3.46342 13.5505L3.663 13.7183ZM3.70779 13.6975C3.72434 13.6975 3.73493 13.7007 3.74227 13.7044L3.85919 13.472C3.81145 13.4483 3.76008 13.4378 3.70779 13.4378V13.6975ZM3.74433 13.7053C3.91876 13.7883 4.098 13.8309 4.28092 13.8309V13.5712C4.14028 13.5712 3.99938 13.5386 3.85713 13.471L3.74433 13.7053ZM4.28092 13.8309C4.49326 13.8309 4.67726 13.7696 4.81964 13.6367L4.64064 13.4473C4.55583 13.5265 4.44036 13.5712 4.28092 13.5712V13.8309ZM4.81821 13.638C4.97826 13.493 5.03642 13.2436 5.03642 12.9418H4.77498C4.77498 13.2283 4.71609 13.379 4.64207 13.4461L4.81821 13.638ZM5.03642 12.9418V10.7206H4.77498V12.9418H5.03642ZM5.03642 10.7206C5.03642 10.6888 5.04592 10.6675 5.06525 10.6483L4.88039 10.4646C4.81022 10.5343 4.77498 10.6225 4.77498 10.7206H5.03642ZM5.06861 10.6448C5.08878 10.6233 5.10923 10.6145 5.13805 10.6145V10.3548C5.03607 10.3548 4.94636 10.3939 4.87703 10.4681L5.06861 10.6448ZM5.13805 10.6145C5.16687 10.6145 5.18732 10.6233 5.20749 10.6448L5.39907 10.4681C5.32974 10.3939 5.24003 10.3548 5.13805 10.3548V10.6145ZM5.21433 10.6516C5.23606 10.6716 5.24485 10.692 5.24485 10.7206H5.50628C5.50628 10.6193 5.46689 10.5301 5.39223 10.4612L5.21433 10.6516ZM5.24485 10.7206V12.9111H5.50628V10.7206H5.24485ZM5.24485 12.9111C5.24485 13.3448 5.14576 13.6184 4.98179 13.7702L5.16006 13.9602C5.40228 13.7359 5.50628 13.3733 5.50628 12.9111H5.24485ZM4.98185 13.7701C4.80943 13.9296 4.5896 14.0123 4.31191 14.0123V14.2721C4.64692 14.2721 4.93312 14.1701 5.16 13.9603L4.98185 13.7701ZM6.77909 14.0499L6.87151 13.9581L6.77909 14.0499ZM6.77909 10.5821L6.87151 10.6739L6.87321 10.6722L6.87485 10.6705L6.77909 10.5821ZM8.92191 10.6744L8.98341 10.5598L8.92191 10.6744ZM9.36596 11.0951L9.24995 11.155L9.36596 11.0951ZM9.36596 12.2031L9.24995 12.1432L9.36596 12.2031ZM8.92191 12.6238L8.98341 12.7384L8.92191 12.6238ZM7.18184 12.7879V12.6581H7.05112V12.7879H7.18184ZM7.10955 14.0499L7.0206 13.9547L7.01883 13.9564L7.01713 13.9581L7.10955 14.0499ZM8.81347 12.1467L8.72452 12.0515L8.72393 12.0521L8.72334 12.0526L8.81347 12.1467ZM8.81347 11.1515L8.72334 11.2456L8.72393 11.2461L8.72452 11.2467L8.81347 11.1515ZM7.18184 10.9514V10.8216H7.05112V10.9514H7.18184ZM7.18184 12.3468H7.05112V12.4766H7.18184V12.3468ZM6.94432 13.9867C6.9123 13.9867 6.89086 13.9773 6.87151 13.9581L6.68668 14.1417C6.75681 14.2114 6.84557 14.2464 6.94432 14.2464V13.9867ZM6.87151 13.9581C6.85217 13.9388 6.84269 13.9175 6.84269 13.8857H6.58124C6.58124 13.9838 6.61649 14.072 6.68668 14.1417L6.87151 13.9581ZM6.84269 13.8857V10.7462H6.58124V13.8857H6.84269ZM6.84269 10.7462C6.84269 10.7144 6.85217 10.6931 6.87151 10.6739L6.68668 10.4903C6.61649 10.5599 6.58124 10.6481 6.58124 10.7462H6.84269ZM6.87485 10.6705C6.89504 10.6489 6.9155 10.6401 6.94432 10.6401V10.3804C6.84236 10.3804 6.75262 10.4196 6.68328 10.4937L6.87485 10.6705ZM6.94432 10.6401H8.12158V10.3804H6.94432V10.6401ZM8.12158 10.6401C8.43517 10.6401 8.67877 10.6928 8.8604 10.789L8.98341 10.5598C8.75191 10.4372 8.46197 10.3804 8.12158 10.3804V10.6401ZM8.8604 10.789C9.04851 10.8887 9.17498 11.0117 9.24995 11.155L9.48191 11.0351C9.37792 10.8364 9.20838 10.679 8.98341 10.5598L8.8604 10.789ZM9.24995 11.155C9.32949 11.307 9.36949 11.471 9.36949 11.6491H9.63093C9.63093 11.4305 9.58138 11.2252 9.48191 11.0351L9.24995 11.155ZM9.36949 11.6491C9.36949 11.8272 9.32949 11.9912 9.24995 12.1432L9.48191 12.2631C9.58138 12.073 9.63093 11.8677 9.63093 11.6491H9.36949ZM9.24995 12.1432C9.17498 12.2865 9.04851 12.4095 8.8604 12.5092L8.98341 12.7384C9.20838 12.6192 9.37792 12.4618 9.48191 12.2631L9.24995 12.1432ZM8.8604 12.5092C8.67877 12.6054 8.43517 12.6581 8.12158 12.6581V12.9178C8.46197 12.9178 8.75191 12.8611 8.98341 12.7384L8.8604 12.5092ZM8.12158 12.6581H7.18184V12.9178H8.12158V12.6581ZM7.05112 12.7879V13.8857H7.31256V12.7879H7.05112ZM7.05112 13.8857C7.05112 13.9144 7.0423 13.9347 7.0206 13.9547L7.19851 14.1451C7.27315 14.0762 7.31256 13.987 7.31256 13.8857H7.05112ZM7.01713 13.9581C6.99779 13.9773 6.97635 13.9867 6.94432 13.9867V14.2464C7.04308 14.2464 7.13177 14.2114 7.20197 14.1417L7.01713 13.9581ZM8.07511 12.4766C8.43537 12.4766 8.72485 12.4097 8.90354 12.2408L8.72334 12.0526C8.61981 12.1505 8.41707 12.2169 8.07511 12.2169V12.4766ZM8.90243 12.2419C9.074 12.0836 9.16106 11.8831 9.16106 11.6491H8.89962C8.89962 11.8118 8.8421 11.9431 8.72452 12.0515L8.90243 12.2419ZM9.16106 11.6491C9.16106 11.4151 9.074 11.2146 8.90243 11.0563L8.72452 11.2467C8.8421 11.3551 8.89962 11.4864 8.89962 11.6491H9.16106ZM8.90354 11.0574C8.72485 10.8885 8.43537 10.8216 8.07511 10.8216V11.0813C8.41707 11.0813 8.61981 11.1477 8.72334 11.2456L8.90354 11.0574ZM8.07511 10.8216H7.18184V11.0813H8.07511V10.8216ZM7.05112 10.9514V12.3468H7.31256V10.9514H7.05112ZM7.18184 12.4766H8.07511V12.2169H7.18184V12.4766ZM11.1931 13.9114L11.128 14.024L11.1285 14.0243L11.129 14.0246L11.1931 13.9114ZM10.5529 13.2599L10.4377 13.3213L10.438 13.3219L10.5529 13.2599ZM10.5632 11.3413L10.6772 11.4049L10.5632 11.3413ZM11.2086 10.6898L11.1445 10.5766L11.1439 10.577L11.2086 10.6898ZM12.8248 10.5564L12.7841 10.6799L12.7847 10.6801L12.8248 10.5564ZM13.4082 10.8283L13.3386 10.9382L13.3441 10.9416L13.3497 10.9445L13.4082 10.8283ZM13.4805 10.9001L13.3684 10.967L13.4805 10.9001ZM13.4496 11.1618L13.3571 11.0699L13.3551 11.072L13.3532 11.074L13.4496 11.1618ZM13.1862 11.1977L13.1193 11.3092L13.1235 11.3117L13.1277 11.3138L13.1862 11.1977ZM12.7009 10.9822L12.7382 10.8577L12.7009 10.9822ZM11.4668 11.0746L11.5275 11.1896L11.4668 11.0746ZM10.9711 11.5568L10.8573 11.4929L10.8569 11.4935L10.9711 11.5568ZM10.9608 13.0239L10.8447 13.0835L10.8452 13.0846L10.8458 13.0857L10.9608 13.0239ZM11.4462 13.5215L11.3797 13.6333L11.3808 13.634L11.3819 13.6346L11.4462 13.5215ZM13.1036 13.4753L13.166 13.5894L13.2343 13.5526V13.4753H13.1036ZM13.1036 12.5468H13.2343V12.417H13.1036V12.5468ZM12.1019 12.4853L12.0095 12.5771L12.1019 12.4853ZM12.1019 12.1877L12.0095 12.0959L12.1019 12.1877ZM13.4599 13.7318L13.3501 13.6612L13.3496 13.6622L13.349 13.663L13.4599 13.7318ZM13.3205 13.8549L13.2648 13.7374L13.2634 13.7381L13.262 13.7388L13.3205 13.8549ZM12.138 14.0123C11.8031 14.0123 11.5107 13.9399 11.2572 13.7982L11.129 14.0246C11.4263 14.1907 11.7639 14.2721 12.138 14.2721V14.0123ZM11.2583 13.7988C11.0039 13.6535 10.8077 13.4538 10.6677 13.1979L10.438 13.3219C10.6011 13.62 10.8316 13.8547 11.128 14.024L11.2583 13.7988ZM10.668 13.1985C10.528 12.939 10.4564 12.6425 10.4564 12.3057H10.195C10.195 12.6803 10.2749 13.0198 10.4377 13.3213L10.668 13.1985ZM10.4564 12.3057C10.4564 11.9626 10.5312 11.6635 10.6772 11.4049L10.4492 11.2777C10.2786 11.58 10.195 11.9238 10.195 12.3057H10.4564ZM10.6772 11.4049C10.8243 11.1442 11.0228 10.9445 11.2733 10.8027L11.1439 10.577C10.8506 10.7429 10.6188 10.9775 10.4492 11.2777L10.6772 11.4049ZM11.2727 10.803C11.5274 10.6607 11.8098 10.5888 12.1226 10.5888V10.3291C11.7675 10.3291 11.4406 10.4112 11.1445 10.5766L11.2727 10.803ZM12.1226 10.5888C12.3809 10.5888 12.6007 10.6201 12.7841 10.6799L12.8655 10.433C12.6496 10.3628 12.4013 10.3291 12.1226 10.3291V10.5888ZM12.7847 10.6801C12.9771 10.7416 13.1617 10.8275 13.3386 10.9382L13.4779 10.7185C13.283 10.5965 13.0786 10.5012 12.8648 10.4328L12.7847 10.6801ZM13.3497 10.9445C13.3498 10.9445 13.3502 10.9447 13.3509 10.9452C13.3517 10.9458 13.3529 10.9468 13.3545 10.9484C13.3579 10.9516 13.3627 10.9574 13.3684 10.967L13.5926 10.8333C13.563 10.7843 13.5223 10.7398 13.4667 10.7122L13.3497 10.9445ZM13.3684 10.967C13.3765 10.9804 13.3808 10.9948 13.3808 11.013H13.6422C13.6422 10.9492 13.6258 10.8883 13.5926 10.8333L13.3684 10.967ZM13.3808 11.013C13.3808 11.0368 13.3739 11.0533 13.3571 11.0699L13.542 11.2536C13.6079 11.1881 13.6422 11.1055 13.6422 11.013H13.3808ZM13.3532 11.074C13.3443 11.0836 13.3301 11.0935 13.2947 11.0935V11.3532C13.39 11.3532 13.4791 11.322 13.5459 11.2495L13.3532 11.074ZM13.2947 11.0935C13.2774 11.0935 13.2613 11.0898 13.2446 11.0815L13.1277 11.3138C13.18 11.3398 13.2362 11.3532 13.2947 11.3532V11.0935ZM13.2531 11.0861C13.0831 10.9855 12.9114 10.909 12.7382 10.8577L12.6635 11.1067C12.8139 11.1512 12.9658 11.2184 13.1193 11.3092L13.2531 11.0861ZM12.7382 10.8577C12.5629 10.8059 12.3747 10.7805 12.1742 10.7805V11.0403C12.3524 11.0403 12.5152 11.0628 12.6635 11.1067L12.7382 10.8577ZM12.1742 10.7805C11.8937 10.7805 11.6367 10.8394 11.4061 10.9596L11.5275 11.1896C11.7169 11.0909 11.9315 11.0403 12.1742 11.0403V10.7805ZM11.4061 10.9596C11.173 11.081 10.9897 11.2599 10.8573 11.4929L11.085 11.6206C11.1935 11.4296 11.3406 11.287 11.5275 11.1896L11.4061 10.9596ZM10.8569 11.4935C10.7269 11.7253 10.6648 11.9977 10.6648 12.3057H10.9263C10.9263 12.0324 10.9813 11.8055 11.0853 11.62L10.8569 11.4935ZM10.6648 12.3057C10.6648 12.5907 10.7238 12.8509 10.8447 13.0835L11.0769 12.9644C10.9775 12.7728 10.9263 12.5542 10.9263 12.3057H10.6648ZM10.8458 13.0857C10.971 13.3155 11.1497 13.4985 11.3797 13.6333L11.5126 13.4097C11.3226 13.2983 11.1778 13.1495 11.0758 12.9621L10.8458 13.0857ZM11.3819 13.6346C11.6182 13.7672 11.8924 13.8309 12.2 13.8309V13.5712C11.9293 13.5712 11.701 13.5153 11.5104 13.4084L11.3819 13.6346ZM12.2 13.8309C12.5449 13.8309 12.8677 13.7505 13.166 13.5894L13.0412 13.3612C12.7819 13.5011 12.5022 13.5712 12.2 13.5712V13.8309ZM13.2343 13.4753V12.5468H12.9729V13.4753H13.2343ZM13.1036 12.417H12.2516V12.6767H13.1036V12.417ZM12.2516 12.417C12.2277 12.417 12.2111 12.4101 12.1943 12.3935L12.0095 12.5771C12.0754 12.6425 12.1585 12.6767 12.2516 12.6767V12.417ZM12.1943 12.3935C12.1776 12.3768 12.1707 12.3603 12.1707 12.3365H11.9092C11.9092 12.429 11.9436 12.5116 12.0095 12.5771L12.1943 12.3935ZM12.1707 12.3365C12.1707 12.3127 12.1776 12.2962 12.1943 12.2796L12.0095 12.0959C11.9436 12.1614 11.9092 12.244 11.9092 12.3365H12.1707ZM12.1943 12.2796C12.2111 12.2629 12.2277 12.256 12.2516 12.256V11.9963C12.1585 11.9963 12.0754 12.0305 12.0095 12.0959L12.1943 12.2796ZM12.2516 12.256H13.2688V11.9963H12.2516V12.256ZM13.2688 12.256C13.3034 12.256 13.3286 12.2666 13.352 12.2898L13.5368 12.1062C13.4638 12.0336 13.372 11.9963 13.2688 11.9963V12.256ZM13.352 12.2898C13.3754 12.3131 13.386 12.3381 13.386 12.3724H13.6474C13.6474 12.2699 13.6098 12.1786 13.5368 12.1062L13.352 12.2898ZM13.386 12.3724V13.5369H13.6474V12.3724H13.386ZM13.386 13.5369C13.386 13.5847 13.3738 13.6249 13.3501 13.6612L13.5696 13.8024C13.6217 13.7224 13.6474 13.6327 13.6474 13.5369H13.386ZM13.349 13.663C13.3279 13.6966 13.3005 13.7207 13.2648 13.7374L13.3762 13.9725C13.4575 13.9344 13.5231 13.8764 13.5707 13.8007L13.349 13.663ZM13.262 13.7388C12.8933 13.922 12.5191 14.0123 12.138 14.0123V14.2721C12.5625 14.2721 12.9765 14.171 13.3789 13.9711L13.262 13.7388Z" fill="white"/>
<g filter="url(#filter1_d_329_822)">
<path d="M17.8893 6.62338H12.6606C11.8664 6.62338 11.2227 5.98379 11.2227 5.19481V0L17.8893 6.62338Z" fill="url(#paint2_linear_329_822)" fill-opacity="0.4"/>
</g>
</g>
</g>
<defs>
<filter id="filter0_f_329_822" x="-35.751" y="-29.3247" width="89.6338" height="83.4546" filterUnits="userSpaceOnUse" color-interpolation-filters="sRGB">
<feFlood flood-opacity="0" result="BackgroundImageFix"/>
<feBlend mode="normal" in="SourceGraphic" in2="BackgroundImageFix" result="shape"/>
<feGaussianBlur stdDeviation="19.5" result="effect1_foregroundBlur_329_822"/>
</filter>
<filter id="filter1_d_329_822" x="-11.7773" y="-24" width="56.667" height="56.6234" filterUnits="userSpaceOnUse" color-interpolation-filters="sRGB">
<feFlood flood-opacity="0" result="BackgroundImageFix"/>
<feColorMatrix in="SourceAlpha" type="matrix" values="0 0 0 0 0 0 0 0 0 0 0 0 0 0 0 0 0 0 127 0" result="hardAlpha"/>
<feOffset dx="2" dy="1"/>
<feGaussianBlur stdDeviation="12.5"/>
<feColorMatrix type="matrix" values="0 0 0 0 0 0 0 0 0 0 0 0 0 0 0 0 0 0 0.33 0"/>
<feBlend mode="normal" in2="BackgroundImageFix" result="effect1_dropShadow_329_822"/>
<feBlend mode="normal" in="SourceGraphic" in2="effect1_dropShadow_329_822" result="shape"/>
</filter>
<linearGradient id="paint0_linear_329_822" x1="9.00022" y1="0" x2="9.00022" y2="20" gradientUnits="userSpaceOnUse">
<stop stop-color="#FF7979"/>
<stop offset="1" stop-color="#E85555"/>
</linearGradient>
<linearGradient id="paint1_linear_329_822" x1="9.00022" y1="0" x2="9.00022" y2="20" gradientUnits="userSpaceOnUse">
<stop stop-color="#ED81FF"/>
<stop offset="1" stop-color="#DC5DD7"/>
</linearGradient>
<linearGradient id="paint2_linear_329_822" x1="12.6932" y1="-2.07792" x2="14.5329" y2="6.62825" gradientUnits="userSpaceOnUse">
<stop stop-color="#F171BE"/>
<stop offset="1" stop-color="#D823D1"/>
</linearGradient>
<clipPath id="clip0_329_822">
<rect width="17.7778" height="20" fill="white" transform="translate(0.111328)"/>
</clipPath>
</defs>
</svg>
