<svg width="19" height="20" viewBox="0 0 19 20" fill="none" xmlns="http://www.w3.org/2000/svg">
<g clip-path="url(#clip0_329_757)">
<mask id="mask0_329_757" style="mask-type:alpha" maskUnits="userSpaceOnUse" x="0" y="0" width="19" height="20">
<path d="M16.7842 20H1.88224C1.08811 20 0.444336 19.3604 0.444336 18.5714V1.42857C0.444336 0.639594 1.08811 0 1.88224 0H11.5554L18.2221 6.62338V18.5714C18.2221 19.3604 17.5783 20 16.7842 20Z" fill="url(#paint0_linear_329_757)"/>
</mask>
<g mask="url(#mask0_329_757)">
<path d="M16.7842 20H1.88224C1.08811 20 0.444336 19.3604 0.444336 18.5714V1.42857C0.444336 0.639594 1.08811 0 1.88224 0H11.5554L18.2221 6.62338V18.5714C18.2221 19.3604 17.5783 20 16.7842 20Z" fill="url(#paint1_linear_329_757)" fill-opacity="0.4"/>
<g opacity="0.2" filter="url(#filter0_f_329_757)">
<g style="mix-blend-mode:darken" opacity="0.2">
<path d="M15.216 9.67529H3.58203V15.1298H15.216V9.67529Z" fill="#780AAF"/>
</g>
</g>
<path d="M3.68938 14.1166C3.62398 14.1166 3.56891 14.0944 3.52416 14.0499C3.4794 14.0054 3.45703 13.9507 3.45703 13.8857V10.8232C3.45703 10.7309 3.48973 10.6522 3.55514 10.5872C3.62054 10.5188 3.69971 10.4846 3.79265 10.4846H3.96304C4.03189 10.4846 4.09385 10.5051 4.14893 10.5462C4.20744 10.5872 4.25048 10.6385 4.27801 10.7001L5.4501 13.6036L6.6222 10.7001C6.64974 10.6385 6.69105 10.5872 6.74612 10.5462C6.80464 10.5051 6.86832 10.4846 6.93716 10.4846H7.10756C7.2005 10.4846 7.27965 10.5188 7.34508 10.5872C7.4105 10.6522 7.44318 10.7309 7.44318 10.8232V13.8857C7.44318 13.9507 7.42083 14.0054 7.37606 14.0499C7.33129 14.0944 7.27625 14.1166 7.21083 14.1166C7.1454 14.1166 7.08861 14.0944 7.04044 14.0499C6.99567 14.0054 6.97331 13.9507 6.97331 13.8857V10.972L5.78056 13.9011C5.75303 13.9661 5.70827 14.0191 5.64631 14.0601C5.5878 14.0977 5.52239 14.1166 5.4501 14.1166C5.37782 14.1166 5.31069 14.0977 5.24873 14.0601C5.19021 14.0191 5.14719 13.9661 5.11965 13.9011L3.9269 10.972V13.8857C3.9269 13.9507 3.9028 14.0054 3.85461 14.0499C3.80986 14.0944 3.75479 14.1166 3.68938 14.1166ZM9.03776 14.1166C8.97233 14.1166 8.91723 14.0944 8.87253 14.0499C8.82776 14.0054 8.80541 13.9507 8.80541 13.8857V10.7206C8.80541 10.6556 8.82776 10.6009 8.87253 10.5564C8.91723 10.5086 8.97233 10.4846 9.03776 10.4846C9.10312 10.4846 9.15822 10.5086 9.20299 10.5564C9.25116 10.6009 9.27527 10.6556 9.27527 10.7206V12.3519L11.0412 10.5667C11.0893 10.512 11.1478 10.4846 11.2167 10.4846C11.2752 10.4846 11.3251 10.5051 11.3665 10.5462C11.4112 10.5838 11.4336 10.6317 11.4336 10.6898C11.4336 10.7582 11.4146 10.8112 11.3768 10.8488L10.184 12.0287L11.5523 13.7421C11.5902 13.7899 11.6091 13.8396 11.6091 13.8909C11.6125 13.9524 11.5919 14.0054 11.5472 14.0499C11.5024 14.0944 11.4473 14.1166 11.3819 14.1166C11.3027 14.1166 11.2408 14.0858 11.1961 14.0242L9.8639 12.3365L9.27527 12.9264V13.8857C9.27527 13.9507 9.25116 14.0054 9.20299 14.0499C9.15822 14.0944 9.10312 14.1166 9.03776 14.1166ZM13.86 14.1166C13.7188 14.1166 13.6121 14.0379 13.5399 13.8806L12.2645 10.8078C12.2542 10.7805 12.249 10.7514 12.249 10.7206C12.249 10.6488 12.2697 10.5923 12.311 10.5513C12.3523 10.5068 12.4091 10.4846 12.4814 10.4846C12.5295 10.4846 12.5725 10.5 12.6104 10.5308C12.6517 10.5581 12.6827 10.5958 12.7034 10.6436L13.9168 13.6497L15.1302 10.6436C15.1508 10.5958 15.18 10.5581 15.218 10.5308C15.2593 10.5 15.304 10.4846 15.3522 10.4846C15.4245 10.4846 15.4813 10.5068 15.5226 10.5513C15.5639 10.5923 15.5846 10.6488 15.5846 10.7206C15.5846 10.7514 15.5794 10.7805 15.5691 10.8078L14.2937 13.8806C14.2214 14.0379 14.1147 14.1166 13.9736 14.1166H13.86Z" fill="white"/>
<path d="M3.52402 14.0499L3.61645 13.958L3.52402 14.0499ZM3.555 10.5872L3.64743 10.679L3.64862 10.6779L3.64977 10.6766L3.555 10.5872ZM4.14879 10.5462L4.07035 10.6501L4.07186 10.6512L4.0734 10.6523L4.14879 10.5462ZM4.27787 10.7001L4.3992 10.6517L4.3983 10.6495L4.39732 10.6473L4.27787 10.7001ZM5.44996 13.6036L5.32864 13.6519L5.44996 13.9525L5.57129 13.6519L5.44996 13.6036ZM6.62205 10.7001L6.5026 10.6473L6.50162 10.6495L6.50073 10.6517L6.62205 10.7001ZM6.74598 10.5462L6.6706 10.4401L6.66905 10.4412L6.66754 10.4423L6.74598 10.5462ZM7.34494 10.5872L7.25017 10.6766L7.25134 10.6779L7.25252 10.679L7.34494 10.5872ZM7.37592 14.0499L7.46834 14.1417L7.37592 14.0499ZM7.0403 14.0499L6.94786 14.1417L6.94957 14.1434L6.95134 14.1451L7.0403 14.0499ZM6.97317 10.9719H7.10389L6.85199 10.9232L6.97317 10.9719ZM5.78042 13.9011L5.9009 13.9515L5.90126 13.9506L5.9016 13.9498L5.78042 13.9011ZM5.64617 14.0601L5.71718 14.1692L5.71794 14.1687L5.71868 14.1682L5.64617 14.0601ZM5.24859 14.0601L5.17321 14.1662L5.17674 14.1687L5.18043 14.171L5.24859 14.0601ZM5.11951 13.9011L4.99833 13.9498L4.99867 13.9506L4.99903 13.9515L5.11951 13.9011ZM3.92676 10.9719L4.04794 10.9232L3.79604 10.9719H3.92676ZM3.85447 14.0499L3.76552 13.9547L3.76375 13.9564L3.76204 13.958L3.85447 14.0499ZM3.68924 13.9867C3.65721 13.9867 3.63578 13.9773 3.61645 13.958L3.43158 14.1417C3.50175 14.2114 3.59047 14.2464 3.68924 14.2464V13.9867ZM3.61645 13.958C3.59711 13.9388 3.58761 13.9175 3.58761 13.8857H3.32617C3.32617 13.9838 3.36142 14.072 3.43158 14.1417L3.61645 13.958ZM3.58761 13.8857V10.8232H3.32617V13.8857H3.58761ZM3.58761 10.8232C3.58761 10.7651 3.60668 10.7195 3.64743 10.679L3.46256 10.4954C3.37251 10.5849 3.32617 10.6966 3.32617 10.8232H3.58761ZM3.64977 10.6766C3.6911 10.6334 3.73627 10.6145 3.79251 10.6145V10.3547C3.66287 10.3547 3.5497 10.4042 3.46022 10.4977L3.64977 10.6766ZM3.79251 10.6145H3.9629V10.3547H3.79251V10.6145ZM3.9629 10.6145C4.00347 10.6145 4.0379 10.6259 4.07035 10.6501L4.22722 10.4423C4.14952 10.3843 4.06003 10.3547 3.9629 10.3547V10.6145ZM4.0734 10.6523C4.11379 10.6806 4.14101 10.7139 4.15842 10.7528L4.39732 10.6473C4.35966 10.5631 4.30082 10.4938 4.22417 10.4401L4.0734 10.6523ZM4.15654 10.7484L5.32864 13.6519L5.57129 13.5553L4.3992 10.6517L4.15654 10.7484ZM5.57129 13.6519L6.74338 10.7484L6.50073 10.6517L5.32864 13.5553L5.57129 13.6519ZM6.74151 10.7528C6.75985 10.7118 6.78688 10.678 6.82441 10.6501L6.66754 10.4423C6.59492 10.4964 6.53934 10.5652 6.5026 10.6473L6.74151 10.7528ZM6.82136 10.6523C6.85877 10.626 6.89631 10.6145 6.93702 10.6145V10.3547C6.84004 10.3547 6.75022 10.3842 6.6706 10.4401L6.82136 10.6523ZM6.93702 10.6145H7.10742V10.3547H6.93702V10.6145ZM7.10742 10.6145C7.16363 10.6145 7.20886 10.6334 7.25017 10.6766L7.43971 10.4977C7.35023 10.4042 7.23703 10.3547 7.10742 10.3547V10.6145ZM7.25252 10.679C7.29324 10.7195 7.31232 10.7651 7.31232 10.8232H7.57376C7.57376 10.6966 7.52742 10.5849 7.43736 10.4954L7.25252 10.679ZM7.31232 10.8232V13.8857H7.57376V10.8232H7.31232ZM7.31232 13.8857C7.31232 13.9175 7.30284 13.9388 7.2835 13.958L7.46834 14.1417C7.53853 14.072 7.57376 13.9838 7.57376 13.8857H7.31232ZM7.2835 13.958C7.26415 13.9773 7.24271 13.9867 7.21069 13.9867V14.2464C7.30945 14.2464 7.3982 14.2114 7.46834 14.1417L7.2835 13.958ZM7.21069 13.9867C7.17847 13.9867 7.15337 13.977 7.12925 13.9547L6.95134 14.1451C7.02356 14.2117 7.11206 14.2464 7.21069 14.2464V13.9867ZM7.13271 13.958C7.11337 13.9388 7.10389 13.9175 7.10389 13.8857H6.84245C6.84245 13.9838 6.87769 14.072 6.94786 14.1417L7.13271 13.958ZM7.10389 13.8857V10.9719H6.84245V13.8857H7.10389ZM6.85199 10.9232L5.65924 13.8524L5.9016 13.9498L7.09435 11.0206L6.85199 10.9232ZM5.65995 13.8507C5.64286 13.891 5.6154 13.9244 5.57366 13.9521L5.71868 14.1682C5.80086 14.1138 5.8629 14.0412 5.9009 13.9515L5.65995 13.8507ZM5.57516 13.9511C5.53861 13.9746 5.49804 13.9867 5.44996 13.9867V14.2464C5.54646 14.2464 5.6367 14.2209 5.71718 14.1692L5.57516 13.9511ZM5.44996 13.9867C5.40184 13.9867 5.35829 13.9745 5.31675 13.9493L5.18043 14.171C5.26281 14.221 5.35351 14.2464 5.44996 14.2464V13.9867ZM5.32398 13.954C5.28524 13.9269 5.25794 13.893 5.23998 13.8507L4.99903 13.9515C5.03615 14.0391 5.09491 14.1113 5.17321 14.1662L5.32398 13.954ZM5.24068 13.8524L4.04794 10.9232L3.80558 11.0206L4.99833 13.9498L5.24068 13.8524ZM3.79604 10.9719V13.8857H4.05748V10.9719H3.79604ZM3.79604 13.8857C3.79604 13.9143 3.78725 13.9347 3.76552 13.9547L3.94342 14.1451C4.01808 14.0762 4.05748 13.987 4.05748 13.8857H3.79604ZM3.76204 13.958C3.74271 13.9773 3.72128 13.9867 3.68924 13.9867V14.2464C3.78802 14.2464 3.87674 14.2114 3.9469 14.1417L3.76204 13.958ZM8.87239 14.0499L8.96481 13.958L8.87239 14.0499ZM8.87239 10.5564L8.96481 10.6482L8.96651 10.6466L8.96814 10.6448L8.87239 10.5564ZM9.20284 10.5564L9.10703 10.6448L9.11036 10.6483L9.11389 10.6516L9.20284 10.5564ZM9.27513 12.3519H9.14441V12.6693L9.36833 12.4429L9.27513 12.3519ZM11.041 10.5667L11.1342 10.6577L11.1369 10.6551L11.1394 10.6522L11.041 10.5667ZM11.3663 10.5462L11.2739 10.638L11.2777 10.6418L11.2819 10.6453L11.3663 10.5462ZM11.3766 10.8488L11.4689 10.9408L11.4691 10.9406L11.3766 10.8488ZM10.1839 12.0287L10.0917 11.9367L10.0089 12.0185L10.0815 12.1094L10.1839 12.0287ZM11.5522 13.7421L11.6549 13.6618L11.6545 13.6614L11.5522 13.7421ZM11.609 13.8908H11.4783V13.8945L11.4785 13.898L11.609 13.8908ZM11.547 14.0499L11.6394 14.1417L11.547 14.0499ZM11.1959 14.0242L11.3019 13.9482L11.3004 13.9461L11.2988 13.9441L11.1959 14.0242ZM9.86376 12.3365L9.96664 12.2564L9.8752 12.1405L9.77088 12.2451L9.86376 12.3365ZM9.27513 12.9264L9.18226 12.835L9.14441 12.873V12.9264H9.27513ZM9.20284 14.0499L9.11389 13.9547L9.11213 13.9564L9.11043 13.958L9.20284 14.0499ZM9.03762 13.9867C9.00559 13.9867 8.98415 13.9773 8.96481 13.958L8.77997 14.1417C8.8501 14.2114 8.93879 14.2464 9.03762 14.2464V13.9867ZM8.96481 13.958C8.94546 13.9388 8.93598 13.9175 8.93598 13.8857H8.67454C8.67454 13.9838 8.70977 14.072 8.77997 14.1417L8.96481 13.958ZM8.93598 13.8857V10.7206H8.67454V13.8857H8.93598ZM8.93598 10.7206C8.93598 10.6888 8.94546 10.6675 8.96481 10.6482L8.77997 10.4646C8.70977 10.5343 8.67454 10.6225 8.67454 10.7206H8.93598ZM8.96814 10.6448C8.98834 10.6232 9.00879 10.6145 9.03762 10.6145V10.3547C8.93559 10.3547 8.84592 10.3939 8.77657 10.468L8.96814 10.6448ZM9.03762 10.6145C9.06644 10.6145 9.0869 10.6232 9.10703 10.6448L9.2986 10.468C9.22932 10.3939 9.13958 10.3547 9.03762 10.3547V10.6145ZM9.11389 10.6516C9.13559 10.6716 9.14441 10.6919 9.14441 10.7206H9.40585C9.40585 10.6193 9.36644 10.5301 9.2918 10.4612L9.11389 10.6516ZM9.14441 10.7206V12.3519H9.40585V10.7206H9.14441ZM9.36833 12.4429L11.1342 10.6577L10.9477 10.4756L9.18186 12.2608L9.36833 12.4429ZM11.1394 10.6522C11.1645 10.6236 11.188 10.6145 11.2166 10.6145V10.3547C11.1074 10.3547 11.0139 10.4003 10.9426 10.4812L11.1394 10.6522ZM11.2166 10.6145C11.2405 10.6145 11.2571 10.6214 11.2739 10.638L11.4587 10.4543C11.3928 10.3889 11.3096 10.3547 11.2166 10.3547V10.6145ZM11.2819 10.6453C11.2973 10.6583 11.3027 10.6699 11.3027 10.6898H11.5642C11.5642 10.5934 11.5247 10.5093 11.4508 10.447L11.2819 10.6453ZM11.3027 10.6898C11.3027 10.734 11.2911 10.7501 11.2842 10.757L11.4691 10.9406C11.5379 10.8723 11.5642 10.7823 11.5642 10.6898H11.3027ZM11.2844 10.7568L10.0917 11.9367L10.2761 12.1207L11.4689 10.9408L11.2844 10.7568ZM10.0815 12.1094L11.4498 13.8228L11.6545 13.6614L10.2862 11.948L10.0815 12.1094ZM11.4494 13.8223C11.4726 13.8517 11.4783 13.8738 11.4783 13.8908H11.7397C11.7397 13.8053 11.7074 13.7282 11.6549 13.6618L11.4494 13.8223ZM11.4785 13.898C11.4798 13.9219 11.4736 13.9391 11.4546 13.958L11.6394 14.1417C11.7099 14.0717 11.7451 13.9829 11.7395 13.8836L11.4785 13.898ZM11.4546 13.958C11.4353 13.9773 11.4138 13.9867 11.3818 13.9867V14.2464C11.4806 14.2464 11.5693 14.2114 11.6394 14.1417L11.4546 13.958ZM11.3818 13.9867C11.3428 13.9867 11.321 13.9745 11.3019 13.9482L11.0899 14.1003C11.1603 14.197 11.2624 14.2464 11.3818 14.2464V13.9867ZM11.2988 13.9441L9.96664 12.2564L9.76088 12.4166L11.093 14.1043L11.2988 13.9441ZM9.77088 12.2451L9.18226 12.835L9.36794 13.0179L9.95657 12.4279L9.77088 12.2451ZM9.14441 12.9264V13.8857H9.40585V12.9264H9.14441ZM9.14441 13.8857C9.14441 13.9143 9.13559 13.9347 9.11389 13.9547L9.2918 14.1451C9.36644 14.0762 9.40585 13.987 9.40585 13.8857H9.14441ZM9.11043 13.958C9.09108 13.9773 9.06964 13.9867 9.03762 13.9867V14.2464C9.13637 14.2464 9.22507 14.2114 9.29526 14.1417L9.11043 13.958ZM13.5397 13.8806L13.4189 13.9301L13.4198 13.9323L13.4208 13.9345L13.5397 13.8806ZM12.2643 10.8078L12.1419 10.8534L12.1426 10.8554L12.1435 10.8573L12.2643 10.8078ZM12.3108 10.5513L12.4032 10.6431L12.4051 10.6413L12.4068 10.6394L12.3108 10.5513ZM12.6103 10.5308L12.5275 10.6313L12.5325 10.6353L12.5377 10.6388L12.6103 10.5308ZM12.7032 10.6436L12.8245 10.5953L12.824 10.5939L12.8234 10.5925L12.7032 10.6436ZM13.9166 13.6497L13.7953 13.698L13.9166 13.9986L14.0379 13.698L13.9166 13.6497ZM15.13 10.6436L15.0098 10.5925L15.0092 10.5939L15.0087 10.5953L15.13 10.6436ZM15.2178 10.5308L15.2947 10.6358L15.2955 10.6353L15.2962 10.6347L15.2178 10.5308ZM15.5225 10.5513L15.4264 10.6394L15.4281 10.6413L15.43 10.6431L15.5225 10.5513ZM15.5689 10.8078L15.6898 10.8573L15.6906 10.8554L15.6913 10.8534L15.5689 10.8078ZM14.2936 13.8806L14.4125 13.9345L14.4134 13.9323L14.4144 13.9301L14.2936 13.8806ZM13.8598 13.9867C13.8155 13.9867 13.7812 13.9749 13.7518 13.9532C13.7209 13.9305 13.6883 13.8914 13.6586 13.8266L13.4208 13.9345C13.4633 14.0271 13.5203 14.106 13.596 14.1619C13.6734 14.2189 13.763 14.2464 13.8598 14.2464V13.9867ZM13.6606 13.8311L12.3852 10.7583L12.1435 10.8573L13.4189 13.9301L13.6606 13.8311ZM12.3867 10.7622C12.3822 10.7502 12.3796 10.7366 12.3796 10.7206H12.1181C12.1181 10.7661 12.1258 10.8107 12.1419 10.8534L12.3867 10.7622ZM12.3796 10.7206C12.3796 10.6745 12.392 10.6543 12.4032 10.6431L12.2183 10.4595C12.147 10.5304 12.1181 10.623 12.1181 10.7206H12.3796ZM12.4068 10.6394C12.4188 10.6266 12.4379 10.6145 12.4812 10.6145V10.3547C12.3798 10.3547 12.2854 10.3871 12.2147 10.4632L12.4068 10.6394ZM12.4812 10.6145C12.4987 10.6145 12.5126 10.6192 12.5275 10.6313L12.693 10.4303C12.6322 10.3808 12.56 10.3547 12.4812 10.3547V10.6145ZM12.5377 10.6388C12.5568 10.6514 12.5718 10.6687 12.583 10.6948L12.8234 10.5925C12.7933 10.5228 12.7464 10.4649 12.6828 10.4227L12.5377 10.6388ZM12.5819 10.6919L13.7953 13.698L14.0379 13.6014L12.8245 10.5953L12.5819 10.6919ZM14.0379 13.698L15.2513 10.6919L15.0087 10.5953L13.7953 13.6014L14.0379 13.698ZM15.2502 10.6948C15.2626 10.6658 15.2781 10.6478 15.2947 10.6358L15.1409 10.4258C15.0818 10.4684 15.0387 10.5257 15.0098 10.5925L15.2502 10.6948ZM15.2962 10.6347C15.3166 10.6195 15.3342 10.6145 15.3521 10.6145V10.3547C15.2735 10.3547 15.2015 10.3805 15.1394 10.4269L15.2962 10.6347ZM15.3521 10.6145C15.3953 10.6145 15.4144 10.6266 15.4264 10.6394L15.6185 10.4632C15.5478 10.3871 15.4534 10.3547 15.3521 10.3547V10.6145ZM15.43 10.6431C15.4412 10.6543 15.4537 10.6745 15.4537 10.7206H15.7151C15.7151 10.623 15.6862 10.5304 15.6149 10.4595L15.43 10.6431ZM15.4537 10.7206C15.4537 10.7366 15.451 10.7502 15.4465 10.7622L15.6913 10.8534C15.7074 10.8107 15.7151 10.7661 15.7151 10.7206H15.4537ZM15.4481 10.7583L14.1727 13.8311L14.4144 13.9301L15.6898 10.8573L15.4481 10.7583ZM14.1746 13.8266C14.1449 13.8914 14.1124 13.9305 14.0814 13.9532C14.052 13.9749 14.0177 13.9867 13.9734 13.9867V14.2464C14.0702 14.2464 14.1598 14.2189 14.2372 14.1619C14.3129 14.106 14.3699 14.0271 14.4125 13.9345L14.1746 13.8266ZM13.9734 13.9867H13.8598V14.2464H13.9734V13.9867Z" fill="white"/>
<g filter="url(#filter1_d_329_757)">
<path d="M18.2223 6.62338H12.9936C12.1995 6.62338 11.5557 5.98379 11.5557 5.19481V0L18.2223 6.62338Z" fill="url(#paint2_linear_329_757)" fill-opacity="0.4"/>
</g>
</g>
</g>
<defs>
<filter id="filter0_f_329_757" x="-35.418" y="-29.3247" width="89.6338" height="83.4546" filterUnits="userSpaceOnUse" color-interpolation-filters="sRGB">
<feFlood flood-opacity="0" result="BackgroundImageFix"/>
<feBlend mode="normal" in="SourceGraphic" in2="BackgroundImageFix" result="shape"/>
<feGaussianBlur stdDeviation="19.5" result="effect1_foregroundBlur_329_757"/>
</filter>
<filter id="filter1_d_329_757" x="-11.4443" y="-24" width="56.667" height="56.6234" filterUnits="userSpaceOnUse" color-interpolation-filters="sRGB">
<feFlood flood-opacity="0" result="BackgroundImageFix"/>
<feColorMatrix in="SourceAlpha" type="matrix" values="0 0 0 0 0 0 0 0 0 0 0 0 0 0 0 0 0 0 127 0" result="hardAlpha"/>
<feOffset dx="2" dy="1"/>
<feGaussianBlur stdDeviation="12.5"/>
<feColorMatrix type="matrix" values="0 0 0 0 0 0 0 0 0 0 0 0 0 0 0 0 0 0 0.33 0"/>
<feBlend mode="normal" in2="BackgroundImageFix" result="effect1_dropShadow_329_757"/>
<feBlend mode="normal" in="SourceGraphic" in2="effect1_dropShadow_329_757" result="shape"/>
</filter>
<linearGradient id="paint0_linear_329_757" x1="9.33322" y1="0" x2="9.33322" y2="20" gradientUnits="userSpaceOnUse">
<stop stop-color="#FF7979"/>
<stop offset="1" stop-color="#E85555"/>
</linearGradient>
<linearGradient id="paint1_linear_329_757" x1="9.33322" y1="0" x2="9.33322" y2="20" gradientUnits="userSpaceOnUse">
<stop stop-color="#CB74F4"/>
<stop offset="0.942892" stop-color="#A849F3"/>
</linearGradient>
<linearGradient id="paint2_linear_329_757" x1="14.889" y1="0" x2="14.889" y2="6.62338" gradientUnits="userSpaceOnUse">
<stop stop-color="#B051E0"/>
<stop offset="1" stop-color="#952BCB"/>
</linearGradient>
<clipPath id="clip0_329_757">
<rect width="17.7778" height="20" fill="white" transform="translate(0.444336)"/>
</clipPath>
</defs>
</svg>
