<svg width="18" height="20" viewBox="0 0 18 20" fill="none" xmlns="http://www.w3.org/2000/svg">
<g clip-path="url(#clip0_329_769)">
<mask id="mask0_329_769" style="mask-type:alpha" maskUnits="userSpaceOnUse" x="0" y="0" width="18" height="20">
<path d="M16.5625 20H1.66056C0.86643 20 0.222656 19.3604 0.222656 18.5714V1.42857C0.222656 0.639594 0.86643 0 1.66056 0H11.3338L18.0004 6.62338V18.5714C18.0004 19.3604 17.3566 20 16.5625 20Z" fill="url(#paint0_linear_329_769)"/>
</mask>
<g mask="url(#mask0_329_769)">
<path d="M16.5625 20H1.66056C0.86643 20 0.222656 19.3604 0.222656 18.5714V1.42857C0.222656 0.639594 0.86643 0 1.66056 0H11.3338L18.0004 6.62338V18.5714C18.0004 19.3604 17.3566 20 16.5625 20Z" fill="url(#paint1_linear_329_769)" fill-opacity="0.4"/>
<g filter="url(#filter0_f_329_769)">
<g style="mix-blend-mode:darken">
<path d="M14.9943 9.67529H3.36035V15.1298H14.9943V9.67529Z" fill="#0B07C6" fill-opacity="0.16"/>
</g>
</g>
<path d="M3.66692 14.1166C3.60152 14.1166 3.54645 14.0944 3.50169 14.0499C3.45694 14.0054 3.43457 13.9507 3.43457 13.8857V10.8232C3.43457 10.7309 3.46727 10.6522 3.53267 10.5872C3.59808 10.5189 3.67725 10.4846 3.77019 10.4846H3.94058C4.00943 10.4846 4.07139 10.5052 4.12647 10.5462C4.18498 10.5872 4.22801 10.6385 4.25555 10.7001L5.42764 13.6036L6.59973 10.7001C6.62728 10.6385 6.66858 10.5872 6.72366 10.5462C6.78217 10.5052 6.84583 10.4846 6.91471 10.4846H7.08511C7.17805 10.4846 7.2572 10.5189 7.32262 10.5872C7.38798 10.6522 7.42073 10.7309 7.42073 10.8232V13.8857C7.42073 13.9507 7.39831 14.0054 7.3536 14.0499C7.30883 14.0944 7.25373 14.1166 7.18837 14.1166C7.12295 14.1166 7.06615 14.0944 7.01798 14.0499C6.97321 14.0054 6.95086 13.9507 6.95086 13.8857V10.972L5.7581 13.9011C5.73056 13.9661 5.68581 14.0191 5.62385 14.0602C5.56534 14.0978 5.49993 14.1166 5.42764 14.1166C5.35535 14.1166 5.28823 14.0978 5.22627 14.0602C5.16775 14.0191 5.12472 13.9661 5.09718 13.9011L3.90444 10.972V13.8857C3.90444 13.9507 3.88034 14.0054 3.83215 14.0499C3.7874 14.0944 3.73233 14.1166 3.66692 14.1166ZM9.0153 14.1166C8.94988 14.1166 8.89478 14.0944 8.85007 14.0499C8.8053 14.0054 8.78295 13.9507 8.78295 13.8857V10.7463C8.78295 10.6813 8.8053 10.6266 8.85007 10.5821C8.89478 10.5342 8.94988 10.5103 9.0153 10.5103H10.1926C10.5196 10.5103 10.7863 10.565 10.9929 10.6744C11.1994 10.7839 11.3474 10.9241 11.4369 11.0951C11.5264 11.2661 11.5712 11.4507 11.5712 11.6491C11.5712 11.8475 11.5264 12.0322 11.4369 12.2031C11.3474 12.3741 11.1994 12.5144 10.9929 12.6238C10.7863 12.7332 10.5196 12.7879 10.1926 12.7879H9.25282V13.8857C9.25282 13.9507 9.2287 14.0054 9.18053 14.0499C9.13576 14.0944 9.08066 14.1166 9.0153 14.1166ZM10.1461 12.3468C10.4972 12.3468 10.7433 12.2801 10.8845 12.1467C11.029 12.0133 11.1013 11.8475 11.1013 11.6491C11.1013 11.4507 11.029 11.2849 10.8845 11.1515C10.7433 11.0181 10.4972 10.9515 10.1461 10.9515H9.25282V12.3468H10.1461ZM13.6307 14.1422C13.2486 14.1422 12.8889 14.0739 12.5516 13.937C12.5103 13.92 12.4775 13.896 12.4535 13.8652C12.4294 13.831 12.4173 13.79 12.4173 13.7421C12.4173 13.684 12.4362 13.6344 12.4741 13.5933C12.5154 13.5489 12.5653 13.5266 12.6239 13.5266C12.6548 13.5266 12.6875 13.5335 12.722 13.5472C12.9698 13.6463 13.2435 13.6959 13.5429 13.6959C13.8114 13.6959 14.0369 13.6532 14.2194 13.5677C14.4052 13.4788 14.4982 13.3317 14.4982 13.1265C14.4982 12.6956 14.1178 12.4802 13.3571 12.4802H13.2745C13.2159 12.4802 13.1643 12.4596 13.1196 12.4186C13.0782 12.3741 13.0576 12.3228 13.0576 12.2647C13.0576 12.2066 13.0782 12.157 13.1196 12.1159C13.1643 12.0715 13.2159 12.0492 13.2745 12.0492H13.3054C13.6496 12.0492 13.913 11.9979 14.0954 11.8953C14.2779 11.7893 14.3691 11.6337 14.3691 11.4285C14.3691 11.2644 14.3002 11.1344 14.1626 11.0387C14.0248 10.9429 13.8218 10.895 13.5533 10.895C13.2641 10.895 12.9973 10.9515 12.7529 11.0643C12.7185 11.078 12.6875 11.0848 12.66 11.0848C12.6084 11.0848 12.5636 11.0678 12.5258 11.0335C12.4879 10.9959 12.469 10.9498 12.469 10.895C12.469 10.8164 12.5033 10.7582 12.5722 10.7206C12.9027 10.5462 13.2435 10.459 13.5946 10.459C13.9904 10.459 14.2968 10.5394 14.5137 10.7001C14.7305 10.8608 14.839 11.0883 14.839 11.3824C14.839 11.6183 14.7787 11.8047 14.6582 11.9415C14.5412 12.0749 14.3931 12.174 14.2142 12.239C14.4104 12.2835 14.5842 12.3776 14.7357 12.5212C14.8906 12.6614 14.968 12.8717 14.968 13.1522C14.968 13.4668 14.8424 13.7113 14.5911 13.8857C14.3433 14.0567 14.0231 14.1422 13.6307 14.1422Z" fill="white"/>
<path d="M3.50155 14.0499L3.59399 13.9581L3.50155 14.0499ZM3.53253 10.5872L3.62497 10.679L3.62616 10.6779L3.62731 10.6766L3.53253 10.5872ZM4.12633 10.5462L4.04789 10.6501L4.0494 10.6512L4.05094 10.6523L4.12633 10.5462ZM4.25541 10.7001L4.37674 10.6518L4.37584 10.6495L4.37486 10.6473L4.25541 10.7001ZM5.4275 13.6036L5.30618 13.6519L5.4275 13.9525L5.54883 13.6519L5.4275 13.6036ZM6.59959 10.7001L6.48014 10.6473L6.47916 10.6495L6.47827 10.6518L6.59959 10.7001ZM6.72352 10.5462L6.64814 10.4401L6.64659 10.4412L6.64508 10.4423L6.72352 10.5462ZM7.32248 10.5872L7.22771 10.6766L7.22882 10.6779L7.23006 10.679L7.32248 10.5872ZM7.35346 14.0499L7.44588 14.1417L7.35346 14.0499ZM7.01784 14.0499L6.92542 14.1417L6.92712 14.1434L6.92889 14.1451L7.01784 14.0499ZM6.95072 10.972H7.08144L6.82954 10.9233L6.95072 10.972ZM5.75796 13.9011L5.87844 13.9515L5.8788 13.9507L5.87914 13.9498L5.75796 13.9011ZM5.62371 14.0601L5.69472 14.1692L5.69548 14.1687L5.69622 14.1682L5.62371 14.0601ZM5.22613 14.0601L5.15075 14.1662L5.15428 14.1687L5.15797 14.171L5.22613 14.0601ZM5.09704 13.9011L4.97587 13.9498L4.97621 13.9507L4.97657 13.9515L5.09704 13.9011ZM3.9043 10.972L4.02548 10.9233L3.77358 10.972H3.9043ZM3.83201 14.0499L3.74306 13.9547L3.74129 13.9564L3.73958 13.9581L3.83201 14.0499ZM3.66678 13.9867C3.63475 13.9867 3.61332 13.9773 3.59399 13.9581L3.40912 14.1417C3.47929 14.2114 3.56801 14.2464 3.66678 14.2464V13.9867ZM3.59399 13.9581C3.57465 13.9388 3.56515 13.9175 3.56515 13.8857H3.30371C3.30371 13.9838 3.33896 14.072 3.40912 14.1417L3.59399 13.9581ZM3.56515 13.8857V10.8232H3.30371V13.8857H3.56515ZM3.56515 10.8232C3.56515 10.7651 3.58421 10.7196 3.62497 10.679L3.4401 10.4954C3.35005 10.5849 3.30371 10.6966 3.30371 10.8232H3.56515ZM3.62731 10.6766C3.66864 10.6335 3.71381 10.6145 3.77005 10.6145V10.3548C3.64041 10.3548 3.52724 10.4042 3.43776 10.4977L3.62731 10.6766ZM3.77005 10.6145H3.94044V10.3548H3.77005V10.6145ZM3.94044 10.6145C3.98101 10.6145 4.01544 10.6259 4.04789 10.6501L4.20476 10.4423C4.12706 10.3844 4.03757 10.3548 3.94044 10.3548V10.6145ZM4.05094 10.6523C4.09133 10.6806 4.11855 10.7139 4.13596 10.7528L4.37486 10.6473C4.3372 10.5631 4.27836 10.4938 4.20171 10.4401L4.05094 10.6523ZM4.13408 10.7484L5.30618 13.6519L5.54883 13.5553L4.37674 10.6518L4.13408 10.7484ZM5.54883 13.6519L6.72092 10.7484L6.47827 10.6518L5.30618 13.5553L5.54883 13.6519ZM6.71904 10.7528C6.73738 10.7118 6.76444 10.6781 6.80196 10.6501L6.64508 10.4423C6.57246 10.4964 6.51688 10.5652 6.48014 10.6473L6.71904 10.7528ZM6.79889 10.6523C6.83634 10.626 6.87385 10.6145 6.91457 10.6145V10.3548C6.81758 10.3548 6.72776 10.3842 6.64814 10.4401L6.79889 10.6523ZM6.91457 10.6145H7.08497V10.3548H6.91457V10.6145ZM7.08497 10.6145C7.14118 10.6145 7.18634 10.6335 7.22771 10.6766L7.41725 10.4977C7.32778 10.4042 7.21457 10.3548 7.08497 10.3548V10.6145ZM7.23006 10.679C7.27078 10.7196 7.28987 10.7651 7.28987 10.8232H7.55131C7.55131 10.6966 7.50497 10.5849 7.4149 10.4954L7.23006 10.679ZM7.28987 10.8232V13.8857H7.55131V10.8232H7.28987ZM7.28987 13.8857C7.28987 13.9175 7.28033 13.9388 7.26104 13.9581L7.44588 14.1417C7.51608 14.072 7.55131 13.9838 7.55131 13.8857H7.28987ZM7.26104 13.9581C7.2417 13.9773 7.22026 13.9867 7.18823 13.9867V14.2464C7.28699 14.2464 7.37568 14.2114 7.44588 14.1417L7.26104 13.9581ZM7.18823 13.9867C7.15601 13.9867 7.13091 13.977 7.1068 13.9547L6.92889 14.1451C7.00111 14.2117 7.08961 14.2464 7.18823 14.2464V13.9867ZM7.11026 13.9581C7.09091 13.9388 7.08144 13.9175 7.08144 13.8857H6.82C6.82 13.9838 6.85523 14.072 6.92542 14.1417L7.11026 13.9581ZM7.08144 13.8857V10.972H6.82V13.8857H7.08144ZM6.82954 10.9233L5.63678 13.8524L5.87914 13.9498L7.07189 11.0207L6.82954 10.9233ZM5.63748 13.8507C5.6204 13.891 5.59294 13.9244 5.5512 13.9521L5.69622 14.1682C5.7784 14.1138 5.84044 14.0412 5.87844 13.9515L5.63748 13.8507ZM5.5527 13.9511C5.51615 13.9746 5.47558 13.9867 5.4275 13.9867V14.2464C5.524 14.2464 5.61424 14.2209 5.69472 14.1692L5.5527 13.9511ZM5.4275 13.9867C5.37938 13.9867 5.33583 13.9746 5.29429 13.9493L5.15797 14.171C5.24035 14.221 5.33104 14.2464 5.4275 14.2464V13.9867ZM5.30151 13.954C5.26278 13.9269 5.23548 13.8931 5.21752 13.8507L4.97657 13.9515C5.01369 14.0391 5.07245 14.1113 5.15075 14.1662L5.30151 13.954ZM5.21822 13.8524L4.02548 10.9233L3.78312 11.0207L4.97587 13.9498L5.21822 13.8524ZM3.77358 10.972V13.8857H4.03502V10.972H3.77358ZM3.77358 13.8857C3.77358 13.9144 3.76479 13.9347 3.74306 13.9547L3.92096 14.1451C3.99562 14.0762 4.03502 13.987 4.03502 13.8857H3.77358ZM3.73958 13.9581C3.72025 13.9773 3.69882 13.9867 3.66678 13.9867V14.2464C3.76556 14.2464 3.85428 14.2114 3.92444 14.1417L3.73958 13.9581ZM8.84993 14.0499L8.94235 13.9581L8.84993 14.0499ZM8.84993 10.5821L8.94235 10.6739L8.94405 10.6722L8.94568 10.6705L8.84993 10.5821ZM10.9927 10.6744L11.0542 10.5598L10.9927 10.6744ZM11.4368 11.0951L11.3208 11.155L11.4368 11.0951ZM11.4368 12.2031L11.3208 12.1432L11.4368 12.2031ZM10.9927 12.6238L11.0542 12.7384L10.9927 12.6238ZM9.25268 12.7879V12.6581H9.12196V12.7879H9.25268ZM9.18039 14.0499L9.09144 13.9547L9.08967 13.9564L9.08791 13.9581L9.18039 14.0499ZM10.8843 12.1467L10.7954 12.0515L10.7948 12.0521L10.7942 12.0526L10.8843 12.1467ZM10.8843 11.1515L10.7942 11.2456L10.7948 11.2461L10.7954 11.2467L10.8843 11.1515ZM9.25268 10.9514V10.8216H9.12196V10.9514H9.25268ZM9.25268 12.3468H9.12196V12.4766H9.25268V12.3468ZM9.01516 13.9867C8.98314 13.9867 8.9617 13.9773 8.94235 13.9581L8.75745 14.1417C8.82765 14.2114 8.91634 14.2464 9.01516 14.2464V13.9867ZM8.94235 13.9581C8.92301 13.9388 8.91353 13.9175 8.91353 13.8857H8.65209C8.65209 13.9838 8.68732 14.072 8.75745 14.1417L8.94235 13.9581ZM8.91353 13.8857V10.7462H8.65209V13.8857H8.91353ZM8.91353 10.7462C8.91353 10.7144 8.92301 10.6931 8.94235 10.6739L8.75745 10.4903C8.68732 10.5599 8.65209 10.6481 8.65209 10.7462H8.91353ZM8.94568 10.6705C8.96588 10.6489 8.98634 10.6401 9.01516 10.6401V10.3804C8.91314 10.3804 8.82346 10.4196 8.75412 10.4937L8.94568 10.6705ZM9.01516 10.6401H10.1924V10.3804H9.01516V10.6401ZM10.1924 10.6401C10.506 10.6401 10.7496 10.6928 10.9312 10.789L11.0542 10.5598C10.8227 10.4372 10.5328 10.3804 10.1924 10.3804V10.6401ZM10.9312 10.789C11.1193 10.8887 11.2458 11.0117 11.3208 11.155L11.5527 11.0351C11.4488 10.8364 11.2791 10.679 11.0542 10.5598L10.9312 10.789ZM11.3208 11.155C11.4003 11.307 11.4403 11.471 11.4403 11.6491H11.7018C11.7018 11.4305 11.6522 11.2252 11.5527 11.0351L11.3208 11.155ZM11.4403 11.6491C11.4403 11.8272 11.4003 11.9912 11.3208 12.1432L11.5527 12.2631C11.6522 12.073 11.7018 11.8677 11.7018 11.6491H11.4403ZM11.3208 12.1432C11.2458 12.2865 11.1193 12.4095 10.9312 12.5092L11.0542 12.7384C11.2791 12.6192 11.4488 12.4618 11.5527 12.2631L11.3208 12.1432ZM10.9312 12.5092C10.7496 12.6054 10.506 12.6581 10.1924 12.6581V12.9178C10.5328 12.9178 10.8227 12.8611 11.0542 12.7384L10.9312 12.5092ZM10.1924 12.6581H9.25268V12.9178H10.1924V12.6581ZM9.12196 12.7879V13.8857H9.3834V12.7879H9.12196ZM9.12196 13.8857C9.12196 13.9144 9.11314 13.9347 9.09144 13.9547L9.26934 14.1451C9.34399 14.0762 9.3834 13.987 9.3834 13.8857H9.12196ZM9.08791 13.9581C9.06863 13.9773 9.04719 13.9867 9.01516 13.9867V14.2464C9.11392 14.2464 9.20261 14.2114 9.27281 14.1417L9.08791 13.9581ZM10.1459 12.4766C10.5062 12.4766 10.7957 12.4097 10.9744 12.2408L10.7942 12.0526C10.6906 12.1505 10.4879 12.2169 10.1459 12.2169V12.4766ZM10.9733 12.2419C11.1448 12.0836 11.2319 11.8831 11.2319 11.6491H10.9705C10.9705 11.8118 10.9129 11.9431 10.7954 12.0515L10.9733 12.2419ZM11.2319 11.6491C11.2319 11.4151 11.1448 11.2146 10.9733 11.0563L10.7954 11.2467C10.9129 11.3551 10.9705 11.4864 10.9705 11.6491H11.2319ZM10.9744 11.0574C10.7957 10.8885 10.5062 10.8216 10.1459 10.8216V11.0813C10.4879 11.0813 10.6906 11.1477 10.7942 11.2456L10.9744 11.0574ZM10.1459 10.8216H9.25268V11.0813H10.1459V10.8216ZM9.12196 10.9514V12.3468H9.3834V10.9514H9.12196ZM9.25268 12.4766H10.1459V12.2169H9.25268V12.4766ZM12.5514 13.937L12.5012 14.0569L12.5016 14.0571L12.502 14.0573L12.5514 13.937ZM12.4533 13.8652L12.3462 13.9397L12.3481 13.9423L12.3501 13.9449L12.4533 13.8652ZM12.474 13.5933L12.3779 13.5052L12.3776 13.5056L12.474 13.5933ZM12.7218 13.5472L12.7707 13.4267L12.7704 13.4266L12.7218 13.5472ZM14.2192 13.5677L14.275 13.6851L14.2754 13.6849L14.2759 13.6847L14.2192 13.5677ZM13.1194 12.4186L13.0233 12.5067L13.0269 12.5105L13.0307 12.514L13.1194 12.4186ZM13.1194 12.1159L13.2118 12.2077L13.1194 12.1159ZM14.0953 11.8953L14.1597 12.0084L14.1605 12.0079L14.1613 12.0074L14.0953 11.8953ZM12.7528 11.0643L12.8014 11.1849L12.8046 11.1836L12.8079 11.1821L12.7528 11.0643ZM12.5256 11.0335L12.4332 11.1253L12.4354 11.1275L12.4376 11.1296L12.5256 11.0335ZM12.5721 10.7206L12.5107 10.6059L12.5099 10.6064L12.5091 10.6068L12.5721 10.7206ZM14.5135 10.7001L14.5917 10.596L14.5135 10.7001ZM14.6581 11.9415L14.5597 11.856L14.5595 11.8562L14.6581 11.9415ZM14.2141 12.239L14.1692 12.117L13.7536 12.2679L14.185 12.3657L14.2141 12.239ZM14.7356 12.5212L14.6453 12.6151L14.6464 12.6162L14.6475 12.6172L14.7356 12.5212ZM14.591 13.8857L14.6656 13.9924L14.6658 13.9922L14.591 13.8857ZM13.6306 14.0123C13.2646 14.0123 12.9217 13.9469 12.6008 13.8168L12.502 14.0573C12.8558 14.2007 13.2324 14.2721 13.6306 14.2721V14.0123ZM12.6017 13.8172C12.5782 13.8074 12.5649 13.7962 12.5565 13.7855L12.3501 13.9449C12.3899 13.9958 12.442 14.0324 12.5012 14.0569L12.6017 13.8172ZM12.5604 13.7907C12.5539 13.7814 12.5479 13.7673 12.5479 13.7421H12.2865C12.2865 13.8125 12.3046 13.8805 12.3462 13.9397L12.5604 13.7907ZM12.5479 13.7421C12.5479 13.7149 12.5556 13.697 12.5703 13.6811L12.3776 13.5056C12.3166 13.5717 12.2865 13.6531 12.2865 13.7421H12.5479ZM12.57 13.6814C12.5877 13.6623 12.6033 13.6565 12.6237 13.6565V13.3968C12.5271 13.3968 12.4428 13.4353 12.3779 13.5052L12.57 13.6814ZM12.6237 13.6565C12.6352 13.6565 12.6513 13.659 12.6733 13.6677L12.7704 13.4266C12.7235 13.4079 12.6742 13.3968 12.6237 13.3968V13.6565ZM12.673 13.6676C12.9381 13.7737 13.2286 13.8258 13.5428 13.8258V13.5661C13.258 13.5661 13.0012 13.519 12.7707 13.4267L12.673 13.6676ZM13.5428 13.8258C13.8245 13.8258 14.0703 13.7811 14.275 13.6851L14.1635 13.4502C14.0032 13.5253 13.7981 13.5661 13.5428 13.5661V13.8258ZM14.2759 13.6847C14.387 13.6316 14.4773 13.5575 14.539 13.4598C14.6008 13.362 14.6288 13.249 14.6288 13.1265H14.3673C14.3673 13.2092 14.3488 13.2723 14.3176 13.3216C14.2865 13.371 14.2373 13.4149 14.1625 13.4507L14.2759 13.6847ZM14.6288 13.1265C14.6288 12.8638 14.508 12.6595 14.2775 12.5289C14.0579 12.4046 13.7454 12.3503 13.3569 12.3503V12.61C13.7291 12.61 13.9872 12.6635 14.148 12.7546C14.2979 12.8394 14.3673 12.9583 14.3673 13.1265H14.6288ZM13.3569 12.3503H13.2743V12.61H13.3569V12.3503ZM13.2743 12.3503C13.2501 12.3503 13.2297 12.3431 13.208 12.3231L13.0307 12.514C13.0986 12.5762 13.1815 12.61 13.2743 12.61V12.3503ZM13.2154 12.3305C13.1954 12.309 13.1882 12.2887 13.1882 12.2647H12.9267C12.9267 12.3569 12.9607 12.4393 13.0233 12.5067L13.2154 12.3305ZM13.1882 12.2647C13.1882 12.2409 13.1951 12.2244 13.2118 12.2077L13.027 12.0241C12.9611 12.0896 12.9267 12.1722 12.9267 12.2647H13.1882ZM13.2118 12.2077C13.2342 12.1855 13.2535 12.1791 13.2743 12.1791V11.9194C13.1781 11.9194 13.0941 11.9575 13.027 12.0241L13.2118 12.2077ZM13.2743 12.1791H13.3053V11.9194H13.2743V12.1791ZM13.3053 12.1791C13.6591 12.1791 13.9488 12.127 14.1597 12.0084L14.0309 11.7823C13.8769 11.8689 13.6399 11.9194 13.3053 11.9194V12.1791ZM14.1613 12.0074C14.3826 11.8788 14.4997 11.6812 14.4997 11.4285H14.2382C14.2382 11.5862 14.1728 11.6998 14.0293 11.7833L14.1613 12.0074ZM14.4997 11.4285C14.4997 11.2211 14.4093 11.0518 14.2374 10.9323L14.0875 11.145C14.1909 11.217 14.2382 11.3076 14.2382 11.4285H14.4997ZM14.2374 10.9323C14.0681 10.8146 13.8337 10.7651 13.5531 10.7651V11.0249C13.8095 11.0249 13.9813 11.0712 14.0875 11.145L14.2374 10.9323ZM13.5531 10.7651C13.2463 10.7651 12.9606 10.8251 12.6977 10.9465L12.8079 11.1821C13.0338 11.0777 13.2816 11.0249 13.5531 11.0249V10.7651ZM12.7042 10.9437C12.6803 10.9533 12.6661 10.9549 12.6599 10.9549V11.2147C12.7087 11.2147 12.7565 11.2027 12.8014 11.1849L12.7042 10.9437ZM12.6599 10.9549C12.6404 10.9549 12.6271 10.9497 12.6135 10.9374L12.4376 11.1296C12.4999 11.1858 12.576 11.2147 12.6599 11.2147V10.9549ZM12.618 10.9417C12.6054 10.9292 12.5995 10.9164 12.5995 10.895H12.3381C12.3381 10.9831 12.37 11.0626 12.4332 11.1253L12.618 10.9417ZM12.5995 10.895C12.5995 10.8749 12.6037 10.8643 12.6073 10.8583C12.6108 10.8523 12.618 10.8437 12.6351 10.8344L12.5091 10.6068C12.4573 10.6351 12.4129 10.6744 12.382 10.7266C12.3511 10.7787 12.3381 10.8364 12.3381 10.895H12.5995ZM12.6334 10.8353C12.9463 10.6701 13.2661 10.5888 13.5944 10.5888V10.3291C13.2205 10.3291 12.8588 10.4222 12.5107 10.6059L12.6334 10.8353ZM13.5944 10.5888C13.9746 10.5888 14.2493 10.6663 14.4354 10.8042L14.5917 10.596C14.3439 10.4123 14.0059 10.3291 13.5944 10.3291V10.5888ZM14.4354 10.8042C14.6157 10.9379 14.7081 11.1248 14.7081 11.3823H14.9695C14.9695 11.0517 14.845 10.7838 14.5917 10.596L14.4354 10.8042ZM14.7081 11.3823C14.7081 11.5964 14.6537 11.7492 14.5597 11.856L14.7565 12.027C14.9034 11.8602 14.9695 11.6402 14.9695 11.3823H14.7081ZM14.5595 11.8562C14.458 11.9719 14.329 12.059 14.1692 12.117L14.2589 12.3611C14.4571 12.289 14.6241 12.1779 14.7566 12.0268L14.5595 11.8562ZM14.185 12.3657C14.3573 12.4047 14.5101 12.487 14.6453 12.6151L14.8258 12.4272C14.658 12.2681 14.4633 12.1623 14.2431 12.1124L14.185 12.3657ZM14.6475 12.6172C14.7667 12.7251 14.8372 12.895 14.8372 13.1522H15.0986C15.0986 12.8485 15.0142 12.5977 14.8236 12.4252L14.6475 12.6172ZM14.8372 13.1522C14.8372 13.426 14.731 13.6301 14.5161 13.7792L14.6658 13.9922C14.9535 13.7925 15.0986 13.5075 15.0986 13.1522H14.8372ZM14.5164 13.779C14.2962 13.931 14.0043 14.0123 13.6306 14.0123V14.2721C14.0417 14.2721 14.3901 14.1825 14.6656 13.9924L14.5164 13.779Z" fill="white"/>
<g filter="url(#filter1_d_329_769)">
<path d="M18.0007 6.62338H12.7719C11.9778 6.62338 11.334 5.98379 11.334 5.19481V0L18.0007 6.62338Z" fill="url(#paint2_linear_329_769)" fill-opacity="0.4"/>
</g>
</g>
</g>
<defs>
<filter id="filter0_f_329_769" x="-35.6396" y="-29.3247" width="89.6338" height="83.4546" filterUnits="userSpaceOnUse" color-interpolation-filters="sRGB">
<feFlood flood-opacity="0" result="BackgroundImageFix"/>
<feBlend mode="normal" in="SourceGraphic" in2="BackgroundImageFix" result="shape"/>
<feGaussianBlur stdDeviation="19.5" result="effect1_foregroundBlur_329_769"/>
</filter>
<filter id="filter1_d_329_769" x="-11.666" y="-24" width="56.667" height="56.6234" filterUnits="userSpaceOnUse" color-interpolation-filters="sRGB">
<feFlood flood-opacity="0" result="BackgroundImageFix"/>
<feColorMatrix in="SourceAlpha" type="matrix" values="0 0 0 0 0 0 0 0 0 0 0 0 0 0 0 0 0 0 127 0" result="hardAlpha"/>
<feOffset dx="2" dy="1"/>
<feGaussianBlur stdDeviation="12.5"/>
<feColorMatrix type="matrix" values="0 0 0 0 0 0 0 0 0 0 0 0 0 0 0 0 0 0 0.33 0"/>
<feBlend mode="normal" in2="BackgroundImageFix" result="effect1_dropShadow_329_769"/>
<feBlend mode="normal" in="SourceGraphic" in2="effect1_dropShadow_329_769" result="shape"/>
</filter>
<linearGradient id="paint0_linear_329_769" x1="9.11154" y1="0" x2="9.11154" y2="20" gradientUnits="userSpaceOnUse">
<stop stop-color="#FF7979"/>
<stop offset="1" stop-color="#E85555"/>
</linearGradient>
<linearGradient id="paint1_linear_329_769" x1="9.11154" y1="0" x2="9.11154" y2="20" gradientUnits="userSpaceOnUse">
<stop stop-color="#7CA9FF"/>
<stop offset="1" stop-color="#4377DC"/>
</linearGradient>
<linearGradient id="paint2_linear_329_769" x1="14.6673" y1="0" x2="14.6673" y2="6.62338" gradientUnits="userSpaceOnUse">
<stop stop-color="#4B7BF7"/>
<stop offset="1" stop-color="#1A4DD1"/>
</linearGradient>
<clipPath id="clip0_329_769">
<rect width="17.7778" height="20" fill="white" transform="translate(0.222656)"/>
</clipPath>
</defs>
</svg>
