<svg width="18" height="20" viewBox="0 0 18 20" fill="none" xmlns="http://www.w3.org/2000/svg">
<g clip-path="url(#clip0_329_780)">
<mask id="mask0_329_780" style="mask-type:alpha" maskUnits="userSpaceOnUse" x="0" y="0" width="18" height="20">
<path d="M16.3399 20H1.43791C0.643774 20 0 19.3604 0 18.5714V1.42857C0 0.639594 0.643774 0 1.43791 0H11.1111L17.7778 6.62338V18.5714C17.7778 19.3604 17.134 20 16.3399 20Z" fill="url(#paint0_linear_329_780)"/>
</mask>
<g mask="url(#mask0_329_780)">
<path d="M16.3399 20H1.43791C0.643774 20 0 19.3604 0 18.5714V1.42857C0 0.639594 0.643774 0 1.43791 0H11.1111L17.7778 6.62338V18.5714C17.7778 19.3604 17.134 20 16.3399 20Z" fill="url(#paint1_linear_329_780)" fill-opacity="0.4"/>
<path d="M4.06634 14.1166C4.00093 14.1166 3.94586 14.0943 3.90111 14.0499C3.85636 14.0054 3.83398 13.9507 3.83398 13.8857V10.7462C3.83398 10.6812 3.85636 10.6266 3.90111 10.5821C3.94586 10.5342 4.00093 10.5103 4.06634 10.5103H5.24359C5.57061 10.5103 5.83738 10.565 6.04392 10.6744C6.25046 10.7838 6.39847 10.9241 6.48797 11.0951C6.57745 11.266 6.62222 11.4507 6.62222 11.6491C6.62222 11.8475 6.57745 12.0321 6.48797 12.2031C6.39847 12.3741 6.25046 12.5143 6.04392 12.6238C5.83738 12.7332 5.57061 12.7879 5.24359 12.7879H4.30385V13.8857C4.30385 13.9507 4.27976 14.0054 4.23157 14.0499C4.18681 14.0943 4.13174 14.1166 4.06634 14.1166ZM5.19712 12.3467C5.54823 12.3467 5.79436 12.2801 5.93549 12.1467C6.08006 12.0133 6.15235 11.8475 6.15235 11.6491C6.15235 11.4507 6.08006 11.2849 5.93549 11.1515C5.79436 11.0181 5.54823 10.9514 5.19712 10.9514H4.30385V12.3467H5.19712ZM7.89693 14.0909C7.8315 14.0909 7.77647 14.0687 7.7317 14.0242C7.68693 13.9797 7.66457 13.9251 7.66457 13.8601V10.7462C7.66457 10.6812 7.68693 10.6266 7.7317 10.5821C7.77647 10.5342 7.8315 10.5103 7.89693 10.5103H8.93477C9.32719 10.5103 9.65934 10.5975 9.9313 10.7719C10.2067 10.9429 10.4132 11.1652 10.5509 11.4388C10.6886 11.7123 10.7574 11.9996 10.7574 12.3006C10.7574 12.6016 10.6886 12.8888 10.5509 13.1624C10.4132 13.436 10.2067 13.66 9.9313 13.8344C9.65934 14.0054 9.32719 14.0909 8.93477 14.0909H7.89693ZM8.87797 13.6549C9.16026 13.6549 9.4081 13.5984 9.6215 13.4856C9.8349 13.3693 10.0001 13.2103 10.1172 13.0085C10.2342 12.8033 10.2927 12.5673 10.2927 12.3006C10.2927 12.0338 10.2342 11.7995 10.1172 11.5978C10.0001 11.3926 9.8349 11.2336 9.6215 11.1207C9.4081 11.0044 9.16026 10.9463 8.87797 10.9463H8.13444V13.6549H8.87797ZM12.1359 14.1166C12.0706 14.1166 12.0155 14.0943 11.9707 14.0499C11.926 14.0054 11.9036 13.9507 11.9036 13.8857V10.7462C11.9036 10.6812 11.926 10.6266 11.9707 10.5821C12.0155 10.5342 12.0706 10.5103 12.1359 10.5103H14.1445C14.2065 10.5103 14.2581 10.5325 14.2994 10.5769C14.3442 10.618 14.3665 10.6693 14.3665 10.7308C14.3665 10.7924 14.3442 10.8437 14.2994 10.8847C14.2581 10.9258 14.2065 10.9463 14.1445 10.9463H12.3735V12.08H13.9638C14.0258 12.08 14.0774 12.1022 14.1187 12.1467C14.1635 12.1877 14.1858 12.239 14.1858 12.3006C14.1858 12.3621 14.1635 12.4134 14.1187 12.4545C14.0774 12.4955 14.0258 12.516 13.9638 12.516H12.3735V13.8857C12.3735 13.9507 12.3494 14.0054 12.3012 14.0499C12.2565 14.0943 12.2014 14.1166 12.1359 14.1166Z" fill="white"/>
<path d="M3.90097 14.0499L3.9934 13.958L3.90097 14.0499ZM3.90097 10.5821L3.9934 10.6739L3.99511 10.6722L3.99676 10.6704L3.90097 10.5821ZM6.04378 10.6744L6.1053 10.5598L6.04378 10.6744ZM6.48783 11.095L6.37186 11.155L6.48783 11.095ZM6.48783 12.2031L6.37186 12.1432L6.48783 12.2031ZM6.04378 12.6237L6.1053 12.7384L6.04378 12.6237ZM4.30371 12.7879V12.658H4.17299V12.7879H4.30371ZM4.23143 14.0499L4.14248 13.9547L4.14071 13.9563L4.13899 13.958L4.23143 14.0499ZM5.93535 12.1467L5.8464 12.0515L5.84582 12.0521L5.84526 12.0526L5.93535 12.1467ZM5.93535 11.1515L5.84526 11.2456L5.84582 11.2461L5.8464 11.2467L5.93535 11.1515ZM4.30371 10.9514V10.8215H4.17299V10.9514H4.30371ZM4.30371 12.3467H4.17299V12.4766H4.30371V12.3467ZM4.0662 13.9867C4.03416 13.9867 4.01273 13.9773 3.9934 13.958L3.80854 14.1417C3.8787 14.2114 3.96742 14.2464 4.0662 14.2464V13.9867ZM3.9934 13.958C3.97407 13.9388 3.96456 13.9175 3.96456 13.8857H3.70312C3.70312 13.9838 3.73837 14.072 3.80854 14.1417L3.9934 13.958ZM3.96456 13.8857V10.7462H3.70312V13.8857H3.96456ZM3.96456 10.7462C3.96456 10.7144 3.97407 10.6931 3.9934 10.6739L3.80854 10.4902C3.73837 10.5599 3.70312 10.6481 3.70312 10.7462H3.96456ZM3.99676 10.6704C4.01693 10.6489 4.03737 10.6401 4.0662 10.6401V10.3804C3.96422 10.3804 3.8745 10.4195 3.80518 10.4937L3.99676 10.6704ZM4.0662 10.6401H5.24345V10.3804H4.0662V10.6401ZM5.24345 10.6401C5.55706 10.6401 5.80067 10.6928 5.98226 10.789L6.1053 10.5598C5.87381 10.4371 5.58388 10.3804 5.24345 10.3804V10.6401ZM5.98226 10.789C6.1704 10.8887 6.29686 11.0117 6.37186 11.155L6.60378 11.0351C6.4998 10.8364 6.33023 10.679 6.1053 10.5598L5.98226 10.789ZM6.37186 11.155C6.45138 11.3069 6.49136 11.471 6.49136 11.6491H6.7528C6.7528 11.4305 6.70326 11.2252 6.60378 11.0351L6.37186 11.155ZM6.49136 11.6491C6.49136 11.8272 6.45138 11.9912 6.37186 12.1432L6.60378 12.263C6.70326 12.073 6.7528 11.8676 6.7528 11.6491H6.49136ZM6.37186 12.1432C6.29686 12.2865 6.1704 12.4095 5.98226 12.5091L6.1053 12.7384C6.33023 12.6191 6.4998 12.4617 6.60378 12.263L6.37186 12.1432ZM5.98226 12.5091C5.80067 12.6054 5.55706 12.658 5.24345 12.658V12.9178C5.58388 12.9178 5.87381 12.861 6.1053 12.7384L5.98226 12.5091ZM5.24345 12.658H4.30371V12.9178H5.24345V12.658ZM4.17299 12.7879V13.8857H4.43443V12.7879H4.17299ZM4.17299 13.8857C4.17299 13.9143 4.1642 13.9347 4.14248 13.9547L4.32037 14.145C4.39503 14.0762 4.43443 13.987 4.43443 13.8857H4.17299ZM4.13899 13.958C4.11966 13.9773 4.09823 13.9867 4.0662 13.9867V14.2464C4.16497 14.2464 4.25369 14.2114 4.32386 14.1417L4.13899 13.958ZM5.19698 12.4766C5.55724 12.4766 5.84675 12.4097 6.02544 12.2408L5.84526 12.0526C5.74168 12.1504 5.53894 12.2169 5.19698 12.2169V12.4766ZM6.0243 12.2419C6.19586 12.0836 6.28293 11.883 6.28293 11.6491H6.02149C6.02149 11.8118 5.96398 11.943 5.8464 12.0515L6.0243 12.2419ZM6.28293 11.6491C6.28293 11.4151 6.19586 11.2146 6.0243 11.0563L5.8464 11.2467C5.96398 11.3551 6.02149 11.4863 6.02149 11.6491H6.28293ZM6.02544 11.0574C5.84675 10.8885 5.55724 10.8215 5.19698 10.8215V11.0813C5.53894 11.0813 5.74168 11.1477 5.84526 11.2456L6.02544 11.0574ZM5.19698 10.8215H4.30371V11.0813H5.19698V10.8215ZM4.17299 10.9514V12.3467H4.43443V10.9514H4.17299ZM4.30371 12.4766H5.19698V12.2169H4.30371V12.4766ZM7.73156 14.0242L7.82398 13.9324L7.73156 14.0242ZM7.73156 10.5821L7.82398 10.6739L7.82574 10.6722L7.82737 10.6704L7.73156 10.5821ZM9.93116 10.7719L9.86025 10.881L9.8611 10.8815L9.86188 10.882L9.93116 10.7719ZM10.5508 11.4387L10.4338 11.4968L10.5508 11.4387ZM10.5508 13.1624L10.4338 13.1043L10.5508 13.1624ZM9.93116 13.8344L10.0011 13.9441L10.0014 13.9439L9.93116 13.8344ZM9.62136 13.4856L9.6828 13.6002L9.68352 13.5999L9.68424 13.5995L9.62136 13.4856ZM10.117 13.0085L10.2303 13.0734L10.2306 13.0729L10.2308 13.0725L10.117 13.0085ZM10.117 11.5978L10.0033 11.6618L10.0036 11.6622L10.0038 11.6626L10.117 11.5978ZM9.62136 11.1207L9.55849 11.2346L9.5592 11.235L9.55992 11.2353L9.62136 11.1207ZM8.1343 10.9463V10.8164H8.00358V10.9463H8.1343ZM8.1343 13.6549H8.00358V13.7847H8.1343V13.6549ZM7.89678 13.961C7.86476 13.961 7.84332 13.9516 7.82398 13.9324L7.63914 14.116C7.70927 14.1858 7.79803 14.2208 7.89678 14.2208V13.961ZM7.82398 13.9324C7.80469 13.9132 7.79515 13.8919 7.79515 13.86H7.53371C7.53371 13.9582 7.56894 14.0463 7.63914 14.116L7.82398 13.9324ZM7.79515 13.86V10.7462H7.53371V13.86H7.79515ZM7.79515 10.7462C7.79515 10.7144 7.80469 10.6931 7.82398 10.6739L7.63914 10.4902C7.56894 10.5599 7.53371 10.6481 7.53371 10.7462H7.79515ZM7.82737 10.6704C7.8475 10.6489 7.86796 10.6401 7.89678 10.6401V10.3804C7.79482 10.3804 7.70509 10.4195 7.63581 10.4937L7.82737 10.6704ZM7.89678 10.6401H8.93463V10.3804H7.89678V10.6401ZM8.93463 10.6401C9.30731 10.6401 9.61358 10.7228 9.86025 10.881L10.0021 10.6628C9.70489 10.4721 9.34685 10.3804 8.93463 10.3804V10.6401ZM9.86188 10.882C10.118 11.041 10.3075 11.2458 10.4338 11.4968L10.6677 11.3807C10.5187 11.0845 10.2951 10.8447 10.0004 10.6617L9.86188 10.882ZM10.4338 11.4968C10.5626 11.7527 10.6266 12.0201 10.6266 12.3006H10.888C10.888 11.9791 10.8143 11.672 10.6677 11.3807L10.4338 11.4968ZM10.6266 12.3006C10.6266 12.581 10.5626 12.8484 10.4338 13.1043L10.6677 13.2204C10.8143 12.9291 10.888 12.622 10.888 12.3006H10.6266ZM10.4338 13.1043C10.3074 13.3556 10.1176 13.5623 9.8609 13.7249L10.0014 13.9439C10.2955 13.7576 10.5188 13.5163 10.6677 13.2204L10.4338 13.1043ZM9.8613 13.7247C9.61443 13.8799 9.30777 13.961 8.93463 13.961V14.2208C9.34633 14.2208 9.70404 14.1309 10.0011 13.9441L9.8613 13.7247ZM8.93463 13.961H7.89678V14.2208H8.93463V13.961ZM8.87783 13.7847C9.1779 13.7847 9.4475 13.7246 9.6828 13.6002L9.55992 13.371C9.36835 13.4723 9.14228 13.525 8.87783 13.525V13.7847ZM9.68424 13.5995C9.91783 13.4722 10.1008 13.2965 10.2303 13.0734L10.0038 12.9436C9.8992 13.124 9.75175 13.2664 9.55849 13.3717L9.68424 13.5995ZM10.2308 13.0725C10.3604 12.8454 10.4233 12.5868 10.4233 12.3006H10.1619C10.1619 12.5478 10.1078 12.7612 10.0033 12.9445L10.2308 13.0725ZM10.4233 12.3006C10.4233 12.0144 10.3604 11.7571 10.2303 11.5329L10.0038 11.6626C10.1078 11.8419 10.1619 12.0532 10.1619 12.3006H10.4233ZM10.2308 11.5337C10.1013 11.3067 9.9177 11.1303 9.6828 11.0061L9.55992 11.2353C9.75188 11.3368 9.89875 11.4785 10.0033 11.6618L10.2308 11.5337ZM9.68424 11.0068C9.44868 10.8785 9.17855 10.8164 8.87783 10.8164V11.0762C9.14169 11.0762 9.36724 11.1304 9.55849 11.2346L9.68424 11.0068ZM8.87783 10.8164H8.1343V11.0762H8.87783V10.8164ZM8.00358 10.9463V13.6549H8.26502V10.9463H8.00358ZM8.1343 13.7847H8.87783V13.525H8.1343V13.7847ZM11.9706 14.0499L12.063 13.958L11.9706 14.0499ZM11.9706 10.5821L12.063 10.6739L12.0648 10.6722L12.0664 10.6704L11.9706 10.5821ZM14.2993 10.5769L14.2033 10.665L14.2068 10.6688L14.2106 10.6724L14.2993 10.5769ZM14.2993 10.8847L14.2106 10.7893L14.2087 10.7911L14.2069 10.7929L14.2993 10.8847ZM12.3733 10.9463V10.8164H12.2426V10.9463H12.3733ZM12.3733 12.08H12.2426V12.2099H12.3733V12.08ZM14.1186 12.1467L14.0225 12.2348L14.0261 12.2386L14.0299 12.2421L14.1186 12.1467ZM14.1186 12.4545L14.0299 12.359L14.028 12.3608L14.0261 12.3626L14.1186 12.4545ZM12.3733 12.516V12.3861H12.2426V12.516H12.3733ZM12.301 14.0499L12.2121 13.9547L12.2103 13.9563L12.2086 13.958L12.301 14.0499ZM12.1358 13.9867C12.1038 13.9867 12.0823 13.9773 12.063 13.958L11.8782 14.1417C11.9484 14.2114 12.037 14.2464 12.1358 14.2464V13.9867ZM12.063 13.958C12.0437 13.9388 12.0342 13.9175 12.0342 13.8857H11.7727C11.7727 13.9838 11.808 14.072 11.8782 14.1417L12.063 13.958ZM12.0342 13.8857V10.7462H11.7727V13.8857H12.0342ZM12.0342 10.7462C12.0342 10.7144 12.0437 10.6931 12.063 10.6739L11.8782 10.4902C11.808 10.5599 11.7727 10.6481 11.7727 10.7462H12.0342ZM12.0664 10.6704C12.0865 10.6489 12.107 10.6401 12.1358 10.6401V10.3804C12.0338 10.3804 11.9441 10.4195 11.8748 10.4937L12.0664 10.6704ZM12.1358 10.6401H14.1444V10.3804H12.1358V10.6401ZM14.1444 10.6401C14.1706 10.6401 14.1872 10.6477 14.2033 10.665L14.3953 10.4888C14.3288 10.4173 14.2421 10.3804 14.1444 10.3804V10.6401ZM14.2106 10.6724C14.228 10.6884 14.2357 10.7048 14.2357 10.7308H14.4971C14.4971 10.6337 14.4601 10.5476 14.388 10.4815L14.2106 10.6724ZM14.2357 10.7308C14.2357 10.7569 14.228 10.7733 14.2106 10.7893L14.388 10.9802C14.4601 10.9141 14.4971 10.8279 14.4971 10.7308H14.2357ZM14.2069 10.7929C14.1917 10.808 14.174 10.8164 14.1444 10.8164V11.0762C14.2387 11.0762 14.3243 11.0436 14.3917 10.9765L14.2069 10.7929ZM14.1444 10.8164H12.3733V11.0762H14.1444V10.8164ZM12.2426 10.9463V12.08H12.504V10.9463H12.2426ZM12.3733 12.2099H13.9636V11.9501H12.3733V12.2099ZM13.9636 12.2099C13.9899 12.2099 14.0065 12.2174 14.0225 12.2348L14.2146 12.0586C14.1481 11.987 14.0614 11.9501 13.9636 11.9501V12.2099ZM14.0299 12.2421C14.0473 12.2581 14.055 12.2745 14.055 12.3006H14.3164C14.3164 12.2035 14.2793 12.1173 14.2072 12.0512L14.0299 12.2421ZM14.055 12.3006C14.055 12.3266 14.0473 12.343 14.0299 12.359L14.2072 12.5499C14.2793 12.4838 14.3164 12.3976 14.3164 12.3006H14.055ZM14.0261 12.3626C14.011 12.3777 13.9933 12.3861 13.9636 12.3861V12.6459C14.058 12.6459 14.1436 12.6133 14.211 12.5463L14.0261 12.3626ZM13.9636 12.3861H12.3733V12.6459H13.9636V12.3861ZM12.2426 12.516V13.8857H12.504V12.516H12.2426ZM12.2426 13.8857C12.2426 13.9143 12.2338 13.9347 12.2121 13.9547L12.39 14.145C12.4646 14.0762 12.504 13.987 12.504 13.8857H12.2426ZM12.2086 13.958C12.1893 13.9773 12.1678 13.9867 12.1358 13.9867V14.2464C12.2346 14.2464 12.3233 14.2114 12.3935 14.1417L12.2086 13.958Z" fill="white"/>
<g opacity="0.4" filter="url(#filter0_d_329_780)">
<path d="M17.778 6.62338H12.5492C11.7551 6.62338 11.1113 5.98379 11.1113 5.19481V0L17.778 6.62338Z" fill="#BB251A"/>
</g>
</g>
</g>
<defs>
<filter id="filter0_d_329_780" x="-11.8887" y="-24" width="56.667" height="56.6234" filterUnits="userSpaceOnUse" color-interpolation-filters="sRGB">
<feFlood flood-opacity="0" result="BackgroundImageFix"/>
<feColorMatrix in="SourceAlpha" type="matrix" values="0 0 0 0 0 0 0 0 0 0 0 0 0 0 0 0 0 0 127 0" result="hardAlpha"/>
<feOffset dx="2" dy="1"/>
<feGaussianBlur stdDeviation="12.5"/>
<feColorMatrix type="matrix" values="0 0 0 0 0 0 0 0 0 0 0 0 0 0 0 0 0 0 0.33 0"/>
<feBlend mode="normal" in2="BackgroundImageFix" result="effect1_dropShadow_329_780"/>
<feBlend mode="normal" in="SourceGraphic" in2="effect1_dropShadow_329_780" result="shape"/>
</filter>
<linearGradient id="paint0_linear_329_780" x1="8.88889" y1="0" x2="8.88889" y2="20" gradientUnits="userSpaceOnUse">
<stop stop-color="#FF7979"/>
<stop offset="1" stop-color="#E85555"/>
</linearGradient>
<linearGradient id="paint1_linear_329_780" x1="8.88889" y1="0" x2="8.88889" y2="20" gradientUnits="userSpaceOnUse">
<stop stop-color="#FCA5A5"/>
<stop offset="1" stop-color="#C84646"/>
</linearGradient>
<clipPath id="clip0_329_780">
<rect width="17.7778" height="20" fill="white"/>
</clipPath>
</defs>
</svg>
