<svg width="19" height="20" viewBox="0 0 19 20" fill="none" xmlns="http://www.w3.org/2000/svg">
<g clip-path="url(#clip0_329_789)">
<mask id="mask0_329_789" style="mask-type:alpha" maskUnits="userSpaceOnUse" x="0" y="0" width="19" height="20">
<path d="M17.1172 20H2.21525C1.42112 20 0.777344 19.3604 0.777344 18.5714V1.42857C0.777344 0.639594 1.42112 0 2.21525 0H11.8885L18.5551 6.62338V18.5714C18.5551 19.3604 17.9113 20 17.1172 20Z" fill="url(#paint0_linear_329_789)"/>
</mask>
<g mask="url(#mask0_329_789)">
<path d="M17.1172 20H2.21525C1.42112 20 0.777344 19.3604 0.777344 18.5714V1.42857C0.777344 0.639594 1.42112 0 2.21525 0H11.8885L18.5551 6.62338V18.5714C18.5551 19.3604 17.9113 20 17.1172 20Z" fill="url(#paint1_linear_329_789)" fill-opacity="0.4"/>
<g opacity="0.23" filter="url(#filter0_f_329_789)">
<g style="mix-blend-mode:darken" opacity="0.23">
<path d="M17.7055 9.67529H1.75781V15.1298H17.7055V9.67529Z" fill="#DC6803"/>
</g>
</g>
<path d="M4.99602 14.1166C4.93062 14.1166 4.87554 14.0943 4.8308 14.0499C4.78604 14.0054 4.76367 13.9507 4.76367 13.8857V10.7462C4.76367 10.6812 4.78604 10.6266 4.8308 10.5821C4.87554 10.5342 4.93062 10.5103 4.99602 10.5103H6.17328C6.50029 10.5103 6.76707 10.565 6.97361 10.6744C7.18014 10.7838 7.32814 10.9241 7.41769 11.0951C7.50716 11.266 7.55193 11.4507 7.55193 11.6491C7.55193 11.8475 7.50716 12.0321 7.41769 12.2031C7.32814 12.3741 7.18014 12.5143 6.97361 12.6238C6.76707 12.7332 6.50029 12.7879 6.17328 12.7879H5.23354V13.8857C5.23354 13.9507 5.20944 14.0054 5.16125 14.0499C5.1165 14.0943 5.06142 14.1166 4.99602 14.1166ZM6.12681 12.3467C6.47792 12.3467 6.72404 12.2801 6.86518 12.1467C7.00975 12.0133 7.08204 11.8475 7.08204 11.6491C7.08204 11.4507 7.00975 11.2849 6.86518 11.1515C6.72404 11.0181 6.47792 10.9514 6.12681 10.9514H5.23354V12.3467H6.12681ZM8.82664 14.1166C8.76121 14.1166 8.70612 14.0943 8.66141 14.0499C8.61664 14.0054 8.59429 13.9507 8.59429 13.8857V10.7462C8.59429 10.6812 8.61664 10.6266 8.66141 10.5821C8.70612 10.5342 8.76121 10.5103 8.82664 10.5103H10.0039C10.3309 10.5103 10.5977 10.565 10.8042 10.6744C11.0108 10.7838 11.1587 10.9241 11.2483 11.0951C11.3378 11.266 11.3825 11.4507 11.3825 11.6491C11.3825 11.8475 11.3378 12.0321 11.2483 12.2031C11.1587 12.3741 11.0108 12.5143 10.8042 12.6238C10.5977 12.7332 10.3309 12.7879 10.0039 12.7879H9.06416V13.8857C9.06416 13.9507 9.04004 14.0054 8.99187 14.0499C8.9471 14.0943 8.892 14.1166 8.82664 14.1166ZM9.95742 12.3467C10.3085 12.3467 10.5546 12.2801 10.6958 12.1467C10.8404 12.0133 10.9127 11.8475 10.9127 11.6491C10.9127 11.4507 10.8404 11.2849 10.6958 11.1515C10.5546 11.0181 10.3085 10.9514 9.95742 10.9514H9.06416V12.3467H9.95742ZM13.4937 14.1166C13.4283 14.1166 13.3732 14.0943 13.3285 14.0499C13.2837 14.0054 13.2613 13.9507 13.2613 13.8857V10.9463H12.208C12.1461 10.9463 12.0944 10.9258 12.0531 10.8847C12.0118 10.8437 11.9911 10.7924 11.9911 10.7308C11.9911 10.6693 12.0118 10.618 12.0531 10.5769C12.0944 10.5325 12.1461 10.5103 12.208 10.5103H14.7794C14.8413 10.5103 14.893 10.5325 14.9343 10.5769C14.979 10.618 15.0014 10.6693 15.0014 10.7308C15.0014 10.7924 14.979 10.8437 14.9343 10.8847C14.893 10.9258 14.8413 10.9463 14.7794 10.9463H13.7312V13.8857C13.7312 13.9507 13.7071 14.0054 13.6589 14.0499C13.6142 14.0943 13.5591 14.1166 13.4937 14.1166Z" fill="white"/>
<path d="M4.83066 14.0499L4.92309 13.958L4.83066 14.0499ZM4.83066 10.5821L4.92309 10.6739L4.9248 10.6722L4.92645 10.6704L4.83066 10.5821ZM6.97347 10.6744L7.03498 10.5598L6.97347 10.6744ZM7.41754 11.095L7.30154 11.155L7.41754 11.095ZM7.41754 12.2031L7.30154 12.1432L7.41754 12.2031ZM6.97347 12.6237L7.03498 12.7384L6.97347 12.6237ZM5.2334 12.7879V12.658H5.10268V12.7879H5.2334ZM5.16111 14.0499L5.07217 13.9547L5.07039 13.9563L5.06868 13.958L5.16111 14.0499ZM6.86504 12.1467L6.77609 12.0515L6.77551 12.0521L6.77494 12.0526L6.86504 12.1467ZM6.86504 11.1515L6.77494 11.2456L6.77551 11.2461L6.77609 11.2467L6.86504 11.1515ZM5.2334 10.9514V10.8215H5.10268V10.9514H5.2334ZM5.2334 12.3467H5.10268V12.4766H5.2334V12.3467ZM4.99588 13.9867C4.96385 13.9867 4.94242 13.9773 4.92309 13.958L4.73822 14.1417C4.80839 14.2114 4.89711 14.2464 4.99588 14.2464V13.9867ZM4.92309 13.958C4.90375 13.9388 4.89425 13.9175 4.89425 13.8857H4.63281C4.63281 13.9838 4.66805 14.072 4.73822 14.1417L4.92309 13.958ZM4.89425 13.8857V10.7462H4.63281V13.8857H4.89425ZM4.89425 10.7462C4.89425 10.7144 4.90375 10.6931 4.92309 10.6739L4.73822 10.4902C4.66805 10.5599 4.63281 10.6481 4.63281 10.7462H4.89425ZM4.92645 10.6704C4.94662 10.6489 4.96705 10.6401 4.99588 10.6401V10.3804C4.8939 10.3804 4.80419 10.4195 4.73486 10.4937L4.92645 10.6704ZM4.99588 10.6401H6.17314V10.3804H4.99588V10.6401ZM6.17314 10.6401C6.48675 10.6401 6.73036 10.6928 6.91195 10.789L7.03498 10.5598C6.80349 10.4371 6.51356 10.3804 6.17314 10.3804V10.6401ZM6.91195 10.789C7.10008 10.8887 7.22655 11.0117 7.30154 11.155L7.53349 11.0351C7.42951 10.8364 7.25992 10.679 7.03498 10.5598L6.91195 10.789ZM7.30154 11.155C7.38107 11.3069 7.42107 11.471 7.42107 11.6491H7.68251C7.68251 11.4305 7.63297 11.2252 7.53349 11.0351L7.30154 11.155ZM7.42107 11.6491C7.42107 11.8272 7.38107 11.9912 7.30154 12.1432L7.53349 12.263C7.63297 12.073 7.68251 11.8676 7.68251 11.6491H7.42107ZM7.30154 12.1432C7.22655 12.2865 7.10008 12.4095 6.91195 12.5091L7.03498 12.7384C7.25992 12.6191 7.42951 12.4617 7.53349 12.263L7.30154 12.1432ZM6.91195 12.5091C6.73036 12.6054 6.48675 12.658 6.17314 12.658V12.9178C6.51356 12.9178 6.80349 12.861 7.03498 12.7384L6.91195 12.5091ZM6.17314 12.658H5.2334V12.9178H6.17314V12.658ZM5.10268 12.7879V13.8857H5.36412V12.7879H5.10268ZM5.10268 13.8857C5.10268 13.9143 5.09388 13.9347 5.07217 13.9547L5.25006 14.145C5.32472 14.0762 5.36412 13.987 5.36412 13.8857H5.10268ZM5.06868 13.958C5.04935 13.9773 5.02791 13.9867 4.99588 13.9867V14.2464C5.09466 14.2464 5.18337 14.2114 5.25354 14.1417L5.06868 13.958ZM6.12667 12.4766C6.48693 12.4766 6.77643 12.4097 6.95513 12.2408L6.77494 12.0526C6.67136 12.1504 6.46863 12.2169 6.12667 12.2169V12.4766ZM6.95398 12.2419C7.12555 12.0836 7.21262 11.883 7.21262 11.6491H6.95118C6.95118 11.8118 6.89366 11.943 6.77609 12.0515L6.95398 12.2419ZM7.21262 11.6491C7.21262 11.4151 7.12555 11.2146 6.95398 11.0563L6.77609 11.2467C6.89366 11.3551 6.95118 11.4863 6.95118 11.6491H7.21262ZM6.95513 11.0574C6.77643 10.8885 6.48693 10.8215 6.12667 10.8215V11.0813C6.46863 11.0813 6.67136 11.1477 6.77494 11.2456L6.95513 11.0574ZM6.12667 10.8215H5.2334V11.0813H6.12667V10.8215ZM5.10268 10.9514V12.3467H5.36412V10.9514H5.10268ZM5.2334 12.4766H6.12667V12.2169H5.2334V12.4766ZM8.66127 14.0499L8.75369 13.958L8.66127 14.0499ZM8.66127 10.5821L8.75369 10.6739L8.75539 10.6722L8.75702 10.6704L8.66127 10.5821ZM10.8041 10.6744L10.8656 10.5598L10.8041 10.6744ZM11.2481 11.095L11.1321 11.155L11.2481 11.095ZM11.2481 12.2031L11.1321 12.1432L11.2481 12.2031ZM10.8041 12.6237L10.8656 12.7384L10.8041 12.6237ZM9.06401 12.7879V12.658H8.9333V12.7879H9.06401ZM8.99173 14.0499L8.90277 13.9547L8.90101 13.9563L8.89924 13.958L8.99173 14.0499ZM10.6956 12.1467L10.6067 12.0515L10.6061 12.0521L10.6055 12.0526L10.6956 12.1467ZM10.6956 11.1515L10.6055 11.2456L10.6061 11.2461L10.6067 11.2467L10.6956 11.1515ZM9.06401 10.9514V10.8215H8.9333V10.9514H9.06401ZM9.06401 12.3467H8.9333V12.4766H9.06401V12.3467ZM8.8265 13.9867C8.79447 13.9867 8.77303 13.9773 8.75369 13.958L8.56879 14.1417C8.63898 14.2114 8.72768 14.2464 8.8265 14.2464V13.9867ZM8.75369 13.958C8.73434 13.9388 8.72486 13.9175 8.72486 13.8857H8.46343C8.46343 13.9838 8.49866 14.072 8.56879 14.1417L8.75369 13.958ZM8.72486 13.8857V10.7462H8.46343V13.8857H8.72486ZM8.72486 10.7462C8.72486 10.7144 8.73434 10.6931 8.75369 10.6739L8.56879 10.4902C8.49866 10.5599 8.46343 10.6481 8.46343 10.7462H8.72486ZM8.75702 10.6704C8.77722 10.6489 8.79768 10.6401 8.8265 10.6401V10.3804C8.72447 10.3804 8.6348 10.4195 8.56545 10.4937L8.75702 10.6704ZM8.8265 10.6401H10.0038V10.3804H8.8265V10.6401ZM10.0038 10.6401C10.3173 10.6401 10.5609 10.6928 10.7426 10.789L10.8656 10.5598C10.6341 10.4371 10.3441 10.3804 10.0038 10.3804V10.6401ZM10.7426 10.789C10.9307 10.8887 11.0572 11.0117 11.1321 11.155L11.3641 11.0351C11.2601 10.8364 11.0905 10.679 10.8656 10.5598L10.7426 10.789ZM11.1321 11.155C11.2117 11.3069 11.2517 11.471 11.2517 11.6491H11.5131C11.5131 11.4305 11.4636 11.2252 11.3641 11.0351L11.1321 11.155ZM11.2517 11.6491C11.2517 11.8272 11.2117 11.9912 11.1321 12.1432L11.3641 12.263C11.4636 12.073 11.5131 11.8676 11.5131 11.6491H11.2517ZM11.1321 12.1432C11.0572 12.2865 10.9307 12.4095 10.7426 12.5091L10.8656 12.7384C11.0905 12.6191 11.2601 12.4617 11.3641 12.263L11.1321 12.1432ZM10.7426 12.5091C10.5609 12.6054 10.3173 12.658 10.0038 12.658V12.9178C10.3441 12.9178 10.6341 12.861 10.8656 12.7384L10.7426 12.5091ZM10.0038 12.658H9.06401V12.9178H10.0038V12.658ZM8.9333 12.7879V13.8857H9.19473V12.7879H8.9333ZM8.9333 13.8857C8.9333 13.9143 8.92447 13.9347 8.90277 13.9547L9.08068 14.145C9.15532 14.0762 9.19473 13.987 9.19473 13.8857H8.9333ZM8.89924 13.958C8.87996 13.9773 8.85853 13.9867 8.8265 13.9867V14.2464C8.92526 14.2464 9.01395 14.2114 9.08415 14.1417L8.89924 13.958ZM9.95728 12.4766C10.3175 12.4766 10.607 12.4097 10.7857 12.2408L10.6055 12.0526C10.502 12.1504 10.2992 12.2169 9.95728 12.2169V12.4766ZM10.7846 12.2419C10.9562 12.0836 11.0432 11.883 11.0432 11.6491H10.7818C10.7818 11.8118 10.7243 11.943 10.6067 12.0515L10.7846 12.2419ZM11.0432 11.6491C11.0432 11.4151 10.9562 11.2146 10.7846 11.0563L10.6067 11.2467C10.7243 11.3551 10.7818 11.4863 10.7818 11.6491H11.0432ZM10.7857 11.0574C10.607 10.8885 10.3175 10.8215 9.95728 10.8215V11.0813C10.2992 11.0813 10.502 11.1477 10.6055 11.2456L10.7857 11.0574ZM9.95728 10.8215H9.06401V11.0813H9.95728V10.8215ZM8.9333 10.9514V12.3467H9.19473V10.9514H8.9333ZM9.06401 12.4766H9.95728V12.2169H9.06401V12.4766ZM13.3283 14.0499L13.2359 14.1417L13.3283 14.0499ZM13.2612 10.9463H13.3919V10.8164H13.2612V10.9463ZM12.053 10.8847L11.9606 10.9765L12.053 10.8847ZM12.053 10.5769L12.1454 10.6687L12.1472 10.6669L12.149 10.665L12.053 10.5769ZM14.9341 10.5769L14.8381 10.665L14.8416 10.6688L14.8455 10.6724L14.9341 10.5769ZM14.9341 10.8847L14.8455 10.7893L14.8436 10.7911L14.8417 10.7929L14.9341 10.8847ZM13.7311 10.9463V10.8164H13.6004V10.9463H13.7311ZM13.6588 14.0499L13.5698 13.9547L13.5681 13.9563L13.5664 13.958L13.6588 14.0499ZM13.4936 13.9867C13.4615 13.9867 13.4401 13.9773 13.4207 13.958L13.2359 14.1417C13.306 14.2114 13.3948 14.2464 13.4936 14.2464V13.9867ZM13.4207 13.958C13.4014 13.9388 13.3919 13.9175 13.3919 13.8857H13.1305C13.1305 13.9838 13.1657 14.072 13.2359 14.1417L13.4207 13.958ZM13.3919 13.8857V10.9463H13.1305V13.8857H13.3919ZM13.2612 10.8164H12.2079V11.0762H13.2612V10.8164ZM12.2079 10.8164C12.1783 10.8164 12.1606 10.808 12.1454 10.7929L11.9606 10.9765C12.0279 11.0436 12.1136 11.0762 12.2079 11.0762V10.8164ZM12.1454 10.7929C12.1302 10.7778 12.1217 10.7602 12.1217 10.7308H11.8603C11.8603 10.8245 11.8931 10.9096 11.9606 10.9765L12.1454 10.7929ZM12.1217 10.7308C12.1217 10.7014 12.1302 10.6839 12.1454 10.6687L11.9606 10.4851C11.8931 10.5521 11.8603 10.6371 11.8603 10.7308H12.1217ZM12.149 10.665C12.1651 10.6477 12.1817 10.6401 12.2079 10.6401V10.3804C12.1102 10.3804 12.0234 10.4173 11.9569 10.4888L12.149 10.665ZM12.2079 10.6401H14.7792V10.3804H12.2079V10.6401ZM14.7792 10.6401C14.8055 10.6401 14.822 10.6477 14.8381 10.665L15.0302 10.4888C14.9636 10.4173 14.877 10.3804 14.7792 10.3804V10.6401ZM14.8455 10.6724C14.8629 10.6884 14.8706 10.7048 14.8706 10.7308H15.132C15.132 10.6337 15.0949 10.5476 15.0228 10.4815L14.8455 10.6724ZM14.8706 10.7308C14.8706 10.7569 14.8629 10.7733 14.8455 10.7893L15.0228 10.9802C15.0949 10.9141 15.132 10.8279 15.132 10.7308H14.8706ZM14.8417 10.7929C14.8265 10.808 14.8089 10.8164 14.7792 10.8164V11.0762C14.8736 11.0762 14.9591 11.0436 15.0266 10.9765L14.8417 10.7929ZM14.7792 10.8164H13.7311V11.0762H14.7792V10.8164ZM13.6004 10.9463V13.8857H13.8618V10.9463H13.6004ZM13.6004 13.8857C13.6004 13.9143 13.5915 13.9347 13.5698 13.9547L13.7477 14.145C13.8224 14.0762 13.8618 13.987 13.8618 13.8857H13.6004ZM13.5664 13.958C13.547 13.9773 13.5256 13.9867 13.4936 13.9867V14.2464C13.5923 14.2464 13.681 14.2114 13.7512 14.1417L13.5664 13.958Z" fill="white"/>
<g filter="url(#filter1_d_329_789)">
<path opacity="0.4" d="M18.5553 6.62338H13.3266C12.5325 6.62338 11.8887 5.98379 11.8887 5.19481V0L18.5553 6.62338Z" fill="#DC6803"/>
</g>
</g>
</g>
<defs>
<filter id="filter0_f_329_789" x="-37.2422" y="-29.3247" width="93.9473" height="83.4546" filterUnits="userSpaceOnUse" color-interpolation-filters="sRGB">
<feFlood flood-opacity="0" result="BackgroundImageFix"/>
<feBlend mode="normal" in="SourceGraphic" in2="BackgroundImageFix" result="shape"/>
<feGaussianBlur stdDeviation="19.5" result="effect1_foregroundBlur_329_789"/>
</filter>
<filter id="filter1_d_329_789" x="-11.1113" y="-24" width="56.667" height="56.6234" filterUnits="userSpaceOnUse" color-interpolation-filters="sRGB">
<feFlood flood-opacity="0" result="BackgroundImageFix"/>
<feColorMatrix in="SourceAlpha" type="matrix" values="0 0 0 0 0 0 0 0 0 0 0 0 0 0 0 0 0 0 127 0" result="hardAlpha"/>
<feOffset dx="2" dy="1"/>
<feGaussianBlur stdDeviation="12.5"/>
<feColorMatrix type="matrix" values="0 0 0 0 0 0 0 0 0 0 0 0 0 0 0 0 0 0 0.33 0"/>
<feBlend mode="normal" in2="BackgroundImageFix" result="effect1_dropShadow_329_789"/>
<feBlend mode="normal" in="SourceGraphic" in2="effect1_dropShadow_329_789" result="shape"/>
</filter>
<linearGradient id="paint0_linear_329_789" x1="9.66623" y1="0" x2="9.66623" y2="20" gradientUnits="userSpaceOnUse">
<stop stop-color="#FF7979"/>
<stop offset="1" stop-color="#E85555"/>
</linearGradient>
<linearGradient id="paint1_linear_329_789" x1="9.66623" y1="0" x2="9.66623" y2="20" gradientUnits="userSpaceOnUse">
<stop stop-color="#FFD481"/>
<stop offset="1" stop-color="#E0A22A"/>
</linearGradient>
<clipPath id="clip0_329_789">
<rect width="17.7778" height="20" fill="white" transform="translate(0.777344)"/>
</clipPath>
</defs>
</svg>
