<svg width="18" height="20" viewBox="0 0 18 20" fill="none" xmlns="http://www.w3.org/2000/svg">
<g clip-path="url(#clip0_329_688)">
<mask id="mask0_329_688" style="mask-type:alpha" maskUnits="userSpaceOnUse" x="0" y="0" width="18" height="20">
<path d="M16.3399 20H1.43791C0.643774 20 0 19.3604 0 18.5714V1.42857C0 0.639594 0.643774 0 1.43791 0H11.1111L17.7778 6.62338V18.5714C17.7778 19.3604 17.134 20 16.3399 20Z" fill="url(#paint0_linear_329_688)"/>
</mask>
<g mask="url(#mask0_329_688)">
<path d="M16.3399 20H1.43791C0.643774 20 0 19.3604 0 18.5714V1.42857C0 0.639594 0.643774 0 1.43791 0H11.1111L17.7778 6.62338V18.5714C17.7778 19.3604 17.134 20 16.3399 20Z" fill="url(#paint1_linear_329_688)" fill-opacity="0.4"/>
<path d="M4.06634 14.1166C4.00093 14.1166 3.94586 14.0944 3.90111 14.0499C3.85636 14.0054 3.83398 13.9507 3.83398 13.8857V10.7463C3.83398 10.6813 3.85636 10.6266 3.90111 10.5821C3.94586 10.5342 4.00093 10.5103 4.06634 10.5103H5.24359C5.57061 10.5103 5.83738 10.565 6.04392 10.6744C6.25046 10.7839 6.39847 10.9241 6.48797 11.0951C6.57745 11.2661 6.62222 11.4507 6.62222 11.6491C6.62222 11.8475 6.57745 12.0322 6.48797 12.2031C6.39847 12.3741 6.25046 12.5144 6.04392 12.6238C5.83738 12.7332 5.57061 12.7879 5.24359 12.7879H4.30385V13.8857C4.30385 13.9507 4.27976 14.0054 4.23157 14.0499C4.18681 14.0944 4.13174 14.1166 4.06634 14.1166ZM5.19712 12.3468C5.54823 12.3468 5.79436 12.2801 5.93549 12.1467C6.08006 12.0133 6.15235 11.8475 6.15235 11.6491C6.15235 11.4507 6.08006 11.2849 5.93549 11.1515C5.79436 11.0181 5.54823 10.9515 5.19712 10.9515H4.30385V12.3468H5.19712ZM8.80052 14.1422C8.36333 14.1422 7.95372 14.0602 7.57163 13.896C7.53032 13.8789 7.49588 13.8515 7.46836 13.8139C7.44085 13.7729 7.42706 13.7302 7.42706 13.6857C7.42706 13.6276 7.44601 13.5779 7.48385 13.5369C7.52516 13.4924 7.5768 13.4702 7.63876 13.4702C7.6732 13.4702 7.70588 13.477 7.73686 13.4907C8.05353 13.6309 8.39261 13.7011 8.75405 13.7011C9.35647 13.7011 9.65765 13.5044 9.65765 13.1111C9.65765 13.0085 9.61804 12.923 9.53889 12.8546C9.46314 12.7863 9.36849 12.7332 9.2549 12.6956C9.1413 12.6546 8.97954 12.6067 8.76954 12.552C8.49072 12.4802 8.26523 12.4118 8.09314 12.3468C7.92104 12.2784 7.773 12.1775 7.64908 12.0441C7.52516 11.9107 7.4632 11.7329 7.4632 11.5106C7.4632 11.3157 7.51483 11.1396 7.6181 10.9822C7.72137 10.8215 7.87281 10.695 8.07248 10.6026C8.27555 10.5068 8.51823 10.459 8.80052 10.459C9.17915 10.459 9.5217 10.5154 9.82804 10.6283C9.92444 10.6625 9.97261 10.7309 9.97261 10.8335C9.97261 10.8882 9.95366 10.9378 9.91581 10.9822C9.87797 11.0267 9.82804 11.0489 9.76608 11.0489C9.74542 11.0489 9.71791 11.0421 9.68346 11.0284C9.41497 10.9361 9.13784 10.8899 8.85215 10.8899C8.58019 10.8899 8.35817 10.9412 8.18608 11.0438C8.01738 11.1464 7.93307 11.29 7.93307 11.4747C7.93307 11.5978 7.97268 11.6987 8.05183 11.7774C8.13444 11.8526 8.23601 11.9124 8.35647 11.9569C8.48039 11.9979 8.64732 12.0424 8.85732 12.0903C9.12928 12.1553 9.34784 12.2202 9.51307 12.2852C9.68176 12.3502 9.82457 12.4511 9.94163 12.5879C10.0621 12.7247 10.1224 12.9094 10.1224 13.1419C10.1224 13.3334 10.0673 13.5061 9.95712 13.66C9.84699 13.8105 9.69209 13.9285 9.49242 14.014C9.29274 14.0995 9.06216 14.1422 8.80052 14.1422ZM11.4401 14.0909C11.3747 14.0909 11.3196 14.0687 11.2749 14.0242C11.2301 13.9798 11.2078 13.9251 11.2078 13.8601V10.7463C11.2078 10.6813 11.2301 10.6266 11.2749 10.5821C11.3196 10.5342 11.3747 10.5103 11.4401 10.5103H12.478C12.8704 10.5103 13.2025 10.5975 13.4745 10.7719C13.7499 10.9429 13.9564 11.1652 14.0941 11.4388C14.2318 11.7124 14.3007 11.9996 14.3007 12.3006C14.3007 12.6016 14.2318 12.8889 14.0941 13.1624C13.9564 13.436 13.7499 13.66 13.4745 13.8344C13.2025 14.0054 12.8704 14.0909 12.478 14.0909H11.4401ZM12.4212 13.6549C12.7034 13.6549 12.9512 13.5985 13.1647 13.4856C13.3781 13.3693 13.5433 13.2103 13.6604 13.0085C13.7774 12.8033 13.8359 12.5674 13.8359 12.3006C13.8359 12.0339 13.7774 11.7996 13.6604 11.5978C13.5433 11.3926 13.3781 11.2336 13.1647 11.1207C12.9512 11.0044 12.7034 10.9463 12.4212 10.9463H11.6776V13.6549H12.4212Z" fill="white"/>
<path d="M3.90097 14.0499L3.9934 13.9581L3.90097 14.0499ZM3.90097 10.5821L3.9934 10.6739L3.99511 10.6722L3.99676 10.6705L3.90097 10.5821ZM6.04378 10.6744L6.1053 10.5598L6.04378 10.6744ZM6.48783 11.0951L6.37186 11.155L6.48783 11.0951ZM6.48783 12.2031L6.37186 12.1432L6.48783 12.2031ZM6.04378 12.6238L6.1053 12.7384L6.04378 12.6238ZM4.30371 12.7879V12.6581H4.17299V12.7879H4.30371ZM4.23143 14.0499L4.14248 13.9547L4.14071 13.9564L4.13899 13.9581L4.23143 14.0499ZM5.93535 12.1467L5.8464 12.0515L5.84582 12.0521L5.84526 12.0526L5.93535 12.1467ZM5.93535 11.1515L5.84526 11.2456L5.84582 11.2461L5.8464 11.2467L5.93535 11.1515ZM4.30371 10.9514V10.8216H4.17299V10.9514H4.30371ZM4.30371 12.3468H4.17299V12.4766H4.30371V12.3468ZM4.0662 13.9867C4.03416 13.9867 4.01273 13.9773 3.9934 13.9581L3.80854 14.1417C3.8787 14.2114 3.96742 14.2464 4.0662 14.2464V13.9867ZM3.9934 13.9581C3.97407 13.9388 3.96456 13.9175 3.96456 13.8857H3.70312C3.70312 13.9838 3.73837 14.072 3.80854 14.1417L3.9934 13.9581ZM3.96456 13.8857V10.7462H3.70312V13.8857H3.96456ZM3.96456 10.7462C3.96456 10.7144 3.97407 10.6931 3.9934 10.6739L3.80854 10.4903C3.73837 10.5599 3.70312 10.6481 3.70312 10.7462H3.96456ZM3.99676 10.6705C4.01693 10.6489 4.03737 10.6401 4.0662 10.6401V10.3804C3.96422 10.3804 3.8745 10.4196 3.80518 10.4937L3.99676 10.6705ZM4.0662 10.6401H5.24345V10.3804H4.0662V10.6401ZM5.24345 10.6401C5.55706 10.6401 5.80067 10.6928 5.98226 10.789L6.1053 10.5598C5.87381 10.4372 5.58388 10.3804 5.24345 10.3804V10.6401ZM5.98226 10.789C6.1704 10.8887 6.29686 11.0117 6.37186 11.155L6.60378 11.0351C6.4998 10.8364 6.33023 10.679 6.1053 10.5598L5.98226 10.789ZM6.37186 11.155C6.45138 11.307 6.49136 11.471 6.49136 11.6491H6.7528C6.7528 11.4305 6.70326 11.2252 6.60378 11.0351L6.37186 11.155ZM6.49136 11.6491C6.49136 11.8272 6.45138 11.9912 6.37186 12.1432L6.60378 12.2631C6.70326 12.073 6.7528 11.8677 6.7528 11.6491H6.49136ZM6.37186 12.1432C6.29686 12.2865 6.1704 12.4095 5.98226 12.5092L6.1053 12.7384C6.33023 12.6192 6.4998 12.4618 6.60378 12.2631L6.37186 12.1432ZM5.98226 12.5092C5.80067 12.6054 5.55706 12.6581 5.24345 12.6581V12.9178C5.58388 12.9178 5.87381 12.8611 6.1053 12.7384L5.98226 12.5092ZM5.24345 12.6581H4.30371V12.9178H5.24345V12.6581ZM4.17299 12.7879V13.8857H4.43443V12.7879H4.17299ZM4.17299 13.8857C4.17299 13.9144 4.1642 13.9347 4.14248 13.9547L4.32037 14.1451C4.39503 14.0762 4.43443 13.987 4.43443 13.8857H4.17299ZM4.13899 13.9581C4.11966 13.9773 4.09823 13.9867 4.0662 13.9867V14.2464C4.16497 14.2464 4.25369 14.2114 4.32386 14.1417L4.13899 13.9581ZM5.19698 12.4766C5.55724 12.4766 5.84675 12.4097 6.02544 12.2408L5.84526 12.0526C5.74168 12.1505 5.53894 12.2169 5.19698 12.2169V12.4766ZM6.0243 12.2419C6.19586 12.0836 6.28293 11.8831 6.28293 11.6491H6.02149C6.02149 11.8118 5.96398 11.9431 5.8464 12.0515L6.0243 12.2419ZM6.28293 11.6491C6.28293 11.4151 6.19586 11.2146 6.0243 11.0563L5.8464 11.2467C5.96398 11.3551 6.02149 11.4864 6.02149 11.6491H6.28293ZM6.02544 11.0574C5.84675 10.8885 5.55724 10.8216 5.19698 10.8216V11.0813C5.53894 11.0813 5.74168 11.1477 5.84526 11.2456L6.02544 11.0574ZM5.19698 10.8216H4.30371V11.0813H5.19698V10.8216ZM4.17299 10.9514V12.3468H4.43443V10.9514H4.17299ZM4.30371 12.4766H5.19698V12.2169H4.30371V12.4766ZM7.57149 13.896L7.62339 13.7768L7.6226 13.7764L7.62175 13.7761L7.57149 13.896ZM7.46822 13.8139L7.35947 13.8859L7.36097 13.8881L7.36254 13.8903L7.46822 13.8139ZM7.48371 13.5369L7.3877 13.4488L7.38737 13.4492L7.48371 13.5369ZM7.73672 13.4907L7.78992 13.3721L7.78979 13.372L7.73672 13.4907ZM9.53875 12.8546L9.45084 12.9507L9.45188 12.9517L9.453 12.9526L9.53875 12.8546ZM9.25476 12.6956L9.21012 12.8177L9.21175 12.8183L9.21345 12.8188L9.25476 12.6956ZM8.7694 12.552L8.8026 12.4263L8.80221 12.4262L8.7694 12.552ZM8.093 12.3468L8.04443 12.4673L8.04548 12.4677L8.04659 12.4682L8.093 12.3468ZM7.64894 12.0441L7.55293 12.1322L7.64894 12.0441ZM7.61796 10.9822L7.72744 11.0532L7.72783 11.0526L7.72816 11.0521L7.61796 10.9822ZM8.07234 10.6026L8.1275 10.7203L8.12796 10.7201L8.12842 10.7199L8.07234 10.6026ZM9.8279 10.6283L9.78247 10.75L9.78319 10.7503L9.78391 10.7505L9.8279 10.6283ZM9.91567 10.9822L10.0155 11.0661L9.91567 10.9822ZM9.68332 11.0284L9.73188 10.9078L9.72901 10.9066L9.72607 10.9057L9.68332 11.0284ZM8.18594 11.0438L8.11868 10.9324L8.11816 10.9327L8.1177 10.933L8.18594 11.0438ZM8.05169 11.7773L7.95927 11.8692L7.9613 11.8712L7.96339 11.8731L8.05169 11.7773ZM8.35633 11.9569L8.31084 12.0786L8.31293 12.0794L8.31502 12.0801L8.35633 11.9569ZM8.85718 12.0903L8.88777 11.964L8.88711 11.9638L8.88646 11.9637L8.85718 12.0903ZM9.51293 12.2852L9.46483 12.406L9.46567 12.4063L9.51293 12.2852ZM9.94149 12.5879L9.84188 12.672L9.84254 12.6727L9.84313 12.6734L9.94149 12.5879ZM9.95698 13.66L10.0627 13.7364L10.0631 13.7359L10.0635 13.7353L9.95698 13.66ZM9.49228 14.014L9.54404 14.1333L9.49228 14.014ZM8.80038 14.0123C8.38018 14.0123 7.98829 13.9336 7.62339 13.7768L7.5196 14.0152C7.91888 14.1867 8.34626 14.2721 8.80038 14.2721V14.0123ZM7.62175 13.7761C7.60365 13.7686 7.58803 13.7568 7.57398 13.7375L7.36254 13.8903C7.40345 13.9462 7.45672 13.9892 7.52123 14.0159L7.62175 13.7761ZM7.57698 13.7419C7.56214 13.7198 7.55764 13.7017 7.55764 13.6857H7.2962C7.2962 13.7585 7.31927 13.826 7.35947 13.8859L7.57698 13.7419ZM7.55764 13.6857C7.55764 13.6585 7.56535 13.6406 7.58005 13.6246L7.38737 13.4492C7.32633 13.5153 7.2962 13.5966 7.2962 13.6857H7.55764ZM7.57979 13.625C7.59587 13.6077 7.61241 13.6001 7.63862 13.6001V13.3403C7.5409 13.3403 7.45424 13.3772 7.3877 13.4488L7.57979 13.625ZM7.63862 13.6001C7.65502 13.6001 7.66966 13.6032 7.68365 13.6094L7.78979 13.372C7.74188 13.3509 7.69103 13.3403 7.63862 13.3403V13.6001ZM7.68352 13.6094C8.01764 13.7573 8.37496 13.8309 8.75391 13.8309V13.5712C8.40999 13.5712 8.08914 13.5046 7.78992 13.3721L7.68352 13.6094ZM8.75391 13.8309C9.06528 13.8309 9.32149 13.7809 9.50339 13.6621C9.69489 13.5371 9.78822 13.3464 9.78822 13.1111H9.52679C9.52679 13.2691 9.46953 13.3734 9.35986 13.445C9.24051 13.5229 9.04496 13.5712 8.75391 13.5712V13.8309ZM9.78822 13.1111C9.78822 12.9703 9.73175 12.8492 9.6245 12.7566L9.453 12.9526C9.50411 12.9968 9.52679 13.0468 9.52679 13.1111H9.78822ZM9.62666 12.7585C9.53541 12.6761 9.42404 12.6148 9.29613 12.5724L9.21345 12.8188C9.31267 12.8516 9.39064 12.8964 9.45084 12.9507L9.62666 12.7585ZM9.29947 12.5735C9.18025 12.5305 9.01391 12.4814 8.8026 12.4263L8.73626 12.6776C8.94489 12.732 9.10215 12.7786 9.21012 12.8177L9.29947 12.5735ZM8.80221 12.4262C8.52574 12.355 8.30535 12.288 8.13947 12.2253L8.04659 12.4682C8.22489 12.5355 8.45541 12.6053 8.73659 12.6777L8.80221 12.4262ZM8.14156 12.2262C7.98724 12.1649 7.85554 12.0749 7.74502 11.956L7.55293 12.1322C7.69025 12.28 7.85456 12.3919 8.04443 12.4673L8.14156 12.2262ZM7.74502 11.956C7.64816 11.8518 7.59378 11.7079 7.59378 11.5106H7.33234C7.33234 11.7578 7.40195 11.9697 7.55293 12.1322L7.74502 11.956ZM7.59378 11.5106C7.59378 11.3398 7.63862 11.1885 7.72744 11.0532L7.50848 10.9112C7.39084 11.0905 7.33234 11.2915 7.33234 11.5106H7.59378ZM7.72816 11.0521C7.81613 10.9151 7.94698 10.8038 8.1275 10.7203L8.01718 10.4849C7.79835 10.586 7.62633 10.7279 7.50777 10.9123L7.72816 11.0521ZM8.12842 10.7199C8.31012 10.6343 8.53267 10.5888 8.80038 10.5888V10.3291C8.50358 10.3291 8.24077 10.3794 8.01633 10.4853L8.12842 10.7199ZM8.80038 10.5888C9.16594 10.5888 9.49273 10.6433 9.78247 10.75L9.87332 10.5065C9.55032 10.3875 9.19215 10.3291 8.80038 10.3291V10.5888ZM9.78391 10.7505C9.81228 10.7606 9.82384 10.772 9.82927 10.7797C9.83476 10.7875 9.84175 10.8026 9.84175 10.8335H10.1032C10.1032 10.7617 10.0861 10.6913 10.0435 10.6307C10.0006 10.57 9.93992 10.5301 9.87188 10.506L9.78391 10.7505ZM9.84175 10.8335C9.84175 10.8554 9.83515 10.8757 9.81587 10.8983L10.0155 11.0661C10.0719 10.9998 10.1032 10.921 10.1032 10.8335H9.84175ZM9.81587 10.8983C9.80443 10.9118 9.79195 10.919 9.76594 10.919V11.1788C9.86384 11.1788 9.95117 11.1416 10.0155 11.0661L9.81587 10.8983ZM9.76594 10.919C9.76947 10.919 9.76849 10.9195 9.76149 10.9178C9.75489 10.9161 9.74515 10.9131 9.73188 10.9078L9.63476 11.149C9.67437 11.1647 9.72031 11.1788 9.76594 11.1788V10.919ZM9.72607 10.9057C9.44378 10.8086 9.15221 10.76 8.85201 10.76V11.0198C9.12326 11.0198 9.38594 11.0635 9.64058 11.1511L9.72607 10.9057ZM8.85201 10.76C8.5645 10.76 8.31711 10.8142 8.11868 10.9324L8.25319 11.1551C8.39901 11.0682 8.59567 11.0198 8.85201 11.0198V10.76ZM8.1177 10.933C7.91319 11.0574 7.80221 11.2414 7.80221 11.4747H8.06365C8.06365 11.3386 8.12136 11.2353 8.25417 11.1546L8.1177 10.933ZM7.80221 11.4747C7.80221 11.6282 7.85286 11.7635 7.95927 11.8692L8.14411 11.6855C8.09221 11.6339 8.06365 11.5674 8.06365 11.4747H7.80221ZM7.96339 11.8731C8.06012 11.9612 8.17679 12.0292 8.31084 12.0786L8.40182 11.8351C8.29489 11.7957 8.20848 11.744 8.14005 11.6816L7.96339 11.8731ZM8.31502 12.0801C8.44463 12.123 8.61613 12.1686 8.82796 12.2168L8.88646 11.9637C8.67829 11.9162 8.51594 11.8729 8.3977 11.8337L8.31502 12.0801ZM8.82659 12.2166C9.09554 12.2808 9.30757 12.3441 9.46483 12.406L9.56103 12.1644C9.38783 12.0963 9.16267 12.0297 8.88777 11.964L8.82659 12.2166ZM9.46567 12.4063C9.61411 12.4635 9.73894 12.5516 9.84188 12.672L10.0411 12.5038C9.90999 12.3505 9.74914 12.2369 9.56018 12.1641L9.46567 12.4063ZM9.84313 12.6734C9.93744 12.7805 9.99149 12.9318 9.99149 13.1419H10.2529C10.2529 12.8869 10.1865 12.6688 10.0399 12.5023L9.84313 12.6734ZM9.99149 13.1419C9.99149 13.3068 9.94463 13.4532 9.85045 13.5848L10.0635 13.7353C10.1897 13.559 10.2529 13.3599 10.2529 13.1419H9.99149ZM9.8513 13.5836C9.75698 13.7124 9.62215 13.817 9.44051 13.8947L9.54404 14.1333C9.76169 14.04 9.93666 13.9086 10.0627 13.7364L9.8513 13.5836ZM9.44051 13.8947C9.26018 13.972 9.04777 14.0123 8.80038 14.0123V14.2721C9.07626 14.2721 9.32509 14.227 9.54404 14.1333L9.44051 13.8947ZM11.2748 14.0242L11.3672 13.9324L11.2748 14.0242ZM11.2748 10.5821L11.3672 10.6739L11.3689 10.6722L11.3705 10.6705L11.2748 10.5821ZM13.4744 10.7719L13.4035 10.881L13.4042 10.8815L13.4051 10.882L13.4744 10.7719ZM14.094 11.4388L13.977 11.4968L14.094 11.4388ZM14.094 13.1624L13.977 13.1044L14.094 13.1624ZM13.4744 13.8344L13.5442 13.9442L13.5446 13.9439L13.4744 13.8344ZM13.1646 13.4856L13.2259 13.6002L13.2267 13.5999L13.2274 13.5995L13.1646 13.4856ZM13.6603 13.0085L13.7735 13.0734L13.7737 13.0729L13.774 13.0725L13.6603 13.0085ZM13.6603 11.5978L13.5465 11.6618L13.5467 11.6622L13.547 11.6627L13.6603 11.5978ZM13.1646 11.1207L13.1017 11.2346L13.1024 11.235L13.1031 11.2353L13.1646 11.1207ZM11.6775 10.9463V10.8164H11.5468V10.9463H11.6775ZM11.6775 13.6549H11.5468V13.7848H11.6775V13.6549ZM11.44 13.9611C11.408 13.9611 11.3865 13.9516 11.3672 13.9324L11.1823 14.116C11.2525 14.1858 11.3412 14.2208 11.44 14.2208V13.9611ZM11.3672 13.9324C11.3478 13.9132 11.3384 13.8919 11.3384 13.8601H11.0769C11.0769 13.9582 11.1121 14.0464 11.1823 14.116L11.3672 13.9324ZM11.3384 13.8601V10.7462H11.0769V13.8601H11.3384ZM11.3384 10.7462C11.3384 10.7144 11.3478 10.6931 11.3672 10.6739L11.1823 10.4903C11.1121 10.5599 11.0769 10.6481 11.0769 10.7462H11.3384ZM11.3705 10.6705C11.3907 10.6489 11.4112 10.6401 11.44 10.6401V10.3804C11.338 10.3804 11.2483 10.4196 11.1789 10.4937L11.3705 10.6705ZM11.44 10.6401H12.4778V10.3804H11.44V10.6401ZM12.4778 10.6401C12.8504 10.6401 13.1568 10.7228 13.4035 10.881L13.5453 10.6628C13.2481 10.4722 12.89 10.3804 12.4778 10.3804V10.6401ZM13.4051 10.882C13.6612 11.041 13.8507 11.2459 13.977 11.4968L14.2109 11.3807C14.0618 11.0846 13.8382 10.8447 13.5436 10.6618L13.4051 10.882ZM13.977 11.4968C14.1058 11.7527 14.1698 12.0201 14.1698 12.3006H14.4312C14.4312 11.9792 14.3575 11.672 14.2109 11.3807L13.977 11.4968ZM14.1698 12.3006C14.1698 12.5811 14.1058 12.8485 13.977 13.1044L14.2109 13.2205C14.3575 12.9292 14.4312 12.622 14.4312 12.3006H14.1698ZM13.977 13.1044C13.8506 13.3556 13.6608 13.5623 13.4041 13.7249L13.5446 13.9439C13.8387 13.7577 14.0619 13.5164 14.2109 13.2205L13.977 13.1044ZM13.4044 13.7247C13.1576 13.8799 12.851 13.9611 12.4778 13.9611V14.2208C12.8895 14.2208 13.2472 14.1309 13.5442 13.9442L13.4044 13.7247ZM12.4778 13.9611H11.44V14.2208H12.4778V13.9611ZM12.421 13.7848C12.7211 13.7848 12.9907 13.7246 13.2259 13.6002L13.1031 13.371C12.9116 13.4723 12.6855 13.525 12.421 13.525V13.7848ZM13.2274 13.5995C13.461 13.4722 13.644 13.2966 13.7735 13.0734L13.547 12.9436C13.4424 13.124 13.295 13.2664 13.1017 13.3717L13.2274 13.5995ZM13.774 13.0725C13.9035 12.8454 13.9665 12.5868 13.9665 12.3006H13.7051C13.7051 12.5479 13.651 12.7612 13.5465 12.9445L13.774 13.0725ZM13.9665 12.3006C13.9665 12.0144 13.9035 11.7572 13.7735 11.5329L13.547 11.6627C13.651 11.842 13.7051 12.0533 13.7051 12.3006H13.9665ZM13.774 11.5338C13.6444 11.3067 13.4609 11.1303 13.2259 11.0061L13.1031 11.2353C13.2951 11.3368 13.4419 11.4785 13.5465 11.6618L13.774 11.5338ZM13.2274 11.0068C12.9918 10.8785 12.7218 10.8164 12.421 10.8164V11.0762C12.6848 11.0762 12.9104 11.1304 13.1017 11.2346L13.2274 11.0068ZM12.421 10.8164H11.6775V11.0762H12.421V10.8164ZM11.5468 10.9463V13.6549H11.8082V10.9463H11.5468ZM11.6775 13.7848H12.421V13.525H11.6775V13.7848Z" fill="white"/>
<g filter="url(#filter0_d_329_688)">
<path d="M17.778 6.62338H12.5492C11.7551 6.62338 11.1113 5.98379 11.1113 5.19481V0L17.778 6.62338Z" fill="url(#paint2_linear_329_688)" fill-opacity="0.4"/>
</g>
</g>
</g>
<defs>
<filter id="filter0_d_329_688" x="-11.8887" y="-24" width="56.667" height="56.6234" filterUnits="userSpaceOnUse" color-interpolation-filters="sRGB">
<feFlood flood-opacity="0" result="BackgroundImageFix"/>
<feColorMatrix in="SourceAlpha" type="matrix" values="0 0 0 0 0 0 0 0 0 0 0 0 0 0 0 0 0 0 127 0" result="hardAlpha"/>
<feOffset dx="2" dy="1"/>
<feGaussianBlur stdDeviation="12.5"/>
<feColorMatrix type="matrix" values="0 0 0 0 0 0 0 0 0 0 0 0 0 0 0 0 0 0 0.33 0"/>
<feBlend mode="normal" in2="BackgroundImageFix" result="effect1_dropShadow_329_688"/>
<feBlend mode="normal" in="SourceGraphic" in2="effect1_dropShadow_329_688" result="shape"/>
</filter>
<linearGradient id="paint0_linear_329_688" x1="8.88889" y1="0" x2="8.88889" y2="20" gradientUnits="userSpaceOnUse">
<stop stop-color="#FF7979"/>
<stop offset="1" stop-color="#E85555"/>
</linearGradient>
<linearGradient id="paint1_linear_329_688" x1="8.88889" y1="0" x2="8.88889" y2="20" gradientUnits="userSpaceOnUse">
<stop stop-color="#9391FC"/>
<stop offset="1" stop-color="#5B59EF"/>
</linearGradient>
<linearGradient id="paint2_linear_329_688" x1="14.4447" y1="0" x2="14.4447" y2="6.62338" gradientUnits="userSpaceOnUse">
<stop stop-color="#7371F1"/>
<stop offset="1" stop-color="#504DE8"/>
</linearGradient>
<clipPath id="clip0_329_688">
<rect width="17.7778" height="20" fill="white"/>
</clipPath>
</defs>
</svg>
