<svg width="19" height="20" viewBox="0 0 19 20" fill="none" xmlns="http://www.w3.org/2000/svg">
<g clip-path="url(#clip0_329_690)">
<mask id="mask0_329_690" style="mask-type:alpha" maskUnits="userSpaceOnUse" x="0" y="0" width="19" height="20">
<path d="M17.1172 20H2.21525C1.42112 20 0.777344 19.3604 0.777344 18.5714V1.42857C0.777344 0.639594 1.42112 0 2.21525 0H11.8885L18.5551 6.62338V18.5714C18.5551 19.3604 17.9113 20 17.1172 20Z" fill="url(#paint0_linear_329_690)"/>
</mask>
<g mask="url(#mask0_329_690)">
<path d="M17.1172 20H2.21525C1.42112 20 0.777344 19.3604 0.777344 18.5714V1.42857C0.777344 0.639594 1.42112 0 2.21525 0H11.8885L18.5551 6.62338V18.5714C18.5551 19.3604 17.9113 20 17.1172 20Z" fill="url(#paint1_linear_329_690)" fill-opacity="0.4"/>
<g filter="url(#filter0_f_329_690)">
<g style="mix-blend-mode:darken">
<path d="M15.549 9.67529H3.91504V15.1298H15.549V9.67529Z" fill="#CC1583" fill-opacity="0.15"/>
</g>
</g>
<path d="M5.74749 14.1422C5.31032 14.1422 4.90069 14.0602 4.5186 13.896C4.47729 13.8789 4.44287 13.8515 4.41533 13.8139C4.38779 13.7729 4.37402 13.7302 4.37402 13.6857C4.37402 13.6276 4.39296 13.5779 4.43082 13.5369C4.47213 13.4924 4.52376 13.4702 4.58572 13.4702C4.62015 13.4702 4.65285 13.477 4.68383 13.4907C5.00051 13.6309 5.33958 13.7011 5.70102 13.7011C6.30342 13.7011 6.60461 13.5044 6.60461 13.1111C6.60461 13.0085 6.56502 12.923 6.48585 12.8546C6.41012 12.7863 6.31546 12.7332 6.20187 12.6956C6.08827 12.6546 5.92649 12.6067 5.71651 12.552C5.43768 12.4802 5.21221 12.4118 5.0401 12.3468C4.86799 12.2784 4.71997 12.1775 4.59605 12.0441C4.47213 11.9107 4.41017 11.7329 4.41017 11.5106C4.41017 11.3157 4.4618 11.1396 4.56507 10.9822C4.66834 10.8215 4.81979 10.695 5.01945 10.6026C5.22254 10.5068 5.46522 10.459 5.74749 10.459C6.12613 10.459 6.46864 10.5154 6.775 10.6283C6.87139 10.6625 6.91958 10.7309 6.91958 10.8335C6.91958 10.8882 6.90064 10.9378 6.86278 10.9822C6.82492 11.0267 6.775 11.0489 6.71304 11.0489C6.69239 11.0489 6.66485 11.0421 6.63043 11.0284C6.36193 10.9361 6.08483 10.8899 5.79912 10.8899C5.52718 10.8899 5.30515 10.9412 5.13304 11.0438C4.96437 11.1464 4.88004 11.29 4.88004 11.4747C4.88004 11.5978 4.91962 11.6987 4.99879 11.7774C5.08141 11.8526 5.18296 11.9124 5.30344 11.9569C5.42736 11.9979 5.5943 12.0424 5.80429 12.0903C6.07623 12.1553 6.29481 12.2202 6.46004 12.2852C6.62871 12.3502 6.77156 12.4511 6.8886 12.5879C7.00908 12.7247 7.06932 12.9094 7.06932 13.1419C7.06932 13.3334 7.01424 13.5061 6.90409 13.66C6.79394 13.8105 6.63904 13.9285 6.43938 14.014C6.23973 14.0995 6.0091 14.1422 5.74749 14.1422ZM9.35853 14.1166C9.21736 14.1166 9.11069 14.0379 9.0384 13.8806L7.76304 10.8078C7.75272 10.7805 7.74755 10.7514 7.74755 10.7206C7.74755 10.6488 7.76821 10.5924 7.80951 10.5513C7.85082 10.5068 7.90762 10.4846 7.97991 10.4846C8.02808 10.4846 8.07108 10.5 8.10899 10.5308C8.1503 10.5581 8.18128 10.5958 8.20193 10.6437L9.41533 13.6498L10.6287 10.6437C10.6494 10.5958 10.6786 10.5581 10.7165 10.5308C10.7578 10.5 10.8025 10.4846 10.8508 10.4846C10.923 10.4846 10.9798 10.5068 11.0211 10.5513C11.0625 10.5924 11.0831 10.6488 11.0831 10.7206C11.0831 10.7514 11.0779 10.7805 11.0676 10.8078L9.79226 13.8806C9.71997 14.0379 9.61324 14.1166 9.47213 14.1166H9.35853ZM13.601 14.1422C13.2464 14.1422 12.9315 14.0653 12.6561 13.9114C12.3807 13.754 12.1673 13.5369 12.0158 13.2599C11.8644 12.9794 11.7886 12.6614 11.7886 12.3057C11.7886 11.9432 11.8678 11.6218 12.0261 11.3413C12.1845 11.0609 12.3996 10.8437 12.6715 10.6898C12.947 10.5359 13.2516 10.459 13.5855 10.459C13.854 10.459 14.0881 10.4915 14.2877 10.5565C14.4908 10.6215 14.6853 10.712 14.8711 10.8283C14.8987 10.842 14.9228 10.8659 14.9434 10.9002C14.9641 10.9344 14.9744 10.972 14.9744 11.013C14.9744 11.0711 14.9538 11.1207 14.9125 11.1618C14.8746 11.2028 14.823 11.2233 14.7576 11.2233C14.7197 11.2233 14.6836 11.2148 14.6491 11.1977C14.4874 11.1019 14.3256 11.0301 14.1638 10.9822C14.002 10.9344 13.8264 10.9104 13.6371 10.9104C13.3755 10.9104 13.1397 10.9652 12.9297 11.0746C12.7198 11.184 12.5545 11.3448 12.434 11.5568C12.317 11.7654 12.2585 12.015 12.2585 12.3057C12.2585 12.5725 12.3136 12.8119 12.4237 13.0239C12.5373 13.2326 12.6991 13.3984 12.9091 13.5215C13.1225 13.6412 13.3738 13.7011 13.6629 13.7011C13.9865 13.7011 14.2877 13.6258 14.5665 13.4753V12.5468H13.7145C13.6561 12.5468 13.6061 12.5263 13.5648 12.4853C13.5235 12.4442 13.5028 12.3946 13.5028 12.3365C13.5028 12.2784 13.5235 12.2288 13.5648 12.1878C13.6061 12.1467 13.6561 12.1262 13.7145 12.1262H14.7317C14.8006 12.1262 14.8591 12.1502 14.9073 12.198C14.9555 12.2459 14.9796 12.304 14.9796 12.3724V13.5369C14.9796 13.6087 14.9607 13.6737 14.9228 13.7318C14.8884 13.7866 14.8419 13.8276 14.7834 13.855C14.3979 14.0465 14.0037 14.1422 13.601 14.1422Z" fill="white"/>
<path d="M4.51846 13.896L4.57034 13.7768L4.56954 13.7764L4.56873 13.7761L4.51846 13.896ZM4.41519 13.8139L4.30643 13.8859L4.3079 13.8881L4.30947 13.8903L4.41519 13.8139ZM4.43068 13.5369L4.33463 13.4488L4.33432 13.4492L4.43068 13.5369ZM4.68369 13.4907L4.7369 13.3721L4.73678 13.372L4.68369 13.4907ZM6.48571 12.8546L6.39779 12.9507L6.39885 12.9517L6.39994 12.9526L6.48571 12.8546ZM6.20173 12.6956L6.15705 12.8177L6.15871 12.8183L6.16039 12.8188L6.20173 12.6956ZM5.71637 12.552L5.74953 12.4263L5.74917 12.4262L5.71637 12.552ZM5.03996 12.3468L4.99141 12.4673L4.99246 12.4677L4.99353 12.4682L5.03996 12.3468ZM4.59591 12.0441L4.49986 12.1322L4.59591 12.0441ZM4.56493 10.9822L4.67442 11.0532L4.67477 11.0526L4.67511 11.0521L4.56493 10.9822ZM5.01931 10.6026L5.07448 10.7203L5.07492 10.7201L5.07535 10.7199L5.01931 10.6026ZM6.77486 10.6283L6.72942 10.75L6.73016 10.7503L6.7309 10.7505L6.77486 10.6283ZM6.86264 10.9822L6.96243 11.0661L6.86264 10.9822ZM6.63029 11.0284L6.67884 10.9078L6.67597 10.9066L6.67305 10.9057L6.63029 11.0284ZM5.1329 11.0438L5.06565 10.9324L5.06514 10.9327L5.06465 10.933L5.1329 11.0438ZM4.99865 11.7773L4.90622 11.8692L4.90823 11.8712L4.91033 11.8731L4.99865 11.7773ZM5.3033 11.9569L5.25778 12.0786L5.25986 12.0794L5.26196 12.0801L5.3033 11.9569ZM5.80414 12.0903L5.83471 11.964L5.83405 11.9638L5.83339 11.9637L5.80414 12.0903ZM6.4599 12.2852L6.41179 12.406L6.41264 12.4063L6.4599 12.2852ZM6.88846 12.5879L6.78886 12.672L6.78946 12.6727L6.79008 12.6734L6.88846 12.5879ZM6.90395 13.66L7.00967 13.7364L7.01007 13.7359L7.01048 13.7353L6.90395 13.66ZM6.43924 14.014L6.49099 14.1333L6.43924 14.014ZM5.74735 14.0123C5.32711 14.0123 4.93524 13.9336 4.57034 13.7768L4.46658 14.0152C4.86586 14.1867 5.29324 14.2721 5.74735 14.2721V14.0123ZM4.56873 13.7761C4.55062 13.7686 4.53501 13.7568 4.52091 13.7375L4.30947 13.8903C4.35044 13.9462 4.40368 13.9892 4.46818 14.0159L4.56873 13.7761ZM4.52395 13.7419C4.50911 13.7198 4.5046 13.7017 4.5046 13.6857H4.24316C4.24316 13.7585 4.2662 13.826 4.30643 13.8859L4.52395 13.7419ZM4.5046 13.6857C4.5046 13.6585 4.51233 13.6406 4.52704 13.6246L4.33432 13.4492C4.2733 13.5153 4.24316 13.5966 4.24316 13.6857H4.5046ZM4.52673 13.625C4.54281 13.6077 4.55938 13.6001 4.58558 13.6001V13.3403C4.48786 13.3403 4.40116 13.3772 4.33463 13.4488L4.52673 13.625ZM4.58558 13.6001C4.60201 13.6001 4.6166 13.6032 4.6306 13.6094L4.73678 13.372C4.68882 13.3509 4.63801 13.3403 4.58558 13.3403V13.6001ZM4.63048 13.6094C4.96462 13.7573 5.3219 13.8309 5.70088 13.8309V13.5712C5.35697 13.5712 5.03612 13.5046 4.7369 13.3721L4.63048 13.6094ZM5.70088 13.8309C6.01224 13.8309 6.26847 13.7809 6.45036 13.6621C6.64182 13.5371 6.73519 13.3464 6.73519 13.1111H6.47375C6.47375 13.2691 6.41652 13.3734 6.30679 13.445C6.18748 13.5229 5.99192 13.5712 5.70088 13.5712V13.8309ZM6.73519 13.1111C6.73519 12.9703 6.67869 12.8492 6.57149 12.7566L6.39994 12.9526C6.45109 12.9968 6.47375 13.0468 6.47375 13.1111H6.73519ZM6.57364 12.7585C6.48236 12.6761 6.37101 12.6148 6.24307 12.5724L6.16039 12.8188C6.25963 12.8516 6.33761 12.8964 6.39779 12.9507L6.57364 12.7585ZM6.2464 12.5735C6.12718 12.5305 5.96086 12.4814 5.74953 12.4263L5.6832 12.6776C5.89182 12.732 6.04909 12.7786 6.15705 12.8177L6.2464 12.5735ZM5.74917 12.4262C5.47271 12.355 5.25229 12.288 5.08639 12.2253L4.99353 12.4682C5.17185 12.5355 5.40238 12.6053 5.68356 12.6777L5.74917 12.4262ZM5.08851 12.2262C4.9342 12.1649 4.80248 12.0749 4.69196 11.956L4.49986 12.1322C4.63718 12.28 4.8015 12.3919 4.99141 12.4673L5.08851 12.2262ZM4.69196 11.956C4.59509 11.8518 4.54075 11.7079 4.54075 11.5106H4.27931C4.27931 11.7578 4.34889 11.9697 4.49986 12.1322L4.69196 11.956ZM4.54075 11.5106C4.54075 11.3398 4.58555 11.1885 4.67442 11.0532L4.45544 10.9112C4.33777 11.0905 4.27931 11.2915 4.27931 11.5106H4.54075ZM4.67511 11.0521C4.76311 10.9151 4.89397 10.8038 5.07448 10.7203L4.96414 10.4849C4.74534 10.586 4.57328 10.7279 4.45475 10.9123L4.67511 11.0521ZM5.07535 10.7199C5.25705 10.6343 5.47965 10.5888 5.74735 10.5888V10.3291C5.45051 10.3291 5.18776 10.3794 4.96326 10.4853L5.07535 10.7199ZM5.74735 10.5888C6.11291 10.5888 6.43971 10.6433 6.72942 10.75L6.82031 10.5065C6.49729 10.3875 6.13909 10.3291 5.74735 10.3291V10.5888ZM6.7309 10.7505C6.75922 10.7606 6.77077 10.772 6.7762 10.7797C6.78171 10.7875 6.78872 10.8026 6.78872 10.8335H7.05016C7.05016 10.7617 7.03308 10.6913 6.99039 10.6307C6.94762 10.57 6.88689 10.5301 6.81883 10.506L6.7309 10.7505ZM6.78872 10.8335C6.78872 10.8554 6.78214 10.8757 6.76285 10.8983L6.96243 11.0661C7.01888 10.9998 7.05016 10.921 7.05016 10.8335H6.78872ZM6.76285 10.8983C6.7514 10.9118 6.73892 10.919 6.7129 10.919V11.1788C6.81081 11.1788 6.89816 11.1416 6.96243 11.0661L6.76285 10.8983ZM6.7129 10.919C6.71641 10.919 6.71543 10.9195 6.70847 10.9178C6.70185 10.9161 6.69212 10.9131 6.67884 10.9078L6.58174 11.149C6.62131 11.1647 6.66729 11.1788 6.7129 11.1788V10.919ZM6.67305 10.9057C6.39072 10.8086 6.09916 10.76 5.79898 10.76V11.0198C6.07022 11.0198 6.33286 11.0635 6.58753 11.1511L6.67305 10.9057ZM5.79898 10.76C5.51146 10.76 5.26406 10.8142 5.06565 10.9324L5.20016 11.1551C5.34597 11.0682 5.54262 11.0198 5.79898 11.0198V10.76ZM5.06465 10.933C4.86018 11.0574 4.74918 11.2414 4.74918 11.4747H5.01062C5.01062 11.3386 5.06829 11.2353 5.20116 11.1546L5.06465 10.933ZM4.74918 11.4747C4.74918 11.6282 4.7998 11.7635 4.90622 11.8692L5.09109 11.6855C5.03916 11.6339 5.01062 11.5674 5.01062 11.4747H4.74918ZM4.91033 11.8731C5.00708 11.9612 5.12377 12.0292 5.25778 12.0786L5.34881 11.8351C5.24186 11.7957 5.15546 11.744 5.08699 11.6816L4.91033 11.8731ZM5.26196 12.0801C5.39157 12.123 5.56309 12.1686 5.7749 12.2168L5.83339 11.9637C5.62524 11.9162 5.46286 11.8729 5.34463 11.8337L5.26196 12.0801ZM5.77358 12.2166C6.04252 12.2808 6.25454 12.3441 6.41179 12.406L6.50801 12.1644C6.3348 12.0963 6.10965 12.0297 5.83471 11.964L5.77358 12.2166ZM6.41264 12.4063C6.56106 12.4635 6.68592 12.5516 6.78886 12.672L6.98806 12.5038C6.85692 12.3505 6.69607 12.2369 6.50716 12.1641L6.41264 12.4063ZM6.79008 12.6734C6.88442 12.7805 6.93846 12.9318 6.93846 13.1419H7.1999C7.1999 12.8869 7.13346 12.6688 6.98684 12.5023L6.79008 12.6734ZM6.93846 13.1419C6.93846 13.3068 6.8916 13.4532 6.79742 13.5848L7.01048 13.7353C7.1366 13.559 7.1999 13.3599 7.1999 13.1419H6.93846ZM6.79823 13.5836C6.70396 13.7124 6.56913 13.817 6.3875 13.8947L6.49099 14.1333C6.70866 14.04 6.88363 13.9086 7.00967 13.7364L6.79823 13.5836ZM6.3875 13.8947C6.20716 13.972 5.99471 14.0123 5.74735 14.0123V14.2721C6.02321 14.2721 6.27203 14.227 6.49099 14.1333L6.3875 13.8947ZM9.03826 13.8806L8.91741 13.9301L8.91833 13.9323L8.91931 13.9346L9.03826 13.8806ZM7.7629 10.8078L7.64049 10.8534L7.6412 10.8554L7.64205 10.8573L7.7629 10.8078ZM7.80937 10.5513L7.90179 10.6431L7.90362 10.6413L7.90539 10.6394L7.80937 10.5513ZM8.10885 10.5308L8.02604 10.6313L8.03101 10.6353L8.0363 10.6388L8.10885 10.5308ZM8.20179 10.6436L8.3231 10.5953L8.32251 10.5939L8.32192 10.5925L8.20179 10.6436ZM9.41519 13.6498L9.29382 13.6981L9.41519 13.9986L9.5365 13.6981L9.41519 13.6498ZM10.6286 10.6436L10.5084 10.5925L10.5078 10.5939L10.5072 10.5953L10.6286 10.6436ZM10.7164 10.5308L10.7932 10.6358L10.794 10.6353L10.7948 10.6347L10.7164 10.5308ZM11.021 10.5513L10.9249 10.6394L10.9267 10.6413L10.9286 10.6431L11.021 10.5513ZM11.0675 10.8078L11.1883 10.8573L11.1891 10.8554L11.1898 10.8534L11.0675 10.8078ZM9.79212 13.8806L9.91101 13.9346L9.91205 13.9323L9.91297 13.9301L9.79212 13.8806ZM9.35839 13.9867C9.31401 13.9867 9.27977 13.9749 9.25035 13.9533C9.21944 13.9305 9.18689 13.8914 9.15715 13.8266L8.91931 13.9346C8.96192 14.0272 9.01885 14.1061 9.0946 14.1619C9.17192 14.2189 9.2616 14.2464 9.35839 14.2464V13.9867ZM9.15911 13.8311L7.88375 10.7583L7.64205 10.8573L8.91741 13.9301L9.15911 13.8311ZM7.88526 10.7622C7.88075 10.7502 7.87813 10.7366 7.87813 10.7206H7.61669C7.61669 10.7661 7.62434 10.8107 7.64049 10.8534L7.88526 10.7622ZM7.87813 10.7206C7.87813 10.6746 7.89055 10.6543 7.90179 10.6431L7.71696 10.4595C7.64558 10.5304 7.61669 10.623 7.61669 10.7206H7.87813ZM7.90539 10.6394C7.91735 10.6266 7.9365 10.6145 7.97977 10.6145V10.3548C7.87839 10.3548 7.78395 10.3872 7.7133 10.4632L7.90539 10.6394ZM7.97977 10.6145C7.99728 10.6145 8.01114 10.6192 8.02604 10.6313L8.1916 10.4303C8.13081 10.3809 8.05859 10.3548 7.97977 10.3548V10.6145ZM8.0363 10.6388C8.05532 10.6514 8.07035 10.6687 8.0816 10.6948L8.32192 10.5925C8.29186 10.5228 8.24499 10.4649 8.18133 10.4227L8.0363 10.6388ZM8.08042 10.692L9.29382 13.6981L9.5365 13.6014L8.3231 10.5953L8.08042 10.692ZM9.5365 13.6981L10.7499 10.692L10.5072 10.5953L9.29382 13.6014L9.5365 13.6981ZM10.7487 10.6948C10.7613 10.6658 10.7766 10.6478 10.7932 10.6358L10.6394 10.4258C10.5804 10.4685 10.5372 10.5257 10.5084 10.5925L10.7487 10.6948ZM10.7948 10.6347C10.8152 10.6195 10.8328 10.6145 10.8506 10.6145V10.3548C10.7721 10.3548 10.7002 10.3805 10.6379 10.4269L10.7948 10.6347ZM10.8506 10.6145C10.8938 10.6145 10.913 10.6266 10.9249 10.6394L11.117 10.4632C11.0464 10.3872 10.9519 10.3548 10.8506 10.3548V10.6145ZM10.9286 10.6431C10.9398 10.6543 10.9523 10.6746 10.9523 10.7206H11.2137C11.2137 10.623 11.1848 10.5304 11.1134 10.4595L10.9286 10.6431ZM10.9523 10.7206C10.9523 10.7366 10.9496 10.7502 10.9451 10.7622L11.1898 10.8534C11.206 10.8107 11.2137 10.7661 11.2137 10.7206H10.9523ZM10.9466 10.7583L9.67127 13.8311L9.91297 13.9301L11.1883 10.8573L10.9466 10.7583ZM9.67317 13.8266C9.64349 13.8914 9.61094 13.9305 9.57996 13.9533C9.55062 13.9749 9.51637 13.9867 9.47199 13.9867V14.2464C9.56872 14.2464 9.65839 14.2189 9.73571 14.1619C9.81147 14.1061 9.86846 14.0272 9.91101 13.9346L9.67317 13.8266ZM9.47199 13.9867H9.35839V14.2464H9.47199V13.9867ZM12.6559 13.9114L12.5907 14.024L12.5913 14.0243L12.5919 14.0246L12.6559 13.9114ZM12.0156 13.2599L11.9005 13.3213L11.9008 13.3219L12.0156 13.2599ZM12.026 11.3413L12.14 11.4049L12.026 11.3413ZM12.6714 10.6898L12.6073 10.5766L12.6067 10.577L12.6714 10.6898ZM14.2875 10.5564L14.2469 10.6799L14.2475 10.6801L14.2875 10.5564ZM14.871 10.8283L14.8014 10.9382L14.8068 10.9416L14.8126 10.9445L14.871 10.8283ZM14.9433 10.9001L14.8312 10.967L14.9433 10.9001ZM14.9123 11.1618L14.8199 11.0699L14.8179 11.072L14.816 11.074L14.9123 11.1618ZM14.649 11.1977L14.5821 11.3092L14.5862 11.3117L14.5906 11.3138L14.649 11.1977ZM14.1636 10.9822L14.2009 10.8577L14.1636 10.9822ZM12.9296 11.0746L12.9903 11.1896L12.9296 11.0746ZM12.4339 11.5568L12.3201 11.4929L12.3197 11.4935L12.4339 11.5568ZM12.4236 13.0239L12.3074 13.0835L12.308 13.0846L12.3086 13.0857L12.4236 13.0239ZM12.9089 13.5215L12.8425 13.6333L12.8436 13.634L12.8447 13.6346L12.9089 13.5215ZM14.5664 13.4753L14.6288 13.5894L14.6971 13.5526V13.4753H14.5664ZM14.5664 12.5468H14.6971V12.417H14.5664V12.5468ZM13.5647 12.4853L13.4722 12.5771L13.5647 12.4853ZM13.5647 12.1877L13.4722 12.0959L13.5647 12.1877ZM14.9226 13.7318L14.8129 13.6612L14.8124 13.6622L14.8118 13.663L14.9226 13.7318ZM14.7832 13.8549L14.7276 13.7374L14.7262 13.7381L14.7248 13.7388L14.7832 13.8549ZM13.6008 14.0123C13.2659 14.0123 12.9736 13.9399 12.72 13.7982L12.5919 14.0246C12.8891 14.1907 13.2266 14.2721 13.6008 14.2721V14.0123ZM12.7211 13.7988C12.4666 13.6535 12.2704 13.4538 12.1306 13.1979L11.9008 13.3219C12.0638 13.62 12.2945 13.8547 12.5907 14.024L12.7211 13.7988ZM12.1309 13.1985C11.9907 12.939 11.9192 12.6425 11.9192 12.3057H11.6577C11.6577 12.6803 11.7377 13.0198 11.9005 13.3213L12.1309 13.1985ZM11.9192 12.3057C11.9192 11.9626 11.9939 11.6635 12.14 11.4049L11.912 11.2777C11.7413 11.58 11.6577 11.9238 11.6577 12.3057H11.9192ZM12.14 11.4049C12.2872 11.1442 12.4856 10.9445 12.7361 10.8027L12.6067 10.577C12.3134 10.7429 12.0815 10.9775 11.912 11.2777L12.14 11.4049ZM12.7355 10.803C12.9902 10.6607 13.2726 10.5888 13.5853 10.5888V10.3291C13.2303 10.3291 12.9034 10.4112 12.6073 10.5766L12.7355 10.803ZM13.5853 10.5888C13.8437 10.5888 14.0634 10.6201 14.2469 10.6799L14.3283 10.433C14.1124 10.3628 13.864 10.3291 13.5853 10.3291V10.5888ZM14.2475 10.6801C14.4399 10.7416 14.6245 10.8275 14.8014 10.9382L14.9407 10.7185C14.7458 10.5965 14.5415 10.5012 14.3276 10.4328L14.2475 10.6801ZM14.8126 10.9445C14.8126 10.9445 14.813 10.9447 14.8138 10.9452C14.8145 10.9458 14.8157 10.9468 14.8173 10.9484C14.8206 10.9516 14.8255 10.9574 14.8312 10.967L15.0554 10.8333C15.0258 10.7843 14.9851 10.7398 14.9295 10.7122L14.8126 10.9445ZM14.8312 10.967C14.8393 10.9804 14.8436 10.9948 14.8436 11.013H15.105C15.105 10.9492 15.0886 10.8883 15.0554 10.8333L14.8312 10.967ZM14.8436 11.013C14.8436 11.0368 14.8366 11.0533 14.8199 11.0699L15.0048 11.2536C15.0706 11.1881 15.105 11.1055 15.105 11.013H14.8436ZM14.816 11.074C14.8071 11.0836 14.7929 11.0935 14.7574 11.0935V11.3532C14.8528 11.3532 14.9419 11.322 15.0087 11.2495L14.816 11.074ZM14.7574 11.0935C14.7402 11.0935 14.724 11.0898 14.7075 11.0815L14.5906 11.3138C14.6428 11.3398 14.6989 11.3532 14.7574 11.3532V11.0935ZM14.7159 11.0861C14.5459 10.9855 14.3742 10.909 14.2009 10.8577L14.1263 11.1067C14.2766 11.1512 14.4285 11.2184 14.5821 11.3092L14.7159 11.0861ZM14.2009 10.8577C14.0257 10.8059 13.8374 10.7805 13.637 10.7805V11.0403C13.8152 11.0403 13.978 11.0628 14.1263 11.1067L14.2009 10.8577ZM13.637 10.7805C13.3564 10.7805 13.0994 10.8394 12.8689 10.9596L12.9903 11.1896C13.1797 11.0909 13.3943 11.0403 13.637 11.0403V10.7805ZM12.8689 10.9596C12.6358 11.081 12.4525 11.2599 12.3201 11.4929L12.5477 11.6206C12.6563 11.4296 12.8034 11.287 12.9903 11.1896L12.8689 10.9596ZM12.3197 11.4935C12.1897 11.7253 12.1276 11.9977 12.1276 12.3057H12.389C12.389 12.0324 12.444 11.8055 12.5481 11.62L12.3197 11.4935ZM12.1276 12.3057C12.1276 12.5907 12.1866 12.8509 12.3074 13.0835L12.5398 12.9644C12.4402 12.7728 12.389 12.5542 12.389 12.3057H12.1276ZM12.3086 13.0857C12.4338 13.3155 12.6125 13.4985 12.8425 13.6333L12.9754 13.4097C12.7854 13.2983 12.6406 13.1495 12.5385 12.9621L12.3086 13.0857ZM12.8447 13.6346C13.0809 13.7672 13.3552 13.8309 13.6628 13.8309V13.5712C13.3921 13.5712 13.1638 13.5153 12.9732 13.4084L12.8447 13.6346ZM13.6628 13.8309C14.0077 13.8309 14.3304 13.7505 14.6288 13.5894L14.504 13.3612C14.2447 13.5011 13.965 13.5712 13.6628 13.5712V13.8309ZM14.6971 13.4753V12.5468H14.4356V13.4753H14.6971ZM14.5664 12.417H13.7144V12.6767H14.5664V12.417ZM13.7144 12.417C13.6905 12.417 13.6739 12.4101 13.6572 12.3935L13.4722 12.5771C13.5381 12.6425 13.6213 12.6767 13.7144 12.6767V12.417ZM13.6572 12.3935C13.6404 12.3768 13.6334 12.3603 13.6334 12.3365H13.372C13.372 12.429 13.4064 12.5116 13.4722 12.5771L13.6572 12.3935ZM13.6334 12.3365C13.6334 12.3127 13.6404 12.2962 13.6572 12.2796L13.4722 12.0959C13.4064 12.1614 13.372 12.244 13.372 12.3365H13.6334ZM13.6572 12.2796C13.6739 12.2629 13.6905 12.256 13.7144 12.256V11.9963C13.6213 11.9963 13.5381 12.0305 13.4722 12.0959L13.6572 12.2796ZM13.7144 12.256H14.7316V11.9963H13.7144V12.256ZM14.7316 12.256C14.7662 12.256 14.7913 12.2666 14.8147 12.2898L14.9996 12.1062C14.9266 12.0336 14.8347 11.9963 14.7316 11.9963V12.256ZM14.8147 12.2898C14.8381 12.3131 14.8487 12.3381 14.8487 12.3724H15.1102C15.1102 12.2699 15.0726 12.1786 14.9996 12.1062L14.8147 12.2898ZM14.8487 12.3724V13.5369H15.1102V12.3724H14.8487ZM14.8487 13.5369C14.8487 13.5847 14.8366 13.6249 14.8129 13.6612L15.0324 13.8024C15.0845 13.7224 15.1102 13.6327 15.1102 13.5369H14.8487ZM14.8118 13.663C14.7906 13.6966 14.7633 13.7207 14.7276 13.7374L14.8389 13.9725C14.9203 13.9344 14.9858 13.8764 15.0335 13.8007L14.8118 13.663ZM14.7248 13.7388C14.3561 13.922 13.9819 14.0123 13.6008 14.0123V14.2721C14.0253 14.2721 14.4393 14.171 14.8417 13.9711L14.7248 13.7388Z" fill="white"/>
<g filter="url(#filter1_d_329_690)">
<path d="M18.5553 6.62338H13.3266C12.5325 6.62338 11.8887 5.98379 11.8887 5.19481V0L18.5553 6.62338Z" fill="url(#paint2_linear_329_690)" fill-opacity="0.4"/>
</g>
</g>
</g>
<defs>
<filter id="filter0_f_329_690" x="-35.085" y="-29.3247" width="89.6338" height="83.4546" filterUnits="userSpaceOnUse" color-interpolation-filters="sRGB">
<feFlood flood-opacity="0" result="BackgroundImageFix"/>
<feBlend mode="normal" in="SourceGraphic" in2="BackgroundImageFix" result="shape"/>
<feGaussianBlur stdDeviation="19.5" result="effect1_foregroundBlur_329_690"/>
</filter>
<filter id="filter1_d_329_690" x="-11.1113" y="-24" width="56.667" height="56.6234" filterUnits="userSpaceOnUse" color-interpolation-filters="sRGB">
<feFlood flood-opacity="0" result="BackgroundImageFix"/>
<feColorMatrix in="SourceAlpha" type="matrix" values="0 0 0 0 0 0 0 0 0 0 0 0 0 0 0 0 0 0 127 0" result="hardAlpha"/>
<feOffset dx="2" dy="1"/>
<feGaussianBlur stdDeviation="12.5"/>
<feColorMatrix type="matrix" values="0 0 0 0 0 0 0 0 0 0 0 0 0 0 0 0 0 0 0.33 0"/>
<feBlend mode="normal" in2="BackgroundImageFix" result="effect1_dropShadow_329_690"/>
<feBlend mode="normal" in="SourceGraphic" in2="effect1_dropShadow_329_690" result="shape"/>
</filter>
<linearGradient id="paint0_linear_329_690" x1="9.66623" y1="0" x2="9.66623" y2="20" gradientUnits="userSpaceOnUse">
<stop stop-color="#FF7979"/>
<stop offset="1" stop-color="#E85555"/>
</linearGradient>
<linearGradient id="paint1_linear_329_690" x1="9.66623" y1="0" x2="9.66623" y2="20" gradientUnits="userSpaceOnUse">
<stop stop-color="#FF6AC3"/>
<stop offset="1" stop-color="#DD3C9C"/>
</linearGradient>
<linearGradient id="paint2_linear_329_690" x1="15.222" y1="0" x2="15.222" y2="6.62338" gradientUnits="userSpaceOnUse">
<stop stop-color="#F430A6"/>
<stop offset="1" stop-color="#BF0B77"/>
</linearGradient>
<clipPath id="clip0_329_690">
<rect width="17.7778" height="20" fill="white" transform="translate(0.777344)"/>
</clipPath>
</defs>
</svg>
