<svg width="19" height="20" viewBox="0 0 19 20" fill="none" xmlns="http://www.w3.org/2000/svg">
<g clip-path="url(#clip0_329_701)">
<mask id="mask0_329_701" style="mask-type:alpha" maskUnits="userSpaceOnUse" x="0" y="0" width="19" height="20">
<path d="M16.8955 20H1.99357C1.19944 20 0.555664 19.3604 0.555664 18.5714V1.42857C0.555664 0.639594 1.19944 0 1.99357 0H11.6668L18.3334 6.62338V18.5714C18.3334 19.3604 17.6897 20 16.8955 20Z" fill="url(#paint0_linear_329_701)"/>
</mask>
<g mask="url(#mask0_329_701)">
<path d="M16.8955 20H1.99357C1.19944 20 0.555664 19.3604 0.555664 18.5714V1.42857C0.555664 0.639594 1.19944 0 1.99357 0H11.6668L18.3334 6.62338V18.5714C18.3334 19.3604 17.6897 20 16.8955 20Z" fill="url(#paint1_linear_329_701)" fill-opacity="0.4"/>
<g filter="url(#filter0_f_329_701)">
<g style="mix-blend-mode:darken">
<path d="M15.2619 9.67529H3.62793V15.1298H15.2619V9.67529Z" fill="#3F3F46" fill-opacity="0.07"/>
</g>
</g>
<path d="M5.4586 14.1166C5.3932 14.1166 5.33813 14.0944 5.29337 14.0499C5.24862 14.0054 5.22625 13.9507 5.22625 13.8857V10.9463H4.17292C4.11096 10.9463 4.05932 10.9258 4.01802 10.8847C3.97671 10.8437 3.95605 10.7924 3.95605 10.7309C3.95605 10.6693 3.97671 10.618 4.01802 10.577C4.05932 10.5325 4.11096 10.5103 4.17292 10.5103H6.74429C6.80625 10.5103 6.85788 10.5325 6.89919 10.577C6.94394 10.618 6.96632 10.6693 6.96632 10.7309C6.96632 10.7924 6.94394 10.8437 6.89919 10.8847C6.85788 10.9258 6.80625 10.9463 6.74429 10.9463H5.69612V13.8857C5.69612 13.9507 5.67202 14.0054 5.62383 14.0499C5.57908 14.0944 5.52401 14.1166 5.4586 14.1166ZM8.02239 14.1166C7.9639 14.1166 7.91226 14.096 7.86749 14.055C7.82619 14.0105 7.80553 13.9592 7.80553 13.9011C7.80553 13.8464 7.82102 13.7985 7.852 13.7575L9.04475 12.3006L7.86233 10.854C7.83135 10.8129 7.81586 10.7651 7.81586 10.7103C7.81586 10.6453 7.83651 10.5923 7.87782 10.5513C7.92259 10.5068 7.97762 10.4846 8.04305 10.4846C8.08089 10.4846 8.11704 10.4932 8.15148 10.5103C8.18592 10.5273 8.21344 10.5496 8.23409 10.577L9.32357 11.9518L10.413 10.5667C10.4509 10.512 10.5077 10.4846 10.5834 10.4846C10.6454 10.4846 10.6987 10.5068 10.7435 10.5513C10.7883 10.5923 10.8106 10.6436 10.8106 10.7052C10.8106 10.7531 10.7968 10.7959 10.7693 10.8335L9.57658 12.2955L10.7693 13.7523C10.8003 13.7866 10.8158 13.831 10.8158 13.8857C10.8158 13.9507 10.7934 14.0054 10.7487 14.0499C10.7074 14.0944 10.6523 14.1166 10.5834 14.1166C10.5077 14.1166 10.4457 14.0841 10.3976 14.0191L9.29259 12.6392L8.20311 14.0242C8.15148 14.0858 8.09122 14.1166 8.02239 14.1166ZM13.14 14.1166C13.0746 14.1166 13.0195 14.0944 12.9747 14.0499C12.93 14.0054 12.9076 13.9507 12.9076 13.8857V10.9463H11.8543C11.7923 10.9463 11.7407 10.9258 11.6994 10.8847C11.6581 10.8437 11.6374 10.7924 11.6374 10.7309C11.6374 10.6693 11.6581 10.618 11.6994 10.577C11.7407 10.5325 11.7923 10.5103 11.8543 10.5103H14.4257C14.4876 10.5103 14.5393 10.5325 14.5806 10.577C14.6253 10.618 14.6477 10.6693 14.6477 10.7309C14.6477 10.7924 14.6253 10.8437 14.5806 10.8847C14.5393 10.9258 14.4876 10.9463 14.4257 10.9463H13.3775V13.8857C13.3775 13.9507 13.3534 14.0054 13.3052 14.0499C13.2604 14.0944 13.2054 14.1166 13.14 14.1166Z" fill="white"/>
<path d="M5.29323 14.0499L5.2008 14.1417L5.29323 14.0499ZM5.22611 10.9463H5.35683V10.8164H5.22611V10.9463ZM4.01787 10.8847L3.92544 10.9766L4.01787 10.8847ZM4.01787 10.5769L4.11031 10.6688L4.11216 10.6669L4.11393 10.6651L4.01787 10.5769ZM6.89905 10.5769L6.803 10.6651L6.80655 10.6688L6.81038 10.6724L6.89905 10.5769ZM6.89905 10.8847L6.81038 10.7893L6.80847 10.7911L6.80662 10.7929L6.89905 10.8847ZM5.69598 10.9463V10.8164H5.56526V10.9463H5.69598ZM5.62369 14.0499L5.53474 13.9547L5.53297 13.9564L5.53126 13.958L5.62369 14.0499ZM5.45846 13.9867C5.42643 13.9867 5.405 13.9773 5.38567 13.958L5.2008 14.1417C5.27097 14.2114 5.35969 14.2464 5.45846 14.2464V13.9867ZM5.38567 13.958C5.36633 13.9388 5.35683 13.9175 5.35683 13.8857H5.09539C5.09539 13.9838 5.13063 14.072 5.2008 14.1417L5.38567 13.958ZM5.35683 13.8857V10.9463H5.09539V13.8857H5.35683ZM5.22611 10.8164H4.17278V11.0762H5.22611V10.8164ZM4.17278 10.8164C4.14315 10.8164 4.1255 10.808 4.11031 10.7929L3.92544 10.9766C3.99287 11.0436 4.07848 11.0762 4.17278 11.0762V10.8164ZM4.11031 10.7929C4.09512 10.7778 4.08663 10.7603 4.08663 10.7308H3.8252C3.8252 10.8245 3.85802 10.9096 3.92544 10.9766L4.11031 10.7929ZM4.08663 10.7308C4.08663 10.7014 4.09512 10.6839 4.11031 10.6688L3.92544 10.4851C3.85802 10.5521 3.8252 10.6371 3.8252 10.7308H4.08663ZM4.11393 10.6651C4.13001 10.6477 4.14657 10.6401 4.17278 10.6401V10.3804C4.07506 10.3804 3.98836 10.4173 3.92182 10.4888L4.11393 10.6651ZM4.17278 10.6401H6.74415V10.3804H4.17278V10.6401ZM6.74415 10.6401C6.77035 10.6401 6.78692 10.6477 6.803 10.6651L6.9951 10.4888C6.92857 10.4173 6.84187 10.3804 6.74415 10.3804V10.6401ZM6.81038 10.6724C6.8278 10.6884 6.83546 10.7048 6.83546 10.7308H7.09689C7.09689 10.6338 7.0598 10.5476 6.98772 10.4815L6.81038 10.6724ZM6.83546 10.7308C6.83546 10.7569 6.8278 10.7733 6.81038 10.7893L6.98772 10.9802C7.0598 10.9141 7.09689 10.8279 7.09689 10.7308H6.83546ZM6.80662 10.7929C6.79143 10.808 6.77378 10.8164 6.74415 10.8164V11.0762C6.83844 11.0762 6.92406 11.0436 6.99148 10.9766L6.80662 10.7929ZM6.74415 10.8164H5.69598V11.0762H6.74415V10.8164ZM5.56526 10.9463V13.8857H5.8267V10.9463H5.56526ZM5.56526 13.8857C5.56526 13.9143 5.55647 13.9347 5.53474 13.9547L5.71264 14.1451C5.7873 14.0762 5.8267 13.987 5.8267 13.8857H5.56526ZM5.53126 13.958C5.51193 13.9773 5.4905 13.9867 5.45846 13.9867V14.2464C5.55724 14.2464 5.64596 14.2114 5.71612 14.1417L5.53126 13.958ZM7.86735 14.055L7.77127 14.1431L7.77487 14.1469L7.77866 14.1505L7.86735 14.055ZM7.85186 13.7575L7.75042 13.6755L7.74886 13.6775L7.74729 13.6795L7.85186 13.7575ZM9.04461 12.3006L9.14605 12.3825L9.21304 12.3006L9.14611 12.2187L9.04461 12.3006ZM7.86219 10.854L7.75761 10.9319L7.75912 10.9339L7.76069 10.9358L7.86219 10.854ZM7.87768 10.5513L7.78526 10.4595L7.87768 10.5513ZM8.15134 10.5103L8.20977 10.3941L8.15134 10.5103ZM8.23395 10.5769L8.12938 10.6549L8.13029 10.6561L8.13127 10.6573L8.23395 10.5769ZM9.32343 11.9517L9.22075 12.0321L9.32382 12.1622L9.42644 12.0317L9.32343 11.9517ZM10.4129 10.5667L10.5159 10.6467L10.5183 10.6435L10.5206 10.6403L10.4129 10.5667ZM10.7434 10.5513L10.6509 10.6431L10.6528 10.6449L10.6547 10.6467L10.7434 10.5513ZM10.7692 10.8334L10.8708 10.9152L10.8729 10.9126L10.8749 10.9098L10.7692 10.8334ZM9.57644 12.2955L9.47487 12.2137L9.40807 12.2956L9.475 12.3774L9.57644 12.2955ZM10.7692 13.7523L10.6677 13.8343L10.6698 13.8368L10.672 13.8392L10.7692 13.7523ZM10.7485 14.0499L10.6561 13.958L10.6542 13.9599L10.6525 13.9617L10.7485 14.0499ZM10.3974 14.0191L10.5026 13.9421L10.5012 13.9401L10.4997 13.9382L10.3974 14.0191ZM9.29245 12.6392L9.39474 12.5583L9.29154 12.4294L9.18944 12.5592L9.29245 12.6392ZM8.20297 14.0242L8.30337 14.1073L8.30474 14.1058L8.30598 14.1042L8.20297 14.0242ZM8.02225 13.9867C7.99807 13.9867 7.97768 13.9795 7.95605 13.9595L7.77866 14.1505C7.8465 14.2126 7.92944 14.2464 8.02225 14.2464V13.9867ZM7.96343 13.9669C7.94337 13.9454 7.93611 13.9251 7.93611 13.9011H7.67467C7.67467 13.9933 7.70872 14.0757 7.77127 14.1431L7.96343 13.9669ZM7.93611 13.9011C7.93611 13.8725 7.94356 13.8524 7.95644 13.8354L7.74729 13.6795C7.69814 13.7446 7.67467 13.8203 7.67467 13.9011H7.93611ZM7.9533 13.8394L9.14605 12.3825L8.94317 12.2186L7.75042 13.6755L7.9533 13.8394ZM9.14611 12.2187L7.96369 10.7721L7.76069 10.9358L8.9431 12.3825L9.14611 12.2187ZM7.96676 10.776C7.95389 10.759 7.94644 10.739 7.94644 10.7103H7.685C7.685 10.7912 7.70846 10.8668 7.75761 10.9319L7.96676 10.776ZM7.94644 10.7103C7.94644 10.6753 7.95637 10.6568 7.9701 10.6431L7.78526 10.4595C7.71637 10.5279 7.685 10.6154 7.685 10.7103H7.94644ZM7.9701 10.6431C7.98944 10.6239 8.01088 10.6145 8.04291 10.6145V10.3547C7.94415 10.3547 7.85539 10.3897 7.78526 10.4595L7.9701 10.6431ZM8.04291 10.6145C8.06016 10.6145 8.07631 10.6182 8.09291 10.6264L8.20977 10.3941C8.15755 10.3681 8.1014 10.3547 8.04291 10.3547V10.6145ZM8.09291 10.6264C8.11134 10.6356 8.12225 10.6455 8.12938 10.6549L8.33853 10.499C8.30435 10.4537 8.26023 10.4192 8.20977 10.3941L8.09291 10.6264ZM8.13127 10.6573L9.22075 12.0321L9.42611 11.8714L8.33663 10.4966L8.13127 10.6573ZM9.42644 12.0317L10.5159 10.6467L10.3099 10.4867L9.22042 11.8717L9.42644 12.0317ZM10.5206 10.6403C10.5306 10.6259 10.544 10.6145 10.5833 10.6145V10.3547C10.4712 10.3547 10.371 10.398 10.3052 10.4931L10.5206 10.6403ZM10.5833 10.6145C10.6098 10.6145 10.6301 10.6225 10.6509 10.6431L10.8358 10.4595C10.7671 10.3912 10.6808 10.3547 10.5833 10.3547V10.6145ZM10.6547 10.6467C10.6721 10.6627 10.6798 10.6792 10.6798 10.7052H10.9412C10.9412 10.6081 10.9041 10.5219 10.8321 10.4558L10.6547 10.6467ZM10.6798 10.7052C10.6798 10.7265 10.6743 10.7423 10.6634 10.7571L10.8749 10.9098C10.9192 10.8493 10.9412 10.7797 10.9412 10.7052H10.6798ZM10.6676 10.7517L9.47487 12.2137L9.67801 12.3772L10.8708 10.9152L10.6676 10.7517ZM9.475 12.3774L10.6677 13.8343L10.8706 13.6704L9.67788 12.2135L9.475 12.3774ZM10.672 13.8392C10.6774 13.8452 10.6849 13.8567 10.6849 13.8857H10.9464C10.9464 13.8053 10.9229 13.7279 10.8664 13.6655L10.672 13.8392ZM10.6849 13.8857C10.6849 13.9175 10.6755 13.9388 10.6561 13.958L10.8409 14.1417C10.9111 14.072 10.9464 13.9838 10.9464 13.8857H10.6849ZM10.6525 13.9617C10.6392 13.976 10.6209 13.9867 10.5833 13.9867V14.2464C10.6834 14.2464 10.7752 14.2127 10.8446 14.138L10.6525 13.9617ZM10.5833 13.9867C10.5525 13.9867 10.5283 13.9766 10.5026 13.9421L10.2922 14.0961C10.3629 14.1915 10.4626 14.2464 10.5833 14.2464V13.9867ZM10.4997 13.9382L9.39474 12.5583L9.19016 12.72L10.2951 14.0999L10.4997 13.9382ZM9.18944 12.5592L8.09997 13.9442L8.30598 14.1042L9.39546 12.7192L9.18944 12.5592ZM8.10258 13.9411C8.07101 13.9787 8.04546 13.9867 8.02225 13.9867V14.2464C8.1367 14.2464 8.23167 14.1929 8.30337 14.1073L8.10258 13.9411ZM12.9746 14.0499L12.8822 14.1417L12.9746 14.0499ZM12.9075 10.9463H13.0382V10.8164H12.9075V10.9463ZM11.6992 10.8847L11.6068 10.9766L11.6992 10.8847ZM11.6992 10.5769L11.7917 10.6688L11.7935 10.6669L11.7953 10.6651L11.6992 10.5769ZM14.5804 10.5769L14.4843 10.6651L14.4879 10.6688L14.4917 10.6724L14.5804 10.5769ZM14.5804 10.8847L14.4917 10.7893L14.4898 10.7911L14.488 10.7929L14.5804 10.8847ZM13.3774 10.9463V10.8164H13.2466V10.9463H13.3774ZM13.3051 14.0499L13.2161 13.9547L13.2143 13.9564L13.2126 13.958L13.3051 14.0499ZM13.1398 13.9867C13.1078 13.9867 13.0864 13.9773 13.067 13.958L12.8822 14.1417C12.9523 14.2114 13.0411 14.2464 13.1398 14.2464V13.9867ZM13.067 13.958C13.0477 13.9388 13.0382 13.9175 13.0382 13.8857H12.7768C12.7768 13.9838 12.812 14.072 12.8822 14.1417L13.067 13.958ZM13.0382 13.8857V10.9463H12.7768V13.8857H13.0382ZM12.9075 10.8164H11.8541V11.0762H12.9075V10.8164ZM11.8541 10.8164C11.8245 10.8164 11.8068 10.808 11.7917 10.7929L11.6068 10.9766C11.6742 11.0436 11.7598 11.0762 11.8541 11.0762V10.8164ZM11.7917 10.7929C11.7765 10.7778 11.768 10.7603 11.768 10.7308H11.5066C11.5066 10.8245 11.5394 10.9096 11.6068 10.9766L11.7917 10.7929ZM11.768 10.7308C11.768 10.7014 11.7765 10.6839 11.7917 10.6688L11.6068 10.4851C11.5394 10.5521 11.5066 10.6371 11.5066 10.7308H11.768ZM11.7953 10.6651C11.8113 10.6477 11.8279 10.6401 11.8541 10.6401V10.3804C11.7564 10.3804 11.6697 10.4173 11.6032 10.4888L11.7953 10.6651ZM11.8541 10.6401H14.4255V10.3804H11.8541V10.6401ZM14.4255 10.6401C14.4517 10.6401 14.4683 10.6477 14.4843 10.6651L14.6764 10.4888C14.6099 10.4173 14.5232 10.3804 14.4255 10.3804V10.6401ZM14.4917 10.6724C14.5092 10.6884 14.5168 10.7048 14.5168 10.7308H14.7783C14.7783 10.6338 14.7411 10.5476 14.6691 10.4815L14.4917 10.6724ZM14.5168 10.7308C14.5168 10.7569 14.5092 10.7733 14.4917 10.7893L14.6691 10.9802C14.7411 10.9141 14.7783 10.8279 14.7783 10.7308H14.5168ZM14.488 10.7929C14.4728 10.808 14.4551 10.8164 14.4255 10.8164V11.0762C14.5198 11.0762 14.6054 11.0436 14.6728 10.9766L14.488 10.7929ZM14.4255 10.8164H13.3774V11.0762H14.4255V10.8164ZM13.2466 10.9463V13.8857H13.5081V10.9463H13.2466ZM13.2466 13.8857C13.2466 13.9143 13.2378 13.9347 13.2161 13.9547L13.394 14.1451C13.4687 14.0762 13.5081 13.987 13.5081 13.8857H13.2466ZM13.2126 13.958C13.1933 13.9773 13.1719 13.9867 13.1398 13.9867V14.2464C13.2386 14.2464 13.3274 14.2114 13.3975 14.1417L13.2126 13.958Z" fill="white"/>
<g filter="url(#filter1_d_329_701)">
<path d="M18.3337 6.62338H13.1049C12.3108 6.62338 11.667 5.98379 11.667 5.19481V0L18.3337 6.62338Z" fill="url(#paint2_linear_329_701)" fill-opacity="0.4"/>
</g>
</g>
</g>
<defs>
<filter id="filter0_f_329_701" x="-35.3721" y="-29.3247" width="89.6338" height="83.4546" filterUnits="userSpaceOnUse" color-interpolation-filters="sRGB">
<feFlood flood-opacity="0" result="BackgroundImageFix"/>
<feBlend mode="normal" in="SourceGraphic" in2="BackgroundImageFix" result="shape"/>
<feGaussianBlur stdDeviation="19.5" result="effect1_foregroundBlur_329_701"/>
</filter>
<filter id="filter1_d_329_701" x="-11.333" y="-24" width="56.667" height="56.6234" filterUnits="userSpaceOnUse" color-interpolation-filters="sRGB">
<feFlood flood-opacity="0" result="BackgroundImageFix"/>
<feColorMatrix in="SourceAlpha" type="matrix" values="0 0 0 0 0 0 0 0 0 0 0 0 0 0 0 0 0 0 127 0" result="hardAlpha"/>
<feOffset dx="2" dy="1"/>
<feGaussianBlur stdDeviation="12.5"/>
<feColorMatrix type="matrix" values="0 0 0 0 0 0 0 0 0 0 0 0 0 0 0 0 0 0 0.33 0"/>
<feBlend mode="normal" in2="BackgroundImageFix" result="effect1_dropShadow_329_701"/>
<feBlend mode="normal" in="SourceGraphic" in2="effect1_dropShadow_329_701" result="shape"/>
</filter>
<linearGradient id="paint0_linear_329_701" x1="9.44455" y1="0" x2="9.44455" y2="20" gradientUnits="userSpaceOnUse">
<stop stop-color="#FF7979"/>
<stop offset="1" stop-color="#E85555"/>
</linearGradient>
<linearGradient id="paint1_linear_329_701" x1="9.44455" y1="0" x2="9.44455" y2="20" gradientUnits="userSpaceOnUse">
<stop stop-color="#B4B6BC"/>
<stop offset="0.0730828" stop-color="#B1B3B9"/>
<stop offset="1" stop-color="#8D8F94"/>
</linearGradient>
<linearGradient id="paint2_linear_329_701" x1="15.0003" y1="0" x2="15.0003" y2="6.62338" gradientUnits="userSpaceOnUse">
<stop stop-color="#979CAB"/>
<stop offset="1" stop-color="#797C88"/>
</linearGradient>
<clipPath id="clip0_329_701">
<rect width="17.7778" height="20" fill="white" transform="translate(0.555664)"/>
</clipPath>
</defs>
</svg>
