<svg width="19" height="20" viewBox="0 0 19 20" fill="none" xmlns="http://www.w3.org/2000/svg">
<g clip-path="url(#clip0_329_712)">
<mask id="mask0_329_712" style="mask-type:alpha" maskUnits="userSpaceOnUse" x="0" y="0" width="19" height="20">
<path d="M16.6729 20H1.77092C0.976782 20 0.333008 19.3604 0.333008 18.5714V1.42857C0.333008 0.639594 0.976782 0 1.77092 0H11.4441L18.1108 6.62338V18.5714C18.1108 19.3604 17.467 20 16.6729 20Z" fill="url(#paint0_linear_329_712)"/>
</mask>
<g mask="url(#mask0_329_712)">
<path d="M16.6729 20H1.77092C0.976782 20 0.333008 19.3604 0.333008 18.5714V1.42857C0.333008 0.639594 0.976782 0 1.77092 0H11.4441L18.1108 6.62338V18.5714C18.1108 19.3604 17.467 20 16.6729 20Z" fill="url(#paint1_linear_329_712)" fill-opacity="0.4"/>
<g opacity="0.82" filter="url(#filter0_f_329_712)">
<g style="mix-blend-mode:darken" opacity="0.82">
<path d="M15.1047 9.67529H3.4707V15.1298H15.1047V9.67529Z" fill="url(#paint2_linear_329_712)"/>
</g>
</g>
<path d="M4.503 14.1166C4.44448 14.1166 4.39285 14.0961 4.34809 14.055C4.30679 14.0105 4.28613 13.9592 4.28613 13.9011C4.28613 13.8464 4.30162 13.7985 4.3326 13.7575L5.52535 12.3006L4.34293 10.854C4.31195 10.8129 4.29646 10.7651 4.29646 10.7103C4.29646 10.6453 4.31711 10.5924 4.35842 10.5513C4.40317 10.5068 4.45824 10.4846 4.52365 10.4846C4.56151 10.4846 4.59766 10.4932 4.63208 10.5103C4.66651 10.5274 4.69404 10.5496 4.71469 10.577L5.80417 11.9518L6.89365 10.5667C6.93149 10.512 6.98829 10.4846 7.06404 10.4846C7.126 10.4846 7.17934 10.5068 7.22411 10.5513C7.26888 10.5924 7.29123 10.6437 7.29123 10.7052C7.29123 10.7531 7.27744 10.7959 7.24992 10.8335L6.05718 12.2955L7.24992 13.7524C7.2809 13.7866 7.29639 13.831 7.29639 13.8857C7.29639 13.9507 7.27404 14.0054 7.22927 14.0499C7.18796 14.0944 7.13286 14.1166 7.06404 14.1166C6.98829 14.1166 6.92633 14.0841 6.87816 14.0191L5.77319 12.6392L4.68371 14.0242C4.63208 14.0858 4.57184 14.1166 4.503 14.1166ZM8.71064 14.0909C8.62117 14.0909 8.54371 14.0602 8.47829 13.9986C8.41633 13.9336 8.38535 13.8566 8.38535 13.7678V10.7206C8.38535 10.6556 8.4077 10.6009 8.45247 10.5565C8.49724 10.5086 8.55228 10.4846 8.6177 10.4846C8.68313 10.4846 8.73816 10.5086 8.78293 10.5565C8.8311 10.6009 8.85522 10.6556 8.85522 10.7206V13.6241H10.5436C10.6091 13.6241 10.6641 13.6481 10.7089 13.6959C10.757 13.7404 10.7812 13.7951 10.7812 13.8601C10.7812 13.9251 10.757 13.9798 10.7089 14.0242C10.6641 14.0687 10.6091 14.0909 10.5436 14.0909H8.71064ZM12.8578 14.1422C12.4206 14.1422 12.011 14.0602 11.6289 13.896C11.5876 13.8789 11.5531 13.8515 11.5256 13.8139C11.498 13.7729 11.4843 13.7302 11.4843 13.6857C11.4843 13.6276 11.5032 13.5779 11.5411 13.5369C11.5824 13.4924 11.634 13.4702 11.696 13.4702C11.7304 13.4702 11.7631 13.477 11.7941 13.4907C12.1108 13.6309 12.4499 13.7011 12.8113 13.7011C13.4136 13.7011 13.7149 13.5044 13.7149 13.1111C13.7149 13.0085 13.6753 12.923 13.5961 12.8546C13.5204 12.7863 13.4257 12.7332 13.3121 12.6956C13.1986 12.6546 13.0367 12.6067 12.8268 12.552C12.548 12.4802 12.3225 12.4118 12.1504 12.3468C11.9782 12.2784 11.8303 12.1775 11.7063 12.0441C11.5824 11.9107 11.5204 11.7329 11.5204 11.5106C11.5204 11.3157 11.5721 11.1396 11.6753 10.9822C11.7786 10.8215 11.9301 10.695 12.1297 10.6026C12.3328 10.5068 12.5755 10.459 12.8578 10.459C13.2364 10.459 13.5789 10.5154 13.8853 10.6283C13.9816 10.6625 14.0299 10.7309 14.0299 10.8335C14.0299 10.8882 14.0109 10.9378 13.9731 10.9822C13.9352 11.0267 13.8853 11.0489 13.8233 11.0489C13.8027 11.0489 13.7751 11.0421 13.7407 11.0284C13.4722 10.9361 13.1951 10.8899 12.9094 10.8899C12.6374 10.8899 12.4154 10.9412 12.2433 11.0438C12.0746 11.1464 11.9903 11.29 11.9903 11.4747C11.9903 11.5978 12.0299 11.6987 12.1091 11.7774C12.1917 11.8526 12.2932 11.9124 12.4137 11.9569C12.5376 11.9979 12.7046 12.0424 12.9146 12.0903C13.1865 12.1553 13.4051 12.2202 13.5703 12.2852C13.7389 12.3502 13.8818 12.4511 13.9989 12.5879C14.1193 12.7247 14.1796 12.9094 14.1796 13.1419C14.1796 13.3334 14.1245 13.5061 14.0144 13.66C13.9042 13.8105 13.7493 13.9285 13.5497 14.014C13.35 14.0995 13.1193 14.1422 12.8578 14.1422Z" fill="white"/>
<path d="M4.34795 14.055L4.2519 14.1431L4.25545 14.1469L4.25929 14.1505L4.34795 14.055ZM4.33246 13.7575L4.23105 13.6755L4.22943 13.6775L4.22789 13.6796L4.33246 13.7575ZM5.52521 12.3006L5.62662 12.3825L5.69365 12.3007L5.62669 12.2187L5.52521 12.3006ZM4.34279 10.854L4.23821 10.9319L4.23972 10.9339L4.24131 10.9359L4.34279 10.854ZM4.35828 10.5513L4.26585 10.4595L4.35828 10.5513ZM4.63194 10.5103L4.6904 10.3941L4.63194 10.5103ZM4.71455 10.577L4.60998 10.6549L4.6109 10.6561L4.61185 10.6573L4.71455 10.577ZM5.80403 11.9518L5.70133 12.0321L5.80442 12.1622L5.90703 12.0318L5.80403 11.9518ZM6.89351 10.5667L6.99652 10.6467L6.99893 10.6435L7.00122 10.6403L6.89351 10.5667ZM7.22397 10.5513L7.13155 10.6431L7.13338 10.6449L7.13527 10.6468L7.22397 10.5513ZM7.24978 10.8335L7.35135 10.9152L7.35351 10.9126L7.35547 10.9098L7.24978 10.8335ZM6.05704 12.2955L5.95549 12.2137L5.88866 12.2956L5.95563 12.3774L6.05704 12.2955ZM7.24978 13.7523L7.14835 13.8343L7.15044 13.8368L7.15259 13.8392L7.24978 13.7523ZM7.22913 14.0499L7.13671 13.9581L7.13488 13.9599L7.13305 13.9618L7.22913 14.0499ZM6.87802 14.0191L6.98325 13.9421L6.98181 13.9401L6.98031 13.9383L6.87802 14.0191ZM5.77305 12.6392L5.87535 12.5583L5.77214 12.4294L5.67005 12.5592L5.77305 12.6392ZM4.68357 14.0242L4.78399 14.1073L4.78531 14.1058L4.78657 14.1042L4.68357 14.0242ZM4.50285 13.9867C4.47864 13.9867 4.4583 13.9795 4.43662 13.9596L4.25929 14.1505C4.3271 14.2126 4.41003 14.2464 4.50285 14.2464V13.9867ZM4.44401 13.9669C4.42399 13.9454 4.41671 13.9251 4.41671 13.9011H4.15527C4.15527 13.9933 4.18931 14.0757 4.2519 14.1431L4.44401 13.9669ZM4.41671 13.9011C4.41671 13.8725 4.42419 13.8524 4.43704 13.8354L4.22789 13.6796C4.17877 13.7446 4.15527 13.8203 4.15527 13.9011H4.41671ZM4.43387 13.8394L5.62662 12.3825L5.4238 12.2186L4.23105 13.6755L4.43387 13.8394ZM5.62669 12.2187L4.44427 10.7721L4.24131 10.9359L5.42373 12.3825L5.62669 12.2187ZM4.44736 10.7761C4.43452 10.759 4.42704 10.739 4.42704 10.7103H4.1656C4.1656 10.7912 4.1891 10.8668 4.23821 10.9319L4.44736 10.7761ZM4.42704 10.7103C4.42704 10.6753 4.43695 10.6568 4.45071 10.6431L4.26585 10.4595C4.197 10.5279 4.1656 10.6154 4.1656 10.7103H4.42704ZM4.45071 10.6431C4.47004 10.6239 4.49148 10.6145 4.52351 10.6145V10.3548C4.42473 10.3548 4.33601 10.3898 4.26585 10.4595L4.45071 10.6431ZM4.52351 10.6145C4.54074 10.6145 4.5569 10.6182 4.57348 10.6264L4.6904 10.3941C4.63814 10.3681 4.58201 10.3548 4.52351 10.3548V10.6145ZM4.57348 10.6264C4.59192 10.6356 4.60287 10.6455 4.60998 10.6549L4.81913 10.499C4.78493 10.4537 4.74081 10.4192 4.6904 10.3941L4.57348 10.6264ZM4.61185 10.6573L5.70133 12.0321L5.90674 11.8714L4.81726 10.4966L4.61185 10.6573ZM5.90703 12.0318L6.99652 10.6467L6.79051 10.4867L5.70103 11.8718L5.90703 12.0318ZM7.00122 10.6403C7.01116 10.6259 7.02455 10.6145 7.0639 10.6145V10.3548C6.95181 10.3548 6.85159 10.3981 6.78579 10.4931L7.00122 10.6403ZM7.0639 10.6145C7.09037 10.6145 7.1107 10.6225 7.13155 10.6431L7.31638 10.4595C7.24769 10.3912 7.16135 10.3548 7.0639 10.3548V10.6145ZM7.13527 10.6468C7.15272 10.6627 7.16037 10.6792 7.16037 10.7052H7.42181C7.42181 10.6081 7.38469 10.522 7.31266 10.4559L7.13527 10.6468ZM7.16037 10.7052C7.16037 10.7265 7.15488 10.7423 7.1441 10.7571L7.35547 10.9098C7.39978 10.8494 7.42181 10.7797 7.42181 10.7052H7.16037ZM7.14821 10.7517L5.95549 12.2137L6.15859 12.3772L7.35135 10.9152L7.14821 10.7517ZM5.95563 12.3774L7.14835 13.8343L7.35122 13.6704L6.15845 12.2135L5.95563 12.3774ZM7.15259 13.8392C7.15802 13.8452 7.16553 13.8567 7.16553 13.8857H7.42697C7.42697 13.8053 7.40351 13.7279 7.34697 13.6655L7.15259 13.8392ZM7.16553 13.8857C7.16553 13.9175 7.15606 13.9388 7.13671 13.9581L7.32155 14.1417C7.39174 14.072 7.42697 13.9838 7.42697 13.8857H7.16553ZM7.13305 13.9618C7.11985 13.976 7.10155 13.9867 7.0639 13.9867V14.2464C7.16397 14.2464 7.2558 14.2127 7.32521 14.138L7.13305 13.9618ZM7.0639 13.9867C7.03312 13.9867 7.00887 13.9766 6.98325 13.9421L6.77278 14.0961C6.84352 14.1915 6.94325 14.2464 7.0639 14.2464V13.9867ZM6.98031 13.9383L5.87535 12.5583L5.67076 12.72L6.77572 14.0999L6.98031 13.9383ZM5.67005 12.5592L4.58057 13.9442L4.78657 14.1042L5.87605 12.7192L5.67005 12.5592ZM4.58316 13.9411C4.55162 13.9787 4.52607 13.9867 4.50285 13.9867V14.2464C4.61733 14.2464 4.71226 14.1929 4.78399 14.1073L4.58316 13.9411ZM8.47815 13.9986L8.38325 14.0879L8.38567 14.0905L8.38821 14.0929L8.47815 13.9986ZM8.45233 10.5564L8.54475 10.6483L8.54645 10.6466L8.54815 10.6448L8.45233 10.5564ZM8.78279 10.5564L8.68697 10.6448L8.69031 10.6483L8.69384 10.6516L8.78279 10.5564ZM8.85508 13.6241H8.72436V13.754H8.85508V13.6241ZM10.7087 13.6959L10.6129 13.7843L10.6163 13.7878L10.6198 13.7911L10.7087 13.6959ZM10.7087 14.0242L10.6198 13.929L10.618 13.9307L10.6163 13.9324L10.7087 14.0242ZM8.7105 13.9611C8.65469 13.9611 8.60933 13.9432 8.56802 13.9043L8.38821 14.0929C8.47776 14.1771 8.5873 14.2208 8.7105 14.2208V13.9611ZM8.57305 13.9093C8.5339 13.8683 8.51593 13.8232 8.51593 13.7677H8.25449C8.25449 13.8901 8.29848 13.999 8.38325 14.0879L8.57305 13.9093ZM8.51593 13.7677V10.7206H8.25449V13.7677H8.51593ZM8.51593 10.7206C8.51593 10.6888 8.5254 10.6675 8.54475 10.6483L8.35991 10.4646C8.28972 10.5343 8.25449 10.6225 8.25449 10.7206H8.51593ZM8.54815 10.6448C8.56828 10.6233 8.58874 10.6145 8.61756 10.6145V10.3548C8.5156 10.3548 8.42586 10.3939 8.35651 10.4681L8.54815 10.6448ZM8.61756 10.6145C8.64638 10.6145 8.66684 10.6233 8.68697 10.6448L8.87861 10.4681C8.80926 10.3939 8.71952 10.3548 8.61756 10.3548V10.6145ZM8.69384 10.6516C8.71554 10.6716 8.72436 10.692 8.72436 10.7206H8.9858C8.9858 10.6193 8.94638 10.5301 8.87174 10.4612L8.69384 10.6516ZM8.72436 10.7206V13.6241H8.9858V10.7206H8.72436ZM8.85508 13.754H10.5435V13.4942H8.85508V13.754ZM10.5435 13.754C10.5723 13.754 10.5928 13.7627 10.6129 13.7843L10.8046 13.6075C10.7352 13.5334 10.6455 13.4942 10.5435 13.4942V13.754ZM10.6198 13.7911C10.6415 13.8111 10.6503 13.8314 10.6503 13.8601H10.9117C10.9117 13.7588 10.8723 13.6696 10.7977 13.6007L10.6198 13.7911ZM10.6503 13.8601C10.6503 13.8887 10.6415 13.909 10.6198 13.929L10.7977 14.1194C10.8723 14.0505 10.9117 13.9614 10.9117 13.8601H10.6503ZM10.6163 13.9324C10.597 13.9516 10.5755 13.9611 10.5435 13.9611V14.2208C10.6423 14.2208 10.731 14.1858 10.8012 14.116L10.6163 13.9324ZM10.5435 13.9611H8.7105V14.2208H10.5435V13.9611ZM11.6287 13.896L11.6806 13.7768L11.6798 13.7764L11.679 13.7761L11.6287 13.896ZM11.5255 13.8139L11.4166 13.8859L11.4182 13.8881L11.4197 13.8903L11.5255 13.8139ZM11.541 13.5369L11.4449 13.4488L11.4446 13.4492L11.541 13.5369ZM11.794 13.4907L11.8472 13.3721L11.847 13.372L11.794 13.4907ZM13.596 12.8546L13.508 12.9507L13.5091 12.9517L13.5102 12.9526L13.596 12.8546ZM13.312 12.6956L13.2673 12.8177L13.2689 12.8183L13.2706 12.8188L13.312 12.6956ZM12.8266 12.552L12.8598 12.4263L12.8594 12.4262L12.8266 12.552ZM12.1502 12.3468L12.1017 12.4673L12.1027 12.4677L12.1038 12.4682L12.1502 12.3468ZM11.7062 12.0441L11.6101 12.1322L11.7062 12.0441ZM11.6752 10.9822L11.7847 11.0532L11.785 11.0526L11.7853 11.0521L11.6752 10.9822ZM12.1296 10.6026L12.1848 10.7203L12.1851 10.7201L12.1856 10.7199L12.1296 10.6026ZM13.8851 10.6283L13.8397 10.75L13.8404 10.7503L13.8412 10.7505L13.8851 10.6283ZM13.9729 10.9822L14.0727 11.0661L13.9729 10.9822ZM13.7406 11.0284L13.7891 10.9078L13.7862 10.9066L13.7833 10.9057L13.7406 11.0284ZM12.2432 11.0438L12.1759 10.9324L12.1754 10.9327L12.1749 10.933L12.2432 11.0438ZM12.1089 11.7773L12.0165 11.8692L12.0185 11.8712L12.0206 11.8731L12.1089 11.7773ZM12.4136 11.9569L12.368 12.0786L12.3701 12.0794L12.3722 12.0801L12.4136 11.9569ZM12.9144 12.0903L12.9449 11.964L12.9443 11.9638L12.9436 11.9637L12.9144 12.0903ZM13.5702 12.2852L13.522 12.406L13.5229 12.4063L13.5702 12.2852ZM13.9987 12.5879L13.8991 12.672L13.8997 12.6727L13.9003 12.6734L13.9987 12.5879ZM14.0142 13.66L14.1199 13.7364L14.1203 13.7359L14.1207 13.7353L14.0142 13.66ZM13.5495 14.014L13.6012 14.1333L13.5495 14.014ZM12.8576 14.0123C12.4374 14.0123 12.0455 13.9336 11.6806 13.7768L11.5768 14.0152C11.9761 14.1867 12.4035 14.2721 12.8576 14.2721V14.0123ZM11.679 13.7761C11.6609 13.7686 11.6453 13.7568 11.6312 13.7375L11.4197 13.8903C11.4607 13.9462 11.5139 13.9892 11.5784 14.0159L11.679 13.7761ZM11.6342 13.7419C11.6193 13.7198 11.6149 13.7017 11.6149 13.6857H11.3534C11.3534 13.7585 11.3765 13.826 11.4166 13.8859L11.6342 13.7419ZM11.6149 13.6857C11.6149 13.6585 11.6226 13.6406 11.6373 13.6246L11.4446 13.4492C11.3836 13.5153 11.3534 13.5966 11.3534 13.6857H11.6149ZM11.637 13.625C11.6531 13.6077 11.6697 13.6001 11.6959 13.6001V13.3403C11.5981 13.3403 11.5114 13.3772 11.4449 13.4488L11.637 13.625ZM11.6959 13.6001C11.7123 13.6001 11.7268 13.6032 11.7408 13.6094L11.847 13.372C11.7991 13.3509 11.7483 13.3403 11.6959 13.3403V13.6001ZM11.7407 13.6094C12.0749 13.7573 12.4321 13.8309 12.8112 13.8309V13.5712C12.4672 13.5712 12.1464 13.5046 11.8472 13.3721L11.7407 13.6094ZM12.8112 13.8309C13.1225 13.8309 13.3787 13.7809 13.5606 13.6621C13.7521 13.5371 13.8455 13.3464 13.8455 13.1111H13.584C13.584 13.2691 13.5268 13.3734 13.417 13.445C13.2978 13.5229 13.1021 13.5712 12.8112 13.5712V13.8309ZM13.8455 13.1111C13.8455 12.9703 13.7889 12.8492 13.6817 12.7566L13.5102 12.9526C13.5614 12.9968 13.584 13.0468 13.584 13.1111H13.8455ZM13.6839 12.7585C13.5926 12.6761 13.4813 12.6148 13.3533 12.5724L13.2706 12.8188C13.3698 12.8516 13.4479 12.8964 13.508 12.9507L13.6839 12.7585ZM13.3566 12.5735C13.2374 12.5305 13.0711 12.4814 12.8598 12.4263L12.7934 12.6776C13.0021 12.732 13.1593 12.7786 13.2673 12.8177L13.3566 12.5735ZM12.8594 12.4262C12.583 12.355 12.3625 12.288 12.1966 12.2253L12.1038 12.4682C12.2821 12.5355 12.5127 12.6053 12.7938 12.6777L12.8594 12.4262ZM12.1987 12.2262C12.0444 12.1649 11.9127 12.0749 11.8022 11.956L11.6101 12.1322C11.7474 12.28 11.9117 12.3919 12.1017 12.4673L12.1987 12.2262ZM11.8022 11.956C11.7053 11.8518 11.651 11.7079 11.651 11.5106H11.3896C11.3896 11.7578 11.4591 11.9697 11.6101 12.1322L11.8022 11.956ZM11.651 11.5106C11.651 11.3398 11.6958 11.1885 11.7847 11.0532L11.5657 10.9112C11.448 11.0905 11.3896 11.2915 11.3896 11.5106H11.651ZM11.7853 11.0521C11.8734 10.9151 12.0042 10.8038 12.1848 10.7203L12.0744 10.4849C11.8556 10.586 11.6835 10.7279 11.565 10.9123L11.7853 11.0521ZM12.1856 10.7199C12.3673 10.6343 12.5899 10.5888 12.8576 10.5888V10.3291C12.5608 10.3291 12.298 10.3794 12.0735 10.4853L12.1856 10.7199ZM12.8576 10.5888C13.2232 10.5888 13.55 10.6433 13.8397 10.75L13.9306 10.5065C13.6076 10.3875 13.2493 10.3291 12.8576 10.3291V10.5888ZM13.8412 10.7505C13.8695 10.7606 13.881 10.772 13.8865 10.7797C13.8919 10.7875 13.899 10.8026 13.899 10.8335H14.1604C14.1604 10.7617 14.1433 10.6913 14.1006 10.6307C14.0579 10.57 13.9972 10.5301 13.9291 10.506L13.8412 10.7505ZM13.899 10.8335C13.899 10.8554 13.8924 10.8757 13.8731 10.8983L14.0727 11.0661C14.1291 10.9998 14.1604 10.921 14.1604 10.8335H13.899ZM13.8731 10.8983C13.8617 10.9118 13.8492 10.919 13.8232 10.919V11.1788C13.9211 11.1788 14.0084 11.1416 14.0727 11.0661L13.8731 10.8983ZM13.8232 10.919C13.8266 10.919 13.8257 10.9195 13.8187 10.9178C13.8121 10.9161 13.8024 10.9131 13.7891 10.9078L13.692 11.149C13.7315 11.1647 13.7776 11.1788 13.8232 11.1788V10.919ZM13.7833 10.9057C13.501 10.8086 13.2094 10.76 12.9093 10.76V11.0198C13.1804 11.0198 13.4431 11.0635 13.6978 11.1511L13.7833 10.9057ZM12.9093 10.76C12.6217 10.76 12.3743 10.8142 12.1759 10.9324L12.3104 11.1551C12.4563 11.0682 12.6529 11.0198 12.9093 11.0198V10.76ZM12.1749 10.933C11.9704 11.0574 11.8595 11.2414 11.8595 11.4747H12.1209C12.1209 11.3386 12.1785 11.2353 12.3114 11.1546L12.1749 10.933ZM11.8595 11.4747C11.8595 11.6282 11.91 11.7635 12.0165 11.8692L12.2014 11.6855C12.1494 11.6339 12.1209 11.5674 12.1209 11.4747H11.8595ZM12.0206 11.8731C12.1173 11.9612 12.234 12.0292 12.368 12.0786L12.4591 11.8351C12.3521 11.7957 12.2657 11.744 12.1972 11.6816L12.0206 11.8731ZM12.3722 12.0801C12.5018 12.123 12.6733 12.1686 12.8851 12.2168L12.9436 11.9637C12.7355 11.9162 12.5731 11.8729 12.4549 11.8337L12.3722 12.0801ZM12.8838 12.2166C13.1528 12.2808 13.3648 12.3441 13.522 12.406L13.6183 12.1644C13.4451 12.0963 13.2199 12.0297 12.9449 11.964L12.8838 12.2166ZM13.5229 12.4063C13.6713 12.4635 13.7962 12.5516 13.8991 12.672L14.0983 12.5038C13.9672 12.3505 13.8063 12.2369 13.6174 12.1641L13.5229 12.4063ZM13.9003 12.6734C13.9947 12.7805 14.0487 12.9318 14.0487 13.1419H14.3102C14.3102 12.8869 14.2437 12.6688 14.0971 12.5023L13.9003 12.6734ZM14.0487 13.1419C14.0487 13.3068 14.0019 13.4532 13.9077 13.5848L14.1207 13.7353C14.2468 13.559 14.3102 13.3599 14.3102 13.1419H14.0487ZM13.9085 13.5836C13.8142 13.7124 13.6794 13.817 13.4978 13.8947L13.6012 14.1333C13.8189 14.04 13.9939 13.9086 14.1199 13.7364L13.9085 13.5836ZM13.4978 13.8947C13.3174 13.972 13.1049 14.0123 12.8576 14.0123V14.2721C13.1334 14.2721 13.3823 14.227 13.6012 14.1333L13.4978 13.8947Z" fill="white"/>
<g opacity="0.4" filter="url(#filter1_d_329_712)">
<path d="M18.111 6.62338H12.8822C12.0881 6.62338 11.4443 5.98379 11.4443 5.19481V0L18.111 6.62338Z" fill="#039855"/>
</g>
</g>
</g>
<defs>
<filter id="filter0_f_329_712" x="-35.5293" y="-29.3247" width="89.6338" height="83.4546" filterUnits="userSpaceOnUse" color-interpolation-filters="sRGB">
<feFlood flood-opacity="0" result="BackgroundImageFix"/>
<feBlend mode="normal" in="SourceGraphic" in2="BackgroundImageFix" result="shape"/>
<feGaussianBlur stdDeviation="19.5" result="effect1_foregroundBlur_329_712"/>
</filter>
<filter id="filter1_d_329_712" x="-11.5557" y="-24" width="56.667" height="56.6234" filterUnits="userSpaceOnUse" color-interpolation-filters="sRGB">
<feFlood flood-opacity="0" result="BackgroundImageFix"/>
<feColorMatrix in="SourceAlpha" type="matrix" values="0 0 0 0 0 0 0 0 0 0 0 0 0 0 0 0 0 0 127 0" result="hardAlpha"/>
<feOffset dx="2" dy="1"/>
<feGaussianBlur stdDeviation="12.5"/>
<feColorMatrix type="matrix" values="0 0 0 0 0 0 0 0 0 0 0 0 0 0 0 0 0 0 0.33 0"/>
<feBlend mode="normal" in2="BackgroundImageFix" result="effect1_dropShadow_329_712"/>
<feBlend mode="normal" in="SourceGraphic" in2="effect1_dropShadow_329_712" result="shape"/>
</filter>
<linearGradient id="paint0_linear_329_712" x1="9.2219" y1="0" x2="9.2219" y2="20" gradientUnits="userSpaceOnUse">
<stop stop-color="#FF7979"/>
<stop offset="1" stop-color="#E85555"/>
</linearGradient>
<linearGradient id="paint1_linear_329_712" x1="9.2219" y1="0" x2="9.2219" y2="20" gradientUnits="userSpaceOnUse">
<stop stop-color="#79D7AC"/>
<stop offset="1" stop-color="#319266"/>
</linearGradient>
<linearGradient id="paint2_linear_329_712" x1="9.2877" y1="9.67529" x2="9.2877" y2="15.1298" gradientUnits="userSpaceOnUse">
<stop stop-color="#79D7AC"/>
<stop offset="1" stop-color="#319266"/>
</linearGradient>
<clipPath id="clip0_329_712">
<rect width="17.7778" height="20" fill="white" transform="translate(0.333008)"/>
</clipPath>
</defs>
</svg>
