<svg width="18" height="20" viewBox="0 0 18 20" fill="none" xmlns="http://www.w3.org/2000/svg">
<g clip-path="url(#clip0_329_723)">
<mask id="mask0_329_723" style="mask-type:alpha" maskUnits="userSpaceOnUse" x="0" y="0" width="18" height="20">
<path d="M16.4512 20H1.54924C0.755102 20 0.111328 19.3604 0.111328 18.5714V1.42857C0.111328 0.639594 0.755102 0 1.54924 0H11.2224L17.8891 6.62338V18.5714C17.8891 19.3604 17.2453 20 16.4512 20Z" fill="url(#paint0_linear_329_723)"/>
</mask>
<g mask="url(#mask0_329_723)">
<path d="M16.4512 20H1.54924C0.755102 20 0.111328 19.3604 0.111328 18.5714V1.42857C0.111328 0.639594 0.755102 0 1.54924 0H11.2224L17.8891 6.62338V18.5714C17.8891 19.3604 17.2453 20 16.4512 20Z" fill="url(#paint1_linear_329_723)" fill-opacity="0.4"/>
<g filter="url(#filter0_f_329_723)">
<g style="mix-blend-mode:darken">
<path d="M14.8176 9.35071H3.18359V14.8053H14.8176V9.35071Z" fill="#0F7D56" fill-opacity="0.27"/>
</g>
</g>
<path d="M5.12956 14.0909C5.04694 14.0909 4.97637 14.0618 4.91786 14.0037C4.85934 13.9456 4.83008 13.8755 4.83008 13.7934C4.83008 13.7181 4.85073 13.6549 4.89204 13.6036L7.05032 10.9566H5.06243C5.00047 10.9566 4.94712 10.936 4.90237 10.895C4.86106 10.8505 4.8404 10.7975 4.8404 10.736C4.8404 10.6744 4.86106 10.6214 4.90237 10.577C4.94712 10.5325 5.00047 10.5103 5.06243 10.5103H7.30333C7.39973 10.5103 7.47548 10.541 7.53052 10.6026C7.58908 10.6642 7.61829 10.7394 7.61829 10.8283C7.61829 10.8625 7.60973 10.8985 7.59248 10.936C7.57875 10.9736 7.5598 11.0062 7.53568 11.0335L5.40322 13.6549H7.42725C7.48921 13.6549 7.54084 13.6771 7.58215 13.7216C7.62692 13.7626 7.64927 13.8139 7.64927 13.8755C7.64927 13.937 7.62692 13.9883 7.58215 14.0294C7.54084 14.0704 7.48921 14.0909 7.42725 14.0909H5.12956ZM8.9747 14.1166C8.90934 14.1166 8.85424 14.0944 8.80947 14.0499C8.76477 14.0054 8.74235 13.9507 8.74235 13.8857V10.7206C8.74235 10.6556 8.76477 10.6009 8.80947 10.5564C8.85424 10.5086 8.90934 10.4846 8.9747 10.4846C9.04012 10.4846 9.09522 10.5086 9.13993 10.5564C9.18816 10.6009 9.21222 10.6556 9.21222 10.7206V13.8857C9.21222 13.9507 9.18816 14.0054 9.13993 14.0499C9.09522 14.0944 9.04012 14.1166 8.9747 14.1166ZM10.8086 14.1166C10.7431 14.1166 10.688 14.0944 10.6433 14.0499C10.5986 14.0054 10.5762 13.9507 10.5762 13.8857V10.7462C10.5762 10.6812 10.5986 10.6266 10.6433 10.5821C10.688 10.5342 10.7431 10.5103 10.8086 10.5103H11.9858C12.3128 10.5103 12.5796 10.565 12.7861 10.6744C12.9927 10.7838 13.1406 10.9241 13.2302 11.0951C13.3197 11.266 13.3644 11.4507 13.3644 11.6491C13.3644 11.8475 13.3197 12.0322 13.2302 12.2031C13.1406 12.3741 12.9927 12.5144 12.7861 12.6238C12.5796 12.7332 12.3128 12.7879 11.9858 12.7879H11.0461V13.8857C11.0461 13.9507 11.022 14.0054 10.9738 14.0499C10.929 14.0944 10.8739 14.1166 10.8086 14.1166ZM11.9393 12.3468C12.2905 12.3468 12.5365 12.2801 12.6777 12.1467C12.8223 12.0133 12.8946 11.8475 12.8946 11.6491C12.8946 11.4507 12.8223 11.2849 12.6777 11.1515C12.5365 11.0181 12.2905 10.9514 11.9393 10.9514H11.0461V12.3468H11.9393Z" fill="white"/>
<path d="M4.91772 14.0037L5.01015 13.9119L4.91772 14.0037ZM4.8919 13.6036L4.79032 13.5218L4.78983 13.5225L4.8919 13.6036ZM7.05018 10.9566L7.15175 11.0383L7.3243 10.8267H7.05018V10.9566ZM4.90223 10.895L4.80617 10.9831L4.80972 10.9869L4.81356 10.9905L4.90223 10.895ZM4.90223 10.5769L4.80979 10.4851L4.80794 10.4869L4.80617 10.4888L4.90223 10.5769ZM7.53038 10.6026L7.43266 10.6889L7.43404 10.6903L7.43534 10.6917L7.53038 10.6026ZM7.59234 10.936L7.47338 10.8823L7.47123 10.8869L7.46953 10.8917L7.59234 10.936ZM7.53554 11.0335L7.43717 10.948L7.43547 10.9499L7.43391 10.9519L7.53554 11.0335ZM5.40307 13.6549L5.30141 13.5732L5.12935 13.7847H5.40307V13.6549ZM7.58201 13.7216L7.486 13.8097L7.48953 13.8134L7.49338 13.817L7.58201 13.7216ZM7.58201 14.0293L7.49338 13.9339L7.49142 13.9357L7.48959 13.9375L7.58201 14.0293ZM5.12941 13.961C5.08154 13.961 5.0442 13.9457 5.01015 13.9119L4.82528 14.0955C4.90827 14.178 5.01206 14.2208 5.12941 14.2208V13.961ZM5.01015 13.9119C4.97609 13.878 4.96066 13.841 4.96066 13.7934H4.69922C4.69922 13.9099 4.7423 14.0131 4.82528 14.0955L5.01015 13.9119ZM4.96066 13.7934C4.96066 13.7431 4.97385 13.7097 4.99397 13.6847L4.78983 13.5225C4.72733 13.6001 4.69922 13.6932 4.69922 13.7934H4.96066ZM4.99347 13.6853L7.15175 11.0383L6.94861 10.8748L4.79032 13.5218L4.99347 13.6853ZM7.05018 10.8267H5.06229V11.0864H7.05018V10.8267ZM5.06229 10.8267C5.03256 10.8267 5.01103 10.818 4.99089 10.7995L4.81356 10.9905C4.88292 11.054 4.9681 11.0864 5.06229 11.0864V10.8267ZM4.99828 10.8069C4.97969 10.7869 4.97098 10.7655 4.97098 10.736H4.70955C4.70955 10.8295 4.74215 10.9142 4.80617 10.9831L4.99828 10.8069ZM4.97098 10.736C4.97098 10.7064 4.97969 10.6851 4.99828 10.6651L4.80617 10.4888C4.74215 10.5578 4.70955 10.6424 4.70955 10.736H4.97098ZM4.99466 10.6688C5.01548 10.6481 5.03582 10.6401 5.06229 10.6401V10.3804C4.96484 10.3804 4.87847 10.4169 4.80979 10.4851L4.99466 10.6688ZM5.06229 10.6401H7.30319V10.3804H5.06229V10.6401ZM7.30319 10.6401C7.36894 10.6401 7.40652 10.6597 7.43266 10.6889L7.62809 10.5163C7.5441 10.4224 7.43024 10.3804 7.30319 10.3804V10.6401ZM7.43534 10.6917C7.46972 10.7279 7.48743 10.7707 7.48743 10.8283H7.74887C7.74887 10.708 7.70809 10.6004 7.62541 10.5134L7.43534 10.6917ZM7.48743 10.8283C7.48743 10.8405 7.48443 10.8581 7.47338 10.8823L7.71136 10.9898C7.73469 10.9387 7.74887 10.8845 7.74887 10.8283H7.48743ZM7.46953 10.8917C7.4607 10.9157 7.44959 10.9339 7.43717 10.948L7.63391 11.119C7.66972 11.0784 7.69645 11.0316 7.71521 10.9804L7.46953 10.8917ZM7.43391 10.9519L5.30141 13.5732L5.50474 13.7365L7.63724 11.1151L7.43391 10.9519ZM5.40307 13.7847H7.42711V13.525H5.40307V13.7847ZM7.42711 13.7847C7.45332 13.7847 7.46992 13.7923 7.486 13.8097L7.67809 13.6334C7.61155 13.5619 7.52482 13.525 7.42711 13.525V13.7847ZM7.49338 13.817C7.51077 13.833 7.51841 13.8494 7.51841 13.8755H7.77985C7.77985 13.7784 7.74279 13.6922 7.6707 13.6261L7.49338 13.817ZM7.51841 13.8755C7.51841 13.9015 7.51077 13.9179 7.49338 13.9339L7.6707 14.1248C7.74279 14.0587 7.77985 13.9725 7.77985 13.8755H7.51841ZM7.48959 13.9375C7.47443 13.9526 7.45678 13.961 7.42711 13.961V14.2208C7.52142 14.2208 7.60704 14.1882 7.67449 14.1212L7.48959 13.9375ZM7.42711 13.961H5.12941V14.2208H7.42711V13.961ZM8.80933 14.0499L8.90175 13.958L8.80933 14.0499ZM8.80933 10.5564L8.90175 10.6482L8.90351 10.6466L8.90515 10.6448L8.80933 10.5564ZM9.13979 10.5564L9.04404 10.6448L9.0473 10.6483L9.05083 10.6516L9.13979 10.5564ZM9.13979 14.0499L9.05083 13.9547L9.04907 13.9564L9.04737 13.958L9.13979 14.0499ZM8.97456 13.9867C8.94253 13.9867 8.9211 13.9773 8.90175 13.958L8.71691 14.1417C8.78711 14.2114 8.8758 14.2464 8.97456 14.2464V13.9867ZM8.90175 13.958C8.88247 13.9388 8.87292 13.9175 8.87292 13.8857H8.61149C8.61149 13.9838 8.64672 14.072 8.71691 14.1417L8.90175 13.958ZM8.87292 13.8857V10.7206H8.61149V13.8857H8.87292ZM8.87292 10.7206C8.87292 10.6888 8.88247 10.6675 8.90175 10.6482L8.71691 10.4646C8.64672 10.5343 8.61149 10.6225 8.61149 10.7206H8.87292ZM8.90515 10.6448C8.92528 10.6232 8.94574 10.6145 8.97456 10.6145V10.3547C8.8726 10.3547 8.78286 10.3939 8.71358 10.468L8.90515 10.6448ZM8.97456 10.6145C9.00338 10.6145 9.02384 10.6232 9.04404 10.6448L9.23561 10.468C9.16626 10.3939 9.07659 10.3547 8.97456 10.3547V10.6145ZM9.05083 10.6516C9.0726 10.6716 9.08136 10.6919 9.08136 10.7206H9.34279C9.34279 10.6193 9.30338 10.5301 9.22874 10.4612L9.05083 10.6516ZM9.08136 10.7206V13.8857H9.34279V10.7206H9.08136ZM9.08136 13.8857C9.08136 13.9143 9.0726 13.9347 9.05083 13.9547L9.22874 14.1451C9.30338 14.0762 9.34279 13.987 9.34279 13.8857H9.08136ZM9.04737 13.958C9.02802 13.9773 9.00659 13.9867 8.97456 13.9867V14.2464C9.07332 14.2464 9.16208 14.2114 9.23221 14.1417L9.04737 13.958ZM10.6432 14.0499L10.7356 13.958L10.6432 14.0499ZM10.6432 10.5821L10.7356 10.6739L10.7373 10.6722L10.7389 10.6705L10.6432 10.5821ZM12.786 10.6744L12.8475 10.5598L12.786 10.6744ZM13.23 11.0951L13.114 11.155L13.23 11.0951ZM13.23 12.2031L13.114 12.1432L13.23 12.2031ZM12.786 12.6238L12.8475 12.7384L12.786 12.6238ZM11.0459 12.7879V12.658H10.9152V12.7879H11.0459ZM10.9736 14.0499L10.8847 13.9547L10.8829 13.9564L10.8812 13.958L10.9736 14.0499ZM12.6776 12.1467L12.5886 12.0515L12.588 12.0521L12.5874 12.0526L12.6776 12.1467ZM12.6776 11.1515L12.5874 11.2456L12.588 11.2461L12.5886 11.2467L12.6776 11.1515ZM11.0459 10.9514V10.8216H10.9152V10.9514H11.0459ZM11.0459 12.3467H10.9152V12.4766H11.0459V12.3467ZM10.8084 13.9867C10.7764 13.9867 10.755 13.9773 10.7356 13.958L10.5507 14.1417C10.6209 14.2114 10.7096 14.2464 10.8084 14.2464V13.9867ZM10.7356 13.958C10.7163 13.9388 10.7068 13.9175 10.7068 13.8857H10.4453C10.4453 13.9838 10.4806 14.072 10.5507 14.1417L10.7356 13.958ZM10.7068 13.8857V10.7462H10.4453V13.8857H10.7068ZM10.7068 10.7462C10.7068 10.7144 10.7163 10.6931 10.7356 10.6739L10.5507 10.4903C10.4806 10.5599 10.4453 10.6481 10.4453 10.7462H10.7068ZM10.7389 10.6705C10.7591 10.6489 10.7796 10.6401 10.8084 10.6401V10.3804C10.7064 10.3804 10.6167 10.4195 10.5474 10.4937L10.7389 10.6705ZM10.8084 10.6401H11.9857V10.3804H10.8084V10.6401ZM11.9857 10.6401C12.2993 10.6401 12.5429 10.6928 12.7244 10.789L12.8475 10.5598C12.616 10.4371 12.3261 10.3804 11.9857 10.3804V10.6401ZM12.7244 10.789C12.9126 10.8887 13.0391 11.0117 13.114 11.155L13.346 11.0351C13.242 10.8364 13.0724 10.679 12.8475 10.5598L12.7244 10.789ZM13.114 11.155C13.1936 11.3069 13.2336 11.471 13.2336 11.6491H13.495C13.495 11.4305 13.4455 11.2252 13.346 11.0351L13.114 11.155ZM13.2336 11.6491C13.2336 11.8272 13.1936 11.9912 13.114 12.1432L13.346 12.263C13.4455 12.073 13.495 11.8677 13.495 11.6491H13.2336ZM13.114 12.1432C13.0391 12.2865 12.9126 12.4095 12.7244 12.5092L12.8475 12.7384C13.0724 12.6192 13.242 12.4617 13.346 12.263L13.114 12.1432ZM12.7244 12.5092C12.5429 12.6054 12.2993 12.658 11.9857 12.658V12.9178C12.3261 12.9178 12.616 12.861 12.8475 12.7384L12.7244 12.5092ZM11.9857 12.658H11.0459V12.9178H11.9857V12.658ZM10.9152 12.7879V13.8857H11.1767V12.7879H10.9152ZM10.9152 13.8857C10.9152 13.9143 10.9064 13.9347 10.8847 13.9547L11.0625 14.1451C11.1372 14.0762 11.1767 13.987 11.1767 13.8857H10.9152ZM10.8812 13.958C10.8619 13.9773 10.8404 13.9867 10.8084 13.9867V14.2464C10.9072 14.2464 10.9959 14.2114 11.0661 14.1417L10.8812 13.958ZM11.9392 12.4766C12.2995 12.4766 12.5889 12.4097 12.7676 12.2408L12.5874 12.0526C12.4838 12.1505 12.2812 12.2169 11.9392 12.2169V12.4766ZM12.7665 12.2419C12.9381 12.0836 13.0251 11.883 13.0251 11.6491H12.7637C12.7637 11.8118 12.7062 11.943 12.5886 12.0515L12.7665 12.2419ZM13.0251 11.6491C13.0251 11.4151 12.9381 11.2146 12.7665 11.0563L12.5886 11.2467C12.7062 11.3551 12.7637 11.4864 12.7637 11.6491H13.0251ZM12.7676 11.0574C12.5889 10.8885 12.2995 10.8216 11.9392 10.8216V11.0813C12.2812 11.0813 12.4838 11.1477 12.5874 11.2456L12.7676 11.0574ZM11.9392 10.8216H11.0459V11.0813H11.9392V10.8216ZM10.9152 10.9514V12.3467H11.1767V10.9514H10.9152ZM11.0459 12.4766H11.9392V12.2169H11.0459V12.4766Z" fill="white"/>
<g filter="url(#filter1_d_329_723)">
<path d="M17.8893 6.62338H12.6606C11.8664 6.62338 11.2227 5.98379 11.2227 5.19481V0L17.8893 6.62338Z" fill="url(#paint2_linear_329_723)" fill-opacity="0.4"/>
</g>
</g>
</g>
<defs>
<filter id="filter0_f_329_723" x="-35.8164" y="-29.6493" width="89.6338" height="83.4546" filterUnits="userSpaceOnUse" color-interpolation-filters="sRGB">
<feFlood flood-opacity="0" result="BackgroundImageFix"/>
<feBlend mode="normal" in="SourceGraphic" in2="BackgroundImageFix" result="shape"/>
<feGaussianBlur stdDeviation="19.5" result="effect1_foregroundBlur_329_723"/>
</filter>
<filter id="filter1_d_329_723" x="-11.7773" y="-24" width="56.667" height="56.6234" filterUnits="userSpaceOnUse" color-interpolation-filters="sRGB">
<feFlood flood-opacity="0" result="BackgroundImageFix"/>
<feColorMatrix in="SourceAlpha" type="matrix" values="0 0 0 0 0 0 0 0 0 0 0 0 0 0 0 0 0 0 127 0" result="hardAlpha"/>
<feOffset dx="2" dy="1"/>
<feGaussianBlur stdDeviation="12.5"/>
<feColorMatrix type="matrix" values="0 0 0 0 0 0 0 0 0 0 0 0 0 0 0 0 0 0 0.33 0"/>
<feBlend mode="normal" in2="BackgroundImageFix" result="effect1_dropShadow_329_723"/>
<feBlend mode="normal" in="SourceGraphic" in2="effect1_dropShadow_329_723" result="shape"/>
</filter>
<linearGradient id="paint0_linear_329_723" x1="9.00022" y1="0" x2="9.00022" y2="20" gradientUnits="userSpaceOnUse">
<stop stop-color="#FF7979"/>
<stop offset="1" stop-color="#E85555"/>
</linearGradient>
<linearGradient id="paint1_linear_329_723" x1="9.00022" y1="0" x2="9.00022" y2="20" gradientUnits="userSpaceOnUse">
<stop stop-color="#2EBC89"/>
<stop offset="1" stop-color="#1DA473"/>
</linearGradient>
<linearGradient id="paint2_linear_329_723" x1="14.556" y1="0" x2="14.556" y2="6.62338" gradientUnits="userSpaceOnUse">
<stop stop-color="#23A476"/>
<stop offset="1" stop-color="#11835A"/>
</linearGradient>
<clipPath id="clip0_329_723">
<rect width="17.7778" height="20" fill="white" transform="translate(0.111328)"/>
</clipPath>
</defs>
</svg>
