<svg width="184" height="100" viewBox="0 0 184 100" fill="none" xmlns="http://www.w3.org/2000/svg">
<rect width="184" height="100" fill="white"/>
<path d="M60.9215 89.201H66.3617V65.4472H71.2978V62.0845H60.9215V89.201ZM74.2616 62.0851L71.4243 89.2016H76.7492L77.2546 81.996H79.8194L80.3248 89.2016H85.6492L82.8118 62.0851H74.2616ZM77.4482 79.0132L78.3811 65.4461H78.6917L79.624 79.0132H77.4482ZM96.5492 62.0851H92.0389C88.23 62.0851 87.9967 65.0287 87.9967 66.9277V70.7622H93.4369V66.3387C93.4369 65.642 93.9814 65.4478 94.292 65.4478C94.7979 65.4478 95.1471 65.8746 95.1471 66.3387V71.7306C95.1471 73.3963 94.6026 73.7444 93.0485 73.7444H90.7557V76.7271H92.9707C94.9909 76.7271 95.1471 77.6565 95.1471 78.5089V84.8153C95.1471 85.2812 94.7973 85.7068 94.292 85.7068C93.9814 85.7068 93.4369 85.5126 93.4369 84.8153V79.7093H87.9967V84.3584C87.9967 86.2561 88.23 89.201 92.0389 89.201H96.5492C100.359 89.201 100.592 86.2561 100.592 84.3584V78.896C100.592 77.9282 100.553 75.1384 96.9002 75.2165V74.9448C98.532 75.0224 100.592 74.2085 100.592 71.2648V66.9265C100.591 65.0282 100.359 62.0851 96.5492 62.0851ZM104.169 89.201H109.612V65.4472H111.323V89.201H116.764V62.0845H104.169V89.201ZM128.889 62.0851H120.34V89.2016H125.782V79.9816H128.889C132.698 79.9816 132.932 77.0373 132.932 75.1396V66.9277C132.932 65.0282 132.699 62.0851 128.889 62.0851ZM127.491 75.6427C127.491 76.4951 127.064 76.9988 126.481 76.9988H125.782V65.4472H126.481C127.064 65.4472 127.491 65.951 127.491 66.8028V75.6427ZM145.059 62.0851H140.551C136.743 62.0851 136.509 65.0287 136.509 66.9277V84.359C136.509 86.2567 136.743 89.2016 140.551 89.2016H145.059C148.867 89.2016 149.1 86.2567 149.1 84.359V66.9277C149.1 65.0282 148.867 62.0851 145.059 62.0851ZM143.661 84.8153C143.661 85.2812 143.311 85.7068 142.806 85.7068C142.495 85.7068 141.951 85.5126 141.951 84.8153V66.3381C141.951 65.6414 142.495 65.4472 142.806 65.4472C143.312 65.4472 143.661 65.874 143.661 66.3381V84.8153ZM166.824 62.0851L163.288 81.1442L159.75 62.0851H152.677V89.2016H158.118V72.1959H158.314L161.111 89.2016H165.464L168.262 72.1959H168.456V89.2016H173.897V62.0851H166.824ZM43.0629 52.4874C44.3337 55.5288 46.2399 58.7826 47.4799 60.3832C49.2964 58.0297 53.4747 51.0123 54.7758 41.8391C55.5015 36.7408 55.5324 32.2764 53.8678 25.0051C52.2021 17.7344 48.0268 11.8221 47.4508 10.8561C46.5428 12.2128 43.2113 17.4325 41.5183 23.2263C39.6708 29.682 39.3988 35.4119 40.036 41.0554C40.6709 46.6977 43.0629 52.4874 43.0629 52.4874ZM47.4514 58.5731C46.6336 57.0353 45.3628 54.1129 45.2417 49.5929C45.2102 45.2191 46.9668 41.4769 47.4799 40.6931C47.9371 41.4769 49.4485 44.7366 49.6284 49.201C49.7519 53.5701 48.2988 57.0045 47.4514 58.5731ZM41.5794 34.5086C41.7255 30.7421 42.608 26.875 43.0931 25.0957C44.9382 19.152 47.0285 15.3524 47.4211 14.7492C47.8142 15.353 50.4467 20.0293 51.8114 24.9471C53.1701 29.8625 53.4438 34.5696 53.3845 37.3457C53.3227 40.1201 52.9896 43.0455 52.5655 44.7964C52.7182 41.7805 52.3553 37.5269 51.6587 34.2073C50.9622 30.8883 48.9948 25.3378 47.4211 22.7723C45.9691 25.217 44.1817 30.0146 43.2452 34.1765C42.3039 38.3414 42.2766 43.3781 42.2766 44.8882C42.0278 43.6143 41.4007 39.0748 41.5794 34.5086ZM37.612 70.5497C37.6227 70.5379 37.6322 70.526 37.6434 70.5142C40.6275 67.5397 45.4673 67.5397 48.4526 70.5142C51.4366 73.4893 51.4366 78.3141 48.4526 81.2892C48.4401 81.301 48.4265 81.3111 48.4134 81.3241C48.4134 81.3247 48.4134 81.3259 48.4128 81.3271C48.3985 81.3407 48.3825 81.3519 48.3677 81.3661C45.3919 84.3128 41.501 85.7867 37.6114 85.7867C33.7045 85.7867 29.797 84.3009 26.8165 81.3306C21.5633 76.0944 20.941 67.9943 24.9453 62.0768C25.4857 61.2776 26.108 60.5164 26.8165 59.8102C29.7976 56.8399 33.7045 55.3577 37.6114 55.3577V34.991C22.5972 34.991 10.4258 47.1227 10.4258 62.0768C10.4258 77.0409 22.5972 89.1732 37.6114 89.1732C45.4394 89.1732 52.4913 85.8737 57.4523 80.5966V62.0768H37.6114V70.5497H37.612Z" fill="#0079C2"/>
</svg>
