<svg width="100" height="57" viewBox="0 0 100 57" fill="none" xmlns="http://www.w3.org/2000/svg">
<rect width="100" height="55.6962" transform="translate(0 0.367188)" fill="white"/>
<path fill-rule="evenodd" clip-rule="evenodd" d="M33.7544 39.6382H93.9836V50.0468H33.7544V39.6382ZM69.2978 41.5806C67.8893 41.5806 67.2747 42.3551 67.2747 43.3385V46.1497C67.2747 47.3954 67.9056 48.1166 69.2896 48.1166C70.6899 48.1166 71.3046 47.3954 71.3046 46.1497V43.3467C71.3046 42.3755 70.7103 41.5806 69.2978 41.5806ZM69.8107 46.4119C69.8107 46.7848 69.542 46.9692 69.2896 46.9692C69.0291 46.9692 68.7727 46.7848 68.7727 46.4119V43.2443C68.7727 42.8878 69.0291 42.7321 69.2896 42.7321C69.542 42.7321 69.8107 42.8878 69.8107 43.2443V46.4119ZM38.6336 41.7199L37.3718 45.6456H37.3636C37.3779 45.3425 37.4231 44.979 37.4691 44.6083L37.4691 44.6083C37.5276 44.1371 37.5875 43.6542 37.5875 43.2689V41.7199H36.1628V47.9691H37.6119L38.9023 44.1663H38.9104C38.8861 44.3984 38.8446 44.6752 38.8011 44.9657L38.8011 44.9657L38.8011 44.9657C38.7209 45.501 38.6336 46.0829 38.6336 46.5185V47.9691H40.0584V41.7199H38.6336ZM48.2729 44.1335V41.7199H49.7709V47.9691H48.2729V45.3137H47.2959V47.9691H45.802V41.7199H47.2959V44.1335H48.2729ZM59.2799 42.3223H59.7196C60.8593 42.3223 61.6898 43.0517 61.6898 44.8097C61.6898 46.5963 60.8593 47.3012 59.7196 47.3012H59.2799V47.9691H57.8349V47.3012H57.3952C56.2636 47.3012 55.425 46.5963 55.425 44.8097C55.425 43.0517 56.2636 42.3223 57.3952 42.3223H57.8349V41.7199H59.2799V42.3223ZM57.5418 46.1784H57.8349V43.4451H57.5255C56.9963 43.4451 56.7968 43.9245 56.7968 44.8097C56.7968 45.7153 57.0126 46.1784 57.5418 46.1784ZM59.2799 46.1784H59.5812C60.1103 46.1784 60.3179 45.7153 60.3179 44.8097C60.3179 43.9245 60.1266 43.4451 59.5974 43.4451H59.2799V46.1784ZM79.1528 41.7199H76.9831V47.9691H78.4811V45.535H79.1528C80.0361 45.535 80.9723 45.1662 80.9723 43.6254C80.9723 42.0354 80.0198 41.7199 79.1528 41.7199ZM78.7498 44.4122H78.4811V42.8427H78.7213C79.1527 42.8427 79.4743 42.9902 79.4743 43.609C79.4743 44.2278 79.1202 44.4122 78.7498 44.4122ZM90.172 41.7199L89.6876 44.2524C89.6335 44.5348 89.586 45.0236 89.5408 45.4878L89.5408 45.4881L89.5408 45.4886L89.5407 45.4889L89.5407 45.489C89.5145 45.7586 89.4891 46.0199 89.4637 46.2275H89.4433C89.4199 46.0274 89.3987 45.7952 89.3769 45.5555C89.3344 45.0886 89.2894 44.5936 89.2194 44.2524L88.735 41.7199H86.6509V47.9691H88.0797V45.7686C88.0797 44.9244 88.0267 43.4861 88.0023 43.0517H88.0105L88.9345 47.9691H89.9725L90.8966 43.0517H90.9047C90.8721 43.5762 90.8274 45.1744 90.8274 45.7768V47.9691H92.2561V41.7199H90.172Z" fill="#0079C2"/>
<path d="M29.997 14.2683C29.077 10.2155 26.773 6.9167 26.4515 6.37988C25.9508 7.13389 24.1108 10.0475 23.1787 13.2766C22.1569 16.8745 22.0063 20.0708 22.3605 23.218C22.7105 26.3651 24.0294 29.5902 24.0294 29.5902C24.7336 31.2867 25.7839 33.102 26.4677 33.9954C27.4732 32.684 29.7772 28.7706 30.4977 23.6524C30.8966 20.8125 30.9169 18.321 29.997 14.2683ZM26.4515 32.9832C26.0037 32.1267 25.2995 30.4958 25.2343 27.9756C25.214 25.5374 26.1869 23.4516 26.4677 23.0172C26.7201 23.4516 27.5546 25.271 27.6564 27.7584C27.7215 30.1966 26.9196 32.1103 26.4515 32.9832ZM29.7283 21.1486C29.6958 22.6935 29.5126 24.3244 29.2765 25.3038C29.362 23.6196 29.1625 21.2469 28.7758 19.3988C28.3932 17.5466 27.3063 14.4527 26.4352 13.0225C25.6333 14.383 24.6482 17.0589 24.1312 19.3824C23.6101 21.7018 23.5939 24.5129 23.5939 25.353C23.4595 24.644 23.1135 22.1116 23.2112 19.5668C23.2926 17.4646 23.7811 15.3091 24.0457 14.3174C25.0674 11.0023 26.2194 8.88368 26.4352 8.54765C26.655 8.88368 28.1082 11.494 28.8613 14.2355C29.6103 16.9769 29.7609 19.5996 29.7283 21.1486Z" fill="#0079C2"/>
<path d="M28.0145 34.938H21.0211V39.6629C21.0252 39.6547 21.0334 39.6506 21.0374 39.6424C22.686 37.9827 25.3564 37.9827 27.005 39.6424C28.6536 41.302 28.6536 43.9902 27.005 45.6498C26.9968 45.658 26.9887 45.6621 26.9846 45.6703C26.9765 45.6785 26.9683 45.6826 26.9602 45.6908C25.3157 47.334 23.1704 48.1577 21.0211 48.1577C18.8637 48.1577 16.7063 47.33 15.0617 45.6744C12.1634 42.7567 11.8174 38.2368 14.0278 34.938C14.3249 34.4914 14.6709 34.0693 15.0617 33.6759C16.7063 32.0203 18.8637 31.1926 21.0211 31.1926V19.8374C12.7333 19.8374 6.0127 26.603 6.0127 34.9421C6.0127 43.2854 12.7333 50.0509 21.0211 50.0509C25.3442 50.0509 29.2357 48.211 31.9752 45.2687V34.9421H28.0145V34.938Z" fill="#0079C2"/>
<path d="M33.7539 19.8501V34.9507H36.754V21.7228H39.4732V19.8501H33.7539Z" fill="#0079C2"/>
<path d="M45.6685 19.8496H40.9547L39.3916 34.9502H42.3265L42.6033 30.9384H44.0199L44.3008 34.9502H47.2357L45.6685 19.8496ZM42.7132 29.2747L43.2261 21.7223H43.3971L43.9141 29.2747H42.7132Z" fill="#0079C2"/>
<path d="M55.1206 24.9637V22.546C55.1206 21.4888 54.9944 19.8496 52.894 19.8496H50.4068C48.3064 19.8496 48.1802 21.4888 48.1802 22.546V24.681H51.1762V22.2182C51.1762 21.8289 51.4774 21.7223 51.6484 21.7223C51.9292 21.7223 52.1206 21.96 52.1206 22.2182V25.2219C52.1206 26.148 51.8193 26.3447 50.9645 26.3447H49.6985V28.0043H50.9197C52.0351 28.0043 52.1206 28.5207 52.1206 28.996V32.5079C52.1206 32.7661 51.9292 33.0037 51.6484 33.0037C51.4774 33.0037 51.1762 32.8972 51.1762 32.5079V29.664H48.1802V32.2538C48.1802 33.3111 48.3064 34.9502 50.4068 34.9502H52.894C54.9944 34.9502 55.1206 33.3111 55.1206 32.2538V29.2132C55.1206 28.6723 55.1003 27.1192 53.0853 27.1643V27.0127C53.9849 27.0536 55.1206 26.6029 55.1206 24.9637Z" fill="#0079C2"/>
<path d="M56.7002 19.8496V34.9502H59.7003V21.7223H60.6446V34.9502H63.6447V19.8496H56.7002Z" fill="#0079C2"/>
<path d="M70.1088 19.8496H65.395V34.9502H68.3951V29.8156H70.1088C72.2093 29.8156 72.3395 28.1765 72.3395 27.1192V22.546C72.3395 21.4888 72.2093 19.8496 70.1088 19.8496ZM69.3395 27.402C69.3395 27.8732 69.1034 28.156 68.7818 28.156H68.3951V21.7223H68.7818C69.1034 21.7223 69.3395 22.001 69.3395 22.4763V27.402Z" fill="#0079C2"/>
<path d="M78.5107 19.8496H76.0276C73.9271 19.8496 73.7969 21.4888 73.7969 22.546V32.2538C73.7969 33.3111 73.9271 34.9502 76.0276 34.9502H78.5107C80.6111 34.9502 80.7414 33.3111 80.7414 32.2538V22.546C80.7414 21.4888 80.6111 19.8496 78.5107 19.8496ZM77.7413 32.5079C77.7413 32.7661 77.5459 33.0037 77.2691 33.0037C77.0982 33.0037 76.7969 32.8972 76.7969 32.5079V22.2182C76.7969 21.8289 77.0982 21.7223 77.2691 21.7223C77.5459 21.7223 77.7413 21.96 77.7413 22.2182V32.5079Z" fill="#0079C2"/>
<path d="M90.0835 19.8496L88.1337 30.4631L86.1839 19.8496H82.2842V34.9502H85.2842V25.4801H85.3941L86.9369 34.9502H89.3345L90.8773 25.4801H90.9872V34.9502H93.9873V19.8496H90.0835Z" fill="#0079C2"/>
</svg>
