<svg width="136" height="136" viewBox="0 0 136 136" fill="none" xmlns="http://www.w3.org/2000/svg">
<rect width="136" height="136" rx="68" fill="white"/>
<path d="M33.5103 49.864L67.8601 30.0701L102.21 49.864V72.6364C103.181 72.2674 104.123 71.8697 105.027 71.4441V48.2361L67.8601 26.8191L30.6934 48.2361L30.695 73.061C31.595 73.4381 32.5362 73.7903 33.5119 74.1198L33.5103 49.864Z" fill="url(#paint0_linear_124_285)"/>
<path d="M102.21 89.4597L67.8678 109.254L33.5128 89.4597L33.5123 82.9805C32.5624 82.715 31.622 82.428 30.6953 82.1174L30.6959 91.0876L67.8681 112.505L105.027 91.0876V80.5486C104.107 80.8996 103.167 81.2325 102.21 81.5486V89.4597Z" fill="url(#paint1_linear_124_285)"/>
<path d="M29.708 58.8267C28.4667 59.5421 27.2423 60.2695 26.1005 61.0977C24.9538 61.9112 23.8728 62.8046 22.958 63.7952C22.0542 64.7847 21.3128 65.9001 21.06 67.0261C20.7944 68.1482 21.034 69.2073 21.6637 70.142C22.28 71.0858 23.2416 71.9087 24.3128 72.6054C25.3863 73.3069 26.5772 73.9033 27.8113 74.4225C29.0504 74.9362 30.3301 75.3921 31.6352 75.7917C32.9419 76.1894 34.273 76.5302 35.6127 76.8495C40.9902 78.0781 46.533 78.7814 52.0938 79.1846C54.8759 79.3833 57.6663 79.5204 60.4605 79.5623C63.254 79.6278 66.0509 79.616 68.8469 79.5298C71.6443 79.4687 74.4376 79.3199 77.2232 79.1116C80.0106 78.9202 82.7863 78.6217 85.5513 78.277C91.0715 77.5529 96.5639 76.5475 101.815 74.9292C104.435 74.1217 106.996 73.1425 109.333 71.8774C110.499 71.243 111.593 70.5169 112.548 69.6938C113.502 68.8696 114.274 67.9159 114.71 66.873C114.807 66.6105 114.905 66.3443 114.955 66.0706C115.014 65.7946 115.052 65.4848 115.064 65.187C115.091 64.5854 115.048 63.9718 114.907 63.377C114.633 62.1837 113.987 61.0642 113.053 60.1559C112.12 59.2444 110.926 58.5442 109.639 58.0267C108.35 57.496 106.962 57.1753 105.554 56.9192C106.984 56.87 108.432 56.9628 109.871 57.2599C111.301 57.5691 112.739 58.0987 114.002 59.0115C114.631 59.4663 115.221 60.005 115.713 60.6384C116.203 61.2714 116.613 61.982 116.901 62.7451C117.195 63.5058 117.376 64.314 117.436 65.1347C117.469 65.5485 117.47 65.9522 117.439 66.382C117.416 66.8176 117.331 67.243 117.233 67.6643C117.015 68.4988 116.667 69.2821 116.239 69.9912C115.812 70.7018 115.311 71.3414 114.777 71.9325C113.707 73.1146 112.493 74.0891 111.238 74.95C109.982 75.8156 108.675 76.5644 107.34 77.2346C106.005 77.9024 104.65 78.514 103.275 79.0531C100.524 80.1322 97.7215 81.0182 94.8883 81.7424C92.0587 82.4831 89.1985 83.0596 86.3285 83.5395C83.4589 84.0262 80.5718 84.3636 77.6834 84.6445C74.793 84.909 71.8968 85.0679 69.0008 85.1598C66.1034 85.2314 63.2025 85.222 60.3027 85.1244C57.4039 85.0037 54.505 84.821 51.6145 84.5066C48.7253 84.1861 45.8393 83.79 42.9747 83.2286C41.5421 82.9518 40.1123 82.6485 38.6901 82.3C37.269 81.9462 35.8539 81.5567 34.4476 81.1233C33.0402 80.6921 31.6476 80.195 30.2688 79.6452C28.8915 79.0895 27.5258 78.4803 26.1996 77.7562C24.8756 77.029 23.5704 76.2268 22.3605 75.2227C21.1638 74.2178 20.0042 73.0366 19.2375 71.4758C18.8559 70.7036 18.6075 69.8255 18.5491 68.9323C18.4944 68.0383 18.645 67.1397 18.9614 66.346C19.2749 65.5493 19.7249 64.8541 20.2283 64.2443C20.7354 63.6366 21.2994 63.1083 21.8923 62.6418C24.2729 60.7812 26.9837 59.6902 29.708 58.8267Z" fill="url(#paint2_linear_124_285)"/>
<path d="M68.3186 70.1286C65.4031 70.6917 63.661 73.0069 63.413 76.6471C63.3786 77.1521 63.3771 77.6765 63.4005 78.2128C63.7777 78.2156 64.1539 78.217 64.5292 78.2171C64.5046 77.7047 64.5044 77.2043 64.5371 76.7236C64.6857 74.543 65.4994 71.821 68.5322 71.235C71.8195 70.601 73.7088 73.5747 75.7093 76.7247C75.9331 77.077 76.1581 77.4306 76.3861 77.7808C76.8183 77.7483 77.2458 77.7142 77.6686 77.6786C77.3318 77.1758 76.998 76.652 76.6605 76.1206C74.5456 72.7909 72.359 69.3485 68.3186 70.1286Z" fill="url(#paint3_linear_124_285)"/>
<path d="M47.4923 70.2183C47.522 70.223 47.5516 70.2252 47.5808 70.2252C47.8532 70.2252 48.0927 70.0271 48.1366 69.7496C48.4803 67.5714 50.1733 62.2209 54.1203 57.5632C57.2102 53.9166 62.5824 49.774 70.6252 50.7523C76.3542 51.4482 79.4943 54.7655 82.2647 57.6924C83.8885 59.4079 85.2909 60.8892 86.9684 61.5329C87.2592 61.6446 87.5849 61.4991 87.6963 61.2089C87.8077 60.9184 87.6627 60.5924 87.3723 60.481C85.9333 59.9289 84.6126 58.5337 83.0831 56.9178C80.3253 54.0046 76.893 50.3787 70.7611 49.6337C62.2197 48.595 56.5298 52.9766 53.2607 56.8347C49.6921 61.046 47.526 66.3905 47.0236 69.574C46.975 69.8813 47.1849 70.1699 47.4923 70.2183Z" fill="url(#paint4_linear_124_285)"/>
<path d="M61.6142 96.99C61.721 97.0832 61.853 97.1289 61.9843 97.1289C62.1414 97.1289 62.2977 97.0637 62.4091 96.9361C62.6138 96.7014 62.5894 96.3457 62.355 96.1411C59.2291 93.4133 56.9236 90.107 55.5 86.3982C55.0856 86.3742 54.674 86.3491 54.2666 86.3223C55.7361 90.3934 58.2092 94.0187 61.6142 96.99Z" fill="url(#paint5_linear_124_285)"/>
<path d="M70.4727 87.4511C72.8844 91.1766 75.9043 93.7883 78.7581 94.6166C78.8106 94.6317 78.8634 94.6391 78.9154 94.6391C79.1597 94.6391 79.3847 94.4788 79.4562 94.2326C79.5429 93.9338 79.371 93.621 79.0722 93.5344C76.1514 92.6866 73.3031 89.8529 71.2438 86.5532C70.8099 86.5696 70.3771 86.584 69.9453 86.5968C70.1154 86.8831 70.2896 87.1684 70.4727 87.4511Z" fill="url(#paint6_linear_124_285)"/>
<path d="M62.7009 88.8469C64.9085 92.7762 68.1832 96.0369 71.461 97.5694C71.538 97.6054 71.6191 97.6225 71.6992 97.6225C71.911 97.6225 72.114 97.5025 72.2098 97.2976C72.3415 97.0159 72.2199 96.6806 71.938 96.5488C68.707 95.038 65.0588 91.4035 62.85 86.6558C62.4313 86.6504 62.0141 86.6439 61.5996 86.6355C61.9548 87.447 62.3305 88.1876 62.7009 88.8469Z" fill="url(#paint7_linear_124_285)"/>
<path d="M75.3108 96.4829C75.3708 96.503 75.4316 96.5129 75.4915 96.5129C75.7265 96.5129 75.9454 96.3649 76.0252 96.13C76.1251 95.8353 75.9672 95.5157 75.6723 95.4156C72.0937 94.2025 68.9624 90.6768 66.9336 86.6584C66.5075 86.6633 66.0827 86.6668 65.6597 86.6685C67.7811 91.1244 71.2249 95.0978 75.3108 96.4829Z" fill="url(#paint8_linear_124_285)"/>
<path d="M50.4975 73.8739C51.2683 68.7119 53.3275 64.0844 56.2954 60.8441C59.5325 57.3101 63.7844 55.4419 68.5914 55.4419C76.6958 55.4417 80.0161 59.8612 82.4405 63.088C84.1826 65.4073 85.6881 67.408 88.2421 66.5638C88.5372 66.4661 88.6976 66.1473 88.5997 65.8518C88.502 65.5567 88.1843 65.3963 87.8878 65.4942C86.1806 66.0603 85.155 64.8252 83.3414 62.4113C80.7743 58.9944 77.2584 54.3149 68.5914 54.3152C58.6818 54.3155 51.1422 61.9274 49.3831 73.7078C49.2026 74.9164 49.1197 76.1486 49.1291 77.4012C49.5036 77.4434 49.879 77.4839 50.2555 77.5226C50.2393 76.2831 50.3195 75.0661 50.4975 73.8739Z" fill="url(#paint9_linear_124_285)"/>
<path d="M67.2401 97.9503C67.3301 98.0036 67.4287 98.0287 67.5261 98.0287C67.7189 98.0287 67.9067 97.9296 68.0117 97.7517C68.1699 97.4837 68.0811 97.1385 67.8131 96.9803C64.4943 95.0203 61.0861 91.4797 59.133 86.5665C58.7211 86.552 58.3113 86.5364 57.9048 86.519C59.9267 91.93 63.6348 95.8213 67.2401 97.9503Z" fill="url(#paint10_linear_124_285)"/>
<path d="M71.1152 74.8123C70.2938 74.321 69.2955 74.2998 68.4463 74.7557C67.5931 75.2134 67.0564 76.061 67.0107 77.0229C66.9928 77.4004 66.9987 77.7934 67.0264 78.1986C67.4044 78.1928 67.7812 78.186 68.1562 78.1776C68.1271 77.7969 68.1194 77.4284 68.1361 77.0763C68.1629 76.5137 68.4779 76.0172 68.9791 75.7485C69.4759 75.4813 70.0588 75.4937 70.5372 75.7795C71.3926 76.2907 72.1422 77.0791 72.8599 78.0038C73.3133 77.9803 73.7643 77.9557 74.2101 77.9288C73.2948 76.6708 72.3048 75.5232 71.1152 74.8123Z" fill="url(#paint11_linear_124_285)"/>
<path d="M50.5884 86.0203C50.9887 87.2689 51.4667 88.5309 52.0311 89.8064C52.1244 90.0168 52.3306 90.142 52.5466 90.142C52.6228 90.142 52.7003 90.1263 52.7744 90.0935C53.0589 89.9676 53.1875 89.6347 53.0616 89.3503C52.5834 88.2697 52.1684 87.1997 51.812 86.1404C51.7072 86.1318 51.6012 86.1235 51.4969 86.1147C51.1963 86.084 50.8933 86.0525 50.5884 86.0203Z" fill="url(#paint12_linear_124_285)"/>
<path d="M57.8559 73.2415C58.7014 68.0366 62.8689 63.9922 67.9905 63.4066C73.6685 62.7563 76.4211 66.7412 78.8485 70.2565C80.5097 72.6625 81.9443 74.7402 84.0762 75.031C85.4019 75.2114 86.8252 74.6505 88.4256 73.3152C88.6647 73.1161 88.6966 72.7607 88.4972 72.5219C88.2977 72.2826 87.9426 72.2512 87.7038 72.4504C86.36 73.5716 85.2236 74.0519 84.2283 73.9144C82.5891 73.691 81.2852 71.8028 79.7755 69.6164C77.2972 66.0273 74.214 61.5577 67.8625 62.287C62.2419 62.9298 57.6697 67.3601 56.7438 73.0611C56.4644 74.7814 56.3481 76.4261 56.3625 77.9978C56.7386 78.0183 57.1147 78.0374 57.4909 78.0549C57.4724 76.5246 57.5832 74.9211 57.8559 73.2415Z" fill="url(#paint13_linear_124_285)"/>
<path d="M53.9845 73.8352C54.3857 70.1003 56.0887 66.6111 58.7796 64.0104C61.4853 61.3951 65.0209 59.8503 68.7351 59.6599C75.3469 59.3185 78.183 63.5213 80.4646 66.8961C81.8783 68.9873 83.0991 70.793 84.921 71.1426C85.9961 71.3492 87.1528 71.0166 88.4592 70.1275C88.7164 69.9526 88.7833 69.6021 88.608 69.3449C88.4334 69.0883 88.0832 69.0209 87.8254 69.1961C86.7793 69.9077 85.899 70.1823 85.1334 70.0359C83.7706 69.7746 82.6711 68.1483 81.398 66.265C79.0864 62.8457 75.9174 58.1604 68.6774 58.5348C64.6913 58.7389 60.8982 60.3958 57.9965 63.2C55.1162 65.9839 53.2935 69.7179 52.8641 73.7147C52.7172 75.0821 52.6627 76.4278 52.6942 77.7483C53.0699 77.7792 53.4463 77.8083 53.8231 77.8359C53.7862 76.5275 53.8387 75.1924 53.9845 73.8352Z" fill="url(#paint14_linear_124_285)"/>
<path d="M88.2046 75.7941C87.9934 75.5652 87.6369 75.5517 87.4085 75.7627C87.054 76.0903 86.7125 76.3756 86.3818 76.6239C87.0152 76.5213 87.6688 76.4115 88.3412 76.2926C88.3774 76.1202 88.3334 75.9334 88.2046 75.7941Z" fill="url(#paint15_linear_124_285)"/>
<path d="M61.0757 74.6424C61.6993 70.8508 64.7147 67.9148 68.4084 67.5024C72.9394 66.9979 75.298 70.4891 77.5796 73.8663C78.4778 75.1959 79.3501 76.4826 80.3256 77.4284C80.8525 77.3733 81.3692 77.3157 81.876 77.2559C80.703 76.4721 79.6653 74.9406 78.5135 73.2356C76.2754 69.9235 73.4874 65.8005 68.2835 66.3828C64.0902 66.8508 60.6691 70.1719 59.9638 74.4597C59.7544 75.733 59.6751 76.9624 59.6948 78.1411C60.073 78.153 60.4507 78.1636 60.8281 78.1727C60.8046 77.0167 60.8791 75.8377 61.0757 74.6424Z" fill="url(#paint16_linear_124_285)"/>
<path d="M57.5591 45.3089C57.6617 45.3089 57.7657 45.2808 57.8589 45.2222C60.616 43.4842 63.9812 42.542 67.861 42.4221C71.085 42.522 73.9616 43.1896 76.411 44.4071C76.6894 44.5458 77.0278 44.4319 77.1664 44.1535C77.3048 43.8748 77.1912 43.5365 76.9128 43.3981C74.3124 42.1057 71.2726 41.3982 67.8781 41.2953C67.8668 41.2948 67.8552 41.2948 67.844 41.2953C63.7533 41.4191 60.1917 42.4196 57.2582 44.269C56.9949 44.4349 56.9161 44.7826 57.082 45.0459C57.1891 45.2159 57.372 45.3089 57.5591 45.3089Z" fill="url(#paint17_linear_124_285)"/>
<path d="M84.7237 85.4409C83.3594 85.6203 81.9887 85.7782 80.6162 85.9155C81.788 86.1796 83.136 86.0778 84.7237 85.4409Z" fill="url(#paint18_linear_124_285)"/>
<path d="M48.6255 58.4523C48.7067 58.493 48.793 58.5123 48.878 58.5123C49.0842 58.5123 49.283 58.3987 49.3819 58.2017C52.8517 51.2948 59.4191 46.9115 66.95 46.4764C74.4348 46.042 81.4845 49.7141 85.805 56.2942C85.9759 56.5545 86.3255 56.6266 86.5852 56.456C86.8454 56.2852 86.9178 55.9358 86.7469 55.6759C82.2028 48.7549 74.7784 44.8954 66.8849 45.3515C58.9474 45.8101 52.0278 50.425 48.3751 57.6961C48.2353 57.9739 48.3475 58.3126 48.6255 58.4523Z" fill="url(#paint19_linear_124_285)"/>
<path d="M82.6669 90.9104C82.6889 90.9132 82.7109 90.9143 82.7326 90.9143C83.0146 90.9143 83.2581 90.7027 83.2913 90.4158C83.3274 90.1069 83.1059 89.8271 82.7967 89.7913C80.1258 89.4812 77.9298 88.0502 76.1899 86.2891C75.7052 86.3227 75.2209 86.3543 74.7373 86.3833C76.7165 88.6057 79.3435 90.5246 82.6669 90.9104Z" fill="url(#paint20_linear_124_285)"/>
<defs>
<linearGradient id="paint0_linear_124_285" x1="64.9072" y1="22.4107" x2="68.9892" y2="75.2559" gradientUnits="userSpaceOnUse">
<stop stop-color="#79C8FF"/>
<stop offset="0.344283" stop-color="#009FFF"/>
<stop offset="0.579939" stop-color="#009DFC"/>
<stop offset="0.721293" stop-color="#0098F4"/>
<stop offset="0.837788" stop-color="#008FE6"/>
<stop offset="0.940108" stop-color="#0083D2"/>
<stop offset="1" stop-color="#0079C2"/>
</linearGradient>
<linearGradient id="paint1_linear_124_285" x1="67.861" y1="112.505" x2="67.861" y2="26.8191" gradientUnits="userSpaceOnUse">
<stop stop-color="#1E467E"/>
<stop offset="0.0912814" stop-color="#1C4C86"/>
<stop offset="0.23648" stop-color="#175C9D"/>
<stop offset="0.417398" stop-color="#0E76C3"/>
<stop offset="0.625242" stop-color="#0299F7"/>
<stop offset="0.655717" stop-color="#009FFF"/>
<stop offset="1" stop-color="#009FFF" stop-opacity="0.5"/>
</linearGradient>
<linearGradient id="paint2_linear_124_285" x1="66.9182" y1="53.1271" x2="69.4056" y2="85.3287" gradientUnits="userSpaceOnUse">
<stop stop-color="#79C8FF"/>
<stop offset="0.344283" stop-color="#009FFF"/>
<stop offset="0.579939" stop-color="#009DFC"/>
<stop offset="0.721293" stop-color="#0098F4"/>
<stop offset="0.837788" stop-color="#008FE6"/>
<stop offset="0.940108" stop-color="#0083D2"/>
<stop offset="1" stop-color="#0079C2"/>
</linearGradient>
<linearGradient id="paint3_linear_124_285" x1="70.5267" y1="98.0286" x2="70.5267" y2="41.2949" gradientUnits="userSpaceOnUse">
<stop stop-color="#1E467E"/>
<stop offset="0.0912814" stop-color="#1C4C86"/>
<stop offset="0.23648" stop-color="#175C9D"/>
<stop offset="0.417398" stop-color="#0E76C3"/>
<stop offset="0.625242" stop-color="#0299F7"/>
<stop offset="0.655717" stop-color="#009FFF"/>
<stop offset="1" stop-color="#009FFF" stop-opacity="0.5"/>
</linearGradient>
<linearGradient id="paint4_linear_124_285" x1="67.3752" y1="98.0286" x2="67.3752" y2="41.2949" gradientUnits="userSpaceOnUse">
<stop stop-color="#1E467E"/>
<stop offset="0.0912814" stop-color="#1C4C86"/>
<stop offset="0.23648" stop-color="#175C9D"/>
<stop offset="0.417398" stop-color="#0E76C3"/>
<stop offset="0.625242" stop-color="#0299F7"/>
<stop offset="0.655717" stop-color="#009FFF"/>
<stop offset="1" stop-color="#009FFF" stop-opacity="0.5"/>
</linearGradient>
<linearGradient id="paint5_linear_124_285" x1="58.4073" y1="98.0287" x2="58.4073" y2="41.295" gradientUnits="userSpaceOnUse">
<stop stop-color="#1E467E"/>
<stop offset="0.0912814" stop-color="#1C4C86"/>
<stop offset="0.23648" stop-color="#175C9D"/>
<stop offset="0.417398" stop-color="#0E76C3"/>
<stop offset="0.625242" stop-color="#0299F7"/>
<stop offset="0.655717" stop-color="#009FFF"/>
<stop offset="1" stop-color="#009FFF" stop-opacity="0.5"/>
</linearGradient>
<linearGradient id="paint6_linear_124_285" x1="74.712" y1="98.0288" x2="74.712" y2="41.295" gradientUnits="userSpaceOnUse">
<stop stop-color="#1E467E"/>
<stop offset="0.0912814" stop-color="#1C4C86"/>
<stop offset="0.23648" stop-color="#175C9D"/>
<stop offset="0.417398" stop-color="#0E76C3"/>
<stop offset="0.625242" stop-color="#0299F7"/>
<stop offset="0.655717" stop-color="#009FFF"/>
<stop offset="1" stop-color="#009FFF" stop-opacity="0.5"/>
</linearGradient>
<linearGradient id="paint7_linear_124_285" x1="66.9313" y1="98.0288" x2="66.9313" y2="41.295" gradientUnits="userSpaceOnUse">
<stop stop-color="#1E467E"/>
<stop offset="0.0912814" stop-color="#1C4C86"/>
<stop offset="0.23648" stop-color="#175C9D"/>
<stop offset="0.417398" stop-color="#0E76C3"/>
<stop offset="0.625242" stop-color="#0299F7"/>
<stop offset="0.655717" stop-color="#009FFF"/>
<stop offset="1" stop-color="#009FFF" stop-opacity="0.5"/>
</linearGradient>
<linearGradient id="paint8_linear_124_285" x1="70.8574" y1="98.0286" x2="70.8574" y2="41.2949" gradientUnits="userSpaceOnUse">
<stop stop-color="#1E467E"/>
<stop offset="0.0912814" stop-color="#1C4C86"/>
<stop offset="0.23648" stop-color="#175C9D"/>
<stop offset="0.417398" stop-color="#0E76C3"/>
<stop offset="0.625242" stop-color="#0299F7"/>
<stop offset="0.655717" stop-color="#009FFF"/>
<stop offset="1" stop-color="#009FFF" stop-opacity="0.5"/>
</linearGradient>
<linearGradient id="paint9_linear_124_285" x1="68.8784" y1="98.0286" x2="68.8784" y2="41.2949" gradientUnits="userSpaceOnUse">
<stop stop-color="#1E467E"/>
<stop offset="0.0912814" stop-color="#1C4C86"/>
<stop offset="0.23648" stop-color="#175C9D"/>
<stop offset="0.417398" stop-color="#0E76C3"/>
<stop offset="0.625242" stop-color="#0299F7"/>
<stop offset="0.655717" stop-color="#009FFF"/>
<stop offset="1" stop-color="#009FFF" stop-opacity="0.5"/>
</linearGradient>
<linearGradient id="paint10_linear_124_285" x1="62.9974" y1="98.0287" x2="62.9974" y2="41.2949" gradientUnits="userSpaceOnUse">
<stop stop-color="#1E467E"/>
<stop offset="0.0912814" stop-color="#1C4C86"/>
<stop offset="0.23648" stop-color="#175C9D"/>
<stop offset="0.417398" stop-color="#0E76C3"/>
<stop offset="0.625242" stop-color="#0299F7"/>
<stop offset="0.655717" stop-color="#009FFF"/>
<stop offset="1" stop-color="#009FFF" stop-opacity="0.5"/>
</linearGradient>
<linearGradient id="paint11_linear_124_285" x1="70.6053" y1="98.0287" x2="70.6053" y2="41.2949" gradientUnits="userSpaceOnUse">
<stop stop-color="#1E467E"/>
<stop offset="0.0912814" stop-color="#1C4C86"/>
<stop offset="0.23648" stop-color="#175C9D"/>
<stop offset="0.417398" stop-color="#0E76C3"/>
<stop offset="0.625242" stop-color="#0299F7"/>
<stop offset="0.655717" stop-color="#009FFF"/>
<stop offset="1" stop-color="#009FFF" stop-opacity="0.5"/>
</linearGradient>
<linearGradient id="paint12_linear_124_285" x1="51.8491" y1="98.0287" x2="51.8491" y2="41.295" gradientUnits="userSpaceOnUse">
<stop stop-color="#1E467E"/>
<stop offset="0.0912814" stop-color="#1C4C86"/>
<stop offset="0.23648" stop-color="#175C9D"/>
<stop offset="0.417398" stop-color="#0E76C3"/>
<stop offset="0.625242" stop-color="#0299F7"/>
<stop offset="0.655717" stop-color="#009FFF"/>
<stop offset="1" stop-color="#009FFF" stop-opacity="0.5"/>
</linearGradient>
<linearGradient id="paint13_linear_124_285" x1="72.4947" y1="98.0286" x2="72.4947" y2="41.2949" gradientUnits="userSpaceOnUse">
<stop stop-color="#1E467E"/>
<stop offset="0.0912814" stop-color="#1C4C86"/>
<stop offset="0.23648" stop-color="#175C9D"/>
<stop offset="0.417398" stop-color="#0E76C3"/>
<stop offset="0.625242" stop-color="#0299F7"/>
<stop offset="0.655717" stop-color="#009FFF"/>
<stop offset="1" stop-color="#009FFF" stop-opacity="0.5"/>
</linearGradient>
<linearGradient id="paint14_linear_124_285" x1="70.6957" y1="98.0286" x2="70.6957" y2="41.2949" gradientUnits="userSpaceOnUse">
<stop stop-color="#1E467E"/>
<stop offset="0.0912814" stop-color="#1C4C86"/>
<stop offset="0.23648" stop-color="#175C9D"/>
<stop offset="0.417398" stop-color="#0E76C3"/>
<stop offset="0.625242" stop-color="#0299F7"/>
<stop offset="0.655717" stop-color="#009FFF"/>
<stop offset="1" stop-color="#009FFF" stop-opacity="0.5"/>
</linearGradient>
<linearGradient id="paint15_linear_124_285" x1="87.3676" y1="98.0286" x2="87.3676" y2="41.2949" gradientUnits="userSpaceOnUse">
<stop stop-color="#1E467E"/>
<stop offset="0.0912814" stop-color="#1C4C86"/>
<stop offset="0.23648" stop-color="#175C9D"/>
<stop offset="0.417398" stop-color="#0E76C3"/>
<stop offset="0.625242" stop-color="#0299F7"/>
<stop offset="0.655717" stop-color="#009FFF"/>
<stop offset="1" stop-color="#009FFF" stop-opacity="0.5"/>
</linearGradient>
<linearGradient id="paint16_linear_124_285" x1="70.784" y1="98.0287" x2="70.784" y2="41.2949" gradientUnits="userSpaceOnUse">
<stop stop-color="#1E467E"/>
<stop offset="0.0912814" stop-color="#1C4C86"/>
<stop offset="0.23648" stop-color="#175C9D"/>
<stop offset="0.417398" stop-color="#0E76C3"/>
<stop offset="0.625242" stop-color="#0299F7"/>
<stop offset="0.655717" stop-color="#009FFF"/>
<stop offset="1" stop-color="#009FFF" stop-opacity="0.5"/>
</linearGradient>
<linearGradient id="paint17_linear_124_285" x1="67.1102" y1="98.0287" x2="67.1102" y2="41.2949" gradientUnits="userSpaceOnUse">
<stop stop-color="#1E467E"/>
<stop offset="0.0912814" stop-color="#1C4C86"/>
<stop offset="0.23648" stop-color="#175C9D"/>
<stop offset="0.417398" stop-color="#0E76C3"/>
<stop offset="0.625242" stop-color="#0299F7"/>
<stop offset="0.655717" stop-color="#009FFF"/>
<stop offset="1" stop-color="#009FFF" stop-opacity="0.5"/>
</linearGradient>
<linearGradient id="paint18_linear_124_285" x1="82.6699" y1="98.0288" x2="82.6699" y2="41.295" gradientUnits="userSpaceOnUse">
<stop stop-color="#1E467E"/>
<stop offset="0.0912814" stop-color="#1C4C86"/>
<stop offset="0.23648" stop-color="#175C9D"/>
<stop offset="0.417398" stop-color="#0E76C3"/>
<stop offset="0.625242" stop-color="#0299F7"/>
<stop offset="0.655717" stop-color="#009FFF"/>
<stop offset="1" stop-color="#009FFF" stop-opacity="0.5"/>
</linearGradient>
<linearGradient id="paint19_linear_124_285" x1="67.5772" y1="98.0287" x2="67.5772" y2="41.2949" gradientUnits="userSpaceOnUse">
<stop stop-color="#1E467E"/>
<stop offset="0.0912814" stop-color="#1C4C86"/>
<stop offset="0.23648" stop-color="#175C9D"/>
<stop offset="0.417398" stop-color="#0E76C3"/>
<stop offset="0.625242" stop-color="#0299F7"/>
<stop offset="0.655717" stop-color="#009FFF"/>
<stop offset="1" stop-color="#009FFF" stop-opacity="0.5"/>
</linearGradient>
<linearGradient id="paint20_linear_124_285" x1="79.0162" y1="98.0286" x2="79.0162" y2="41.2948" gradientUnits="userSpaceOnUse">
<stop stop-color="#1E467E"/>
<stop offset="0.0912814" stop-color="#1C4C86"/>
<stop offset="0.23648" stop-color="#175C9D"/>
<stop offset="0.417398" stop-color="#0E76C3"/>
<stop offset="0.625242" stop-color="#0299F7"/>
<stop offset="0.655717" stop-color="#009FFF"/>
<stop offset="1" stop-color="#009FFF" stop-opacity="0.5"/>
</linearGradient>
</defs>
</svg>
