<svg width="18" height="25" viewBox="0 0 18 25" fill="none" xmlns="http://www.w3.org/2000/svg">
<g clip-path="url(#clip0_16_873)">
<mask id="mask0_16_873" style="mask-type:alpha" maskUnits="userSpaceOnUse" x="0" y="1" width="18" height="21">
<path d="M16.5441 21.5H1.45588C0.651821 21.5 0 20.8604 0 20.0714V2.92857C0 2.13959 0.651821 1.5 1.45588 1.5H11.25L18 8.12338V20.0714C18 20.8604 17.3482 21.5 16.5441 21.5Z" fill="url(#paint0_linear_16_873)"/>
</mask>
<g mask="url(#mask0_16_873)">
<path d="M16.5441 21.5H1.45588C0.651821 21.5 0 20.8604 0 20.0714V2.92857C0 2.13959 0.651821 1.5 1.45588 1.5H11.25L18 8.12338V20.0714C18 20.8604 17.3482 21.5 16.5441 21.5Z" fill="url(#paint1_linear_16_873)"/>
<g opacity="0.27" filter="url(#filter0_f_16_873)">
<g style="mix-blend-mode:darken" opacity="0.27">
<path d="M14.9557 11.1753H3.17627V16.6298H14.9557V11.1753Z" fill="#0079C2"/>
</g>
</g>
<path d="M3.47451 15.5909C3.40829 15.5909 3.35253 15.5687 3.30722 15.5242C3.26191 15.4798 3.23926 15.4251 3.23926 15.3601V12.2463C3.23926 12.1813 3.26191 12.1266 3.30722 12.0821C3.35253 12.0342 3.40829 12.0103 3.47451 12.0103H4.52533C4.92265 12.0103 5.25898 12.0975 5.53432 12.2719C5.81315 12.4429 6.02226 12.6652 6.16168 12.9388C6.30109 13.2124 6.37079 13.4996 6.37079 13.8006C6.37079 14.1016 6.30109 14.3889 6.16168 14.6624C6.02226 14.936 5.81315 15.16 5.53432 15.3344C5.25898 15.5054 4.92265 15.5909 4.52533 15.5909H3.47451ZM4.46782 15.1549C4.75362 15.1549 5.00456 15.0985 5.22065 14.9856C5.43673 14.8693 5.60403 14.7103 5.72253 14.5085C5.84103 14.3033 5.90028 14.0674 5.90028 13.8006C5.90028 13.5339 5.84103 13.2996 5.72253 13.0978C5.60403 12.8926 5.43673 12.7336 5.22065 12.6207C5.00456 12.5044 4.75362 12.4463 4.46782 12.4463H3.715V15.1549H4.46782ZM9.14674 15.6422C8.78078 15.6422 8.46009 15.5636 8.1848 15.4063C7.90944 15.2489 7.69681 15.0318 7.54699 14.7548C7.3971 14.4778 7.31868 14.1597 7.31173 13.8006C7.31868 13.4415 7.3971 13.1235 7.54699 12.8465C7.69681 12.5694 7.90944 12.3523 8.1848 12.195C8.46009 12.0376 8.78078 11.959 9.14674 11.959C9.51269 11.959 9.8316 12.0376 10.1035 12.195C10.3787 12.3523 10.5914 12.5711 10.7413 12.8516C10.8946 13.1286 10.9747 13.445 10.9817 13.8006C10.9747 14.1563 10.8946 14.4743 10.7413 14.7548C10.5914 15.0318 10.3787 15.2489 10.1035 15.4063C9.8316 15.5636 9.51269 15.6422 9.14674 15.6422ZM9.14674 15.2062C9.42554 15.2062 9.66775 15.1446 9.87342 15.0215C10.079 14.8984 10.2359 14.7308 10.3439 14.5188C10.4519 14.3068 10.506 14.0674 10.506 13.8006C10.506 13.5339 10.4519 13.2944 10.3439 13.0824C10.2359 12.8704 10.079 12.7028 9.87342 12.5797C9.66775 12.4566 9.42554 12.395 9.14674 12.395C8.86443 12.395 8.62044 12.4566 8.41483 12.5797C8.21266 12.7028 8.05754 12.8704 7.94954 13.0824C7.84147 13.2944 7.78747 13.5339 7.78747 13.8006C7.78747 14.0674 7.84147 14.3068 7.94954 14.5188C8.05754 14.7308 8.21266 14.8984 8.41483 15.0215C8.62044 15.1446 8.86443 15.2062 9.14674 15.2062ZM13.75 15.6422C13.4015 15.6422 13.0878 15.5687 12.809 15.4216C12.5337 15.2712 12.3159 15.0574 12.1555 14.7804C11.9987 14.5 11.9203 14.1734 11.9203 13.8006C11.9203 13.4278 11.9987 13.1029 12.1555 12.8259C12.3159 12.5455 12.5337 12.3318 12.809 12.1847C13.0878 12.0342 13.4015 11.959 13.75 11.959C13.987 11.959 14.1979 11.9863 14.3826 12.0411C14.5708 12.0958 14.7573 12.1744 14.942 12.277C15.0187 12.3181 15.057 12.3831 15.057 12.472C15.057 12.5233 15.0378 12.5694 14.9995 12.6105C14.9612 12.6481 14.9106 12.6669 14.8479 12.6669C14.813 12.6669 14.7817 12.6601 14.7538 12.6464C14.6005 12.5678 14.4506 12.5079 14.3042 12.4668C14.1578 12.4258 13.9888 12.4053 13.7971 12.4053C13.4974 12.4053 13.2412 12.4668 13.0286 12.59C12.8195 12.7096 12.6609 12.8755 12.5528 13.0876C12.4483 13.2962 12.396 13.5339 12.396 13.8006C12.396 14.0674 12.4483 14.3068 12.5528 14.5188C12.6609 14.7274 12.8195 14.8933 13.0286 15.0164C13.2412 15.1361 13.4974 15.1959 13.7971 15.1959C13.9888 15.1959 14.1578 15.1754 14.3042 15.1344C14.4506 15.0933 14.6005 15.0335 14.7538 14.9548C14.7817 14.9411 14.813 14.9343 14.8479 14.9343C14.9106 14.9343 14.9612 14.9531 14.9995 14.9907C15.0378 15.0283 15.057 15.0745 15.057 15.1292C15.057 15.2181 15.0187 15.2831 14.942 15.3242C14.7573 15.4268 14.5708 15.5054 14.3826 15.5602C14.1979 15.6149 13.987 15.6422 13.75 15.6422Z" fill="white"/>
<path d="M3.30725 15.5242L3.40084 15.4324L3.30725 15.5242ZM3.30725 12.0821L3.40084 12.1739L3.40257 12.1722L3.40424 12.1705L3.30725 12.0821ZM5.53435 12.2719L5.46257 12.381L5.46338 12.3815L5.46421 12.382L5.53435 12.2719ZM6.16171 12.9388L6.04333 12.9968L6.16171 12.9388ZM6.16171 14.6624L6.04333 14.6044L6.16171 14.6624ZM5.53435 15.3344L5.60513 15.4442L5.6055 15.4439L5.53435 15.3344ZM5.22068 14.9856L5.28286 15.1002L5.28359 15.0999L5.28432 15.0995L5.22068 14.9856ZM5.72256 14.5085L5.83724 14.5734L5.83747 14.5729L5.83771 14.5725L5.72256 14.5085ZM5.72256 13.0978L5.60741 13.1618L5.60764 13.1622L5.60789 13.1627L5.72256 13.0978ZM5.22068 12.6207L5.15703 12.7346L5.15776 12.735L5.15849 12.7353L5.22068 12.6207ZM3.71503 12.4463V12.3164H3.58268V12.4463H3.71503ZM3.71503 15.1549H3.58268V15.2848H3.71503V15.1549ZM3.47454 15.4611C3.44211 15.4611 3.42041 15.4516 3.40084 15.4324L3.21366 15.6161C3.2847 15.6858 3.37453 15.7208 3.47454 15.7208V15.4611ZM3.40084 15.4324C3.38126 15.4132 3.37164 15.3919 3.37164 15.3601H3.10693C3.10693 15.4582 3.14262 15.5464 3.21366 15.6161L3.40084 15.4324ZM3.37164 15.3601V12.2462H3.10693V15.3601H3.37164ZM3.37164 12.2462C3.37164 12.2144 3.38126 12.1931 3.40084 12.1739L3.21366 11.9903C3.14262 12.0599 3.10693 12.1481 3.10693 12.2462H3.37164ZM3.40424 12.1705C3.42466 12.1489 3.44536 12.1401 3.47454 12.1401V11.8804C3.37129 11.8804 3.28045 11.9196 3.21026 11.9937L3.40424 12.1705ZM3.47454 12.1401H4.52536V11.8804H3.47454V12.1401ZM4.52536 12.1401C4.90267 12.1401 5.21279 12.2228 5.46257 12.381L5.60613 12.1628C5.30524 11.9722 4.9427 11.8804 4.52536 11.8804V12.1401ZM5.46421 12.382C5.72356 12.541 5.91541 12.7459 6.04333 12.9968L6.28009 12.8807C6.12918 12.5846 5.9028 12.3447 5.6045 12.1618L5.46421 12.382ZM6.04333 12.9968C6.1737 13.2527 6.23847 13.5201 6.23847 13.8006H6.50318C6.50318 13.4792 6.42853 13.172 6.28009 12.8807L6.04333 12.9968ZM6.23847 13.8006C6.23847 14.0811 6.1737 14.3485 6.04333 14.6044L6.28009 14.7205C6.42853 14.4292 6.50318 14.122 6.50318 13.8006H6.23847ZM6.04333 14.6044C5.91528 14.8556 5.72311 15.0623 5.46321 15.2249L5.6055 15.4439C5.90325 15.2577 6.12931 15.0164 6.28009 14.7205L6.04333 14.6044ZM5.46357 15.2247C5.21363 15.3799 4.90314 15.4611 4.52536 15.4611V15.7208C4.94223 15.7208 5.3044 15.6309 5.60513 15.4442L5.46357 15.2247ZM4.52536 15.4611H3.47454V15.7208H4.52536V15.4611ZM4.46785 15.2848C4.77169 15.2848 5.04465 15.2246 5.28286 15.1002L5.15849 14.871C4.96452 14.9723 4.7356 15.025 4.46785 15.025V15.2848ZM5.28432 15.0995C5.52082 14.9722 5.70615 14.7966 5.83724 14.5734L5.60789 14.4436C5.50197 14.624 5.35271 14.7664 5.15703 14.8717L5.28432 15.0995ZM5.83771 14.5725C5.9689 14.3454 6.03266 14.0868 6.03266 13.8006H5.76796C5.76796 14.0479 5.71322 14.2612 5.60741 14.4445L5.83771 14.5725ZM6.03266 13.8006C6.03266 13.5144 5.96891 13.2572 5.83724 13.0329L5.60789 13.1627C5.71321 13.342 5.76796 13.5533 5.76796 13.8006H6.03266ZM5.83771 13.0338C5.70657 12.8067 5.52071 12.6303 5.28286 12.5061L5.15849 12.7353C5.35282 12.8368 5.50154 12.9785 5.60741 13.1618L5.83771 13.0338ZM5.28432 12.5068C5.04581 12.3785 4.77232 12.3164 4.46785 12.3164V12.5762C4.73498 12.5762 4.96337 12.6304 5.15703 12.7346L5.28432 12.5068ZM4.46785 12.3164H3.71503V12.5762H4.46785V12.3164ZM3.58268 12.4463V15.1549H3.84738V12.4463H3.58268ZM3.71503 15.2848H4.46785V15.025H3.71503V15.2848ZM8.18483 15.4062L8.2514 15.294L8.18483 15.4062ZM7.54702 14.7548L7.43008 14.8157L7.54702 14.7548ZM7.31176 13.8006L7.17941 13.7981L7.17934 13.8006L7.17941 13.8031L7.31176 13.8006ZM7.54702 12.8464L7.66388 12.9073L7.54702 12.8464ZM8.18483 12.1949L8.11819 12.0827L8.18483 12.1949ZM10.1035 12.1949L10.0362 12.3068L10.0368 12.3072L10.1035 12.1949ZM10.7413 12.8516L10.624 12.9119L10.6245 12.9127L10.625 12.9136L10.7413 12.8516ZM10.9818 13.8006L11.1141 13.8031L11.1141 13.8006L11.1141 13.7981L10.9818 13.8006ZM10.7413 14.7548L10.6246 14.6933L10.6244 14.6938L10.7413 14.7548ZM10.1035 15.4062L10.0368 15.294L10.0362 15.2944L10.1035 15.4062ZM9.87345 15.0215L9.80449 14.9107L9.87345 15.0215ZM10.344 14.5188L10.4623 14.5768L10.344 14.5188ZM10.344 13.0824L10.4623 13.0244L10.344 13.0824ZM9.87345 12.5797L9.80449 12.6905L9.87345 12.5797ZM8.41486 12.5797L8.3459 12.4688L8.34544 12.4691L8.34504 12.4694L8.41486 12.5797ZM7.94957 13.0824L7.83118 13.0244L7.94957 13.0824ZM7.94957 14.5188L7.83118 14.5768L7.94957 14.5188ZM8.41486 15.0215L8.34504 15.1318L8.34544 15.1321L8.3459 15.1323L8.41486 15.0215ZM9.14677 15.5123C8.80066 15.5123 8.50366 15.4381 8.2514 15.294L8.11819 15.5185C8.41658 15.689 8.76089 15.7721 9.14677 15.7721V15.5123ZM8.2514 15.294C7.99741 15.1489 7.80226 14.9496 7.66388 14.6938L7.43008 14.8157C7.59149 15.114 7.82145 15.349 8.11819 15.5185L8.2514 15.294ZM7.66388 14.6938C7.52511 14.4373 7.45066 14.1398 7.44405 13.7981L7.17941 13.8031C7.18669 14.1796 7.26914 14.5182 7.43008 14.8157L7.66388 14.6938ZM7.44405 13.8031C7.45066 13.4614 7.52511 13.1639 7.66388 12.9073L7.43008 12.7855C7.26914 13.083 7.18669 13.4216 7.17941 13.7981L7.44405 13.8031ZM7.66388 12.9073C7.80226 12.6516 7.99741 12.4523 8.2514 12.3072L8.11819 12.0827C7.82145 12.2522 7.59149 12.4872 7.43008 12.7855L7.66388 12.9073ZM8.2514 12.3072C8.50366 12.1631 8.80066 12.0888 9.14677 12.0888V11.8291C8.76089 11.8291 8.41658 11.9122 8.11819 12.0827L8.2514 12.3072ZM9.14677 12.0888C9.49287 12.0888 9.78782 12.1631 10.0362 12.3068L10.1707 12.0831C9.87544 11.9122 9.53251 11.8291 9.14677 11.8291V12.0888ZM10.0368 12.3072C10.2904 12.452 10.4856 12.6528 10.624 12.9119L10.8585 12.7912C10.6972 12.4895 10.4672 12.2525 10.1701 12.0827L10.0368 12.3072ZM10.625 12.9136C10.767 13.1701 10.8428 13.4655 10.8494 13.8031L11.1141 13.7981C11.1067 13.4243 11.0223 13.0871 10.8576 12.7896L10.625 12.9136ZM10.8494 13.7981C10.8428 14.1357 10.767 14.4331 10.6246 14.6933L10.8579 14.8162C11.0223 14.5155 11.1067 14.1769 11.1141 13.8031L10.8494 13.7981ZM10.6244 14.6938C10.486 14.9496 10.2908 15.1489 10.0368 15.294L10.1701 15.5185C10.4668 15.349 10.6968 15.114 10.8582 14.8157L10.6244 14.6938ZM10.0362 15.2944C9.78782 15.4381 9.49287 15.5123 9.14677 15.5123V15.7721C9.53251 15.7721 9.87544 15.689 10.1707 15.5181L10.0362 15.2944ZM9.14677 15.3361C9.44602 15.3361 9.71284 15.2698 9.94234 15.1323L9.80449 14.9107C9.62271 15.0195 9.40512 15.0763 9.14677 15.0763V15.3361ZM9.94234 15.1323C10.1693 14.9965 10.3432 14.8106 10.4623 14.5768L10.2256 14.4607C10.1286 14.651 9.98886 14.8003 9.80449 14.9107L9.94234 15.1323ZM10.4623 14.5768C10.5806 14.3446 10.6384 14.0849 10.6384 13.8006H10.3737C10.3737 14.0498 10.3233 14.2688 10.2256 14.4607L10.4623 14.5768ZM10.6384 13.8006C10.6384 13.5162 10.5806 13.2566 10.4623 13.0244L10.2256 13.1405C10.3233 13.3323 10.3737 13.5514 10.3737 13.8006H10.6384ZM10.4623 13.0244C10.3432 12.7906 10.1693 12.6047 9.94234 12.4688L9.80449 12.6905C9.98886 12.8009 10.1286 12.9502 10.2256 13.1405L10.4623 13.0244ZM9.94234 12.4688C9.71284 12.3314 9.44602 12.2651 9.14677 12.2651V12.5249C9.40512 12.5249 9.62271 12.5817 9.80449 12.6905L9.94234 12.4688ZM9.14677 12.2651C8.84434 12.2651 8.5756 12.3312 8.3459 12.4688L8.48375 12.6905C8.66527 12.5819 8.88451 12.5249 9.14677 12.5249V12.2651ZM8.34504 12.4694C8.12176 12.6053 7.94997 12.7912 7.83118 13.0244L8.06789 13.1405C8.16517 12.9496 8.30361 12.8003 8.48461 12.69L8.34504 12.4694ZM7.83118 13.0244C7.71285 13.2566 7.65515 13.5162 7.65515 13.8006H7.91986C7.91986 13.5514 7.97015 13.3323 8.06789 13.1405L7.83118 13.0244ZM7.65515 13.8006C7.65515 14.0849 7.71285 14.3446 7.83118 14.5768L8.06789 14.4607C7.97015 14.2688 7.91986 14.0498 7.91986 13.8006H7.65515ZM7.83118 14.5768C7.94997 14.81 8.12176 14.9959 8.34504 15.1318L8.48461 14.9112C8.30361 14.8009 8.16517 14.6516 8.06789 14.4607L7.83118 14.5768ZM8.3459 15.1323C8.5756 15.2699 8.84434 15.3361 9.14677 15.3361V15.0763C8.88451 15.0763 8.66527 15.0193 8.48375 14.9107L8.3459 15.1323ZM12.809 15.4216L12.7446 15.5351L12.7455 15.5356L12.7464 15.5361L12.809 15.4216ZM12.1555 14.7804L12.0395 14.8429L12.04 14.8437L12.0405 14.8446L12.1555 14.7804ZM12.1555 12.8259L12.0401 12.7623L12.0399 12.7629L12.1555 12.8259ZM12.809 12.1847L12.8723 12.2988L12.8728 12.2985L12.809 12.1847ZM14.3826 12.0411L14.3444 12.1654L14.3451 12.1656L14.3826 12.0411ZM14.942 12.277L14.8769 12.3901L14.8777 12.3905L14.8786 12.3911L14.942 12.277ZM14.9995 12.6105L15.0931 12.7023L15.0952 12.7003L15.0971 12.6982L14.9995 12.6105ZM14.7538 12.6464L14.6925 12.7614L14.6935 12.762L14.6946 12.7625L14.7538 12.6464ZM14.3042 12.4668L14.3406 12.342L14.3042 12.4668ZM13.0286 12.5899L13.0953 12.7022L13.0958 12.7018L13.0286 12.5899ZM12.5529 13.0875L12.4345 13.0295L12.4341 13.0302L12.5529 13.0875ZM12.5529 14.5188L12.4338 14.5753L12.4343 14.5765L12.4349 14.5776L12.5529 14.5188ZM13.0286 15.0164L12.9605 15.1277L12.9616 15.1284L12.9628 15.129L13.0286 15.0164ZM14.3042 15.1344L14.3406 15.2592L14.3042 15.1344ZM14.7538 14.9548L14.6946 14.8386L14.6935 14.8392L14.6925 14.8398L14.7538 14.9548ZM14.9995 14.9907L15.0931 14.8989L14.9995 14.9907ZM14.942 15.3242L14.8786 15.2101L14.8777 15.2107L14.8769 15.2111L14.942 15.3242ZM14.3826 15.5601L14.3451 15.4356L14.3444 15.4358L14.3826 15.5601ZM13.7501 15.5123C13.4212 15.5123 13.1293 15.4431 12.8717 15.3072L12.7464 15.5361C13.0463 15.6942 13.3819 15.7721 13.7501 15.7721V15.5123ZM12.8734 15.3082C12.6199 15.1696 12.4194 14.9733 12.2706 14.7162L12.0405 14.8446C12.2124 15.1416 12.4475 15.3727 12.7446 15.5351L12.8734 15.3082ZM12.2716 14.7179C12.1271 14.4596 12.0526 14.1551 12.0526 13.8006H11.7879C11.7879 14.1916 11.8703 14.5403 12.0395 14.8429L12.2716 14.7179ZM12.0526 13.8006C12.0526 13.446 12.1271 13.1436 12.2712 12.889L12.0399 12.7629C11.8703 13.0623 11.7879 13.4097 11.7879 13.8006H12.0526ZM12.271 12.8894C12.4197 12.6294 12.6199 12.4336 12.8723 12.2988L12.7458 12.0706C12.4475 12.2299 12.2121 12.4616 12.0401 12.7623L12.271 12.8894ZM12.8728 12.2985C13.1303 12.1596 13.4216 12.0888 13.7501 12.0888V11.8291C13.3814 11.8291 13.0454 11.9089 12.7452 12.0709L12.8728 12.2985ZM13.7501 12.0888C13.9769 12.0888 14.1745 12.1151 14.3444 12.1654L14.4209 11.9167C14.2213 11.8576 13.9972 11.8291 13.7501 11.8291V12.0888ZM14.3451 12.1656C14.5229 12.2173 14.7002 12.2919 14.8769 12.3901L15.0072 12.164C14.8145 12.057 14.6188 11.9742 14.4202 11.9165L14.3451 12.1656ZM14.8786 12.3911C14.8988 12.4018 14.9084 12.4125 14.9138 12.4216C14.9193 12.431 14.9247 12.4461 14.9247 12.472H15.1894C15.1894 12.4089 15.1756 12.3471 15.1428 12.2914C15.1099 12.2356 15.0619 12.1933 15.0054 12.163L14.8786 12.3911ZM14.9247 12.472C14.9247 12.4879 14.92 12.5034 14.902 12.5227L15.0971 12.6982C15.1557 12.6355 15.1894 12.5586 15.1894 12.472H14.9247ZM14.906 12.5186C14.8964 12.5281 14.8816 12.537 14.8479 12.537V12.7968C14.9398 12.7968 15.026 12.7681 15.0931 12.7023L14.906 12.5186ZM14.8479 12.537C14.8312 12.537 14.8205 12.5338 14.813 12.5302L14.6946 12.7625C14.743 12.7862 14.795 12.7968 14.8479 12.7968V12.537ZM14.8151 12.5313C14.6549 12.4491 14.4967 12.3857 14.3406 12.342L14.2678 12.5917C14.4046 12.63 14.546 12.6864 14.6925 12.7614L14.8151 12.5313ZM14.3406 12.342C14.1798 12.2969 13.9981 12.2754 13.7971 12.2754V12.5351C13.9795 12.5351 14.1359 12.5547 14.2678 12.5917L14.3406 12.342ZM13.7971 12.2754C13.4788 12.2754 13.1983 12.3409 12.9613 12.4781L13.0958 12.7018C13.2841 12.5927 13.516 12.5351 13.7971 12.5351V12.2754ZM12.9619 12.4777C12.7306 12.6101 12.5541 12.7948 12.4345 13.0295L12.6713 13.1456C12.7677 12.9562 12.9084 12.8091 13.0953 12.7022L12.9619 12.4777ZM12.4341 13.0302C12.3194 13.2592 12.2637 13.5169 12.2637 13.8006H12.5284C12.5284 13.5508 12.5772 13.3332 12.6717 13.1449L12.4341 13.0302ZM12.2637 13.8006C12.2637 14.0844 12.3194 14.3435 12.4338 14.5753L12.672 14.4622C12.5772 14.27 12.5284 14.0503 12.5284 13.8006H12.2637ZM12.4349 14.5776C12.5545 14.8085 12.7306 14.9923 12.9605 15.1277L13.0967 14.905C12.9084 14.7942 12.7673 14.6463 12.6709 14.4599L12.4349 14.5776ZM12.9628 15.129C13.1994 15.2623 13.4794 15.3258 13.7971 15.3258V15.0661C13.5153 15.0661 13.283 15.0099 13.0945 14.9037L12.9628 15.129ZM13.7971 15.3258C13.9981 15.3258 14.1798 15.3043 14.3406 15.2592L14.2678 15.0095C14.1359 15.0465 13.9795 15.0661 13.7971 15.0661V15.3258ZM14.3406 15.2592C14.4967 15.2155 14.6549 15.1521 14.8151 15.0699L14.6925 14.8398C14.546 14.9148 14.4046 14.9712 14.2678 15.0095L14.3406 15.2592ZM14.813 15.071C14.8205 15.0673 14.8312 15.0642 14.8479 15.0642V14.8044C14.795 14.8044 14.743 14.8149 14.6946 14.8386L14.813 15.071ZM14.8479 15.0642C14.8816 15.0642 14.8964 15.0731 14.906 15.0825L15.0931 14.8989C15.026 14.8331 14.9398 14.8044 14.8479 14.8044V15.0642ZM14.906 15.0825C14.9187 15.0951 14.9247 15.1079 14.9247 15.1292H15.1894C15.1894 15.0412 15.157 14.9616 15.0931 14.8989L14.906 15.0825ZM14.9247 15.1292C14.9247 15.1551 14.9193 15.1702 14.9138 15.1796C14.9084 15.1886 14.8988 15.1994 14.8786 15.2101L15.0054 15.4382C15.0619 15.4079 15.1099 15.3656 15.1428 15.3098C15.1756 15.2541 15.1894 15.1923 15.1894 15.1292H14.9247ZM14.8769 15.2111C14.7002 15.3093 14.5229 15.3839 14.3451 15.4356L14.4202 15.6847C14.6188 15.627 14.8145 15.5442 15.0072 15.4372L14.8769 15.2111ZM14.3444 15.4358C14.1745 15.4861 13.9769 15.5123 13.7501 15.5123V15.7721C13.9972 15.7721 14.2213 15.7436 14.4209 15.6845L14.3444 15.4358Z" fill="white"/>
<g filter="url(#filter1_d_16_873)">
<path d="M18 8.12338H12.7059C11.9018 8.12338 11.25 7.48379 11.25 6.69481V1.5L18 8.12338Z" fill="url(#paint2_linear_16_873)"/>
</g>
</g>
</g>
<defs>
<filter id="filter0_f_16_873" x="-35.8237" y="-27.8247" width="89.7793" height="83.4546" filterUnits="userSpaceOnUse" color-interpolation-filters="sRGB">
<feFlood flood-opacity="0" result="BackgroundImageFix"/>
<feBlend mode="normal" in="SourceGraphic" in2="BackgroundImageFix" result="shape"/>
<feGaussianBlur stdDeviation="19.5" result="effect1_foregroundBlur_16_873"/>
</filter>
<filter id="filter1_d_16_873" x="-11.75" y="-22.5" width="56.75" height="56.6233" filterUnits="userSpaceOnUse" color-interpolation-filters="sRGB">
<feFlood flood-opacity="0" result="BackgroundImageFix"/>
<feColorMatrix in="SourceAlpha" type="matrix" values="0 0 0 0 0 0 0 0 0 0 0 0 0 0 0 0 0 0 127 0" result="hardAlpha"/>
<feOffset dx="2" dy="1"/>
<feGaussianBlur stdDeviation="12.5"/>
<feColorMatrix type="matrix" values="0 0 0 0 0 0 0 0 0 0 0 0 0 0 0 0 0 0 0.33 0"/>
<feBlend mode="normal" in2="BackgroundImageFix" result="effect1_dropShadow_16_873"/>
<feBlend mode="normal" in="SourceGraphic" in2="effect1_dropShadow_16_873" result="shape"/>
</filter>
<linearGradient id="paint0_linear_16_873" x1="9" y1="1.5" x2="9" y2="21.5" gradientUnits="userSpaceOnUse">
<stop stop-color="#FF7979"/>
<stop offset="1" stop-color="#E85555"/>
</linearGradient>
<linearGradient id="paint1_linear_16_873" x1="9" y1="1.5" x2="9" y2="21.5" gradientUnits="userSpaceOnUse">
<stop stop-color="#6ABDF8"/>
<stop offset="1" stop-color="#008BD6"/>
</linearGradient>
<linearGradient id="paint2_linear_16_873" x1="14.625" y1="1.5" x2="14.625" y2="8.12338" gradientUnits="userSpaceOnUse">
<stop stop-color="#31A8EF"/>
<stop offset="1" stop-color="#0079C2"/>
</linearGradient>
<clipPath id="clip0_16_873">
<rect width="18" height="20" fill="white" transform="translate(0 1.5)"/>
</clipPath>
</defs>
</svg>
