<svg width="24" height="25" viewBox="0 0 24 25" fill="none" xmlns="http://www.w3.org/2000/svg">
<g clip-path="url(#clip0_16_876)">
<path d="M12.0002 6.42855L9.17173 9.25698L10.5859 10.6712L13.4144 7.84277C14.5811 6.67604 16.4903 6.67604 17.657 7.84277C18.8237 9.00949 18.8237 10.9187 17.657 12.0854L14.8286 14.9138L16.2428 16.328L19.0712 13.4996C21.0228 11.548 21.0228 8.38017 19.0712 6.42855C17.1196 4.47694 13.9518 4.47694 12.0002 6.42855ZM13.4144 16.328L10.5859 19.1565C9.41922 20.3232 7.51003 20.3232 6.3433 19.1565C5.17658 17.9898 5.17658 16.0806 6.3433 14.9138L9.17173 12.0854L7.75752 10.6712L4.92909 13.4996C2.97747 15.4512 2.97747 18.6191 4.92909 20.5707C6.8807 22.5223 10.0485 22.5223 12.0002 20.5707L14.8286 17.7423L13.4144 16.328ZM8.46462 15.6209L14.1215 9.96409L15.5357 11.3783L9.87884 17.0352L8.46462 15.6209Z" fill="#7F92B0"/>
</g>
<defs>
<clipPath id="clip0_16_876">
<rect width="24" height="24" fill="white" transform="translate(0 0.5)"/>
</clipPath>
</defs>
</svg>
